<svg width="0" height="0" class="hidden">
  <symbol viewBox="0 0 48 48" xmlns="http://www.w3.org/2000/svg" id="discord">
    <path d="M37.8838 11.3808C35.2558 10.1777 32.4814 9.32409 29.6315 8.84192C29.2415 9.53906 28.8887 10.2563 28.5744 10.9907C25.5387 10.5333 22.4517 10.5333 19.416 10.9907C19.1016 10.2564 18.7487 9.53915 18.3589 8.84192C15.5072 9.32816 12.731 10.1838 10.1003 11.3871C4.87774 19.114 3.46198 26.649 4.16986 34.077C7.22833 36.3368 10.6516 38.0553 14.291 39.158C15.1104 38.0559 15.8356 36.8866 16.4587 35.6627C15.2752 35.2207 14.1329 34.6753 13.0451 34.033C13.3314 33.8254 13.6114 33.6114 13.882 33.4038C17.0473 34.8923 20.5021 35.6641 23.9999 35.6641C27.4978 35.6641 30.9526 34.8923 34.1179 33.4038C34.3916 33.6271 34.6716 33.8411 34.9548 34.033C33.8648 34.6764 32.7205 35.2228 31.5349 35.6658C32.1572 36.8892 32.8824 38.0575 33.7026 39.158C37.345 38.0598 40.771 36.342 43.83 34.0802C44.6606 25.4661 42.4111 18.0003 37.8838 11.3808ZM17.3553 29.5089C15.3827 29.5089 13.753 27.7187 13.753 25.5164C13.753 23.3141 15.326 21.5082 17.349 21.5082C19.372 21.5082 20.9891 23.3141 20.9545 25.5164C20.9199 27.7187 19.3657 29.5089 17.3553 29.5089ZM30.6446 29.5089C28.6688 29.5089 27.0454 27.7187 27.0454 25.5164C27.0454 23.3141 28.6184 21.5082 30.6446 21.5082C32.6707 21.5082 34.2752 23.3141 34.2406 25.5164C34.206 27.7187 32.6549 29.5089 30.6446 29.5089Z"/>
  </symbol>
  <symbol viewBox="0 0 48 48" xmlns="http://www.w3.org/2000/svg" id="email">
    <path d="M13.7193 8.52181C20.5602 7.92714 27.4398 7.92714 34.2807 8.52181L37.5766 8.80831C39.7707 8.99904 41.6498 10.3077 42.6235 12.1797C42.7481 12.4192 42.6547 12.7092 42.4252 12.8512L28.7506 21.3165C25.8178 23.132 22.1197 23.1701 19.1502 21.4154L5.38418 13.2809C5.16178 13.1495 5.05969 12.879 5.15992 12.6409C6.05067 10.5249 8.05327 9.01434 10.4234 8.80831L13.7193 8.52181Z"/>
    <path d="M5.14872 16.9441C4.80835 16.743 4.37405 16.9594 4.33438 17.3528C3.78064 22.8428 3.91466 28.3848 4.73644 33.8497C5.16967 36.7307 7.52097 38.9393 10.4234 39.1916L13.7193 39.4781C20.5602 40.0728 27.4398 40.0728 34.2807 39.4781L37.5766 39.1916C40.479 38.9393 42.8303 36.7307 43.2636 33.8497C44.1093 28.2256 44.2266 22.5198 43.6155 16.873C43.5726 16.4768 43.1309 16.2644 42.7921 16.4741L30.4736 24.0998C26.5057 26.5562 21.5025 26.6077 17.4848 24.2336L5.14872 16.9441Z"/>
  </symbol>
  <symbol xmlns="http://www.w3.org/2000/svg" viewBox="0 0 48 48" id="facebook">
    <path d="M28.9317 4C26.2433 4 23.6649 5.068 21.7638 6.96905C19.8628 8.87011 18.7948 11.4485 18.7948 14.137V19.7808H13.3701C13.0977 19.7808 12.877 20.0016 12.877 20.274V27.726C12.877 27.9984 13.0977 28.2192 13.3701 28.2192H18.7948V43.5068C18.7948 43.7792 19.0156 44 19.2879 44H26.74C27.0123 44 27.2331 43.7792 27.2331 43.5068V28.2192H32.7058C32.9321 28.2192 33.1294 28.0652 33.1843 27.8456L35.0473 20.3936C35.1251 20.0823 34.8897 19.7808 34.5688 19.7808H27.2331V14.137C27.2331 13.6865 27.4121 13.2544 27.7306 12.9359C28.0492 12.6173 28.4812 12.4384 28.9317 12.4384H34.6304C34.9027 12.4384 35.1235 12.2176 35.1235 11.9452V4.49315C35.1235 4.22079 34.9027 4 34.6304 4H28.9317Z"></path>
  </symbol>
  <symbol xmlns="http://www.w3.org/2000/svg" viewBox="0 0 48 48" id="instagram">
    <path d="M24 16.9287C20.0946 16.9287 16.9287 20.0946 16.9287 24C16.9287 27.9054 20.0946 31.0713 24 31.0713C27.9053 31.0713 31.0713 27.9054 31.0713 24C31.0713 20.0946 27.9053 16.9287 24 16.9287Z"></path>
    <path fill-rule="evenodd" clip-rule="evenodd" d="M12.6196 4.59518C20.122 3.75668 27.878 3.75668 35.3804 4.59518C39.5109 5.05683 42.8424 8.31132 43.3272 12.4563C44.2243 20.1259 44.2243 27.874 43.3272 35.5437C42.8424 39.6886 39.5109 42.9431 35.3804 43.4048C27.878 44.2433 20.122 44.2433 12.6196 43.4048C8.48912 42.9431 5.15757 39.6886 4.67278 35.5437C3.77574 27.874 3.77574 20.1259 4.67278 12.4563C5.15757 8.31132 8.48911 5.05683 12.6196 4.59518ZM34.8789 10.9453C33.6772 10.9453 32.7031 11.9194 32.7031 13.1211C32.7031 14.3227 33.6772 15.2968 34.8789 15.2968C36.0805 15.2968 37.0547 14.3227 37.0547 13.1211C37.0547 11.9194 36.0805 10.9453 34.8789 10.9453ZM13.665 24C13.665 18.2921 18.2921 13.665 24 13.665C29.7078 13.665 34.3349 18.2921 34.3349 24C34.3349 29.7078 29.7078 34.335 24 34.335C18.2921 34.335 13.665 29.7078 13.665 24Z"></path>
  </symbol>
  <symbol viewBox="0 0 48 48" xmlns="http://www.w3.org/2000/svg" id="linkedin">
    <path d="M8.93512 4C6.49646 4 4.51953 5.97692 4.51953 8.41558C4.51953 10.8542 6.49646 12.8312 8.93512 12.8312C11.3738 12.8312 13.3507 10.8542 13.3507 8.41558C13.3507 5.97692 11.3738 4 8.93512 4Z"/>
    <path d="M4.77927 16.4675C4.63582 16.4675 4.51953 16.5838 4.51953 16.7273V43.7403C4.51953 43.8837 4.63582 44 4.77927 44H13.091C13.2344 44 13.3507 43.8837 13.3507 43.7403V16.7273C13.3507 16.5838 13.2344 16.4675 13.091 16.4675H4.77927Z"/>
    <path d="M18.2858 16.4675C18.1423 16.4675 18.026 16.5838 18.026 16.7273V43.7403C18.026 43.8837 18.1423 44 18.2858 44H26.5975C26.7409 44 26.8572 43.8837 26.8572 43.7403V29.1948C26.8572 27.0727 28.6312 25.2987 30.7533 25.2987C32.8754 25.2987 34.6494 27.0727 34.6494 29.1948V43.7403C34.6494 43.8837 34.7657 44 34.9091 44H43.2208C43.3643 44 43.4806 43.8837 43.4806 43.7403V25.8291C43.4806 20.7865 39.0949 16.8415 34.0776 17.2977C31.4931 17.5326 29.2079 18.5912 26.8572 19.5987V16.7273C26.8572 16.5838 26.7409 16.4675 26.5975 16.4675H18.2858Z"/>
  </symbol>
  <symbol viewBox="0 0 48 48" xmlns="http://www.w3.org/2000/svg" id="phone">
    <path d="M8.2706 20.4532C12.3438 29.3245 19.5915 36.3778 28.6024 40.2015L30.0469 40.845C33.3515 42.3174 37.2363 41.1988 39.2519 38.1945L41.1395 35.381C41.7532 34.4663 41.5663 33.2343 40.709 32.5426L34.3075 27.3783C33.3673 26.6197 31.9846 26.7964 31.2653 27.767L29.285 30.4392C24.2035 27.9326 20.0779 23.807 17.5713 18.7255L20.2435 16.7452C21.2141 16.0259 21.3908 14.6433 20.6322 13.703L15.4677 7.30132C14.7762 6.44417 13.5445 6.2572 12.6298 6.87054L9.79693 8.77003C6.77383 10.7971 5.66141 14.7139 7.16778 18.0274L8.26894 20.4496L8.2706 20.4532Z"/>
  </symbol>
  <symbol xmlns="http://www.w3.org/2000/svg" viewBox="0 0 48 48" id="telegram">
    <path fill-rule="evenodd" clip-rule="evenodd" d="M37.9185 39.2669L37.9199 39.2635L37.955 39.1758L44 8.69832V8.59933C44 7.83996 43.7194 7.17704 43.1089 6.7794C42.5745 6.43134 41.9601 6.40655 41.5293 6.43925C41.0737 6.47383 40.6441 6.58756 40.3467 6.68222C40.1937 6.73092 40.0656 6.77785 39.974 6.81334C39.9281 6.83115 39.8908 6.84627 39.8637 6.85753L39.8371 6.86873L6.13282 20.0904L6.12354 20.0937C6.10534 20.1004 6.08127 20.1094 6.05219 20.1207C5.99423 20.1432 5.91533 20.1755 5.82264 20.2175C5.64065 20.3 5.3892 20.4273 5.1342 20.6019C4.70109 20.8985 3.87638 21.6007 4.01564 22.7139C4.13099 23.6359 4.76659 24.2215 5.19509 24.5247C5.42479 24.6872 5.64454 24.8044 5.80546 24.881C5.887 24.9199 5.95626 24.9496 6.00784 24.9706C6.0337 24.9811 6.05532 24.9896 6.07205 24.9959L6.09347 25.0039L6.10716 25.009L12.0039 26.9942C11.984 27.3641 12.0207 27.7414 12.1189 28.1136L15.0726 39.3184C15.4228 40.6469 16.6247 41.5723 17.9987 41.5713C19.2302 41.5705 20.3224 40.8254 20.7864 39.7138L25.398 34.783L33.3181 40.8551L33.4308 40.9043C34.1504 41.2183 34.8226 41.3178 35.4373 41.2338C36.0511 41.1499 36.5389 40.8926 36.9053 40.5994C37.2658 40.3109 37.513 39.9854 37.6684 39.7403C37.7473 39.6158 37.8062 39.5063 37.847 39.4239C37.8675 39.3826 37.8837 39.3475 37.8958 39.3203L37.9109 39.2852L37.9163 39.2722L37.9185 39.2669ZM15.0426 27.3428C14.9755 27.0881 15.0809 26.8193 15.3032 26.6781L35.3043 13.9766C35.3043 13.9766 36.4807 13.2624 36.4386 13.9766C36.4386 13.9766 36.6486 14.1027 36.0182 14.6908C35.4203 15.2493 21.7629 28.4349 20.381 29.7692C20.3012 29.8462 20.2536 29.9346 20.2255 30.0418L17.9964 38.5476L15.0426 27.3428Z"></path>
  </symbol>
  <symbol viewBox="0 0 48 48" xmlns="http://www.w3.org/2000/svg" id="tiktok">
    <path d="M32.2578 4H25.3901V30.5563C25.3901 33.9838 23.2319 37.2006 19.5886 37.1958C10.3982 37.1958 10.9082 23.0373 21.3722 25.8154L21.3806 18.8227C0.724615 16.9052 2.26503 44.6882 19.6978 43.9869C26.4089 43.7153 32.2578 38.2924 32.2578 31.4585V17.3698C35.2662 19.1748 38.157 20.2717 41.7439 20.4205V13.6027C36.9493 14.1228 32.2578 9.72709 32.2578 4Z"/>
  </symbol>
  <symbol xmlns="http://www.w3.org/2000/svg" viewBox="0 0 48 48" id="twitter">
    <path d="M43.9613 11.8733C44.0801 11.7077 43.9046 11.4938 43.7145 11.5675C42.3637 12.0911 40.9519 12.4444 39.5118 12.6185C41.1153 11.6606 42.3526 10.2023 43.0387 8.47591C43.1086 8.30004 42.9166 8.14298 42.7509 8.23447C41.2606 9.0575 39.6534 9.65015 37.9838 9.99147C37.9139 10.0058 37.8418 9.98196 37.7928 9.93019C36.5399 8.60814 34.8906 7.72791 33.0927 7.42373C31.2569 7.11316 29.3701 7.42066 27.7279 8.29802C26.0858 9.17538 24.7814 10.573 24.0191 12.2716C23.2944 13.8866 23.0988 15.687 23.4563 17.416C23.484 17.5502 23.379 17.6768 23.2423 17.6683C19.9938 17.4666 16.8199 16.6025 13.9161 15.1283C11.0197 13.6578 8.45476 11.6121 6.37765 9.1173C6.28547 9.00658 6.11075 9.02091 6.04358 9.14836C5.39726 10.3748 5.05886 11.7418 5.05978 13.1312C5.05716 14.5141 5.39654 15.8763 6.04772 17.0964C6.6989 18.3164 7.64167 19.3565 8.79208 20.1241C7.57206 20.0909 6.37582 19.7893 5.28792 19.2424C5.14772 19.172 4.97954 19.2723 4.98684 19.4291C5.07167 21.2526 5.74113 23.0834 6.89992 24.488C8.13305 25.9827 9.84462 27.0056 11.7451 27.3836C11.0135 27.6063 10.254 27.7237 9.48932 27.7323C9.07315 27.7274 8.65779 27.6967 8.24564 27.6403C8.09282 27.6194 7.96804 27.7646 8.02153 27.9093C8.58839 29.4422 9.5898 30.7797 10.9065 31.7561C12.3142 32.7999 14.0123 33.379 15.7645 33.4127C12.8057 35.7408 9.15277 37.0114 5.38789 37.022C5.00104 37.0233 4.61436 37.0107 4.22859 36.9844C4.0112 36.9696 3.91121 37.2593 4.0986 37.3705C7.76685 39.5474 11.9596 40.698 16.2362 40.6928C19.3936 40.7256 22.526 40.1289 25.4503 38.9375C28.3745 37.7462 31.0321 35.9841 33.2678 33.7542C35.5034 31.5242 37.2723 28.8712 38.4712 25.95C39.67 23.0288 40.2747 19.898 40.25 16.7404V15.7564C40.25 15.6917 40.2807 15.6308 40.3323 15.5918C41.7233 14.5415 42.9465 13.2876 43.9613 11.8733Z"></path>
  </symbol>
  <symbol xmlns="http://www.w3.org/2000/svg" viewBox="0 0 48 48" id="whatsapp">
    <path fill-rule="evenodd" clip-rule="evenodd" d="M4.36975 42.9784C4.20478 43.5772 4.75017 44.13 5.35114 43.973L14.641 41.5465C17.5735 43.1349 20.875 43.9787 24.2365 43.9787H24.2464C35.308 43.9787 44.3249 35.0141 44.3249 23.9944C44.3249 18.6533 42.24 13.6298 38.4499 9.85724C34.6597 6.08481 29.6225 4 24.2463 4C13.1849 4 4.16797 12.9647 4.16797 23.9845C4.16671 27.4902 5.09204 30.9345 6.85106 33.9716L4.36975 42.9784ZM17.8827 14.4241C18.2516 14.434 18.6606 14.4539 19.0497 15.3177C19.3078 15.8927 19.7425 16.9513 20.0965 17.8136C20.3721 18.4846 20.5988 19.0368 20.6556 19.1498C20.7852 19.4079 20.865 19.7057 20.6955 20.0531C20.6755 20.0941 20.6566 20.1332 20.6384 20.171C20.5024 20.4533 20.4056 20.6541 20.1769 20.9168C20.0828 21.0248 19.9848 21.1432 19.8872 21.2611C19.7155 21.4686 19.545 21.6747 19.3988 21.8203C19.1395 22.0782 18.8701 22.3564 19.1693 22.8726C19.4687 23.3888 20.516 25.0865 22.062 26.4565C23.7241 27.9363 25.1695 28.5599 25.9001 28.8751C26.0419 28.9363 26.1568 28.9859 26.2411 29.0278C26.7599 29.2859 27.069 29.2462 27.3682 28.8988C27.6676 28.5512 28.6649 27.3896 29.0141 26.8735C29.3532 26.3573 29.7023 26.4367 30.1812 26.6154C30.6598 26.794 33.2133 28.0449 33.7319 28.303C33.8344 28.354 33.9303 28.4 34.0192 28.4426C34.38 28.6157 34.6253 28.7333 34.7294 28.9087C34.859 29.127 34.859 30.1596 34.4301 31.3707C33.9914 32.5819 31.8767 33.7434 30.9191 33.8328C30.8285 33.8413 30.7383 33.8522 30.6454 33.8635C29.7679 33.9696 28.6539 34.1044 24.6852 32.5422C19.7948 30.6191 16.5666 25.8477 15.9139 24.883C15.8624 24.8068 15.8269 24.7544 15.808 24.729L15.7969 24.7142C15.5 24.3169 13.6834 21.8861 13.6834 19.3782C13.6834 16.9787 14.8654 15.7295 15.4045 15.1597C15.4387 15.1236 15.4703 15.0902 15.4988 15.0594C15.9775 14.5433 16.5362 14.4142 16.8853 14.4142C17.2345 14.4142 17.5835 14.4142 17.8827 14.4241Z"></path>
  </symbol>
  <symbol xmlns="http://www.w3.org/2000/svg" viewBox="0 0 48 48" id="youtube">
    <path fill-rule="evenodd" clip-rule="evenodd" d="M13.8626 9.77661C20.4584 9.26058 27.0845 9.26058 33.6804 9.77661L38.1111 10.1232C40.579 10.3163 42.598 12.166 43.0059 14.6076C44.0267 20.7167 44.0267 26.9528 43.0059 33.0619C42.598 35.5035 40.579 37.3531 38.1111 37.5462L33.6804 37.8929C27.0845 38.4089 20.4584 38.4089 13.8626 37.8929L9.43185 37.5462C6.96394 37.3531 4.94499 35.5035 4.53704 33.0619C3.5163 26.9528 3.5163 20.7167 4.53704 14.6076C4.94499 12.166 6.96393 10.3163 9.43185 10.1232L13.8626 9.77661ZM19.8167 28.7191V18.9503C19.8167 18.4892 20.3197 18.2044 20.7151 18.4417L28.8558 23.3261C29.2398 23.5565 29.2398 24.113 28.8558 24.3434L20.7151 29.2278C20.3197 29.465 19.8167 29.1802 19.8167 28.7191Z"></path>
  </symbol>

  <symbol xmlns="http://www.w3.org/2000/svg" viewBox="0 0 48 48" id="light">
    <path d="M34.5404 24C34.5404 29.8189 29.8232 34.5361 24.0043 34.5361C18.1853 34.5361 13.4681 29.8189 13.4681 24C13.4681 18.181 18.1853 13.4638 24.0043 13.4638C29.8232 13.4638 34.5404 18.181 34.5404 24Z"></path>
    <path d="M24.0033 4.29364L27.2726 9.95623H20.734L24.0033 4.29364Z"></path>
    <path d="M24.0022 43.7064L20.7329 38.0438H27.2715L24.0022 43.7064Z"></path>
    <path d="M43.7087 24L38.0461 27.2693V20.7307L43.7087 24Z"></path>
    <path d="M4.29688 24L9.95946 20.7307L9.95946 27.2693L4.29688 24Z" ></path>
    <path d="M37.9365 10.0655L36.2442 16.3813L31.6207 11.7578L37.9365 10.0655Z"></path>
    <path d="M10.0641 37.9345L11.7564 31.6187L16.3799 36.2422L10.0641 37.9345Z"></path>
    <path d="M37.9378 37.9346L31.622 36.2423L36.2455 31.6188L37.9378 37.9346Z"></path>
    <path d="M10.0726 10.0654L16.3884 11.7577L11.765 16.3812L10.0726 10.0654Z"></path>
  </symbol>
    <symbol xmlns="http://www.w3.org/2000/svg" viewBox="0 0 48 48" id="dark">
    <path d="M24.0391 5.96088C14.0764 5.96088 6 14.0373 6 24C6 33.9627 14.0764 42.0391 24.0391 42.0391C33.4144 42.0391 41.1182 34.8878 41.9951 25.7418C42.0359 25.3161 41.8173 24.9076 41.4404 24.7054C41.0636 24.5033 40.6023 24.5471 40.2702 24.8166C38.4458 26.297 36.1225 27.1834 33.5892 27.1834C27.7288 27.1834 22.978 22.4325 22.978 16.5721C22.978 13.0914 24.6528 10.0021 27.245 8.06544C27.5877 7.80937 27.7431 7.37252 27.6392 6.95751C27.5352 6.5425 27.1922 6.23052 26.7692 6.16628C25.8783 6.03096 24.9665 5.96088 24.0391 5.96088Z"></path>
  </symbol>
  <symbol xmlns="http://www.w3.org/2000/svg" viewBox="0 0 48 48" id="menu">
    <path d="M8 24L40 24" stroke="black" stroke-width="4.5" stroke-linecap="round"/>
    <path d="M8 35L40 35" stroke="black" stroke-width="4.5" stroke-linecap="round"/>
    <path d="M8 13L40 13" stroke="black" stroke-width="4.5" stroke-linecap="round"/>
  </symbol>
  <symbol xmlns="http://www.w3.org/2000/svg" viewBox="0 0 48 48" id="close">
    <path d="M12.6836 12.6863L35.311 35.3137" stroke="black" stroke-width="4.5" stroke-linecap="round"/>
    <path d="M35.3125 12.6863L12.6851 35.3137" stroke="black" stroke-width="4.5" stroke-linecap="round"/>
  </symbol>
</svg>
