<svg width="0" height="0" class="hidden">
  <symbol viewBox="0 0 48 48" fill="none" xmlns="http://www.w3.org/2000/svg" id="email">
    <path d="M13.7193 8.52181C20.5602 7.92714 27.4398 7.92714 34.2807 8.52181L37.5766 8.80831C39.7707 8.99904 41.6498 10.3077 42.6235 12.1797C42.7481 12.4192 42.6547 12.7092 42.4252 12.8512L28.7506 21.3165C25.8178 23.132 22.1197 23.1701 19.1502 21.4154L5.38418 13.2809C5.16178 13.1495 5.05969 12.879 5.15992 12.6409C6.05067 10.5249 8.05327 9.01434 10.4234 8.80831L13.7193 8.52181Z" fill="black"/>
    <path d="M5.14872 16.9441C4.80835 16.743 4.37405 16.9594 4.33438 17.3528C3.78064 22.8428 3.91466 28.3848 4.73644 33.8497C5.16967 36.7307 7.52097 38.9393 10.4234 39.1916L13.7193 39.4781C20.5602 40.0728 27.4398 40.0728 34.2807 39.4781L37.5766 39.1916C40.479 38.9393 42.8303 36.7307 43.2636 33.8497C44.1093 28.2256 44.2266 22.5198 43.6155 16.873C43.5726 16.4768 43.1309 16.2644 42.7921 16.4741L30.4736 24.0998C26.5057 26.5562 21.5025 26.6077 17.4848 24.2336L5.14872 16.9441Z" fill="black"/>
  </symbol>
  <symbol fill="none" xmlns="http://www.w3.org/2000/svg" viewBox="0 0 48 48" id="facebook">
    <path d="M28.4 5.75C25.9467 5.75 23.594 6.72455 21.8593 8.45926C20.1246 10.194 19.15 12.5467 19.15 15V20.15H14.2C13.9515 20.15 13.75 20.3515 13.75 20.6V27.4C13.75 27.6485 13.9515 27.85 14.2 27.85H19.15V41.8C19.15 42.0485 19.3515 42.25 19.6 42.25H26.4C26.6485 42.25 26.85 42.0485 26.85 41.8V27.85H31.8438C32.0503 27.85 32.2303 27.7095 32.2804 27.5091L33.9804 20.7091C34.0514 20.4251 33.8366 20.15 33.5438 20.15H26.85V15C26.85 14.5889 27.0133 14.1947 27.304 13.904C27.5947 13.6133 27.9889 13.45 28.4 13.45H33.6C33.8485 13.45 34.05 13.2485 34.05 13V6.2C34.05 5.95147 33.8485 5.75 33.6 5.75H28.4Z" fill="black"></path>
  </symbol>
  <symbol fill="none" xmlns="http://www.w3.org/2000/svg" viewBox="0 0 48 48" id="instagram">
    <path d="M24.0013 17.5C20.4115 17.5 17.5013 20.4101 17.5013 24C17.5013 27.5898 20.4115 30.5 24.0013 30.5C27.5912 30.5 30.5013 27.5898 30.5013 24C30.5013 20.4101 27.5912 17.5 24.0013 17.5Z" fill="black"></path>
    <path fill-rule="evenodd" clip-rule="evenodd" d="M13.5404 6.16291C20.4367 5.39215 27.5661 5.39215 34.4623 6.16291C38.2591 6.58725 41.3215 9.57881 41.7671 13.3889C42.5917 20.4389 42.5917 27.561 41.7671 34.611C41.3215 38.4211 38.2591 41.4127 34.4623 41.837C27.5661 42.6078 20.4367 42.6078 13.5404 41.837C9.74362 41.4127 6.68124 38.4211 6.23561 34.611C5.41105 27.561 5.41105 20.4389 6.23561 13.3889C6.68124 9.57881 9.74362 6.58725 13.5404 6.16291ZM34.0013 12C32.8968 12 32.0013 12.8954 32.0013 14C32.0013 15.1045 32.8968 16 34.0013 16C35.1059 16 36.0013 15.1045 36.0013 14C36.0013 12.8954 35.1059 12 34.0013 12ZM14.5013 24C14.5013 18.7533 18.7546 14.5 24.0013 14.5C29.248 14.5 33.5013 18.7533 33.5013 24C33.5013 29.2467 29.248 33.5 24.0013 33.5C18.7546 33.5 14.5013 29.2467 14.5013 24Z" fill="black"></path>
  </symbol>
  <symbol viewBox="0 0 48 48" fill="none" xmlns="http://www.w3.org/2000/svg" id="tiktok">
    <path d="M31.5354 5.75H25.2686V29.9827C25.2686 33.1102 23.2993 36.0455 19.9748 36.0412C11.5885 36.0412 12.0538 23.1215 21.6023 25.6565L21.6099 19.2757C2.76133 17.526 4.16696 42.878 20.0743 42.2381C26.1983 41.9903 31.5354 37.0418 31.5354 30.8059V17.9499C34.2805 19.597 36.9184 20.598 40.1915 20.7337V14.5125C35.8164 14.9871 31.5354 10.976 31.5354 5.75Z" fill="black"/>
  </symbol>
  <sympol viewBox="0 0 48 48" fill="none" xmlns="http://www.w3.org/2000/svg" id="linkedin">
    <path d="M8.93512 4C6.49646 4 4.51953 5.97692 4.51953 8.41558C4.51953 10.8542 6.49646 12.8312 8.93512 12.8312C11.3738 12.8312 13.3507 10.8542 13.3507 8.41558C13.3507 5.97692 11.3738 4 8.93512 4Z" fill="black"/>
    <path d="M4.77927 16.4675C4.63582 16.4675 4.51953 16.5838 4.51953 16.7273V43.7403C4.51953 43.8837 4.63582 44 4.77927 44H13.091C13.2344 44 13.3507 43.8837 13.3507 43.7403V16.7273C13.3507 16.5838 13.2344 16.4675 13.091 16.4675H4.77927Z" fill="black"/>
    <path d="M18.2858 16.4675C18.1423 16.4675 18.026 16.5838 18.026 16.7273V43.7403C18.026 43.8837 18.1423 44 18.2858 44H26.5975C26.7409 44 26.8572 43.8837 26.8572 43.7403V29.1948C26.8572 27.0727 28.6312 25.2987 30.7533 25.2987C32.8754 25.2987 34.6494 27.0727 34.6494 29.1948V43.7403C34.6494 43.8837 34.7657 44 34.9091 44H43.2208C43.3643 44 43.4806 43.8837 43.4806 43.7403V25.8291C43.4806 20.7865 39.0949 16.8415 34.0776 17.2977C31.4931 17.5326 29.2079 18.5912 26.8572 19.5987V16.7273C26.8572 16.5838 26.7409 16.4675 26.5975 16.4675H18.2858Z" fill="black"/>
  </sympol>
  <symbol viewBox="0 0 48 48" fill="none" xmlns="http://www.w3.org/2000/svg" id="phone">
    <path d="M8.69898 20.5497C12.6613 29.1796 19.7119 36.0409 28.4776 39.7606L29.8827 40.3866C33.0974 41.8189 36.8765 40.7308 38.8372 37.8082L40.6735 35.0713C41.2705 34.1815 41.0887 32.983 40.2547 32.3101L34.0274 27.2863C33.1127 26.5484 31.7677 26.7203 31.068 27.6645L29.1416 30.264C24.1983 27.8256 20.185 23.8122 17.7466 18.869L20.3461 16.9426C21.2903 16.2429 21.4622 14.8979 20.7243 13.9832L15.7003 7.75569C15.0276 6.92186 13.8294 6.73998 12.9396 7.33662L10.1838 9.18443C7.24294 11.1563 6.16079 14.9666 7.62617 18.1899L8.69737 20.5462L8.69898 20.5497Z" fill="black"/>
  </symbol>
  <symbol fill="none" xmlns="http://www.w3.org/2000/svg" viewBox="0 0 48 48" id="telegram">
    <path fill-rule="evenodd" clip-rule="evenodd" d="M36.9647 39.5801L36.966 39.5767L37.0008 39.4897L42.9984 9.25154V9.15333C42.9984 8.39992 42.72 7.74221 42.1143 7.34769C41.5841 7.00236 40.9745 6.97777 40.5471 7.01021C40.0951 7.04452 39.6688 7.15735 39.3738 7.25127C39.222 7.29959 39.0949 7.34615 39.0041 7.38136C38.9585 7.39904 38.9215 7.41403 38.8946 7.42521L38.8682 7.43632L5.42857 20.5542L5.41937 20.5575C5.40131 20.5641 5.37742 20.573 5.34858 20.5842C5.29107 20.6066 5.21279 20.6386 5.12083 20.6803C4.94027 20.7621 4.69079 20.8884 4.43779 21.0617C4.00808 21.3559 3.18986 22.0526 3.32802 23.157C3.44246 24.0719 4.07307 24.6529 4.4982 24.9537C4.7261 25.1149 4.94413 25.2312 5.10378 25.3072C5.18468 25.3457 5.2534 25.3752 5.30457 25.396C5.33023 25.4065 5.35168 25.4149 5.36828 25.4211L5.38953 25.4291L5.40311 25.4341L11.2536 27.4037C11.2338 27.7708 11.2703 28.1451 11.3676 28.5143L14.2982 39.6312C14.6456 40.9493 15.8381 41.8674 17.2012 41.8664C18.4231 41.8656 19.5067 41.1264 19.9671 40.0235L24.5425 35.1314L32.4004 41.1558L32.5122 41.2046C33.2261 41.5161 33.8931 41.6148 34.503 41.5315C35.112 41.4483 35.5959 41.193 35.9594 40.9021C36.3171 40.6159 36.5623 40.2929 36.7165 40.0498C36.7948 39.9262 36.8532 39.8176 36.8937 39.7359C36.914 39.6949 36.9301 39.6601 36.9421 39.633L36.9572 39.5982L36.9625 39.5854L36.9647 39.5801ZM14.2684 27.7496C14.2018 27.4969 14.3064 27.2302 14.5269 27.0902L34.371 14.4883C34.371 14.4883 35.5381 13.7797 35.4964 14.4883C35.4964 14.4883 35.7047 14.6135 35.0793 15.1969C34.486 15.7511 20.9359 28.8332 19.5648 30.157C19.4857 30.2334 19.4385 30.321 19.4106 30.4274L17.199 38.8664L14.2684 27.7496Z" fill="black"></path>
  </symbol>
  <symbol fill="none" xmlns="http://www.w3.org/2000/svg" viewBox="0 0 48 48" id="twitter">
    <path d="M43.6176 12.4545C43.7335 12.2929 43.5623 12.0844 43.3769 12.1562C42.0595 12.6669 40.6826 13.0114 39.2781 13.1812C40.8419 12.247 42.0487 10.8248 42.7178 9.14107C42.786 8.96955 42.5987 8.81637 42.4371 8.9056C40.9837 9.70828 39.4162 10.2863 37.7879 10.6191C37.7197 10.6331 37.6495 10.6099 37.6016 10.5594C36.3797 9.27003 34.7712 8.41156 33.0177 8.1149C31.2274 7.81201 29.3872 8.11192 27.7857 8.96758C26.1842 9.82324 24.912 11.1863 24.1686 12.8429C23.4618 14.418 23.271 16.1738 23.6197 17.8601C23.6467 17.9909 23.5443 18.1144 23.4109 18.1061C20.2428 17.9094 17.1474 17.0667 14.3154 15.6289C11.4906 14.1948 8.98913 12.1997 6.96338 9.76659C6.87348 9.65861 6.70308 9.67259 6.63758 9.79689C6.00724 10.993 5.67721 12.3262 5.6781 13.6812C5.67554 15.03 6.00654 16.3584 6.64161 17.5483C7.27669 18.7382 8.19614 19.7526 9.3181 20.5012C8.12825 20.4688 6.9616 20.1747 5.9006 19.6413C5.76386 19.5726 5.59985 19.6705 5.60696 19.8233C5.6897 21.6018 6.34261 23.3873 7.47273 24.7571C8.67537 26.2149 10.3446 27.2125 12.1981 27.5812C11.4846 27.7983 10.7439 27.9128 9.9981 27.9212C9.59222 27.9165 9.18713 27.8865 8.78517 27.8316C8.63614 27.8112 8.51444 27.9527 8.56661 28.0938C9.11945 29.5888 10.0961 30.8933 11.3803 31.8455C12.7532 32.8635 14.4093 33.4283 16.1181 33.4612C13.2325 35.7317 9.66987 36.9709 5.9981 36.9812C5.62082 36.9824 5.2437 36.9702 4.86747 36.9446C4.65545 36.9301 4.55794 37.2126 4.74069 37.3211C8.31823 39.4441 12.4073 40.5663 16.5781 40.5612C19.6575 40.5932 22.7124 40.0112 25.5643 38.8494C28.4163 37.6875 31.0081 35.969 33.1885 33.7942C35.3689 31.6194 37.094 29.032 38.2632 26.183C39.4324 23.334 40.0222 20.2807 39.9981 17.2012V16.2415C39.9981 16.1784 40.028 16.119 40.0784 16.081C41.4349 15.0567 42.6279 13.8338 43.6176 12.4545Z" fill="black"></path>
  </symbol>
  <symbol fill="none" xmlns="http://www.w3.org/2000/svg" viewBox="0 0 48 48" id="whatsapp">
    <path fill-rule="evenodd" clip-rule="evenodd" d="M4.36812 42.6629C4.20448 43.2568 4.74546 43.8051 5.34156 43.6494L14.5562 41.2425C17.4649 42.8181 20.7398 43.6551 24.074 43.6551H24.0839C35.0559 43.6551 43.9998 34.763 43.9998 23.8325C43.9998 18.5347 41.9318 13.5519 38.1723 9.80982C34.4129 6.06793 29.4165 4 24.0837 4C13.1119 4 4.16797 12.8921 4.16797 23.8227C4.16672 27.3 5.08456 30.7164 6.82934 33.729L4.36812 42.6629ZM17.7717 14.3397C18.1376 14.3495 18.5433 14.3693 18.9293 15.2261C19.1852 15.7964 19.6164 16.8464 19.9676 17.7017C20.2409 18.3673 20.4658 18.915 20.5221 19.0271C20.6507 19.2831 20.7298 19.5785 20.5617 19.9231C20.5418 19.9638 20.5231 20.0026 20.5051 20.0401C20.3701 20.3201 20.2741 20.5193 20.0473 20.7799C19.954 20.887 19.8568 21.0044 19.76 21.1214C19.5897 21.3272 19.4205 21.5316 19.2755 21.676C19.0183 21.9319 18.7511 22.2078 19.0478 22.7198C19.3448 23.2318 20.3836 24.9157 21.9171 26.2747C23.5658 27.7425 24.9994 28.361 25.7241 28.6737C25.8648 28.7344 25.9788 28.7836 26.0624 28.8252C26.577 29.0812 26.8836 29.0418 27.1804 28.6972C27.4774 28.3524 28.4666 27.2003 28.813 26.6883C29.1493 26.1763 29.4956 26.2551 29.9706 26.4323C30.4454 26.6095 32.9781 27.8502 33.4925 28.1062C33.5942 28.1569 33.6893 28.2025 33.7775 28.2448C34.1355 28.4164 34.3787 28.5331 34.4819 28.707C34.6105 28.9236 34.6105 29.9478 34.1851 31.1491C33.7499 32.3505 31.6524 33.5026 30.7026 33.5912C30.6126 33.5997 30.5232 33.6105 30.4311 33.6217C29.5606 33.727 28.4557 33.8606 24.519 32.3111C19.6683 30.4036 16.4662 25.6708 15.8188 24.7139C15.7677 24.6384 15.7326 24.5864 15.7137 24.5612L15.7028 24.5465C15.4083 24.1524 13.6064 21.7413 13.6064 19.2537C13.6064 16.8736 14.7788 15.6345 15.3136 15.0693C15.3475 15.0335 15.3788 15.0004 15.4071 14.9699C15.8819 14.4579 16.4361 14.3299 16.7823 14.3299C17.1287 14.3299 17.4749 14.3299 17.7717 14.3397Z" fill="black"></path>
  </symbol>
  <symbol fill="none" xmlns="http://www.w3.org/2000/svg" viewBox="0 0 48 48" id="youtube">
    <path fill-rule="evenodd" clip-rule="evenodd" d="M13.9761 9.78104C20.6474 9.2591 27.3493 9.2591 34.0206 9.78104L38.502 10.1316C40.9982 10.3269 43.0402 12.1977 43.4529 14.6673C44.4853 20.8463 44.4853 27.1537 43.4529 33.3327C43.0402 35.8023 40.9982 37.6731 38.502 37.8684L34.0206 38.219C27.3493 38.7409 20.6474 38.7409 13.9761 38.219L9.49466 37.8684C6.99851 37.6731 4.95646 35.8023 4.54384 33.3327C3.51143 27.1537 3.51143 20.8463 4.54384 14.6673C4.95646 12.1977 6.99851 10.3269 9.49466 10.1316L13.9761 9.78104ZM19.9983 28.9403V19.0597C19.9983 18.5933 20.5071 18.3053 20.907 18.5452L29.1408 23.4855C29.5292 23.7185 29.5292 24.2815 29.1408 24.5145L20.907 29.4548C20.5071 29.6947 19.9983 29.4067 19.9983 28.9403Z" fill="black"></path>
  </symbol>

  <symbol xmlns="http://www.w3.org/2000/svg" viewBox="0 0 48 48" id="light">
    <path d="M34.5404 24C34.5404 29.8189 29.8232 34.5361 24.0043 34.5361C18.1853 34.5361 13.4681 29.8189 13.4681 24C13.4681 18.181 18.1853 13.4638 24.0043 13.4638C29.8232 13.4638 34.5404 18.181 34.5404 24Z"></path>
    <path d="M24.0033 4.29364L27.2726 9.95623H20.734L24.0033 4.29364Z"></path>
    <path d="M24.0022 43.7064L20.7329 38.0438H27.2715L24.0022 43.7064Z"></path>
    <path d="M43.7087 24L38.0461 27.2693V20.7307L43.7087 24Z"></path>
    <path d="M4.29688 24L9.95946 20.7307L9.95946 27.2693L4.29688 24Z" ></path>
    <path d="M37.9365 10.0655L36.2442 16.3813L31.6207 11.7578L37.9365 10.0655Z"></path>
    <path d="M10.0641 37.9345L11.7564 31.6187L16.3799 36.2422L10.0641 37.9345Z"></path>
    <path d="M37.9378 37.9346L31.622 36.2423L36.2455 31.6188L37.9378 37.9346Z"></path>
    <path d="M10.0726 10.0654L16.3884 11.7577L11.765 16.3812L10.0726 10.0654Z"></path>
  </symbol>
    <symbol xmlns="http://www.w3.org/2000/svg" viewBox="0 0 48 48" id="dark">
    <path d="M24.0391 5.96088C14.0764 5.96088 6 14.0373 6 24C6 33.9627 14.0764 42.0391 24.0391 42.0391C33.4144 42.0391 41.1182 34.8878 41.9951 25.7418C42.0359 25.3161 41.8173 24.9076 41.4404 24.7054C41.0636 24.5033 40.6023 24.5471 40.2702 24.8166C38.4458 26.297 36.1225 27.1834 33.5892 27.1834C27.7288 27.1834 22.978 22.4325 22.978 16.5721C22.978 13.0914 24.6528 10.0021 27.245 8.06544C27.5877 7.80937 27.7431 7.37252 27.6392 6.95751C27.5352 6.5425 27.1922 6.23052 26.7692 6.16628C25.8783 6.03096 24.9665 5.96088 24.0391 5.96088Z"></path>
  </symbol>
  <symbol fill="none" xmlns="http://www.w3.org/2000/svg" viewBox="0 0 48 48" id="menu">
    <path d="M8 24L40 24" stroke="black" stroke-width="4.5" stroke-linecap="round"/>
    <path d="M8 35L40 35" stroke="black" stroke-width="4.5" stroke-linecap="round"/>
    <path d="M8 13L40 13" stroke="black" stroke-width="4.5" stroke-linecap="round"/>
  </symbol>
  <symbol fill="none" xmlns="http://www.w3.org/2000/svg" viewBox="0 0 48 48" id="close">
    <path d="M12.6836 12.6863L35.311 35.3137" stroke="black" stroke-width="4.5" stroke-linecap="round"/>
    <path d="M35.3125 12.6863L12.6851 35.3137" stroke="black" stroke-width="4.5" stroke-linecap="round"/>
  </symbol>
</svg>
