<svg width="0" height="0" class="hidden">
  <symbol id="gear" viewBox="0 0 24 24" fill="none" xmlns="http://www.w3.org/2000/svg" >
    <path d="M9.93623 1.13672C9.36633 1.13672 8.90438 1.58441 8.90438 2.13672V4.71825C8.18742 4.99951 7.52051 5.37556 6.9202 5.83036L4.61158 4.53864C4.11808 4.26251 3.48696 4.42639 3.20204 4.90466L1.13834 8.36877C0.853421 8.84705 1.02252 9.45868 1.51603 9.7348L3.82404 11.0262C3.72002 11.7521 3.72002 12.5213 3.82404 13.2473L1.51609 14.5386C1.02252 14.8148 0.853484 15.4264 1.1384 15.9047L3.20211 19.3688C3.48703 19.847 4.11808 20.0109 4.61165 19.7348L6.92021 18.4431C7.52052 18.8979 8.18742 19.2739 8.90438 19.5552V22.1367C8.90438 22.689 9.36633 23.1367 9.93623 23.1367L14.0636 23.1367C14.6335 23.1367 15.0955 22.689 15.0955 22.1367V19.5552C15.8125 19.274 16.4794 18.8979 17.0797 18.4431L19.3882 19.7348C19.8818 20.0109 20.5129 19.847 20.7978 19.3688L22.8615 15.9047C23.1464 15.4264 22.9774 14.8148 22.4838 14.5386L20.1759 13.2473C20.2799 12.5214 20.2799 11.7521 20.1759 11.0262L22.4839 9.7348C22.9774 9.45862 23.1465 8.84705 22.8615 8.36877L20.7978 4.90466C20.5129 4.42639 19.8818 4.26251 19.3883 4.53864L17.0797 5.83034C16.4794 5.37554 15.8125 4.99949 15.0955 4.71822V2.13672C15.0955 1.58441 14.6335 1.13672 14.0636 1.13672L9.93623 1.13672Z" stroke="#333333" stroke-width="2"/>
    <path d="M9.34137 14.7954C7.87309 13.3271 7.87309 10.9465 9.34137 9.47824C10.8097 8.00996 13.1902 8.00996 14.6585 9.47824C16.1268 10.9465 16.1268 13.3271 14.6585 14.7954C13.1902 16.2636 10.8097 16.2636 9.34137 14.7954Z" stroke="#333333" stroke-width="2"/>
  </symbol>
  <symbol id="ads" viewBox="0 0 81 81" fill="none" xmlns="http://www.w3.org/2000/svg">
    <path d="M29.6688 2.26991C30.9669 0.156128 33.9208 0.156122 35.2189 2.2699L44.1176 16.7605C44.5642 17.4878 45.2556 18.0132 46.055 18.2328L61.9811 22.6068C64.3043 23.2448 65.2171 26.1831 63.6962 28.1276L53.2697 41.4573C52.7464 42.1263 52.4823 42.9764 52.5297 43.8394L53.4739 61.0333C53.6116 63.5414 51.2219 65.3574 48.9838 64.4453L33.6412 58.1929C32.8712 57.8791 32.0165 57.8791 31.2465 58.1929L15.9038 64.4453C13.6658 65.3574 11.276 63.5414 11.4138 61.0333L12.358 43.8394C12.4054 42.9764 12.1413 42.1263 11.618 41.4573L1.19149 28.1276C-0.329439 26.1831 0.583354 23.2448 2.90654 22.6068L18.8327 18.2328C19.6321 18.0132 20.3235 17.4878 20.7701 16.7605L29.6688 2.26991Z" fill="#FFB133"/>
    <path d="M46.947 19.0549C47.6596 17.8945 49.228 17.8945 49.9406 19.0549L58.8394 33.5455C59.4786 34.5864 60.4796 35.3557 61.6577 35.6792L77.5839 40.0532C78.8111 40.3903 79.4167 42.0503 78.5147 43.2034L68.0882 56.5331C67.3369 57.4937 66.9651 58.703 67.032 59.9216L67.9762 77.1156C68.0599 78.6393 66.6641 79.5103 65.5499 79.0563L50.2073 72.8038C49.0743 72.3421 47.8133 72.3421 46.6804 72.8038L31.3378 79.0563C30.2236 79.5103 28.8278 78.6393 28.9115 77.1156L29.8557 59.9216C29.9226 58.703 29.5508 57.4937 28.7994 56.5331L18.373 43.2034C17.471 42.0503 18.0766 40.3903 19.3038 40.0532L35.23 35.6792C36.4081 35.3557 37.4091 34.5864 38.0483 33.5455L46.947 19.0549Z" stroke="#1D3CAA" stroke-width="3"/>
  </symbol>
  <symbol id="it" viewBox="0 0 81 81" fill="none" xmlns="http://www.w3.org/2000/svg">
    <path d="M59.9322 0.68457H4.9555C2.46378 0.68457 0.443848 2.7045 0.443848 5.19622V60.1729C0.443848 62.6646 2.46378 64.6846 4.9555 64.6846H59.9322C62.4239 64.6846 64.4438 62.6646 64.4438 60.1729V5.19622C64.4438 2.7045 62.4239 0.68457 59.9322 0.68457Z" fill="#FFB133"/>
    <path d="M20.9555 18.1846H75.9322C77.5955 18.1846 78.9438 19.5329 78.9438 21.1962V76.1729C78.9438 77.8362 77.5955 79.1846 75.9322 79.1846H20.9555C19.2922 79.1846 17.9438 77.8362 17.9438 76.1729V21.1962C17.9438 19.5329 19.2922 18.1846 20.9555 18.1846Z" stroke="#1D3CAA" stroke-width="3"/>
    <path d="M11.9555 8.18457H66.9322C68.5955 8.18457 69.9438 9.53293 69.9438 11.1962V66.1729C69.9438 67.8362 68.5955 69.1846 66.9322 69.1846H11.9555C10.2922 69.1846 8.94385 67.8362 8.94385 66.1729V11.1962C8.94385 9.53293 10.2922 8.18457 11.9555 8.18457Z" stroke="#1D3CAA" stroke-width="3"/>
  </symbol>
  <symbol id="3d" viewBox="0 0 82 82" fill="none" xmlns="http://www.w3.org/2000/svg">
    <path d="M60.9322 0.68457H5.9555C3.46378 0.68457 1.44385 2.7045 1.44385 5.19622V60.1729C1.44385 62.6646 3.46378 64.6846 5.9555 64.6846H60.9322C63.4239 64.6846 65.4438 62.6646 65.4438 60.1729V5.19622C65.4438 2.7045 63.4239 0.68457 60.9322 0.68457Z" fill="#FFB133"/>
    <path d="M3.55121 3.4315L18.7195 18.4189M3.44965 63.8899L18.6268 78.5786M65.6318 3.31647L79.2844 18.229M65.423 63.8899L79.3615 78.4664M21.4094 17.056H76.4446C78.6533 17.056 80.4438 18.835 80.4438 21.0295V75.711C80.4438 77.9055 78.6533 79.6846 76.4446 79.6846H21.4094C19.2007 79.6846 17.4102 77.9055 17.4102 75.711V21.0295C17.4102 18.835 19.2007 17.056 21.4094 17.056ZM6.50371 1.68457H62.3725C64.6147 1.68457 66.4323 3.49054 66.4323 5.71832V61.228C66.4323 63.4557 64.6147 65.2617 62.3725 65.2617H6.50371C4.26151 65.2617 2.44385 63.4557 2.44385 61.228V5.71832C2.44385 3.49054 4.26151 1.68457 6.50371 1.68457Z" stroke="#1D3CAA" stroke-width="3" stroke-linejoin="round"/>
  </symbol>
  <symbol id="video" viewBox="0 0 81 81" fill="none" xmlns="http://www.w3.org/2000/svg">
    <path fill-rule="evenodd" clip-rule="evenodd" d="M4.9555 0.68457H59.9322C62.4239 0.68457 64.4438 2.7045 64.4438 5.19622V60.1729C64.4438 62.6646 62.4239 64.6846 59.9322 64.6846H4.9555C2.46378 64.6846 0.443848 62.6646 0.443848 60.1729V5.19622C0.443848 2.7045 2.46378 0.68457 4.9555 0.68457ZM48.6727 36.1054C51.306 34.5851 51.306 30.7842 48.6727 29.2638L27.2919 16.9196C24.6586 15.3993 21.3669 17.2997 21.3669 20.3404L21.3669 45.0288C21.3669 48.0695 24.6586 49.97 27.2919 48.4496L48.6727 36.1054Z" fill="#FFB133"/>
    <path d="M20.9555 18.1846H75.9322C77.5955 18.1846 78.9438 19.5329 78.9438 21.1962V76.1729C78.9438 77.8362 77.5955 79.1846 75.9322 79.1846H20.9555C19.2922 79.1846 17.9438 77.8362 17.9438 76.1729V21.1962C17.9438 19.5329 19.2922 18.1846 20.9555 18.1846ZM65.4227 53.4044C69.056 51.3067 69.056 46.0624 65.4227 43.9647L44.0419 31.6205C40.4086 29.5228 35.8669 32.1449 35.8669 36.3403L35.8669 61.0287C35.8669 65.2241 40.4086 67.8463 44.0419 65.7486L65.4227 53.4044Z" stroke="#1D3CAA" stroke-width="3"/>
  </symbol>
  <symbol id="photo" viewBox="0 0 81 81" fill="none" xmlns="http://www.w3.org/2000/svg">
    <path fill-rule="evenodd" clip-rule="evenodd" d="M4.9555 0.68457H59.9322C62.4239 0.68457 64.4438 2.7045 64.4438 5.19622V60.1729C64.4438 62.6646 62.4239 64.6846 59.9322 64.6846H4.9555C2.46378 64.6846 0.443848 62.6646 0.443848 60.1729V5.19622C0.443848 2.7045 2.46378 0.68457 4.9555 0.68457ZM32.4438 47.4538C40.6007 47.4538 47.2131 40.8414 47.2131 32.6846C47.2131 24.5278 40.6007 17.9153 32.4438 17.9153C24.287 17.9153 17.6746 24.5278 17.6746 32.6846C17.6746 40.8414 24.287 47.4538 32.4438 47.4538Z" fill="#FFB133"/>
    <path d="M20.9555 18.1846H75.9322C77.5955 18.1846 78.9438 19.5329 78.9438 21.1962V76.1729C78.9438 77.8362 77.5955 79.1846 75.9322 79.1846H20.9555C19.2922 79.1846 17.9438 77.8362 17.9438 76.1729V21.1962C17.9438 19.5329 19.2922 18.1846 20.9555 18.1846ZM48.4438 64.9538C57.4291 64.9538 64.7131 57.6698 64.7131 48.6846C64.7131 39.6993 57.4291 32.4153 48.4438 32.4153C39.4586 32.4153 32.1746 39.6993 32.1746 48.6846C32.1746 57.6698 39.4586 64.9538 48.4438 64.9538Z" stroke="#1D3CAA" stroke-width="3"/>
  </symbol>
  <symbol id="chat" viewBox="0 0 81 81" fill="none" xmlns="http://www.w3.org/2000/svg">
    <path d="M4.9555 0.68457H59.9322C62.4239 0.68457 64.4438 2.7045 64.4438 5.19622V40.1729C64.4438 42.6646 62.4239 44.6846 59.9322 44.6846H24.2396L10.4403 63.103C9.69445 64.0985 8.52314 64.6846 7.27915 64.6846H4.39385C2.21232 64.6846 0.443848 62.9161 0.443848 60.7346V5.19622C0.443848 2.7045 2.46378 0.68457 4.9555 0.68457Z" fill="#FFB133"/>
    <path d="M40.2396 59.1846H39.4892L39.0392 59.7852L25.2399 78.2036C24.7773 78.8211 24.0508 79.1846 23.2792 79.1846H20.3939C19.0408 79.1846 17.9439 78.0877 17.9439 76.7346L17.9438 21.1962C17.9438 19.5329 19.2922 18.1846 20.9555 18.1846H75.9322C77.5955 18.1846 78.9438 19.5329 78.9438 21.1962V56.173C78.9438 57.8363 77.5955 59.1846 75.9322 59.1846H40.2396Z" stroke="#1D3CAA" stroke-width="3"/>
  </symbol>
  <symbol id="sound" viewBox="0 0 81 81" fill="none" xmlns="http://www.w3.org/2000/svg">
    <path fill-rule="evenodd" clip-rule="evenodd" d="M32.4438 64.6846C50.117 64.6846 64.4438 50.3577 64.4438 32.6846C64.4438 15.0115 50.117 0.68457 32.4438 0.68457C14.7707 0.68457 0.443848 15.0115 0.443848 32.6846C0.443848 50.3577 14.7707 64.6846 32.4438 64.6846ZM47.3898 34.8053C48.7106 34.0438 48.7106 32.1357 47.3898 31.3742L27.121 19.6878C25.8026 18.9277 24.1565 19.8803 24.1565 21.4034L24.1565 44.7761C24.1565 46.2992 25.8026 47.2518 27.121 46.4917L47.3898 34.8053Z" fill="#FFB133"/>
    <path d="M78.9438 48.6846C78.9438 65.5293 65.2885 79.1846 48.4438 79.1846C31.5992 79.1846 17.9438 65.5293 17.9438 48.6846C17.9438 31.8399 31.5992 18.1846 48.4438 18.1846C65.2885 18.1846 78.9438 31.8399 78.9438 48.6846ZM64.4387 51.6983C66.7582 50.3591 66.7582 47.0094 64.4387 45.6702L44.5285 34.1751C42.2077 32.8351 39.313 34.5137 39.313 37.1891L39.313 60.1794C39.313 62.8548 42.2077 64.5334 44.5285 63.1934L64.4387 51.6983Z" stroke="#1D3CAA" stroke-width="3"/>
  </symbol>
  <symbol id="drone" viewBox="0 0 82 82" fill="none" xmlns="http://www.w3.org/2000/svg">
    <path d="M7.12918 32.6846C3.05118 29.3847 0.443848 24.3391 0.443848 18.6846C0.443848 8.74344 8.50272 0.68457 18.4438 0.68457C24.0984 0.68457 29.1439 3.2919 32.4438 7.3699C35.7438 3.2919 40.7893 0.68457 46.4438 0.68457C56.385 0.68457 64.4438 8.74344 64.4438 18.6846C64.4438 24.3391 61.8365 29.3847 57.7585 32.6846C61.8365 35.9845 64.4438 41.03 64.4438 46.6846C64.4438 56.6257 56.385 64.6846 46.4438 64.6846C40.7893 64.6846 35.7438 62.0772 32.4438 57.9992C29.1439 62.0772 24.0984 64.6846 18.4438 64.6846C8.50272 64.6846 0.443848 56.6257 0.443848 46.6846C0.443848 41.03 3.05118 35.9845 7.12918 32.6846Z" fill="#FFB133"/>
    <path d="M49.8754 75.1923L48.8489 74.2289L47.8224 75.1923C44.6478 78.1719 40.3806 79.9947 35.6844 79.9947C25.8865 79.9947 17.9438 72.052 17.9438 62.2542C17.9438 57.558 19.7666 53.2908 22.7462 50.1162L23.7097 49.0896L22.7462 48.0631C19.7666 44.8885 17.9438 40.6213 17.9438 35.9251C17.9438 26.1273 25.8865 18.1846 35.6844 18.1846C40.3806 18.1846 44.6478 20.0074 47.8224 22.9869L48.8489 23.9504L49.8754 22.9869C53.0501 20.0074 57.3173 18.1846 62.0135 18.1846C71.8113 18.1846 79.754 26.1273 79.754 35.9251C79.754 40.6213 77.9312 44.8885 74.9516 48.0631L73.9882 49.0896L74.9516 50.1162C77.9312 53.2908 79.754 57.558 79.754 62.2542C79.754 72.052 71.8113 79.9947 62.0135 79.9947C57.3173 79.9947 53.0501 78.1719 49.8754 75.1923ZM33.5413 42.8958C39.0925 42.8958 43.5926 38.3957 43.5926 32.8445C43.5926 27.2933 39.0925 22.7931 33.5413 22.7931C27.9901 22.7931 23.49 27.2933 23.49 32.8445C23.49 38.3957 27.9901 42.8958 33.5413 42.8958ZM64.1565 55.2835C58.6053 55.2835 54.1052 59.7836 54.1052 65.3348C54.1052 70.886 58.6053 75.3861 64.1565 75.3861C69.7077 75.3861 74.2079 70.886 74.2079 65.3348C74.2079 59.7836 69.7077 55.2835 64.1565 55.2835ZM55.0429 33.782C55.0429 39.3332 59.543 43.8334 65.0942 43.8334C70.6454 43.8334 75.1455 39.3332 75.1455 33.782C75.1455 28.2308 70.6454 23.7307 65.0942 23.7307C59.543 23.7307 55.0429 28.2308 55.0429 33.782ZM42.655 64.3973C42.655 58.846 38.1548 54.3459 32.6036 54.3459C27.0524 54.3459 22.5523 58.846 22.5523 64.3973C22.5523 69.9484 27.0524 74.4486 32.6036 74.4486C38.1548 74.4486 42.655 69.9484 42.655 64.3973Z" stroke="#1D3CAA" stroke-width="3"/>
  </symbol>
</svg>
