<svg width="0" height="0" class="hidden">
  <symbol fill="none" xmlns="http://www.w3.org/2000/svg" viewBox="0 0 24 24" id="gear">
    <path d="M9.93623 1.13672C9.36633 1.13672 8.90438 1.58441 8.90438 2.13672V4.71825C8.18742 4.99951 7.52051 5.37556 6.9202 5.83036L4.61158 4.53864C4.11808 4.26251 3.48696 4.42639 3.20204 4.90466L1.13834 8.36877C0.853421 8.84705 1.02252 9.45868 1.51603 9.7348L3.82404 11.0262C3.72002 11.7521 3.72002 12.5213 3.82404 13.2473L1.51609 14.5386C1.02252 14.8148 0.853484 15.4264 1.1384 15.9047L3.20211 19.3688C3.48703 19.847 4.11808 20.0109 4.61165 19.7348L6.92021 18.4431C7.52052 18.8979 8.18742 19.2739 8.90438 19.5552V22.1367C8.90438 22.689 9.36633 23.1367 9.93623 23.1367L14.0636 23.1367C14.6335 23.1367 15.0955 22.689 15.0955 22.1367V19.5552C15.8125 19.274 16.4794 18.8979 17.0797 18.4431L19.3882 19.7348C19.8818 20.0109 20.5129 19.847 20.7978 19.3688L22.8615 15.9047C23.1464 15.4264 22.9774 14.8148 22.4838 14.5386L20.1759 13.2473C20.2799 12.5214 20.2799 11.7521 20.1759 11.0262L22.4839 9.7348C22.9774 9.45862 23.1465 8.84705 22.8615 8.36877L20.7978 4.90466C20.5129 4.42639 19.8818 4.26251 19.3883 4.53864L17.0797 5.83034C16.4794 5.37554 15.8125 4.99949 15.0955 4.71822V2.13672C15.0955 1.58441 14.6335 1.13672 14.0636 1.13672L9.93623 1.13672Z" stroke="#333333" stroke-width="2"/>
    <path d="M9.34137 14.7954C7.87309 13.3271 7.87309 10.9465 9.34137 9.47824C10.8097 8.00996 13.1902 8.00996 14.6585 9.47824C16.1268 10.9465 16.1268 13.3271 14.6585 14.7954C13.1902 16.2636 10.8097 16.2636 9.34137 14.7954Z" stroke="#333333" stroke-width="2"/>
  </symbol>
</svg>
