<svg width="235" height="197" viewBox="0 0 235 197" fill="none" xmlns="http://www.w3.org/2000/svg">
<g clip-path="url(#clip0_689_2625)">
<mask id="mask0_689_2625" style="mask-type:luminance" maskUnits="userSpaceOnUse" x="16" y="0" width="185" height="168">
<path d="M16.957 0.153564H200.957V167.149H16.957V0.153564Z" fill="white"/>
</mask>
<g mask="url(#mask0_689_2625)">
<path d="M90.937 2.05258C78.2952 0.658644 65.8309 10.7395 61.1726 15.9566L64.4065 10.7294C57.3456 6.54753 52.449 7.69905 50.8827 8.79501C46.3917 11.2496 46.1079 21.3354 46.5286 26.0677L43.5481 28.3405C35.0222 35.3405 36.9383 46.1081 38.9608 50.6132C36.5176 52.694 31.5552 57.093 31.2814 57.997C31.0077 58.9061 30.0953 67.3152 29.6746 71.4061C27.201 80.8607 32.0823 86.4819 34.8347 88.1132C31.1648 87.5677 28.5696 91.0677 27.7282 92.8859C21.311 95.3405 20.8497 99.7445 21.4225 101.638C15.4615 107.184 20.0083 114.78 23.0293 117.891L21.4225 122.209C19.8663 130.118 29.7912 137.704 34.9462 140.507C39.5336 147.144 47.5576 148.654 50.9943 148.573C49.1239 146.719 46.5945 144.118 51.4505 148.573C57.528 154.144 62.7541 152.83 68.0307 152.83C72.2531 152.83 75.6493 149.992 76.8202 148.573C77.7224 150.26 80.637 153.477 85.0723 152.83C90.6176 152.027 91.2918 154.84 94.1354 154.84C96.9791 154.84 100.086 158.462 105.768 158.462H111.045L116.591 154.84C115.871 155.689 115.48 156.881 119.703 154.84C123.925 152.8 126.475 152.159 127.225 152.093C138.777 153.184 146.71 150.199 149.234 148.568C167.345 148.568 166.544 140.159 169.18 140.159C171.816 140.159 170.098 138.906 175.714 140.159C180.205 141.159 183.773 137.391 185 135.386C184.731 137.169 184.589 140.613 186.146 140.159C187.899 139.649 188.913 133.699 188.928 132.522C189.253 133.391 191.214 136.739 192.907 136.638C194.464 136.548 194.398 132.583 194.17 130.613C194.55 132.204 195.685 134.775 197.15 132.315C198.615 129.861 195.776 125.31 194.17 123.335C195.812 123.755 199.168 123.835 199.441 120.835C199.715 117.835 195.199 116.098 192.907 115.608C195.934 115.154 196.233 113.371 196.005 112.537C193.805 108.174 188.518 108.143 186.146 108.674C187.798 102.583 182.937 95.7546 180.301 93.1031C182.962 85.5576 176.9 80.6384 173.534 79.1233C173.879 75.0324 168.263 70.0324 165.054 67.391C162.819 65.5526 161.055 66.4819 160.208 67.4415C160.218 67.4263 160.234 67.4061 160.244 67.391C166.985 58.093 157.775 49.9314 152.23 46.9768C152.711 47.189 153.538 45.7445 153.031 38.2748C152.519 30.8051 141.433 26.093 135.954 24.6687C136.749 14.5425 132.441 6.47178 127.975 5.6839C124.402 5.05258 116.271 8.05763 112.652 9.63844C110.685 7.68895 103.589 3.43642 90.9471 2.04248L90.937 2.05258Z" fill="#FCF4F0"/>
<path d="M178.39 142.775C180.397 142.527 182.1 141.805 183.474 140.618C183.464 141.148 183.58 141.553 183.839 141.856C184.052 142.103 184.467 142.376 185.207 142.305C185.75 142.244 186.312 142.007 186.89 141.588C188.33 140.532 189.359 139.148 189.967 137.462C190.134 137.724 190.327 137.946 190.54 138.118C191.265 138.684 191.969 138.911 192.638 138.775C193.368 138.633 194.017 138.073 194.565 137.118C195.051 136.28 195.365 135.351 195.502 134.351C196.05 134.497 196.572 134.497 197.074 134.371C197.646 134.224 198.163 133.851 198.61 133.275C199.441 132.204 199.77 130.921 199.593 129.457C199.39 127.81 198.746 126.411 197.662 125.275C197.738 125.26 197.809 125.244 197.875 125.224C200.379 124.401 200.931 122.699 200.956 121.411C200.977 120.123 200.515 118.861 199.578 117.669C198.878 116.765 198.011 116.002 197.013 115.406C197.581 114.75 197.844 114.012 197.788 113.219C197.738 112.542 197.398 111.825 196.744 111.027C194.281 107.997 190.956 106.694 186.875 107.143C186.85 101.669 185.192 96.9465 181.923 93.0929C183.499 88.3404 182.607 84.2748 179.272 81.0172C178.8 80.5576 178.121 80.0576 177.204 79.4818C176.595 79.0929 175.972 78.694 175.369 78.2798C173.701 71.6788 169.752 67.1131 163.619 64.6889C164.567 61.4313 164.476 58.2647 163.33 55.2697C162.656 53.5071 161.602 51.8707 160.182 50.401C158.839 49.0121 157.283 47.8404 155.56 46.9111C155.23 46.7344 154.875 46.6182 154.495 46.5778C154.789 46.0374 154.982 45.4869 155.053 44.9414C155.58 41.3303 155.022 38.0273 153.38 35.1182C152.108 32.8657 150.278 30.7445 147.956 28.8152C144.798 26.194 141.159 24.6535 137.129 24.2293C137.16 23.1535 137.149 21.5626 137.073 19.4919C136.942 15.7293 136.151 12.3505 134.721 9.44143C133.784 7.53234 132.674 6.14345 131.417 5.32022C129.906 4.32527 128.096 3.88082 126.023 3.99699C124.244 4.09295 123.149 4.20406 122.673 4.32022C119.343 5.14345 116.104 6.32527 113.057 7.84042C112.986 7.87072 112.905 7.86567 112.844 7.82022C108.262 4.21416 103.041 1.88082 97.3335 0.880825C90.1762 -0.371701 83.4549 0.00203674 77.3469 1.98183C72.7393 3.47678 68.5575 5.82022 64.9231 8.94143C64.8116 9.03739 64.6595 9.05759 64.5278 8.99699C61.9325 7.79497 59.246 6.85052 56.5443 6.18385L56.2756 7.35052C58.9064 8.00204 61.5219 8.92628 64.0513 10.0929C64.5987 10.3455 65.2222 10.2546 65.6784 9.86062C69.1911 6.84042 73.2361 4.57779 77.7068 3.1283C83.6374 1.20406 90.1762 0.845471 97.1409 2.06264C102.656 3.03234 107.704 5.29497 112.13 8.77981C112.54 9.10305 113.103 9.15355 113.564 8.92628C116.534 7.45658 119.687 6.29497 122.941 5.48689C123.22 5.41618 123.986 5.31517 126.079 5.19901C127.904 5.098 129.48 5.47678 130.778 6.33032C131.858 7.03739 132.826 8.26466 133.672 9.98183C135.026 12.7293 135.771 15.9414 135.897 19.5374C135.973 21.795 135.994 23.4616 135.933 24.502C135.923 24.9515 136.242 25.3404 136.668 25.3909C140.611 25.7394 144.15 27.2041 147.201 29.7445C149.416 31.5828 151.145 33.5879 152.346 35.7192C153.846 38.3808 154.363 41.4263 153.882 44.7647C153.796 45.3758 153.507 46.0172 153.035 46.6536C152.757 47.0475 152.883 47.3505 152.949 47.4717C153.02 47.5879 153.228 47.8455 153.674 47.7798C154.191 47.7142 154.622 47.7798 155.002 47.9818C156.619 48.8505 158.079 49.9566 159.336 51.2546C160.639 52.603 161.612 54.1081 162.22 55.7192C163.3 58.5424 163.35 61.5525 162.387 64.6586C162.256 65.0929 162.484 65.5475 162.889 65.7091C168.82 67.9667 172.626 72.2899 174.208 78.5727C174.279 78.8556 174.446 79.1131 174.695 79.2899C175.323 79.7243 175.952 80.1333 176.58 80.5273C177.417 81.0424 178.045 81.5071 178.446 81.901C181.487 84.8758 182.242 88.4414 180.767 92.8152C180.656 93.1586 180.721 93.5424 180.955 93.8101C184.163 97.5525 185.75 102.179 185.689 107.558C185.684 107.79 185.785 108.027 185.958 108.189C186.14 108.356 186.378 108.426 186.611 108.396C190.515 107.861 193.525 108.982 195.837 111.815C196.313 112.396 196.577 112.916 196.602 113.32C196.638 113.886 196.389 114.406 195.842 114.911C195.649 115.093 195.553 115.356 195.583 115.613C195.614 115.871 195.771 116.103 196.004 116.224C197.053 116.785 197.94 117.527 198.645 118.431C199.41 119.416 199.785 120.386 199.765 121.401C199.74 122.734 199.03 123.593 197.515 124.083C197.439 124.108 197.337 124.108 197.231 124.098C196.82 124.027 196.055 123.896 195.801 124.472C195.563 125.027 196.085 125.467 196.288 125.628C197.525 126.669 198.224 127.972 198.427 129.613C198.564 130.76 198.321 131.714 197.687 132.537C197.403 132.906 197.094 133.138 196.78 133.219C196.394 133.32 195.994 133.29 195.543 133.123C195.284 133.027 195.011 133.068 194.783 133.214C194.554 133.361 194.407 133.603 194.387 133.881C194.291 134.851 194.017 135.739 193.556 136.532C193.186 137.179 192.801 137.537 192.415 137.618C192.091 137.684 191.69 137.542 191.255 137.184C191.103 137.063 190.961 136.876 190.844 136.628C190.707 136.345 190.565 136.053 190.433 135.765C190.226 135.32 189.886 135.315 189.749 135.325C189.612 135.345 189.283 135.436 189.181 135.916C188.761 137.931 187.793 139.472 186.216 140.623C185.806 140.921 185.425 141.093 185.091 141.128C184.863 141.154 184.746 141.113 184.716 141.078C184.655 141.007 184.589 140.724 184.721 140.108C184.782 139.82 184.934 139.133 184.417 138.845C183.9 138.558 183.418 139.053 183.21 139.265C181.938 140.573 180.265 141.361 178.248 141.608L178.385 142.8V142.785H178.415L178.39 142.775Z" fill="#4D6E75"/>
<path d="M35.4461 144.548L36.3788 143.81C35.3549 142.441 34.5134 140.941 33.8747 139.346C33.7227 138.992 33.4084 138.765 33.0434 138.739C30.0579 138.532 27.4525 137.346 25.3185 135.204C23.5748 133.467 22.262 131.457 21.4053 129.209C20.7514 127.502 20.4473 125.83 20.5183 124.229C20.5943 122.487 21.0404 120.805 21.8463 119.209C22.0643 118.775 22.0136 118.255 21.7247 117.876C19.3727 114.805 18.1612 111.436 18.1207 107.856C18.1004 105.876 18.5718 103.851 19.5298 101.846C19.8796 101.098 20.2598 100.118 20.6501 98.9314C21.0252 97.8001 21.4256 96.9465 21.8463 96.3657C23.1439 94.598 24.8572 93.29 26.9507 92.4869C27.2447 92.3758 27.4778 92.1384 27.5995 91.8405C28.2584 90.1233 29.3584 88.9112 30.9754 88.1384C31.244 88.0172 31.4417 87.7496 31.4924 87.4415C31.5431 87.1334 31.4366 86.8152 31.2085 86.6031C30.5749 86.0172 30.0579 85.3657 29.6879 84.6738C26.829 79.4112 26.9101 74.3657 29.9312 69.2647C30.0883 68.9869 30.1339 68.6536 30.0427 68.3506C29.3381 65.8809 29.181 63.598 29.5662 61.5627C30.4887 56.7445 33.1955 53.0728 37.6156 50.6586C38.0109 50.4415 38.1681 49.9314 37.9603 49.5223C35.512 44.5576 35.3447 39.6283 37.4686 34.8809C38.1681 33.3152 39.1362 31.8102 40.3274 30.4061C41.5287 29.0021 42.8619 27.7849 44.2862 26.8001C45.229 26.1485 45.67 25.2243 45.5686 24.1334C45.5332 23.6687 45.5078 23.4162 45.4977 23.3657C45.4216 19.2041 46.0147 15.3354 47.2566 11.891C48.0118 9.8051 49.4717 8.38086 51.707 7.53238L51.2965 6.40106C48.7569 7.37076 47.0285 9.07783 46.1516 11.4718C44.8489 15.0576 44.2355 19.0778 44.3217 23.4112C44.3217 23.4364 44.3217 23.4415 44.3927 24.2344C44.4535 24.8859 44.2102 25.3809 43.6171 25.79C42.1066 26.8354 40.6924 28.1132 39.4252 29.598C38.1529 31.0879 37.129 32.694 36.3838 34.3657C34.1535 39.3657 34.2701 44.5425 36.7488 49.7495C32.1817 52.3354 29.3736 56.2243 28.4004 61.3102C27.9746 63.5374 28.1419 66.0122 28.9022 68.6637C25.6936 74.0526 25.6074 79.6384 28.6437 85.2445C29.0289 85.9465 29.5257 86.6031 30.1238 87.2041C28.4409 88.1132 27.2244 89.5021 26.5097 91.3455C24.2084 92.2294 22.3228 93.6687 20.9035 95.6182C20.4017 96.3102 19.9455 97.2546 19.5298 98.5223C19.1547 99.6586 18.7949 100.593 18.4654 101.295C17.4364 103.467 16.9194 105.674 16.9447 107.84C16.9751 111.684 18.2778 115.3 20.7971 118.588C19.91 120.361 19.4183 122.219 19.3372 124.133C19.2612 125.896 19.5907 127.734 20.3003 129.603C21.2178 132.007 22.6269 134.164 24.4872 136.022C26.7986 138.33 29.6068 139.633 32.8255 139.886C33.4946 141.522 34.3664 143.078 35.436 144.497V144.542L35.4461 144.548Z" fill="#4D6E75"/>
<path d="M51.6588 7.57783C53.1845 7.19904 54.7508 7.11823 56.3222 7.34551L56.4844 6.15359C54.766 5.90106 53.0527 5.99197 51.38 6.40611L51.6588 7.57278V7.57783Z" fill="#567E87"/>
<path d="M38.5819 147.527L39.3828 146.649L36.3162 143.739L35.5153 144.623L38.5819 147.527Z" fill="#426B72"/>
<path d="M110.199 160.548C111.471 160.548 112.809 160.33 114.193 159.901C115.637 159.452 116.854 158.618 117.802 157.426C117.924 157.27 118.116 157.189 118.309 157.199C119.743 157.3 121.036 156.876 122.151 155.916C123.068 155.123 123.986 154.366 124.878 153.679C124.984 153.588 125.137 153.578 125.268 153.633C127.848 154.755 130.55 155.335 133.313 155.356C138.681 155.406 143.653 153.77 148.078 150.542C149.416 151.224 150.689 151.573 151.865 151.588H152.143C157.263 151.588 161.82 149.866 165.688 146.472L164.927 145.558C161.207 148.82 156.812 150.447 151.88 150.381C150.856 150.366 149.726 150.048 148.514 149.411C148.2 149.234 147.805 149.265 147.5 149.482C143.298 152.573 138.584 154.138 133.48 154.138H133.328C130.733 154.123 128.178 153.578 125.74 152.512C125.218 152.285 124.62 152.366 124.189 152.704C123.281 153.406 122.349 154.174 121.416 154.982C120.529 155.744 119.551 156.073 118.415 155.987C117.842 155.947 117.285 156.189 116.915 156.643C116.109 157.649 115.085 158.361 113.874 158.734C111.476 159.482 109.271 159.522 107.319 158.871C106.691 158.659 106.047 158.638 105.408 158.8C102.742 159.482 100.639 158.886 98.9761 156.962C98.7226 156.664 98.3678 156.472 97.9775 156.426C95.7878 156.154 94.0441 155.386 92.7921 154.123C92.5538 153.876 92.199 153.77 91.8594 153.851C86.9679 155.012 82.259 154.007 77.8744 150.871C77.5348 150.633 77.0988 150.643 76.7795 150.901C74.5239 152.76 71.5282 153.598 67.8938 153.396C67.5542 153.376 67.2196 153.411 66.8952 153.487C61.4056 154.775 56.2151 153.502 51.4453 149.709C51.1057 149.436 50.685 149.31 50.2642 149.34C46.1787 149.618 42.4886 148.689 39.3104 146.578L38.6768 147.583C42.073 149.84 45.9963 150.835 50.3453 150.537C50.4822 150.522 50.6241 150.568 50.7357 150.659C55.7893 154.684 61.3245 156.027 67.1639 154.659C67.3818 154.608 67.6099 154.588 67.8431 154.598C71.6954 154.805 74.899 153.926 77.3675 151.967C81.97 155.204 86.9071 156.239 92.0419 155.042C93.4814 156.457 95.438 157.32 97.8457 157.618C97.9471 157.633 98.0333 157.674 98.0992 157.755C100.056 160.017 102.616 160.76 105.692 159.967C106.118 159.856 106.534 159.871 106.949 160.012C107.989 160.361 109.073 160.532 110.219 160.532H110.199V160.548Z" fill="#316069"/>
<path d="M165.691 146.447C167.08 145.098 168.256 143.553 169.193 141.845L173.512 141.744C173.583 141.739 173.624 141.76 173.634 141.76C175.078 142.699 176.685 143.042 178.398 142.775L178.221 141.583C176.766 141.81 175.474 141.522 174.247 140.729C174.034 140.588 173.776 140.527 173.471 140.527L169.057 140.628C168.692 140.643 168.372 140.835 168.215 141.133C167.328 142.765 166.203 144.255 164.87 145.553L165.676 146.421V146.436L165.691 146.452V146.447Z" fill="#426B72"/>
<path d="M152.219 23.8506L153.03 23.4516L152.929 22.492C152.493 22.5425 152.295 22.7698 152.194 22.9516C152.097 23.1334 152.026 23.4364 152.219 23.8506ZM153.268 23.3354H153.273C153.273 23.3354 153.263 23.3102 153.263 23.3051V23.3354H153.268Z" fill="#BDEBF2"/>
<path d="M131.846 37.2748C133.889 31.896 134.888 26.2293 134.817 20.4566L133.646 20.4718C133.717 26.098 132.749 31.598 130.762 36.8455L131.857 37.2849H131.851L131.846 37.2748Z" fill="#708087"/>
<path d="M131.376 37.6586C132.634 37.6586 133.597 37.0374 134.159 35.8708C134.691 34.7597 135.178 33.6132 135.594 32.4566L134.494 32.0425C134.093 33.1586 133.627 34.2698 133.11 35.3405C132.735 36.1233 132.177 36.4768 131.311 36.4566L131.285 37.6586H131.382H131.376Z" fill="#858282"/>
<path d="M150.954 48.6435L151.826 47.8354C151.679 47.6687 151.283 47.2243 152.16 46.0627C152.546 45.5475 152.794 44.9667 152.911 44.3354C153.407 41.6283 152.799 38.8506 151.096 36.098C147.745 30.6788 142.91 27.4263 136.721 26.4364C136.295 26.3607 135.874 26.6435 135.763 27.0829L134.49 32.1031L135.621 32.4061L136.822 27.6738C142.529 28.6687 146.99 31.7192 150.097 36.7445C151.638 39.2344 152.191 41.7192 151.75 44.1182C151.669 44.5778 151.491 44.9768 151.223 45.3455C150.016 46.9667 150.407 48.0374 150.954 48.6536V48.6435Z" fill="#858C90"/>
<path d="M157.618 52.9667L158.465 52.1334C157.213 50.7899 155.743 49.7344 154.09 48.9768C153.264 48.6031 152.453 48.1788 151.678 47.7142L151.085 48.7546C151.901 49.2445 152.752 49.6839 153.614 50.0778C155.13 50.7697 156.483 51.7344 157.618 52.9566V52.9717V52.9667Z" fill="#858282"/>
<path d="M159.53 70.9112L160.361 70.0576L158.922 68.5728C160.361 67.0122 161.294 65.2192 161.684 63.2445C162.556 58.9213 161.476 55.1788 158.465 52.1182L157.644 52.9768C160.392 55.7697 161.34 59.0526 160.544 63.0071C160.179 64.8303 159.292 66.492 157.923 67.9213C157.756 68.0879 157.665 68.3202 157.665 68.5728C157.665 68.8354 157.776 69.1031 157.969 69.2899L159.54 70.9112H159.53Z" fill="#708085"/>
<path d="M150.261 85.9364C154.098 85.9364 157.337 84.3859 159.892 81.3253L159.005 80.5425C156.445 83.598 153.297 84.9617 149.374 84.7091C149.141 84.694 149.014 84.6586 148.953 84.6334C148.928 84.6182 148.908 84.6132 148.898 84.6081C148.948 84.4011 149.055 84.3253 149.308 84.3001C153.368 83.8506 156.506 82.2546 158.625 79.5728C160.227 77.5324 161.058 75.2647 161.093 72.8051C161.104 72.0374 160.891 71.1788 160.47 70.2596L159.405 70.7697C159.75 71.5223 159.928 72.2091 159.912 72.79C159.882 74.9718 159.137 76.997 157.707 78.8202C155.781 81.2546 152.917 82.699 149.176 83.1081C148.36 83.199 147.823 83.7344 147.712 84.5728C147.681 84.8101 147.691 85.391 148.487 85.7445C148.715 85.8455 148.979 85.9061 149.303 85.9263C149.623 85.9465 149.952 85.9566 150.266 85.9566V85.9364H150.261Z" fill="#647B80"/>
<path d="M159.923 81.2849L161.195 79.5021L160.253 78.7849L158.98 80.5728L159.923 81.2798V81.2849Z" fill="#7B8083"/>
<path d="M161.255 79.396L162.543 76.5122L161.479 76.0071L160.191 78.8909L161.255 79.396Z" fill="#837E80"/>
<path d="M180.006 117.492C182.378 115.275 183.833 112.608 184.355 109.583C184.766 107.169 184.695 104.654 184.137 102.098C183.579 99.5172 182.409 97.194 180.66 95.194C180.087 94.5374 179.671 93.9162 179.428 93.3607C181.157 89.6687 180.7 86.2849 178.059 83.29C176.853 81.9162 175.165 80.7293 173.041 79.7546C173.067 78.5374 172.854 77.3556 172.392 76.2596C170.872 72.6081 168.368 69.8203 164.946 67.9617C163.983 67.4415 162.848 67.093 161.55 66.9213C161.114 66.8708 160.901 67.0829 160.815 67.2091C160.729 67.3405 160.602 67.6132 160.795 68.0071C162.027 70.6081 162.25 73.3203 161.444 76.0778L162.569 76.4263C163.38 73.6435 163.253 70.896 162.184 68.2445C163.02 68.4162 163.76 68.6788 164.404 69.0273C167.572 70.7495 169.904 73.3405 171.318 76.7344C171.713 77.6839 171.901 78.7041 171.87 79.7647C171.86 80.2293 172.124 80.6485 172.524 80.8354C174.516 81.7445 176.083 82.8405 177.183 84.093C179.509 86.7293 179.894 89.598 178.359 92.8506C178.212 93.1384 178.206 93.4869 178.328 93.7849C178.622 94.4768 179.109 95.2091 179.783 95.9869C181.4 97.8304 182.48 99.9718 182.991 102.356C183.514 104.755 183.585 107.118 183.194 109.366C182.723 112.133 181.385 114.563 179.21 116.598L180.001 117.487V117.472L180.006 117.492Z" fill="#858C8E"/>
<path d="M178.934 118.765C179.197 118.28 179.542 117.861 179.973 117.517L179.248 116.568C178.695 117.012 178.239 117.548 177.905 118.174L178.928 118.755H178.934V118.765Z" fill="#707E83"/>
<path d="M178.087 119.042L179.07 118.376L178.913 118.138L177.93 118.805L178.087 119.042Z" fill="#627980"/>
<path d="M179.637 119.714C180.266 119.714 180.889 119.406 181.472 118.8C183.383 116.805 184.666 115.265 185.391 114.078L184.402 113.431C183.728 114.522 182.466 116.042 180.636 117.947C179.876 118.739 179.364 118.548 178.933 118.219L178.244 119.189C178.705 119.537 179.176 119.704 179.648 119.704V119.719L179.637 119.714Z" fill="#7E8082"/>
<path d="M190.706 115.987C191.994 115.224 193.373 114.689 194.787 114.386C195.101 114.315 195.344 114.098 195.451 113.785C195.557 113.477 195.501 113.149 195.304 112.886C192.992 109.901 189.992 108.719 186.393 109.381C186.033 109.452 185.744 109.699 185.627 110.037L184.34 113.548L185.435 113.967L186.692 110.548C189.693 110.017 192.131 110.921 194.118 113.3C192.734 113.633 191.391 114.189 190.118 114.936L190.701 115.982L190.706 115.987Z" fill="#858C8E"/>
<path d="M195.544 128.532L196.537 127.896L193.506 122.931C194.936 122.962 196.279 122.871 197.516 122.674C198.2 122.563 198.646 122.28 198.849 121.835C199.052 121.391 198.971 120.851 198.595 120.234C197.886 119.053 196.923 118.113 195.726 117.447C194.074 116.522 192.361 115.674 190.632 114.916L190.171 116.027C191.869 116.77 193.547 117.608 195.164 118.512C196.178 119.078 196.994 119.876 197.592 120.871C197.784 121.199 197.774 121.34 197.774 121.351C197.774 121.351 197.678 121.447 197.328 121.497C195.939 121.724 194.409 121.795 192.776 121.714C192.315 121.694 192.122 121.931 192.041 122.068C191.96 122.209 191.859 122.512 192.097 122.906L195.539 128.537L195.544 128.532Z" fill="#7E8082"/>
<path d="M196.128 131.972C196.229 131.972 196.33 131.967 196.432 131.952C196.822 131.891 197.131 131.588 197.207 131.189C197.42 130.017 197.197 128.901 196.533 127.871L195.56 128.537C196.021 129.239 196.188 129.972 196.087 130.765C195.829 130.75 195.6 130.649 195.372 130.431L194.571 131.315C195.033 131.75 195.56 131.972 196.123 131.972H196.128Z" fill="#646D70"/>
<path d="M194.654 131.391L195.277 130.366L193.518 129.245L192.9 130.27L194.654 131.391Z" fill="#7E8082"/>
<path d="M192.385 130.881L193.526 130.598C193.465 130.335 193.546 130.255 193.602 130.204L192.816 129.315C192.39 129.709 192.243 130.265 192.39 130.891L192.385 130.881Z" fill="#708085"/>
<path d="M180.61 139.684C182.521 138.654 183.935 137.053 184.823 134.916L185.456 138.189C185.552 138.654 185.846 138.977 186.222 139.007C186.389 139.027 186.825 139.007 187.119 138.431C188.056 136.568 188.802 134.608 189.344 132.588C190.312 133.542 191.118 134.638 191.757 135.851C191.975 136.265 192.304 136.275 192.431 136.265C192.563 136.25 192.877 136.174 193.014 135.729C193.521 134.093 193.693 132.396 193.531 130.674L192.36 130.79C192.471 131.957 192.411 133.113 192.177 134.239C191.453 133.103 190.581 132.073 189.567 131.184C189.379 131.017 189.106 130.957 188.862 131.037C188.619 131.113 188.437 131.32 188.376 131.578C187.915 133.482 187.261 135.345 186.424 137.123L185.826 134.058C185.75 133.679 185.598 132.891 184.964 132.84C184.331 132.8 184.047 133.563 183.915 133.931C183.155 136.063 181.847 137.628 180.043 138.608L180.59 139.674V139.689L180.61 139.684ZM188.817 132.093C188.817 132.093 188.822 132.093 188.827 132.098C188.827 132.098 188.822 132.098 188.817 132.093Z" fill="#60757E"/>
<path d="M175.816 140.588C177.631 140.588 179.233 140.29 180.566 139.709L180.104 138.598C179.304 138.946 178.386 139.179 177.367 139.295C179.202 138.007 180.566 136.255 181.438 134.063L180.348 133.613C179.344 136.143 177.6 138.027 175.167 139.199C174.742 139.406 174.559 139.689 174.625 140.037C174.691 140.386 174.975 140.568 175.456 140.573H175.806V140.588H175.816Z" fill="#526E70"/>
<path d="M181.453 134.058C182.082 132.356 182.497 130.568 182.68 128.755L181.509 128.633C181.331 130.34 180.951 132.027 180.353 133.633L181.448 134.058H181.453Z" fill="#60757E"/>
<path d="M182.679 128.704C182.739 126.603 182.243 124.613 181.209 122.815C180.915 122.31 180.555 122.022 180.129 121.957C179.703 121.891 179.267 122.068 178.841 122.472L179.642 123.356C179.83 123.174 179.951 123.138 179.962 123.149C179.982 123.149 180.073 123.204 180.2 123.426C181.117 125.027 181.558 126.795 181.508 128.664L182.679 128.694H182.684L182.679 128.704Z" fill="#708085"/>
<path d="M178.558 123.578L179.718 123.431C179.708 123.34 179.718 123.275 179.754 123.199L178.71 122.659C178.563 122.947 178.517 123.265 178.553 123.588L178.558 123.578Z" fill="#627980"/>
<path d="M180.455 128.729C180.566 126.876 180.318 125.048 179.699 123.3L178.599 123.704C179.157 125.295 179.39 126.962 179.284 128.654L180.455 128.729Z" fill="#5B757C"/>
<path d="M152.899 149.204C159.61 149.204 164.674 145.901 167.994 139.346C169.074 139.553 170.158 139.603 171.228 139.507C172.368 139.406 173.478 139.058 174.548 138.477C178.152 136.502 180.139 133.224 180.453 128.734L179.282 128.643C178.988 132.755 177.26 135.618 173.99 137.411C173.068 137.916 172.105 138.219 171.121 138.31C170.082 138.406 169.038 138.34 168.004 138.123C167.634 138.032 167.239 138.224 167.056 138.593C163.559 145.643 158.191 148.689 150.663 147.881C151.196 147.255 151.647 146.553 151.996 145.78L150.932 145.275C150.511 146.209 149.918 147.027 149.178 147.719C148.859 148.027 148.91 148.346 148.945 148.467C148.981 148.588 149.112 148.886 149.548 148.952C150.704 149.123 151.824 149.209 152.899 149.209V149.204Z" fill="#4B6E77"/>
<path d="M152.011 145.734C152.376 144.714 151.889 144.128 151.565 143.866C151.301 143.649 150.941 143.588 150.607 143.699C149.973 143.901 149.41 144.265 148.939 144.775L149.796 145.593C150.11 145.244 150.475 145.007 150.896 144.856C150.956 144.926 151.002 145.042 150.901 145.315L152.001 145.729H152.006L152.011 145.734Z" fill="#5B757C"/>
<path d="M143.54 150.76C146.029 149.553 148.148 147.8 149.836 145.553L148.903 144.815C147.337 146.911 145.365 148.553 143.044 149.674L143.545 150.76H143.54Z" fill="#4B6E77"/>
<path d="M133.878 153.103C137.229 153.103 140.468 152.32 143.555 150.755L143.038 149.679C138.628 151.911 133.888 152.467 128.941 151.325C129.965 150.275 130.751 149.048 131.268 147.674L130.173 147.239C129.625 148.689 128.754 149.947 127.562 150.992C127.238 151.28 127.248 151.593 127.279 151.744C127.314 151.901 127.436 152.184 127.856 152.285C129.894 152.825 131.901 153.098 133.873 153.098L133.878 153.103Z" fill="#496E75"/>
<path d="M128.149 148.644L130.394 145.441C130.47 145.931 130.394 146.542 130.161 147.26L131.282 147.633C131.596 146.649 131.677 145.78 131.52 145.068C131.393 144.482 130.993 144.113 130.44 144.093C130.1 144.078 129.786 144.255 129.568 144.558L127.191 147.936L128.149 148.638H128.154L128.149 148.644Z" fill="#627980"/>
<path d="M110.954 158.179C112.054 158.179 113.124 157.926 114.148 157.431C115.243 156.901 115.942 156.108 116.221 155.078C116.292 154.815 116.348 154.79 116.606 154.851C119.029 155.457 120.93 154.911 122.278 153.219C123.069 152.219 123.398 152.012 123.475 151.972C124.017 151.699 124.595 151.618 125.233 151.709C125.593 151.76 125.943 151.608 126.151 151.32L128.133 148.659L127.2 147.931L125.284 150.507C124.453 150.411 123.672 150.537 122.957 150.896C122.704 151.017 122.278 151.315 121.361 152.472C120.317 153.795 118.852 154.194 116.885 153.699C116.013 153.482 115.339 153.881 115.091 154.77C114.903 155.467 114.422 155.982 113.636 156.361C112.379 156.972 111.101 157.143 109.733 156.876L109.52 158.058C109.996 158.149 110.478 158.199 110.949 158.199V158.184L110.954 158.179Z" fill="#4D6E75"/>
<path d="M109.599 158.053L109.66 156.851C108.616 156.79 108.251 156.669 108.15 156.618C107.288 156.194 106.234 156.149 105.017 156.497C102.68 157.164 100.932 156.401 99.6643 154.189C99.4109 153.739 98.8635 153.553 98.387 153.75C96.917 154.381 95.7664 154.022 94.7678 152.603C94.1697 151.75 93.4398 151.022 92.6135 150.431L91.9394 151.416C92.6642 151.931 93.2928 152.573 93.8149 153.305C95.1024 155.123 96.8004 155.679 98.7215 154.906C100.268 157.537 102.488 158.452 105.321 157.654C106.254 157.391 107.029 157.406 107.633 157.704C108.018 157.891 108.636 158.002 109.589 158.053H109.594H109.599Z" fill="#547279"/>
<path d="M89.0085 153.482C89.8145 153.482 90.6255 153.431 91.4416 153.335C91.9637 153.275 92.3489 152.805 92.3134 152.26C92.2779 151.654 92.3895 151.507 92.3945 151.507L92.1816 150.335C91.6798 150.426 91.102 150.825 91.1375 152.169C87.7869 152.558 84.553 152.032 81.5319 150.628C80.0366 149.931 79.0989 148.795 78.663 147.164L77.5326 147.482C78.0547 149.457 79.2357 150.886 81.0403 151.724C83.5747 152.906 86.246 153.497 88.9984 153.497H89.0035L89.0085 153.482Z" fill="#4D6E75"/>
<path d="M78.072 147.911L78.1328 146.709C77.7222 146.684 77.4181 146.527 77.1697 146.204C76.2725 145.042 75.3297 143.896 74.3514 142.78C74.2044 142.608 73.9915 142.502 73.7685 142.497C73.5353 142.482 73.3275 142.573 73.1704 142.734C72.7243 143.204 72.5266 143.82 72.6128 144.517L73.7736 144.376C73.7533 144.214 73.7634 144.073 73.7939 143.952C74.6404 144.936 75.4615 145.952 76.2472 146.957C76.7135 147.542 77.3167 147.866 78.0568 147.911H78.0669H78.072Z" fill="#627980"/>
<path d="M63.4275 153.058C64.6491 153.058 65.7998 152.76 66.8592 152.174C67.0518 152.063 67.2799 152.027 67.5029 152.073C70.8332 152.755 73.8289 152.143 76.3937 150.255C76.7435 149.997 76.8347 149.492 76.6015 149.108L73.7173 144.143L72.7137 144.755L75.4509 149.462C73.1953 151.017 70.671 151.487 67.7412 150.886C67.2495 150.785 66.7426 150.866 66.3067 151.113C65.3689 151.633 64.3399 151.876 63.2552 151.851C61.917 151.81 60.5788 151.618 59.2761 151.295L58.9974 152.462C60.3812 152.81 61.8004 153.002 63.2248 153.048H63.4427L63.4326 153.063L63.4275 153.058Z" fill="#496E75"/>
<path d="M58.9677 152.462L59.2617 151.3C55.2624 150.229 52.1805 147.83 50.1023 144.174C49.9198 143.856 49.4129 143.154 48.5411 142.032L47.6236 142.78C48.6475 144.108 48.9871 144.598 49.0936 144.785C51.3391 148.724 54.6643 151.315 58.9728 152.467H58.9677V152.462Z" fill="#547279"/>
<path d="M47.3387 145.618L48.4336 145.194C48.1143 144.325 47.9977 143.527 48.094 142.846C48.094 142.871 48.0686 142.911 48.0382 142.941L48.1345 141.8C47.3489 141.739 47.0042 142.234 46.9383 142.679C46.8115 143.563 46.9484 144.558 47.3387 145.618Z" fill="#627980"/>
<path d="M49.0522 148.436C49.4425 148.436 49.625 148.219 49.701 148.088C49.777 147.952 49.8784 147.664 49.6655 147.29L48.3882 145.103L47.3845 145.724L48.2462 147.194C44.1759 146.886 40.8812 145.305 38.4431 142.487L37.5611 143.285C40.3844 146.542 44.2368 148.28 49.0167 148.441H49.0522V148.436Z" fill="#4B6E77"/>
<path d="M37.5622 143.27L38.4492 142.482C37.2884 141.093 36.2798 139.568 35.4637 137.936C35.0429 137.098 34.3384 136.608 33.4158 136.532C31.515 136.376 29.7612 135.709 28.1949 134.548C26.436 133.239 24.9508 131.305 23.8002 128.795L22.7357 129.31C23.9725 132.007 25.5794 134.098 27.5005 135.522C29.2441 136.81 31.1957 137.563 33.3094 137.734C33.8264 137.78 34.1711 138.017 34.4093 138.487C35.271 140.209 36.3254 141.815 37.552 143.275H37.5571L37.5622 143.27Z" fill="#627980"/>
<path d="M22.736 129.3L23.8004 128.805C22.1429 125.083 22.4319 121.659 24.6875 118.335L23.7244 117.643C21.2407 121.295 20.9163 125.209 22.736 129.3Z" fill="#707E83"/>
<path d="M23.6664 118.214L24.7461 117.755C24.5332 117.234 24.2139 116.775 23.7881 116.401C22.602 115.351 21.7403 114.042 21.2182 112.517L20.1132 112.911C20.6961 114.633 21.6744 116.118 23.0227 117.31C23.3065 117.568 23.5144 117.866 23.6664 118.219V118.214Z" fill="#837E80"/>
<path d="M20.1309 112.952L21.2106 112.482C20.1664 109.967 20.0346 107.361 20.8203 104.734C21.0636 103.911 21.4843 103.224 22.0976 102.643C22.6654 102.108 22.7718 101.431 22.3815 100.785C22.3257 100.684 22.3055 100.558 22.346 100.452C23.228 97.5879 25.2201 95.6334 28.4388 94.4768C29.118 94.2394 29.5844 93.5778 29.5945 92.8455C29.5945 92.7748 29.63 92.4768 30.0963 91.7899C31.0645 90.3455 32.3621 89.5879 34.0703 89.4819L33.9993 88.2798C31.9363 88.4112 30.294 89.3657 29.1332 91.1031C28.6567 91.8101 28.4337 92.3606 28.4236 92.8202C28.4236 93.0576 28.2715 93.2647 28.0586 93.3404C24.5206 94.6182 22.2193 96.8809 21.2309 100.093C21.094 100.542 21.1548 101.027 21.388 101.421C21.459 101.537 21.4944 101.593 21.3069 101.77C20.5466 102.492 20.0143 103.376 19.7051 104.391C18.8384 107.295 18.9803 110.179 20.141 112.962V112.947L20.1309 112.952Z" fill="#858C90"/>
<path d="M34.1254 89.4667C34.536 89.401 34.9415 89.3101 35.3369 89.194C35.9097 89.0172 36.1682 88.6889 36.2746 88.4414C36.4368 88.0728 36.3811 87.7697 36.3 87.5829C36.1631 87.2546 35.8793 87.0172 35.418 86.8404C33.801 86.2445 32.5186 85.194 31.6062 83.7192C30.1362 81.3404 29.5989 78.699 30.0146 75.8758L28.8538 75.694C28.3926 78.8101 28.9907 81.7243 30.6127 84.3556C31.667 86.0627 33.1472 87.2849 35.0125 87.9667C35.0429 87.9818 35.0683 87.9919 35.0936 87.997C35.0683 88.0121 35.0378 88.0223 34.9922 88.0273C34.6475 88.1283 34.2927 88.2091 33.9278 88.2647L34.1052 89.4515H34.1153L34.1254 89.4667Z" fill="#7B8083"/>
<path d="M30.0243 75.8657C30.739 70.9819 33.2684 67.3 37.5313 64.9263C37.9824 64.6687 38.2156 64.3505 38.2207 63.9718C38.2257 63.593 38.0078 63.2697 37.5668 62.992C36.923 62.593 36.2489 62.4869 35.5494 62.6738C34.0946 63.0627 32.8274 63.8051 31.7528 64.8909C31.6514 59.8202 33.6283 56.0021 37.7695 53.2293C37.9571 53.1081 38.4183 52.8354 39.5436 52.2748C40.1924 51.9515 40.821 51.5778 41.4242 51.1738C42.0527 50.7394 42.2707 50.1233 42.0426 49.4667C41.9311 49.1586 41.6421 48.9263 41.267 48.8455L40.1772 48.6384C38.4994 45.9313 37.8506 43.1485 38.2409 40.3707C38.8391 36.0122 41.0237 32.3 44.7291 29.3657C46.412 28.0374 47.963 27.1031 49.3265 26.5829C49.9348 26.3505 50.3505 26.0778 50.5988 25.7445C50.9182 25.3051 51.1007 24.7849 51.1412 24.194C51.1412 24.1788 51.1412 24.1536 51.1767 24.1283C52.5554 23.2243 53.5844 22.1081 54.2383 20.8101L53.1941 20.2546C52.6416 21.3657 51.7393 22.3253 50.5431 23.1132C50.2035 23.3455 49.9956 23.699 49.9703 24.1081C49.945 24.4616 49.8486 24.7596 49.6611 25.0122C49.6104 25.0778 49.4431 25.2495 48.921 25.4515C47.446 26.0071 45.7885 27.0021 44.0093 28.4061C40.0556 31.5425 37.7239 35.5071 37.0802 40.199C36.6544 43.2748 37.3589 46.3253 39.1736 49.2697C39.3611 49.5728 39.6247 49.7596 39.9238 49.8101L40.9376 50.0021C40.9173 50.0425 40.8666 50.093 40.7703 50.1637C40.2127 50.5374 39.6247 50.8859 39.0215 51.1889C38.0635 51.6687 37.4451 52.0021 37.1156 52.2142C32.4117 55.3556 30.222 59.9415 30.6072 65.8455C30.6427 66.4212 30.9164 66.6283 31.1293 66.699C31.3473 66.7697 31.6818 66.7647 32.0366 66.3253C33.0605 65.0728 34.343 64.2293 35.8332 63.8303C36.1779 63.7344 36.4922 63.7697 36.8166 63.9313C32.2951 66.497 29.6086 70.4465 28.8483 75.6738L30.0091 75.8556L30.0294 75.8707L30.0243 75.8657Z" fill="#858C8E"/>
<path d="M51.8142 21.3304H51.9257L53.7759 21.1687L53.6745 19.9667L51.8244 20.1283C51.7636 20.1283 51.723 20.1081 51.7179 20.1031C51.7281 18.9364 52.0677 17.7344 52.7317 16.593C53.051 16.0324 53.5985 15.4566 54.9316 15.9617L55.332 14.8304C53.34 14.0829 52.2704 15.0374 51.723 15.9768C50.9475 17.3102 50.5521 18.7142 50.5521 20.1485C50.5521 20.4667 50.6839 20.7698 50.917 20.9869C51.1502 21.2142 51.4696 21.3354 51.8041 21.3354V21.3203L51.8142 21.3304Z" fill="#707075"/>
<path d="M134.817 20.4819C134.938 16.5172 134.163 12.9465 132.51 9.8657C131.248 7.51216 129.155 6.30004 126.286 6.27984H126.149C123.701 6.27984 121.019 6.88085 118.166 8.07277C114.379 9.64853 111.003 11.6485 108.124 14.0223C107.531 14.5122 106.953 14.8606 106.406 15.0677C106.406 14.997 106.431 14.9314 106.487 14.8657C107.698 13.3101 109.224 11.9718 111.003 10.8859C111.262 10.7293 111.414 10.4516 111.429 10.1586C111.439 9.8556 111.318 9.57277 111.079 9.39095C107.638 6.76974 103.704 4.90105 99.3804 3.8455C93.4346 2.3859 87.3671 2.25459 81.3555 3.44146C73.3061 5.04247 66.7977 9.25459 62.0279 15.9516C61.8251 16.2394 61.5564 16.6687 61.2219 17.2495C60.9431 17.7192 60.6897 18.1081 60.4565 18.3859C60.2284 18.6586 60.0662 18.7142 60.0307 18.7192C59.975 18.7192 59.8381 18.6283 59.6455 18.3303C58.5962 16.6738 57.1415 15.5071 55.3319 14.8455L54.9416 15.9819C56.5078 16.5475 57.7599 17.5576 58.6621 18.9819C59.0372 19.5677 59.4731 19.8859 59.9597 19.9162C60.4514 19.9566 60.9178 19.6889 61.3537 19.1637C61.6223 18.8354 61.9214 18.396 62.2357 17.8657C62.5499 17.3152 62.8034 16.9112 62.9859 16.6586C67.5783 10.2142 73.8383 6.16368 81.5886 4.62833C87.4381 3.46671 93.3332 3.60307 99.1168 5.02227C103.141 6.00711 106.811 7.71924 110.04 10.098C108.296 11.2142 106.801 12.5677 105.585 14.1283C105.164 14.6687 105.139 15.3 105.488 15.9162C105.696 16.2697 106.122 16.4314 106.517 16.3101C107.278 16.0778 108.068 15.6283 108.864 14.9667C111.647 12.6687 114.932 10.7243 118.612 9.19398C121.379 8.03742 123.949 7.47176 126.281 7.49196C128.729 7.51216 130.432 8.48691 131.487 10.4516C133.033 13.3404 133.762 16.7091 133.651 20.4566L134.822 20.4869H134.832H134.827L134.817 20.4819Z" fill="#858C8E"/>
<path d="M54.1671 20.9667C54.9831 20.0273 55.7637 19.3607 56.4886 18.9869C56.7927 18.8304 57.1425 18.8304 57.5632 18.9869C57.7761 19.0627 58.0143 19.0576 58.2222 18.9667C58.4148 18.8758 58.5668 18.7142 58.6429 18.5172C58.729 18.29 58.9267 17.5122 57.9383 16.997C56.9397 16.4768 56.1388 15.997 55.5762 15.5728C55.6066 15.6031 55.632 15.7192 55.6066 15.7799L54.6638 15.0728C54.3039 15.6031 54.3952 16.1839 54.8919 16.5475C55.3633 16.9011 55.9817 17.29 56.7167 17.694C56.4582 17.7243 56.2098 17.8051 55.9665 17.9263C55.12 18.3708 54.2177 19.1283 53.3003 20.1788L54.1721 20.9768H54.1671V20.9667Z" fill="#E8E1DF"/>
<path d="M123.479 20.8859L123.961 19.795L121.599 18.694L121.117 19.7899L123.479 20.8859Z" fill="#EFE4E4"/>
<path d="M121.197 19.8253L121.512 18.6637C120.473 18.3657 119.418 18.0829 118.364 17.8051C118.364 17.8051 118.242 17.7192 117.943 17.3405L117.026 18.0879C117.426 18.6081 117.756 18.8809 118.07 18.9667C119.124 19.2394 120.168 19.5223 121.192 19.8203H121.197V19.8253Z" fill="#E2DDE9"/>
<path d="M131.458 20.593L132.629 20.5778C132.604 18.0021 132 15.8 130.845 14.0223C129.643 12.199 127.819 11.3657 125.426 11.5374C122.344 11.7697 119.511 12.9617 117.002 15.093C116.53 15.497 116.211 16.0526 116.109 16.6687C116.013 17.2192 116.17 17.5728 116.327 17.7798C116.561 18.098 116.936 18.2748 117.453 18.3152L117.554 17.1132C117.341 17.093 117.27 17.0475 117.26 17.0374C117.26 17.0374 117.25 16.9869 117.27 16.8758C117.326 16.5475 117.498 16.2445 117.752 16.0172C120.073 14.0475 122.689 12.9465 125.517 12.7344C127.494 12.5879 128.918 13.2243 129.882 14.6889C130.911 16.2647 131.448 18.2445 131.473 20.5829H131.463L131.458 20.593Z" fill="#878C8C"/>
<path d="M120.785 19.3758L121.926 19.098C121.84 18.7041 121.556 18.3556 121.064 18.0273C121.267 17.2849 121.409 16.492 120.851 16.1839C120.304 15.8758 119.797 16.4213 119.599 16.6283C119.569 16.6586 119.543 16.6889 119.523 16.699C119.513 16.6839 119.503 16.6738 119.493 16.6485L118.499 17.2849C118.803 17.7748 119.148 17.9112 119.391 17.9364C119.574 17.9566 119.751 17.9213 119.934 17.8455C119.858 18.295 120.04 18.7596 120.42 19.0273C120.755 19.2546 120.795 19.3758 120.795 19.3758H120.79H120.785Z" fill="#D4C3D8"/>
<path d="M124.749 21.4465C124.861 21.4465 124.983 21.4314 125.109 21.4162L124.922 20.2293C124.613 20.2798 124.379 20.199 124.167 19.9465L123.285 20.7394C123.685 21.2091 124.192 21.4516 124.749 21.4516V21.4465Z" fill="#DBD8DD"/>
<path d="M127.005 21.3455L128.176 21.2697C128.12 20.4566 127.867 19.8657 127.41 19.5021C126.964 19.1485 126.361 19.0374 125.616 19.1788C125.271 19.2495 124.47 19.5425 124.43 20.8051L125.601 20.8505C125.621 20.4111 125.753 20.3808 125.839 20.3657C126.108 20.3152 126.483 20.2899 126.696 20.4566C126.924 20.6384 126.99 21.0425 127.01 21.3556L127.005 21.3455Z" fill="#8E748E"/>
<path d="M127.692 21.896C128.797 21.6889 129.045 21.694 129.081 21.694C129.572 21.7243 129.942 21.6031 130.176 21.3253C130.328 21.1485 130.485 20.8404 130.388 20.3455L129.268 20.5728C129.294 20.5324 129.329 20.497 129.365 20.4819C129.365 20.4819 129.309 20.5021 129.162 20.497C128.984 20.4819 128.645 20.497 127.489 20.7142L127.697 21.896H127.692Z" fill="#D1CCD6"/>
<path d="M32.8746 102.684L34.0252 102.477C33.787 101.073 33.7312 99.6435 33.8731 98.2445C33.9289 97.6788 33.8934 97.0071 33.7667 96.1889C33.5842 95.0526 33.8123 93.8657 34.4358 92.6687C35.039 91.5071 35.0897 90.1738 34.5878 88.6839L33.4828 89.0778C33.8782 90.2495 33.8478 91.2445 33.4017 92.1031C32.6515 93.5425 32.388 94.9819 32.611 96.3808C32.7174 97.0829 32.758 97.6687 32.7124 98.1233C32.5603 99.6334 32.611 101.169 32.8695 102.689H32.8847L32.8746 102.684Z" fill="#F4F2EF"/>
<path d="M117.537 18.3152C118.267 18.2495 118.896 17.9415 119.418 17.391L118.577 16.5576C118.262 16.891 117.892 17.0778 117.446 17.1182L117.548 18.3202H117.542L117.537 18.3152Z" fill="#6B6B7E"/>
<path d="M130.403 20.4819C130.479 18.1031 129.937 16.194 128.812 14.8202C127.924 13.7344 126.566 13.3303 124.787 13.6132C122.465 13.9819 120.392 14.9566 118.613 16.5273L119.378 17.4364C120.99 16.0172 122.866 15.1283 124.969 14.8C126.338 14.5879 127.306 14.8455 127.919 15.593C128.857 16.7394 129.298 18.3758 129.232 20.4516L130.403 20.492V20.4819Z" fill="#77727B"/>
<path d="M129.689 29.492C130.343 26.5172 130.582 23.4667 130.404 20.4263L129.233 20.497C129.401 23.4263 129.172 26.3606 128.544 29.2243L129.689 29.4869V29.492Z" fill="#69747E"/>
<path d="M130.407 32.194C130.554 32.194 130.691 32.1687 130.823 32.1031C131.193 31.9415 131.441 31.5879 131.563 31.0374C132.328 27.6586 132.683 24.1334 132.627 20.5627L131.456 20.5829C131.512 24.0526 131.167 27.4768 130.427 30.7647C130.402 30.8657 130.377 30.9314 130.366 30.9718C130.331 30.9566 130.265 30.9314 130.184 30.8809C129.667 30.5627 129.525 30.1536 129.687 29.5071L128.557 29.2041C128.263 30.3607 128.628 31.3203 129.581 31.9061C129.885 32.093 130.159 32.1839 130.422 32.1839L130.412 32.199L130.407 32.194Z" fill="#728085"/>
<path d="M126.455 22.8556L126.805 21.7091C126.212 21.5172 125.801 21.1435 125.532 20.5627L124.468 21.0728C124.868 21.9566 125.537 22.5576 126.44 22.8556H126.445H126.455Z" fill="#898299"/>
<path d="M126.64 22.8859C127.557 22.8859 128.135 22.3051 128.176 21.3304L127.005 21.2798C126.985 21.6536 126.893 21.6788 126.64 21.6839V22.8859Z" fill="#807591"/>
<path d="M99.4185 112.042C99.4185 112.042 99.4235 112.042 99.4336 112.048C99.4336 112.048 99.4285 112.048 99.4185 112.042Z" fill="#647B80"/>
<path d="M24.7795 115.558C24.8759 115.558 24.9671 115.542 25.0634 115.517C25.4638 115.406 25.7883 115.093 26.0062 114.568C26.65 113.048 26.65 111.618 26.0011 110.335C25.5855 109.497 25.5804 109.189 25.5855 109.108C25.621 108.714 25.768 108.462 26.3661 108.426C27.2481 108.381 27.7955 108.27 28.125 108.073C29.0171 107.553 29.965 106.507 29.377 104.517C29.2706 104.154 29.3263 104.032 29.6812 103.911C30.9027 103.477 32.1852 103.229 33.4727 103.169L33.422 101.967C32.0128 102.032 30.624 102.3 29.2959 102.775C28.3531 103.108 27.9628 103.896 28.2568 104.871C28.566 105.896 28.343 106.563 27.5472 107.027C27.5015 107.053 27.2532 107.174 26.3104 107.219C25.2155 107.275 24.5312 107.921 24.4247 108.972C24.374 109.431 24.5464 110.037 24.9671 110.871C25.4486 111.84 25.4436 112.886 24.9418 114.078C24.8556 114.285 24.7846 114.34 24.7745 114.351C24.7745 114.351 24.6883 114.33 24.5109 114.194C24.0446 113.825 23.6492 113.401 23.3349 112.941C23.2994 112.871 23.1981 112.669 23.0409 112.335C22.8483 111.936 22.5746 111.684 22.235 111.593C21.8852 111.497 21.5051 111.593 21.1097 111.866C21.0641 111.891 21.0134 111.931 20.7701 112.194C20.8005 112.164 20.8765 112.133 20.9221 112.149L20.4558 113.26C20.8816 113.441 21.3023 113.361 21.6064 113.032C21.6926 112.936 21.7534 112.876 21.7889 112.84C21.8599 112.8 21.9004 112.775 21.9258 112.77C21.9359 112.79 21.9562 112.82 21.9866 112.871C22.2907 113.482 22.3262 113.568 22.3718 113.618C22.7571 114.179 23.2285 114.689 23.7911 115.133C24.1307 115.406 24.4653 115.532 24.7795 115.532V115.553V115.558Z" fill="#FDF0EB"/>
<path d="M49.7298 19.3707C49.9985 17.5576 50.5357 16.0172 51.3062 14.8101C51.5343 14.4617 51.8587 14.1839 52.3048 13.9566C52.6495 13.7849 53.0651 13.694 53.5517 13.694H53.5771C55.7415 13.7091 57.7285 14.5475 59.4874 16.1839C59.6496 16.3455 59.8827 16.4314 60.1311 16.4162C60.3694 16.396 60.5975 16.2748 60.7394 16.0829L63.7503 12.1536C63.8973 11.9617 63.9429 11.7091 63.8872 11.4718C63.8263 11.2344 63.654 11.0374 63.4259 10.9516C62.7365 10.6788 62.0472 10.3859 61.3831 10.0526C58.9957 8.9061 56.37 8.36064 53.5974 8.43135C52.3758 8.46165 51.3164 8.81014 50.4344 9.47176C49.7349 10.0021 49.1266 10.8354 48.5792 12.0273C47.6617 14.0071 47.1447 16.1485 47.0332 18.3859L48.2041 18.4465C48.3054 16.3606 48.787 14.3808 49.6386 12.5374C50.0998 11.5425 50.6017 10.8404 51.1288 10.4415C51.8182 9.9263 52.6393 9.65862 53.6328 9.63337C56.2281 9.56266 58.6612 10.0728 60.8813 11.1435C61.4034 11.401 61.9458 11.6334 62.478 11.8606L60.0196 15.0677C58.0934 13.3657 55.9341 12.5021 53.5821 12.492H53.5568C52.9029 12.492 52.3048 12.6233 51.803 12.8808C51.1744 13.199 50.6827 13.6233 50.3431 14.1435C49.4713 15.5071 48.8782 17.199 48.5842 19.1839L49.7399 19.3657L49.7298 19.3808V19.3707ZM60.268 15.3051C60.268 15.3051 60.2731 15.3101 60.2781 15.3202C60.2781 15.3202 60.2731 15.3152 60.268 15.3051Z" fill="#858C8E"/>
<path d="M110.344 159.507C111.008 159.507 111.682 159.436 112.361 159.295H112.366C112.741 159.209 112.894 158.997 112.959 158.835C113.041 158.618 113.01 158.386 112.873 158.184C112.716 157.952 112.432 157.82 112.123 157.835C110.531 157.901 108.955 157.704 107.424 157.26C107.064 157.159 106.659 157.078 106.345 157.32C106.167 157.457 106.066 157.654 106.061 157.886C106.04 158.25 106.294 158.593 106.71 158.77C107.88 159.26 109.092 159.512 110.339 159.512H110.344V159.507Z" fill="#112F36"/>
<path d="M56.4016 6.75458C54.7542 6.51721 53.1271 6.59296 51.5152 6.99195C49.1328 7.90105 47.5311 9.4768 46.72 11.7142C45.4427 15.2495 44.8395 19.1586 44.9206 23.4364C44.9206 23.4515 44.9459 23.7142 44.9915 24.2243C45.0726 25.093 44.728 25.8 43.9676 26.3253C42.4926 27.3455 41.1341 28.5829 39.8872 30.0324C38.6402 31.4819 37.662 33.0273 36.932 34.6586C34.7271 39.6081 34.8893 44.6637 37.4389 49.8303C37.4998 49.9465 37.4491 50.093 37.3376 50.1586C32.735 52.6687 29.9522 56.4414 28.9891 61.4718C28.5785 63.6132 28.7357 65.9768 29.4707 68.5425C29.5062 68.6889 29.496 68.8505 29.42 68.9818C26.3077 74.2394 26.2215 79.5728 29.1615 84.9919C29.572 85.7445 30.1195 86.4414 30.8038 87.0778C30.9711 87.2344 30.9305 87.5222 30.7176 87.6182C28.9739 88.4515 27.7574 89.7899 27.0477 91.6384C26.992 91.7798 26.8805 91.896 26.7385 91.9465C24.5336 92.7899 22.7392 94.1536 21.3706 96.0223C20.9043 96.6536 20.4785 97.5627 20.0831 98.7596C19.703 99.9212 19.3329 100.871 18.9882 101.603C17.9897 103.704 17.5031 105.795 17.5233 107.886C17.5537 111.608 18.8007 115.073 21.254 118.27C21.4061 118.462 21.4314 118.729 21.3149 118.946C20.4684 120.623 20.002 122.376 19.926 124.219C19.855 125.901 20.1591 127.643 20.8485 129.446C21.7406 131.78 23.094 133.845 24.8986 135.654C27.1491 137.906 29.8508 139.143 32.9986 139.356C33.1456 139.371 33.2673 139.457 33.3179 139.593C33.9718 141.239 34.8335 142.775 35.898 144.194L38.9647 147.098C42.2594 149.29 46.0307 150.244 50.2682 149.957C50.5521 149.936 50.8258 150.022 51.0489 150.204C55.9859 154.133 61.2981 155.431 66.9904 154.093C67.2692 154.027 67.543 154.002 67.8319 154.022C71.6285 154.229 74.7205 153.356 77.113 151.396C77.2245 151.305 77.3816 151.3 77.5084 151.381C82.0602 154.633 86.8756 155.659 91.9648 154.452C92.1016 154.421 92.2486 154.467 92.3551 154.568C93.7085 155.926 95.5485 156.75 97.8801 157.037C98.1234 157.063 98.3465 157.184 98.5036 157.371C100.308 159.462 102.645 160.133 105.514 159.396C106.046 159.26 106.578 159.28 107.1 159.457C109.184 160.154 111.475 160.113 114.009 159.325C115.347 158.911 116.458 158.143 117.334 157.042C117.588 156.734 117.958 156.573 118.338 156.598C119.626 156.694 120.766 156.315 121.76 155.452C122.697 154.638 123.61 153.891 124.512 153.189C124.791 152.972 125.161 152.931 125.48 153.073C127.999 154.169 130.61 154.729 133.296 154.75C138.609 154.78 143.444 153.194 147.809 149.982C147.93 149.891 148.092 149.881 148.219 149.957C149.517 150.633 150.723 150.982 151.838 150.987C156.943 151.047 161.418 149.396 165.276 146.012C166.66 144.669 167.81 143.149 168.733 141.446C168.794 141.33 168.92 141.26 169.078 141.255L173.492 141.154C173.67 141.154 173.827 141.184 173.939 141.255C175.272 142.118 176.731 142.426 178.308 142.184C180.472 141.921 182.241 141.083 183.615 139.669C184.122 139.149 184.294 139.25 184.137 139.957C183.868 141.219 184.198 141.8 185.136 141.709C185.577 141.664 186.043 141.462 186.545 141.098C188.228 139.866 189.297 138.174 189.743 136.022C189.774 135.866 189.819 135.861 189.89 136.002C190.027 136.29 190.169 136.583 190.311 136.881C190.468 137.209 190.661 137.462 190.884 137.643C192.116 138.618 193.175 138.34 194.047 136.82C194.549 135.952 194.853 134.982 194.954 133.926C194.974 133.739 195.162 133.618 195.339 133.679C195.897 133.886 196.434 133.926 196.926 133.795C197.372 133.679 197.783 133.381 198.147 132.906C198.877 131.957 199.166 130.835 199.009 129.532C198.791 127.739 198.011 126.28 196.662 125.154C196.105 124.684 196.262 124.527 197.139 124.679C197.342 124.709 197.529 124.704 197.696 124.654C199.445 124.088 200.332 123.002 200.363 121.411C200.383 120.265 199.967 119.149 199.111 118.058C198.35 117.083 197.407 116.295 196.282 115.689C196.155 115.623 196.135 115.452 196.247 115.356C196.931 114.724 197.25 114.027 197.205 113.27C197.169 112.734 196.865 112.113 196.297 111.426C193.874 108.452 190.625 107.244 186.55 107.8C186.413 107.82 186.281 107.704 186.286 107.563C186.347 102.002 184.72 97.2849 181.405 93.4162C181.309 93.3051 181.283 93.1536 181.329 93.0122C182.88 88.4313 182.059 84.5829 178.86 81.4667C178.419 81.0425 177.766 80.5576 176.894 80.0172C176.265 79.6233 175.642 79.2243 175.033 78.8C174.912 78.7091 174.821 78.5829 174.78 78.4313C173.148 71.9162 169.255 67.4919 163.106 65.1536C162.985 65.1031 162.919 64.9717 162.954 64.8455C163.973 61.593 163.912 58.4768 162.777 55.5071C162.128 53.8152 161.124 52.2546 159.761 50.8354C158.453 49.4869 156.963 48.3657 155.285 47.4616C154.798 47.2041 154.241 47.1132 153.607 47.199C153.45 47.2192 153.42 47.1687 153.511 47.0324C154.053 46.3051 154.368 45.5879 154.474 44.8657C154.991 41.3758 154.454 38.2293 152.872 35.4263C151.625 33.2243 149.866 31.1839 147.591 29.2899C144.428 26.6586 140.819 25.1687 136.748 24.8051C136.622 24.7899 136.53 24.6738 136.535 24.5425C136.586 23.4869 136.571 21.8152 136.5 19.5223C136.368 15.8303 135.608 12.5627 134.209 9.72428C133.317 7.9061 132.283 6.60812 131.107 5.84044C129.697 4.9162 128.02 4.50711 126.058 4.61317C124.33 4.70913 123.25 4.81519 122.814 4.92125C119.499 5.73943 116.336 6.89599 113.315 8.39599C113.046 8.53236 112.732 8.49701 112.499 8.32024C107.972 4.75458 102.883 2.48185 97.2465 1.4869C90.1552 0.249531 83.5859 0.608117 77.5337 2.57276C72.9768 4.04751 68.9014 6.33539 65.3126 9.4162C65.0288 9.66367 64.6385 9.71418 64.2989 9.55761C61.7188 8.36569 59.0982 7.44145 56.4218 6.77983H56.4168L56.4016 6.75458ZM134.229 20.4617C134.3 26.1889 133.322 31.7192 131.299 37.0576C132.379 37.0829 133.159 36.598 133.636 35.6081C134.163 34.5172 134.635 33.396 135.05 32.2495L136.328 27.2243C136.358 27.0879 136.49 27.0071 136.622 27.0324C142.664 28.0021 147.317 31.1283 150.591 36.4263C152.218 39.0627 152.796 41.6637 152.325 44.2293C152.224 44.7697 152.011 45.2697 151.691 45.7091C150.911 46.7546 150.809 47.598 151.382 48.2546C152.183 48.7344 153.004 49.1637 153.851 49.5526C155.447 50.2748 156.841 51.2798 158.043 52.5728C160.917 55.497 161.935 59.0223 161.099 63.1536C160.709 65.1081 159.786 66.8354 158.321 68.3707C158.19 68.5071 158.21 68.7394 158.357 68.8909L159.933 70.5172C160.324 71.3707 160.506 72.1233 160.501 72.8C160.471 75.1283 159.69 77.2647 158.164 79.199C156.132 81.7748 153.151 83.2748 149.238 83.7091C148.685 83.7697 148.366 84.0829 148.295 84.6586C148.27 84.8758 148.407 85.0576 148.721 85.199C148.878 85.2697 149.086 85.3152 149.339 85.3303C153.42 85.593 156.791 84.1384 159.452 80.9566L160.724 79.1687L162.011 76.2798C162.868 73.3657 162.64 70.5273 161.327 67.7697C161.241 67.598 161.297 67.5222 161.484 67.5425C162.716 67.7041 163.781 68.0324 164.683 68.5223C167.998 70.3202 170.385 72.992 171.865 76.5273C172.301 77.5576 172.499 78.6536 172.464 79.8101C172.464 80.0273 172.575 80.2243 172.773 80.3051C174.846 81.2546 176.468 82.3909 177.634 83.7091C180.112 86.5223 180.533 89.6637 178.896 93.1334C178.825 93.2748 178.82 93.4364 178.876 93.5728C179.139 94.199 179.59 94.8758 180.229 95.6132C181.922 97.5475 183.032 99.7546 183.569 102.244C184.112 104.734 184.178 107.149 183.782 109.487C183.286 112.396 181.897 114.926 179.616 117.063C179.124 117.457 178.724 117.931 178.43 118.487L178.582 118.724C179.418 119.351 180.239 119.239 181.05 118.396C182.916 116.457 184.193 114.911 184.892 113.775L186.18 110.265C186.231 110.123 186.357 110.017 186.499 109.987C189.88 109.366 192.668 110.467 194.848 113.275C195 113.467 194.898 113.755 194.665 113.805C193.18 114.123 191.761 114.674 190.412 115.477C192.131 116.229 193.814 117.063 195.461 117.987C196.566 118.608 197.448 119.462 198.102 120.563C198.619 121.426 198.391 121.941 197.428 122.098C195.993 122.33 194.437 122.406 192.749 122.315C192.531 122.3 192.48 122.401 192.597 122.593L196.039 128.224C196.612 129.113 196.804 130.068 196.622 131.088C196.596 131.234 196.485 131.345 196.343 131.366C195.836 131.436 195.375 131.275 194.959 130.881L193.2 129.76C192.937 130.007 192.851 130.335 192.947 130.739C193.104 132.386 192.942 133.992 192.455 135.558C192.404 135.714 192.349 135.719 192.273 135.578C191.482 134.068 190.458 132.76 189.191 131.649C189.115 131.578 188.978 131.618 188.958 131.719C188.415 133.957 187.63 136.108 186.596 138.159C186.499 138.34 186.393 138.431 186.266 138.416C186.16 138.401 186.058 138.27 186.023 138.083L185.267 134.199C185.08 133.229 184.821 133.214 184.477 134.159C183.661 136.436 182.272 138.108 180.32 139.164C178.967 139.75 177.355 140.027 175.464 139.987C175.125 139.982 175.115 139.901 175.414 139.755C177.994 138.502 179.813 136.527 180.883 133.845C181.501 132.179 181.897 130.467 182.069 128.694C182.125 126.694 181.669 124.835 180.68 123.128C180.285 122.436 179.793 122.376 179.215 122.921C179.119 123.103 179.094 123.295 179.114 123.502C179.707 125.179 179.945 126.916 179.839 128.694C179.53 132.982 177.669 136.073 174.243 137.952C173.244 138.492 172.21 138.815 171.151 138.911C170.056 139.012 168.956 138.952 167.861 138.709C167.739 138.684 167.608 138.739 167.552 138.856C163.816 146.391 157.83 149.558 149.603 148.351C149.451 148.33 149.425 148.26 149.542 148.159C150.343 147.416 150.971 146.532 151.428 145.522C151.61 145.012 151.524 144.613 151.169 144.33C151.058 144.239 150.901 144.214 150.759 144.265C150.211 144.436 149.74 144.739 149.339 145.179C147.707 147.366 145.68 149.042 143.262 150.209C138.467 152.633 133.372 153.138 127.969 151.699C127.786 151.649 127.766 151.563 127.908 151.436C129.17 150.32 130.098 148.992 130.681 147.441C130.965 146.558 131.041 145.805 130.909 145.184C130.838 144.861 130.666 144.694 130.387 144.689C130.25 144.689 130.108 144.765 130.012 144.906L127.639 148.285L125.652 150.952C125.566 151.068 125.424 151.128 125.282 151.108C124.527 151.007 123.823 151.108 123.189 151.426C122.88 151.573 122.413 152.048 121.795 152.84C120.609 154.345 118.916 154.82 116.721 154.265C116.153 154.123 115.788 154.34 115.631 154.916C115.393 155.78 114.805 156.431 113.872 156.891C112.514 157.547 111.095 157.744 109.61 157.452C108.763 157.406 108.18 157.31 107.881 157.159C107.141 156.79 106.234 156.765 105.159 157.068C102.549 157.805 100.551 156.946 99.1474 154.482C99.0409 154.29 98.8027 154.209 98.5999 154.3C96.8765 155.042 95.437 154.593 94.2813 152.952C93.7237 152.154 93.0495 151.477 92.2689 150.911C91.8482 150.987 91.6657 151.446 91.7164 152.285C91.7265 152.502 91.5694 152.704 91.3565 152.729C87.8286 153.169 84.4679 152.638 81.2796 151.154C79.6322 150.386 78.5677 149.103 78.0913 147.3C77.5185 147.27 77.0522 147.022 76.7024 146.573C75.8052 145.411 74.8725 144.275 73.9095 143.169C73.8233 143.068 73.6712 143.058 73.58 143.149C73.2606 143.482 73.1288 143.916 73.1846 144.431L76.0789 149.411C76.1499 149.527 76.1296 149.674 76.0282 149.744C73.5952 151.537 70.7769 152.113 67.5886 151.462C67.2287 151.391 66.8637 151.446 66.5495 151.623C65.5103 152.199 64.4003 152.477 63.1989 152.436C61.8101 152.391 60.4465 152.199 59.0932 151.861C54.9265 150.739 51.7484 148.275 49.5738 144.457C49.4065 144.169 48.8996 143.477 48.0582 142.386C47.7186 142.361 47.531 142.477 47.4905 142.75C47.379 143.537 47.5006 144.421 47.8605 145.396L49.1379 147.583C49.2342 147.75 49.1936 147.83 49.0162 147.82C44.3833 147.664 40.7033 146.012 37.9762 142.866C36.7749 141.441 35.7561 139.886 34.9146 138.194C34.5852 137.537 34.058 137.169 33.3382 137.108C31.3208 136.941 29.4859 136.244 27.8233 135.012C25.9681 133.638 24.4474 131.643 23.2461 129.027C21.5024 125.133 21.8167 121.441 24.1838 117.967C24.0064 117.527 23.7428 117.149 23.3829 116.835C22.1107 115.704 21.2033 114.325 20.6407 112.694C19.5357 110.037 19.3937 107.315 20.2301 104.532C20.5089 103.608 20.9854 102.825 21.6697 102.179C22.0296 101.845 22.0904 101.472 21.8522 101.068C21.7001 100.815 21.6697 100.512 21.7508 100.234C22.6885 97.2041 24.8377 95.0829 28.2136 93.8657C28.6596 93.7091 28.9688 93.2798 28.979 92.7899C28.9841 92.4616 29.1868 92.002 29.5822 91.401C30.6466 89.8101 32.1217 88.9515 34.0022 88.8354C34.3925 88.7748 34.7676 88.6889 35.1427 88.5778C35.4266 88.4869 35.6192 88.3455 35.7003 88.1435C35.8524 87.8101 35.68 87.5425 35.1833 87.3556C33.4345 86.7091 32.071 85.593 31.0775 83.9869C29.5264 81.4718 28.9638 78.7192 29.4048 75.7344C30.155 70.6334 32.7553 66.8404 37.221 64.3556C37.7279 64.0728 37.738 63.7748 37.2412 63.4717C36.7394 63.1536 36.2173 63.0728 35.6699 63.2192C34.0479 63.6536 32.6843 64.5475 31.5641 65.9162C31.3259 66.2091 31.1992 66.1687 31.1687 65.7849C30.7987 60.0879 32.8769 55.7192 37.4136 52.694C37.7076 52.492 38.3209 52.1637 39.2485 51.699C39.8771 51.3808 40.4802 51.0273 41.0581 50.6334C41.4585 50.3606 41.5853 50.0273 41.4484 49.6384C41.4129 49.5223 41.271 49.4364 41.1088 49.4061L39.9886 49.194C39.8517 49.1687 39.725 49.0728 39.6287 48.9162C37.8799 46.093 37.2058 43.199 37.6163 40.2546C38.2449 35.7091 40.4752 31.9061 44.3275 28.8606C46.0712 27.4869 47.6527 26.5273 49.0821 25.997C49.5738 25.8101 49.9134 25.598 50.0858 25.3606C50.3392 25.0172 50.4761 24.6132 50.5065 24.1435C50.5166 23.9263 50.6332 23.7394 50.8157 23.6132C52.1184 22.7596 53.0663 21.7344 53.6745 20.5223L51.8244 20.6839C51.429 20.7142 51.0945 20.4465 51.0945 20.1031C51.0945 18.7748 51.4544 17.4819 52.1741 16.2394C52.8078 15.1536 53.7708 14.8606 55.0786 15.3505C56.7767 15.9617 58.1149 17.0425 59.0982 18.593C59.6305 19.4364 60.2184 19.4768 60.847 18.7091C61.1004 18.401 61.3741 17.992 61.6783 17.492C62.0078 16.9263 62.2612 16.5122 62.4538 16.2394C67.1577 9.63842 73.4735 5.54246 81.4165 3.97175C87.3774 2.78993 93.2979 2.9263 99.1981 4.37074C103.466 5.4162 107.298 7.22933 110.684 9.81519C110.851 9.9465 110.836 10.2091 110.659 10.3101C108.804 11.4415 107.242 12.8152 105.98 14.4364C105.717 14.7697 105.701 15.1435 105.93 15.5374C106 15.6536 106.147 15.7091 106.289 15.6687C106.979 15.4566 107.699 15.0475 108.434 14.4364C111.282 12.0879 114.577 10.1334 118.323 8.57781C121.177 7.39094 123.807 6.81014 126.22 6.83034C128.871 6.85054 130.777 7.9465 131.938 10.1081C133.54 13.1081 134.29 16.5475 134.178 20.4212H134.214L134.229 20.4617ZM49.1531 19.2798L48.8946 23.0879C48.8844 23.2647 48.8236 23.4111 48.7375 23.5071C48.3877 23.9061 47.9467 24.1536 47.4246 24.2495C47.2979 24.2748 47.1864 24.1738 47.1914 24.0374L47.6122 18.4212C47.7186 16.2495 48.2154 14.2041 49.1024 12.2849C49.6042 11.199 50.1669 10.4263 50.7751 9.96165C51.5608 9.37579 52.5036 9.06266 53.6036 9.03741C56.3002 8.9667 58.8042 9.4869 61.1156 10.598C61.7999 10.9263 62.4944 11.2293 63.1989 11.5071C63.3054 11.5475 63.3459 11.6889 63.275 11.7849L60.2641 15.7192C60.1677 15.8404 59.9853 15.8606 59.8738 15.7445C57.9932 13.992 55.8947 13.1081 53.5731 13.093C52.9902 13.093 52.4833 13.194 52.0525 13.4162C51.5101 13.6889 51.1097 14.0374 50.8258 14.4718C49.9945 15.7596 49.442 17.3606 49.1531 19.2697V19.2798ZM112.255 158.704C110.415 159.093 108.646 158.921 106.953 158.214C106.776 158.138 106.659 158.007 106.664 157.891C106.664 157.734 106.877 157.709 107.283 157.83C108.875 158.295 110.502 158.497 112.169 158.431C112.271 158.431 112.362 158.457 112.408 158.522C112.463 158.613 112.418 158.669 112.255 158.704Z" fill="#0C1A23"/>
<path d="M47.613 18.7723C47.5927 18.8877 47.5927 18.982 47.6232 19.0659C47.6485 19.1812 47.8056 19.2546 47.983 19.2284C48.4595 19.1812 48.8498 19.328 49.159 19.6635C49.4429 17.6819 50.0004 16.0201 50.8317 14.6834C51.1156 14.2273 51.5211 13.8656 52.0584 13.5877C52.4943 13.3623 53.0012 13.2522 53.5791 13.2522C55.9057 13.268 58.0042 14.1854 59.8797 16.0044C59.9912 16.1197 60.1737 16.104 60.27 15.9782L63.2809 11.8945C63.3519 11.8001 63.3113 11.6534 63.2049 11.6062C62.5003 11.3178 61.8109 11.0033 61.1216 10.6626C58.8102 9.50403 56.3061 8.96932 53.6095 9.04271C52.5095 9.06892 51.5617 9.3887 50.7811 10.002C50.1728 10.4791 49.6101 11.2864 49.1083 12.4135C48.2213 14.4003 47.7245 16.5234 47.6181 18.7828H47.613V18.7723Z" fill="#FBFBF9"/>
<path d="M117.489 17.7142C118.082 17.6637 118.578 17.4162 118.989 16.9718C120.692 15.4667 122.649 14.5475 124.869 14.199C126.445 13.9516 127.611 14.2899 128.356 15.199C129.395 16.4718 129.877 18.2243 129.811 20.4617C129.988 23.4617 129.755 26.4263 129.106 29.3556C128.873 30.2596 129.127 30.9415 129.867 31.396C130.465 31.7647 130.835 31.6031 130.992 30.9061C131.747 27.5526 132.097 24.1132 132.036 20.5778C132.011 18.1132 131.443 16.0374 130.353 14.3505C129.274 12.7142 127.641 11.9718 125.462 12.1334C122.492 12.3505 119.79 13.497 117.362 15.5526C117.002 15.8606 116.754 16.2899 116.672 16.7647C116.571 17.3404 116.84 17.6485 117.483 17.7041H117.489V17.7142Z" fill="#0F1A21"/>
<path d="M118.998 16.9768C119.287 17.4465 119.626 17.4718 120.022 17.0475C120.655 16.3758 120.823 16.6687 120.513 17.9263C120.458 18.1586 120.549 18.4011 120.747 18.5374C121.106 18.7748 121.304 19.0172 121.355 19.2445L123.717 20.3455C124.067 20.7495 124.498 20.9112 125.004 20.8303C125.025 20.2192 125.263 19.8708 125.714 19.7798C126.875 19.5526 127.498 20.0627 127.579 21.3152C128.411 21.1586 128.918 21.0879 129.115 21.1031C129.668 21.1334 129.896 20.9263 129.805 20.4768C129.876 18.2394 129.389 16.4819 128.35 15.2142C127.6 14.3 126.439 13.9667 124.863 14.2142C122.642 14.5627 120.681 15.492 118.983 16.9869V16.9718L118.998 16.9768Z" fill="#DFCAD3"/>
<path d="M53.7256 20.5627C54.5974 19.5627 55.4287 18.8556 56.2144 18.4465C56.6655 18.2142 57.1826 18.199 57.7553 18.4213C57.8922 18.4718 58.0392 18.4213 58.0798 18.3051C58.1913 17.997 58.0544 17.7293 57.659 17.5223C56.63 16.9869 55.819 16.492 55.2108 16.0475C54.9776 15.8758 54.9472 15.6536 55.1246 15.396C53.8219 14.9061 52.8537 15.2041 52.2201 16.2849C51.4953 17.5324 51.1405 18.8152 51.1405 20.1485C51.1405 20.497 51.4801 20.7596 51.8704 20.7293L53.7205 20.5677H53.7256V20.5627Z" fill="#D3C3C8"/>
<path d="M118.996 16.9768C118.58 17.4213 118.079 17.6687 117.496 17.7192C117.805 18.1182 118.048 18.3455 118.226 18.391C119.275 18.6637 120.319 18.9465 121.363 19.2445C121.308 19.0122 121.105 18.7748 120.755 18.5374C120.562 18.4011 120.471 18.1586 120.522 17.9263C120.826 16.6687 120.659 16.3758 120.03 17.0475C119.635 17.4667 119.295 17.4465 119.006 16.9768H119.001H118.996Z" fill="#DFCAD3"/>
<path d="M125.01 20.8253C125.344 21.5526 125.882 22.0425 126.632 22.2899C127.24 22.2899 127.564 21.9667 127.59 21.3101C127.509 20.0677 126.885 19.5475 125.725 19.7748C125.273 19.8657 125.035 20.2142 125.015 20.8253H125.01Z" fill="#DFCAD3"/>
<path d="M129.821 20.4617C129.907 20.9112 129.674 21.1283 129.131 21.0879C128.939 21.0728 128.427 21.1485 127.596 21.3001C127.57 21.9566 127.251 22.2849 126.638 22.2799C126.607 22.7142 126.445 23.0677 126.146 23.3455C126.045 23.4364 126.019 23.5829 126.07 23.7142L128.113 28.7394C128.163 28.8607 128.27 28.9718 128.422 29.0374L129.121 29.3607C129.765 26.4263 130.003 23.4566 129.826 20.4667H129.821V20.4617Z" fill="#DFCAD3"/>
<path d="M112.257 158.709C112.415 158.679 112.47 158.613 112.41 158.527C112.374 158.462 112.273 158.431 112.171 158.436C110.504 158.502 108.882 158.3 107.285 157.835C106.874 157.719 106.666 157.734 106.666 157.896C106.666 158.012 106.778 158.143 106.955 158.219C108.653 158.931 110.412 159.098 112.257 158.709Z" fill="#154248"/>
<path d="M114.019 70.694C110.785 70.694 108.16 68.9212 108.16 66.7344C108.16 64.5475 110.78 62.7748 114.019 62.7748C117.258 62.7748 119.879 64.5475 119.879 66.7344C119.879 68.9212 117.258 70.694 114.019 70.694Z" fill="#EFBDA0"/>
<path d="M112.483 61.795C112.615 61.6283 112.813 61.5778 113.02 61.6182C113.314 61.6687 113.563 61.8304 113.811 61.9768C114.044 62.1132 114.257 62.2849 114.47 62.4465C114.713 62.6233 114.952 62.8152 115.165 63.0223C115.256 63.1132 115.352 63.1991 115.443 63.295C115.595 63.4516 115.656 63.6384 115.656 63.8556C115.656 64.0324 115.53 64.1839 115.362 64.2344C115.159 64.29 114.962 64.2849 114.769 64.194C114.653 64.1384 114.541 64.0677 114.425 64.0071C114.186 63.8758 113.958 63.7294 113.745 63.5677C113.507 63.3859 113.243 63.2193 113.026 63.0172C112.808 62.8203 112.574 62.6233 112.443 62.3556C112.351 62.1688 112.351 61.9718 112.483 61.8001V61.795Z" fill="#342838"/>
<path d="M132.624 36.7798L132.7 36.6031C134.743 31.7899 140.623 15.3051 130.556 5.11821L130.308 4.87074L129.958 4.85053C123.875 4.51215 111.026 6.0677 105.911 14.3758L107.462 15.3253C112.029 7.90104 123.662 6.40104 129.497 6.64346C138.428 16.0526 132.933 31.3909 131.017 35.896C130.972 36.002 130.941 36.0728 130.926 36.1182L132.619 36.7849L132.624 36.7798Z" fill="black"/>
<path d="M130.995 30.1132C131.015 29.9566 131.132 29.5122 131.259 29.0475C132.151 25.7142 134.523 16.8607 128.552 12.7698C122.92 8.91622 117.669 13.3455 115.677 16.2243L117.177 17.2546C118.815 14.891 123.077 11.2243 127.523 14.2647C132.435 17.6283 130.382 25.3001 129.505 28.5778C129.337 29.199 129.231 29.6081 129.196 29.891L131.005 30.1132H130.995Z" fill="black"/>
</g>
<path d="M106.492 41.5223L60.5378 41.9869C60.5378 41.9869 91.2805 -0.427241 106.492 41.5223Z" fill="#FCF4F0"/>
<ellipse cx="10.1416" cy="10.1074" rx="10.1416" ry="10.1074" transform="matrix(-1 0 0 1 101.547 33.0996)" fill="white"/>
<path d="M66.3139 57.0331C70.4101 63.5409 76.0655 66.8874 83.2851 67.0624C86.173 67.1325 88.6297 66.9674 90.6502 66.5722C93.1771 66.077 95.4533 64.9915 97.4738 63.3408C101.685 59.8793 104.072 55.2973 104.638 49.5798C104.789 48.0442 104.368 45.9283 103.38 43.2221C100.973 36.8193 96.5162 32.6575 90.0185 30.7316C83.6812 28.8608 78.1562 29.6812 73.4383 33.1877C68.6904 36.7293 65.8025 41.3112 64.7697 46.9487C64.153 50.3202 64.6644 53.6816 66.3139 57.0381V57.0331ZM98.7322 43.3171C98.6971 43.2871 98.647 43.2621 98.5968 43.2271C98.5016 43.1821 98.4414 43.087 98.4514 42.997C98.4865 40.0857 97.3635 37.8097 95.0923 36.149C94.8466 35.9689 94.6862 35.7788 94.5959 35.5888C94.3452 35.0385 94.5307 34.7884 95.1474 34.8234C95.4031 34.8434 95.6789 34.9235 95.9747 35.0785C98.7873 36.5892 100.552 38.9252 101.259 42.0816C101.329 42.3667 101.284 42.6618 101.139 42.8919C100.487 43.9124 99.6848 44.0524 98.7372 43.3271H98.7322V43.3221V43.3171ZM94.7213 46.9137C92.415 48.2393 89.3416 47.1538 87.8626 44.4876C86.3936 41.8265 87.0604 38.5851 89.3767 37.2695C91.683 35.9439 94.7564 37.0294 96.2354 39.6955C97.7044 42.3567 97.0376 45.5981 94.7213 46.9137Z" fill="#342838"/>
<path d="M103.379 43.222C104.367 45.9282 104.788 48.0491 104.637 49.5798C104.076 55.2973 101.684 59.8792 97.4728 63.3408C95.4523 65.0015 93.1761 66.0769 90.6492 66.5772C88.6337 66.9773 86.177 67.1374 83.2841 67.0674C76.0645 66.8873 70.4091 63.5408 66.3129 57.033C66.1525 58.8238 66.4884 60.5045 67.3207 62.0752L71.4519 65.3266C80.0203 69.7585 88.5685 69.7585 97.0918 65.3266L98.7763 64.1361C99.032 63.951 99.3078 63.906 99.4632 64.021C99.6437 64.1461 99.6186 64.3512 99.388 64.6263C98.8766 65.2316 98.27 65.6968 97.563 66.0219C93.9933 68.568 89.6665 69.8786 84.6027 69.9686C79.3685 70.0637 74.9013 68.7481 71.2063 66.0219L68.4738 64.0511C69.281 66.9773 71.1311 69.0983 74.044 70.4088C78.9173 72.5998 83.8707 73.19 88.9145 72.1796C94.1989 71.1241 98.6159 68.578 102.156 64.5463C102.316 64.3612 102.406 64.0811 102.406 63.7609C102.411 63.0856 102.637 62.4304 103.088 61.7951C105.996 57.6533 107.234 53.3564 106.803 48.9095C106.603 46.8386 105.465 44.9378 103.389 43.207V43.222H103.379Z" fill="#B2CFD6"/>
<path d="M73.7813 76.0914C74.4982 76.7617 74.1523 77.8922 75.0046 78.5374C75.902 79.2177 77.2206 78.9426 78.1331 78.4524C79.201 77.8772 79.933 76.9117 80.9006 76.2064C81.4923 75.7762 82.3646 76.2314 82.5351 76.8817C82.7256 77.587 83.6983 78.3824 84.2498 78.8126C84.9266 79.3428 85.7188 79.753 86.5861 79.803C88.0501 79.883 89.1631 78.6825 89.1631 77.2269C89.1631 76.5816 89.9653 76.4265 90.2962 76.9167C90.6422 77.432 90.8277 77.7871 90.7876 78.4474C90.7525 79.0427 90.572 79.6129 90.2461 80.1081C89.5843 81.1136 88.5665 81.7488 87.3883 81.9089C86.1299 82.079 84.8263 81.7338 83.7434 81.0635C83.2069 80.7334 82.7206 80.3082 82.2844 79.853C82.0337 79.5879 81.7981 79.3078 81.5675 79.0227C81.5524 79.0026 81.5374 78.9826 81.5223 78.9626C80.2238 80.3682 78.3086 81.3687 76.5137 81.4687C74.3077 81.5888 71.7357 79.918 71.7357 77.452C71.7357 76.4015 72.8036 75.201 73.7762 76.1064L73.7813 76.0914Z" fill="#342838"/>
<path d="M113.974 70.564C110.775 70.564 108.178 68.8082 108.178 66.6423C108.178 64.4763 110.77 62.7206 113.974 62.7206C117.177 62.7206 119.77 64.4763 119.77 66.6423C119.77 68.8082 117.177 70.564 113.974 70.564Z" fill="#EFBDA0"/>
<path d="M112.455 61.7501C112.586 61.5851 112.781 61.535 112.987 61.5751C113.277 61.6251 113.523 61.7852 113.769 61.9302C113.999 62.0653 114.21 62.2353 114.421 62.3954C114.661 62.5705 114.897 62.7606 115.107 62.9657C115.198 63.0557 115.293 63.1407 115.383 63.2358C115.534 63.3908 115.594 63.5759 115.594 63.791C115.594 63.9661 115.468 64.1162 115.303 64.1662C115.102 64.2212 114.907 64.2162 114.716 64.1262C114.601 64.0711 114.491 64.0011 114.375 63.9411C114.14 63.811 113.914 63.666 113.704 63.5059C113.468 63.3258 113.207 63.1607 112.992 62.9607C112.776 62.7656 112.545 62.5705 112.415 62.3054C112.325 62.1203 112.325 61.9252 112.455 61.7551V61.7501Z" fill="#342838"/>
</g>
<path d="M172.749 100.049C171.625 100.768 161.286 66.948 127.089 76.1641C127.089 76.1641 102.902 89.1165 97.7463 100.049C97.7463 100.049 76.5754 89.504 66.6482 110.095C66.6482 110.095 16.6553 99.8549 7.35878 132.734C-1.93775 165.613 16.1343 182.662 42.9269 186.398C69.7196 190.134 80.8261 175.798 80.8261 175.798C80.8261 175.798 83.9249 195.614 130.764 192.459C177.603 189.304 177.219 163.095 177.219 163.095C177.219 163.095 180.565 183.963 213.363 174.663C246.162 165.364 228.501 131.074 215.859 125.372C203.217 119.671 197.979 121.055 198.555 120.474C199.131 119.892 201.654 99.4951 183.006 98.6925C183.006 98.6925 175.821 98.0282 172.694 100.021L172.749 100.049Z" fill="white"/>
<path d="M231.547 161.96C231.547 161.96 205.632 174.11 184.242 144.829C175.796 190.55 121.675 184.831 96.9529 161.905C77.4221 197.308 3.54404 148.22 19.948 117.318C-13.1757 134.146 8.30599 212.453 81.3764 176.628C103.439 207.162 176.773 191.818 177.62 164.622C177.62 164.622 197.295 192.21 231.547 161.988V161.96Z" fill="#B3E1EB"/>
<path d="M76.0431 100.737C75.7143 109.72 81.2586 114.727 89.125 115.896C89.125 115.896 77.393 115.911 76.0431 119.589L68.3439 109.537L76.0157 100.764L76.0431 100.737Z" fill="#B3E1EB"/>
<path d="M173.416 97.6264C187.877 92.0433 202.682 103.974 200.823 118.913C219.045 120.594 235.327 135.907 233.937 155.298L233.937 155.299C233.055 167.246 221.815 175.738 209.488 178.663C197.534 181.501 184.207 179.185 177.88 169.404C175.402 176.387 169.139 182.203 160.977 186.608C152.4 191.236 141.657 194.346 130.782 195.627C119.907 196.908 108.866 196.364 99.6943 193.654C90.7868 191.023 83.5771 186.326 80.0645 179.205C70.7372 187.725 56.4437 190.597 42.7933 188.793C28.8942 186.956 15.5235 180.255 8.61214 169.538L8.61206 169.537C2.23289 159.639 0.358017 150.433 1.74786 142.28C3.13678 134.133 7.77509 127.102 14.3044 121.527C27.261 110.463 47.7483 105.054 65.5525 107.965C71.8577 96.2094 84.8224 92.9034 96.8746 97.6256C105.352 83.283 120.992 74.5708 136.254 73.7909C151.538 73.0098 166.467 80.1892 173.416 97.6264ZM175.994 154.994L177.108 152.301L176.955 155.211C176.837 157.472 177.077 159.075 177.483 160.386C177.843 161.549 178.335 162.493 178.861 163.504C178.933 163.642 179.006 163.782 179.079 163.923C180.888 167.429 184.555 170.466 189.202 172.581C193.84 174.693 199.407 175.862 204.947 175.671C210.485 175.479 215.974 173.927 220.481 170.622C224.982 167.321 228.536 162.251 230.18 154.959C232.144 146.251 228.63 138.481 222.485 132.705C216.433 127.016 207.864 123.304 199.616 122.61C199.559 122.808 199.479 123.071 199.372 123.388C199.126 124.123 198.74 125.147 198.175 126.311C197.049 128.635 195.203 131.542 192.332 133.815L190.065 135.609L191.597 133.158C193.922 129.439 196.306 125.236 197.256 120.692C198.2 116.172 197.727 111.304 194.302 106.223L194.301 106.222C191.64 102.253 188.119 100.889 184.28 100.647C181.229 100.454 178.02 100.97 174.885 101.475C174.025 101.613 173.171 101.75 172.328 101.872L171.957 101.925L171.801 101.585C165.462 87.6853 152.831 78.7902 139.118 77.6646C125.425 76.5407 110.569 83.1579 99.7541 100.459C98.1267 103.286 97.134 105.121 96.3092 107.204C95.4826 109.292 94.8192 111.643 93.868 115.506L93.1403 118.461L92.8842 115.428C92.5089 110.984 93.1902 107.279 93.9668 104.682C94.3552 103.383 94.7677 102.36 95.0847 101.66C95.1896 101.428 95.2841 101.231 95.3639 101.071C90.1384 98.968 85.0048 98.5432 80.4548 99.9135C75.9061 101.283 71.8888 104.463 68.9187 109.663C69.0672 109.73 69.2417 109.812 69.4374 109.911C70.0749 110.235 70.9399 110.742 71.8591 111.479C73.6995 112.955 75.7627 115.358 76.638 119.051L77.2871 121.789L75.7345 119.443C74.6381 117.785 73.0048 116.148 71.3448 114.832C69.6905 113.52 68.0606 112.568 66.9624 112.221C50.945 109.249 31.2724 114.127 18.5455 124.248C12.1856 129.305 7.59081 135.646 6.02293 142.938C4.4572 150.219 5.895 158.516 11.7282 167.528L11.7285 167.529C18.4969 178.011 31.9281 184.228 45.7001 185.275C59.4722 186.322 73.4252 182.186 81.2556 172.169L81.7694 171.512L82.1068 172.275C86.7997 182.89 94.8678 188.913 104.383 191.681C113.916 194.454 124.912 193.961 135.409 191.496C145.903 189.031 155.856 184.604 163.287 179.556C167.003 177.032 170.074 174.362 172.267 171.716C174.424 169.113 175.701 166.57 175.945 164.239C175.365 162.967 174.028 159.747 175.994 154.994Z" fill="#324C76" stroke="#324C76" stroke-miterlimit="16"/>
<defs>
<clipPath id="clip0_689_2625">
<rect width="184" height="167" fill="white" transform="matrix(-1 0 0 1 200.957 0.153564)"/>
</clipPath>
</defs>
</svg>
