<svg version="1.1" xmlns="http://www.w3.org/2000/svg" x="0px" y="0px"
	 viewBox="0 0 512 512" xml:space="preserve">
<path  d="M487.1,512H24.9C11.1,512,0,500.9,0,487.1V24.9C0,11.1,11.1,0,24.9,0h462.2C500.9,0,512,11.1,512,24.9v462.2
	C512,500.9,500.9,512,487.1,512z" fill="#FFF3E5"/>
<path  d="M419.3,149h-7.8c-2.2,0-3.7,0.5-4.7,1.6c-1,1.1-1.7,1.9-2.1,2.6L331.1,296l-73.3-142.8
	c-0.4-0.6-1.1-1.5-2.1-2.6c-1-1.1-2.5-1.6-4.7-1.6l-174.6,0c-2.4,0-4.4,0.9-6.1,2.6c-1.7,1.7-2.6,3.8-2.6,6.1V192
	c0,2.4,0.9,4.4,2.6,6.1c1.7,1.7,3.8,2.6,6.1,2.6h56.9v165.7c0,2.4,0.9,4.4,2.6,6.1c1.7,1.7,3.8,2.6,6.1,2.6h42.3
	c2.4,0,4.4-0.9,6.1-2.6c1.7-1.7,2.6-3.8,2.6-6.1V200.7h42.5V368c0,4.7,2.5,7.1,7.4,7.1h5.8c4.7,0,7.1-2.4,7.1-7.1V198.2
	c0,0,0.1-0.1,0.1-0.1c0.6-0.6,1.1-1.3,1.5-2l60.1,118.3c1.9,4.3,5.3,6.5,10,6.5h7.1c4.7,0,8.1-2.1,10-6.5l61.7-121.5V368
	c0,4.7,2.4,7.1,7.1,7.1h5.8c4.9,0,7.4-2.4,7.4-7.1V156.4C426.7,151.5,424.2,149,419.3,149z" fill="#8647EB"/>
</svg>
