<svg width="1201" height="1116" viewBox="0 0 1201 1116" fill="none" xmlns="http://www.w3.org/2000/svg">
<path d="M547.158 907.455L644.283 920.984L641.028 937.211L543.521 919.392C543.521 919.392 540.623 913.426 547.151 907.455L547.158 907.455Z" fill="#533716"/>
<path d="M656.22 916.201C656.337 916.203 556.223 942.367 556.223 942.367L554.792 931.248L657.139 908.856C657.78 910.776 657.749 913.22 656.22 916.201Z" fill="#6C471C"/>
<path d="M657.137 908.856L554.79 931.249L553.1 918.118C553.1 918.118 620.557 905.729 651.934 903.268C652.368 903.422 655.941 905.228 657.137 908.856Z" fill="#76491F"/>
<path d="M656.87 908.184C656.325 906.803 655.048 905.471 654.498 904.984L642.906 908.184H656.87Z" fill="#8E5B28"/>
<path d="M564.82 929.329C565.276 936.021 565.261 940.438 556.22 942.367C552.593 943.138 548.304 933.211 548.413 926.337C548.521 919.464 552.903 917.412 556.614 917.471C559.759 917.521 563.133 921.08 564.372 926.337L578.613 924.945L564.82 929.329Z" fill="#8E5B28"/>
<path d="M649.562 925.548C649.515 928.469 646.8 936.853 643.013 937.215C638.553 937.636 635.989 932.054 635.952 929.132C635.886 923.626 639.953 920.923 642.03 920.956C644.107 920.989 649.608 922.178 649.555 925.555L649.562 925.548Z" fill="#6C471C"/>
<path fill-rule="evenodd" clip-rule="evenodd" d="M368.287 925.217C368.027 925.078 360.571 923.169 344.673 912.599C328.781 902.023 313.425 923.069 314.007 934.178C314.566 944.843 307.027 943.55 307.027 943.55C307.027 943.55 314.605 963.399 333.495 951.996C352.389 940.598 355.586 931.282 367.878 939.433L368.287 925.211V925.217Z" fill="#0C1A23"/>
<path d="M311.223 947.585C317.953 955.791 324.672 954.21 331.502 950.004C336.196 947.12 341.237 942.518 346.581 939.197L346.261 935.479C339.198 938.674 332.768 944.342 327.31 948.389C321.189 953.161 314.718 949.887 311.223 947.585Z" fill="#DC5C1D"/>
<path fill-rule="evenodd" clip-rule="evenodd" d="M347.863 932.52C339.836 934.91 333.007 941.261 326.126 946.613C319.866 951.491 313.928 948.6 310.793 946.275C313.59 947.151 319.087 948.359 324.205 943.521C332.539 935.578 338.828 929.272 348.172 928.863L347.863 932.52Z" fill="#EFBDA0"/>
<path fill-rule="evenodd" clip-rule="evenodd" d="M347.794 927.241C336.921 927.601 330.487 934.051 325.173 939.377C321.375 943.182 316.785 947.268 310.992 945.442C314.061 945.52 320.541 944.194 324.724 934.694C327.665 928.014 330.826 924.912 334.654 923.397C338.47 921.887 342.013 921.882 347.109 923.397C347.109 923.397 348.271 924.61 347.794 927.241Z" fill="#B3E1EB"/>
<path d="M322.801 933.635C325.797 926.871 329.376 922.947 333.347 921.389C336.413 920.183 340.068 920.852 343.968 921.927L342.392 917.606C339.524 916.773 336.538 916.491 333.347 917.214C329.189 918.157 325.306 920.882 322.457 926.311C319.176 932.61 317.557 939.602 311.781 944.347C314.826 942.346 319.355 941.402 322.801 933.635Z" fill="#EBA91F"/>
<path fill-rule="evenodd" clip-rule="evenodd" d="M320.996 924.876C318.561 929.544 317.781 934.973 315.039 939.483C316.056 934.123 315.866 929.065 318.54 924.168C322.525 916.858 330.644 913.4 338.748 914.502L339.132 915.625C333.164 915.625 325.613 916.775 320.996 924.876Z" fill="#F3E3D2"/>
<path d="M485.943 827.067C486.388 822.065 478.13 817.15 472.308 817.15C461.177 800.646 440.77 795.074 416.304 809.697C405.851 805.112 391.832 816.671 392.644 827.067C376.747 827.067 369.28 843.493 374.62 849.173C358.076 857.56 366.236 864.019 363.563 869.368C359.596 871.812 351.347 878.925 351.708 883.253C348.162 884.854 341.845 891.801 344.649 899.78C341.872 902.585 337.362 909.569 339.104 916.008C345.932 925.87 349.123 925.87 344.649 938.75C346.35 945.939 350.318 949.528 356.316 950.391C359.094 950.391 371.488 967.865 378.223 957.365C380.883 959.091 393.79 969.915 402.345 961.178C403.134 961.248 402.403 962.263 406.724 964.66C421.586 972.901 427.792 968.384 438.896 964.178C444.03 964.929 450.414 962.418 454.206 961.178C466.857 964.488 476.276 963.763 483.027 959.057C486.648 959.142 498.675 955.043 501.871 947.505C507.301 944.542 518.169 941.279 513.204 925.487C517.761 917.012 519.618 903.141 500.998 893.558C508.653 888.42 506.981 880.418 505.1 867.767C504.513 858.147 496.487 855.221 493.915 853.019C498.907 840.623 493.231 833.896 485.943 827.067Z" fill="#FCF4F0"/>
<path d="M411.938 967.979C410.229 967.983 406.842 967.494 403.457 963.887C399.921 965.02 389.006 967.615 379.598 960.361C378.182 960.843 375.402 961.575 372.004 961.349C367.659 961.059 361.46 959.107 356.299 951.553C345.834 950.139 340.217 942.032 343.018 931.193C343.475 929.067 346.993 929.908 346.537 932.034C344.826 940.013 348.429 947.78 357.361 948.277C357.897 948.31 358.389 948.594 358.679 949.045C364.868 958.619 372.688 958.524 376.652 957.688C376.099 957.102 375.567 956.485 375.058 955.838C373.713 954.132 376.359 952.044 377.704 953.751C383.232 960.782 392.283 963.166 400.879 961.089C399.133 959.063 397.777 956.97 396.837 954.843C395.957 952.856 399.042 951.493 399.918 953.481C401.666 957.446 407.219 965.533 412.353 964.578C413.007 964.437 413.658 964.696 414.049 965.239C417.305 969.709 422.864 967.42 423.099 967.319C423.504 967.147 423.969 967.137 424.377 967.299C428.709 968.994 430.135 966.051 430.374 965.445C430.707 964.549 431.754 964.128 432.622 964.507C435.57 965.792 438.215 960.61 438.602 958.44C438.98 956.297 442.304 956.895 441.919 959.033C441.724 960.122 441.093 961.501 440.497 962.63C448.368 963.698 453.878 959.793 456.151 953.019C456.843 950.959 460.039 952.031 459.347 954.091C458.519 956.945 457.304 958.501 456.279 959.879C460.58 963.368 464.362 961.477 464.534 961.386C465.023 961.133 465.62 961.126 466.109 961.386C472.348 964.669 479.602 959.117 480.775 958.163C482.376 955.669 484.669 950.801 484.75 946.982C484.797 944.803 488.16 944.878 488.12 947.05C488.043 950.731 486.462 954.759 484.959 957.644C496.285 957.054 499.652 947.633 499.801 947.201C499.983 946.672 500.417 946.261 500.957 946.116C510.379 943.567 515.784 936.352 511.063 926.612C510.736 925.995 510.823 925.237 511.282 924.711C519.058 915.812 513.763 909.569 513.533 909.306C513.24 908.972 513.085 908.531 513.109 908.089C513.442 902.288 507.392 900.724 507.136 900.66C506.434 900.488 505.915 899.884 505.855 899.163C505.551 895.549 500.198 895.59 499.976 895.59C499.966 895.59 499.959 895.59 499.949 895.59C498.239 895.59 497.638 893.226 499.15 892.418C509.315 886.984 506.795 870.716 496.221 868.161C494.153 867.493 495.182 864.291 497.252 864.952C499.757 865.757 501.793 866.819 503.347 868.12C504.115 860.511 497.699 856.204 491.326 854.229C489.25 853.584 490.251 850.365 492.327 851.01L492.985 851.216C495.648 839.098 491.326 832.949 486.068 828.226C484.381 820.955 472.669 820.233 471.373 818.522C458.488 801.627 435.022 798.463 417.827 811.173C403.058 814.071 399.321 818.901 391.096 829.049C381.894 831.629 370.899 838.579 376.029 849.571C376.515 850.467 376.065 851.632 375.102 851.967C369.232 854.006 360.598 861.907 367.689 871.326C368.494 871.805 368.76 872.882 368.259 873.676C363.544 881.533 371.154 886.848 378.038 888.629C380.141 889.173 379.298 892.436 377.195 891.892C368.412 889.622 360.404 882.935 364.699 873.254C364.315 872.884 363.998 872.503 363.745 872.149C353.309 876.116 352.955 884.247 352.945 884.604C352.928 885.214 352.581 885.777 352.041 886.06C347.642 888.364 342.72 893.864 346.011 899.129C346.334 899.722 346.277 900.464 345.856 900.993C340.116 908.205 338.346 918.757 346.537 925.058C348.266 926.363 346.258 929.055 344.521 927.758C335.05 920.794 336.195 908.21 342.586 899.709C340.008 893.024 343.823 886.838 349.665 883.515C350.052 880.731 352.051 873.045 362.393 869.058C360.135 860.523 364.291 852.818 372.314 849.429C367.846 836.766 379.999 827.897 391.154 825.6C392.107 812.681 405.002 807.895 416.351 808.109C435.171 795.617 459.246 797.708 473.633 815.987C479.992 815.987 485.833 819.69 488.262 825.624C495.225 832.949 498.345 838.215 496.063 852.133C503.858 855.573 508.412 863.197 506.104 871.626C509.56 878.428 510.339 887.455 504.257 892.96C506.364 893.722 508.359 895.175 509.013 897.727C512.118 898.846 516.507 901.907 516.49 907.661C517.929 909.721 521.9 916.958 514.528 926.096C519.492 936.85 513.295 945.995 502.652 949.15C499.194 957.027 492.076 961.551 482.609 961.029C480.495 962.697 472.793 968.084 465.293 964.75C462.839 965.681 458.345 965.994 454 962.387C451.786 964.285 446.682 967.427 438.464 965.714C437.186 967.025 435.13 968.354 432.781 968.04C432.194 968.896 431.23 969.951 429.75 970.609C427.994 971.394 425.988 971.418 423.784 970.683C419.673 972.124 415.082 971.581 411.938 967.979Z" fill="#0C1A23"/>
<path d="M484.313 810.282C481.829 806.322 471.227 809.554 466.238 811.665C467.084 814.119 468.841 819.124 469.117 819.492C469.461 819.954 482.931 822.944 483.275 823.982C483.551 824.811 485.998 825.94 487.188 826.399C487.266 822.677 486.797 814.243 484.31 810.282H484.313Z" fill="#FCF4F0"/>
<path d="M481.895 816.013C480.196 813.097 476.023 815.76 474.152 817.456C474.152 818.898 474.152 818.821 478.251 819.96C481.531 820.87 483.26 823.527 483.716 824.743C483.817 823.048 483.594 818.929 481.895 816.013Z" fill="#DFCAD3"/>
<path d="M488.323 829.213L486.738 828.593C484.746 827.814 481.911 824.727 481.985 821.18C482.083 816.61 481.099 815.298 480.502 814.924C479.703 814.422 478.402 814.857 477.401 815.342C475.995 816.559 474.859 817.702 474.566 818.116C474.455 818.528 474.162 818.868 473.757 819.033C472.833 819.411 472.163 818.76 471.384 818.008C470.862 817.506 470.194 816.822 469.419 816.03C468.145 814.729 466.702 813.252 465.455 812.109L463.988 810.764L465.782 809.902C467.039 809.295 478.227 804.07 484.241 807.003C486.064 807.892 487.268 809.467 487.723 811.553C489.469 819.593 488.808 825.815 488.562 827.528L488.323 829.213ZM479.639 812.002C480.492 812.002 481.261 812.214 481.938 812.642C484.527 814.274 484.743 818.329 484.679 821.241C484.648 822.569 485.333 823.867 486.121 824.794C486.29 822.07 486.266 817.55 485.087 812.126C484.807 810.839 484.143 809.955 483.057 809.426C479.986 807.926 473.828 809.366 468.745 811.52C469.624 812.382 470.521 813.299 471.347 814.145C471.886 814.695 472.496 815.322 472.989 815.807C473.558 815.177 474.431 814.338 475.766 813.188L475.891 813.08L476.036 813.006C477.364 812.335 478.564 811.998 479.636 811.998L479.639 812.002Z" fill="#0C1A23"/>
<path d="M397.7 804.774C389.239 807.909 392.347 828.148 394.956 837.873C401.381 837.873 416.695 823.51 423.551 816.33C418.458 811.172 406.161 801.639 397.697 804.774H397.7Z" fill="#FCF4F0"/>
<path d="M394.482 838.642C393.734 838.642 393.049 838.14 392.851 837.378C392.24 835.032 387.11 814.216 394.263 806.325C396.464 803.898 399.488 802.964 403.253 803.554L403.29 803.561C407.042 804.239 415.992 807.151 423.003 813.33C423.701 813.947 423.768 815.012 423.155 815.71C422.538 816.407 421.473 816.475 420.775 815.858C414.333 810.181 406.155 807.505 402.714 806.878C400.115 806.474 398.17 807.033 396.764 808.584C392.547 813.235 393.471 826.331 396.117 836.528C396.35 837.428 395.81 838.349 394.91 838.585C394.769 838.622 394.627 838.638 394.485 838.638L394.482 838.642Z" fill="#0C1A23"/>
<path d="M398.341 817.364C399.847 811.61 408.558 814.968 412.724 817.364C413.237 818.393 407.759 822.758 404.762 822.93C402.365 823.068 399.824 829.722 398.856 833.032C398.057 830.207 396.837 823.118 398.344 817.364H398.341Z" fill="#DFCAD3"/>
<path d="M398.421 833.016C397.632 833.016 396.927 832.46 396.769 831.654C396.432 829.942 393.678 814.82 400.47 811.763C405.968 809.288 411.351 813.441 413.428 815.983C414.018 816.704 413.91 817.766 413.192 818.356C412.47 818.946 411.409 818.838 410.819 818.12C409.602 816.634 405.621 813.145 401.852 814.84C399.004 816.121 398.71 824.07 400.072 831.01C400.251 831.924 399.658 832.81 398.744 832.989C398.636 833.009 398.525 833.019 398.417 833.019L398.421 833.016Z" fill="#0C1A23"/>
<path fill-rule="evenodd" clip-rule="evenodd" d="M447.954 771.22C447.089 770.276 445.527 770.349 444.724 771.342C442.508 774.088 438.642 780.17 435.989 794.253C433.319 808.425 432.31 816.088 445.66 817.286C457.955 818.568 459.855 810.546 457.288 799.68C454.235 785.192 450.923 774.46 447.948 771.22H447.954Z" fill="#0C1A23"/>
<path fill-rule="evenodd" clip-rule="evenodd" d="M450.306 781.159C448.971 777.113 447.531 774.112 446.102 773.568C445.229 773.318 444.262 775.104 443.941 775.643C445.808 777.742 447.929 779.648 450.306 781.153V781.159Z" fill="#F3E3D2"/>
<path d="M451.103 783.756L451.109 783.761C451.912 786.503 452.585 789.282 453.214 792.068C448.314 790.319 444.174 786.923 440.922 782.918C441.403 781.465 442.5 778.323 443.038 777.38C445.377 779.905 448.06 782.129 451.103 783.756Z" fill="#EBA91F"/>
<path d="M453.669 794.144C454.577 798.438 455.292 802.528 455.768 805.48C448.748 802.823 442.976 797.509 438.734 791.413C438.734 790.723 439.776 786.86 440.296 785.016C443.886 789.141 448.406 792.522 453.674 794.144H453.669Z" fill="#B3E1EB"/>
<path d="M437.055 802.677C437.26 800.052 437.675 796.995 438.257 793.865C442.821 799.928 448.855 805.059 456.105 807.549L456.11 807.543C455.917 811.099 454.416 813.335 451.092 814.529C445.235 812.336 440.477 807.82 437.055 802.677Z" fill="#EFBDA0"/>
<path d="M448.05 815.212C443.62 813.005 439.877 809.567 436.905 805.641C436.157 812.287 441.623 815.826 448.05 815.212Z" fill="#DC5C1D"/>
<path d="M412.716 872.769C416.145 872.769 418.929 870.884 418.929 868.558C418.929 866.232 416.151 864.348 412.716 864.348C409.282 864.348 406.504 866.232 406.504 868.558C406.504 870.884 409.282 872.769 412.716 872.769Z" fill="#EFBDA0"/>
<path d="M413.768 863.115C413.195 863.212 412.628 863.556 412.18 863.9C411.718 864.237 410.977 864.857 410.977 865.495C410.977 865.683 411.111 865.845 411.287 865.896C411.9 866.064 412.767 865.43 413.222 865.083C413.7 864.716 414.105 864.46 414.381 863.897C414.583 863.479 414.206 863.027 413.768 863.111V863.115Z" fill="#342838"/>
<path d="M446.527 869.169C433.384 870.028 423.962 862.778 422.722 850.235C421.117 833.808 443.702 823.355 456.161 832.632C464.008 838.497 468.296 849.068 463.796 858.244C463.796 858.136 459.67 868.309 446.527 869.169Z" fill="#342838"/>
<path d="M445.611 869.014C453.348 868.822 459.408 865.228 463.801 858.237C463.973 860.162 463.801 861.76 462.722 863.651C454.521 872.408 439.692 873.426 429.01 865.865C428.737 865.667 428.44 865.619 428.275 865.741C428.083 865.876 428.11 866.095 428.356 866.391C436.884 876.507 455.879 872.601 461.488 865.774C456.287 879.639 431.912 876.282 425.389 866.307C425.218 866.108 425.12 865.808 425.12 865.464C425.113 864.74 424.874 864.035 424.388 863.354C420.717 858.116 417.583 848.357 423.465 843.442C421.516 858.659 430.844 869.375 445.611 869.017V869.014Z" fill="#B2CFD6"/>
<path d="M428.828 844.642C428.292 844.73 427.015 844.069 426.792 843.051C426.061 839.721 430.975 834.708 433.399 834.708C434.731 834.708 433.864 835.996 432.401 837.334C430.901 838.706 429.529 842.02 429.475 843.196C429.432 844.167 429.364 844.548 428.828 844.639V844.642Z" fill="white"/>
<path d="M443.437 843.065C442.867 846.884 440.245 848.553 437.319 848.553C434.393 848.553 432.785 846.51 432.785 842.886C432.785 840.207 435.826 836.957 438.516 836.957C441.206 836.957 444.047 838.976 443.434 843.065H443.437Z" fill="white"/>
<path d="M448.855 879.167C447.706 877.839 446.607 878.688 446.425 879.389C444.713 882.703 439.623 883.974 439.312 879.925C439.198 878.449 437.428 879.133 437.536 880.98C437.893 887.055 446.56 884.89 447.5 881.789C450.248 885.201 457.65 885.733 457.977 880.107C458.105 877.919 455.617 877.619 455.348 879.248C454.741 882.935 451.218 881.897 448.852 879.17L448.855 879.167Z" fill="#342838"/>
<path d="M712.821 824.847C712.384 819.935 707.968 809.861 715.852 806.161C722.964 803.522 731.002 809.807 732.682 808.51C745.972 798.245 760.176 795.219 781.208 807.79C791.473 803.288 805.24 814.638 804.443 824.847C820.054 824.847 827.386 840.978 822.143 846.556C838.389 854.792 830.375 861.135 833 866.388C836.896 868.788 844.997 875.773 844.643 880.023C848.125 881.595 854.328 888.418 851.574 896.253C854.302 899.007 858.731 905.866 857.02 912.189C860.381 913.093 869.461 912.235 868.381 916.706C867.574 920.051 872.201 923.921 870.848 927.03C868.813 929.783 870.848 934.658 868.381 937.784C864.984 942.089 859.177 947.105 855.793 944.122C850.229 947.219 841.895 945.698 840.117 945.954C837.39 945.954 825.218 963.114 818.604 952.803C815.992 954.497 803.317 965.127 794.916 956.547C794.141 956.616 794.477 957.987 790.233 960.341C775.638 968.435 769.926 963.624 759.022 959.493C753.981 960.231 747.711 957.765 743.987 956.547C731.564 959.797 722.315 959.086 715.684 954.464C712.129 954.547 700.318 950.522 697.18 943.12C691.847 940.21 681.175 937.006 686.051 921.497C681.575 913.175 679.751 899.554 698.037 890.142C690.52 885.098 692.161 877.239 694.009 864.816C694.585 855.368 702.466 852.495 704.992 850.333C700.09 838.16 705.665 831.553 712.821 824.847Z" fill="#FCF4F0"/>
<path d="M717.378 813.321C718.974 810.603 722.895 813.085 724.652 814.665C724.652 816.01 724.652 815.938 720.801 816.999C717.72 817.848 716.095 820.323 715.668 821.457C715.573 819.877 715.782 816.038 717.378 813.321Z" fill="#DFCAD3"/>
<path d="M799.497 802.957C807.806 806.035 804.754 825.91 802.191 835.46C795.882 835.46 780.844 821.355 774.11 814.304C779.112 809.239 791.188 799.878 799.5 802.957H799.497Z" fill="#FCF4F0"/>
<path d="M784.742 815.32C784.239 816.33 789.618 820.617 792.561 820.786C794.915 820.921 797.696 826.857 798.646 830.107C799.431 827.333 800.721 815.74 797.24 811.964C793.685 808.927 790.833 810.001 784.742 815.32Z" fill="#DFCAD3"/>
<path d="M800.404 829.352C803.939 816.629 797.719 799.707 784.045 813.963C782.693 815.616 785.251 817.711 786.607 816.062C796.385 804.743 800.404 819.887 797.16 828.72C796.749 830.82 799.994 831.438 800.404 829.352Z" fill="#0C1A23"/>
<path d="M751.528 866.192C764.434 867.037 773.687 859.916 774.905 847.599C776.48 831.468 754.302 821.203 742.067 830.312C734.36 836.072 730.15 846.453 734.569 855.464C734.569 855.358 738.621 865.348 751.528 866.192Z" fill="#342838"/>
<path d="M752.432 866.04C744.835 865.852 738.883 862.323 734.569 855.457C734.401 857.348 734.569 858.917 735.629 860.774C743.683 869.374 758.244 870.374 768.735 862.949C769.003 862.753 769.294 862.707 769.456 862.826C769.645 862.959 769.619 863.174 769.377 863.465C761.002 873.399 742.349 869.563 736.84 862.859C741.948 876.474 765.885 873.177 772.29 863.382C772.459 863.187 772.555 862.892 772.555 862.555C772.561 861.843 772.796 861.151 773.273 860.482C776.878 855.338 779.957 845.755 774.18 840.929C776.093 855.871 766.934 866.395 752.432 866.044V866.04Z" fill="#B2CFD6"/>
<path d="M784.727 869.728C781.361 869.728 778.626 867.878 778.626 865.594C778.626 863.309 781.354 861.459 784.727 861.459C788.1 861.459 790.828 863.309 790.828 865.594C790.828 867.878 788.1 869.728 784.727 869.728Z" fill="#EFBDA0"/>
<path d="M783.689 860.247C784.252 860.343 784.808 860.681 785.248 861.019C785.701 861.35 786.43 861.959 786.43 862.584C786.43 862.77 786.297 862.929 786.125 862.978C785.523 863.144 784.672 862.521 784.225 862.18C783.755 861.82 783.358 861.568 783.086 861.015C782.888 860.605 783.258 860.161 783.689 860.244V860.247Z" fill="#342838"/>
<path d="M749.247 876.011C750.375 874.707 751.455 875.541 751.633 876.229C753.315 879.483 758.313 880.731 758.618 876.756C758.731 875.306 760.468 875.978 760.363 877.792C760.012 883.757 751.501 881.632 750.577 878.586C747.88 881.936 740.61 882.459 740.289 876.934C740.163 874.786 742.606 874.491 742.871 876.09C743.467 879.712 746.926 878.692 749.25 876.014L749.247 876.011Z" fill="#342838"/>
<path d="M768.909 842.107C769.435 842.193 770.69 841.544 770.908 840.544C771.627 837.274 766.8 832.352 764.42 832.352C763.113 832.352 763.963 833.616 765.4 834.93C766.873 836.278 768.22 839.532 768.273 840.687C768.316 841.64 768.383 842.014 768.909 842.104V842.107Z" fill="white"/>
<path d="M754.571 840.558C755.13 844.308 757.706 845.947 760.579 845.947C763.452 845.947 765.031 843.941 765.031 840.382C765.031 837.751 762.045 834.56 759.404 834.56C756.762 834.56 753.972 836.542 754.574 840.558H754.571Z" fill="white"/>
<path fill-rule="evenodd" clip-rule="evenodd" d="M858.492 910.624C858.616 905.605 856.762 900.386 853.603 896.183C856.134 889.619 852.388 883.544 846.652 880.281C846.27 877.547 844.307 869.999 834.151 866.083C836.369 857.702 832.288 850.135 824.409 846.808C828.735 834.547 817.195 825.907 806.37 823.506C808.338 803.177 798.013 795.061 781.245 806.229C769.957 799.279 751.316 789.633 731.157 807.328C727.695 805.843 719.368 802.769 714.498 805.145C708.692 807.978 709.613 818.663 710.094 823.91C703.574 830.859 700.694 836.1 702.885 849.463C695.23 852.841 690.759 860.328 693.025 868.606C689.631 875.285 688.867 884.15 694.838 889.556C692.769 890.304 690.81 891.731 690.168 894.237C687.12 895.336 682.809 898.342 682.825 903.992C681.412 906.015 677.512 913.122 684.752 922.096C679.877 932.657 685.964 941.637 696.414 944.735C699.81 952.471 706.8 956.914 716.098 956.401C718.173 958.039 725.736 963.329 733.102 960.055C735.512 960.969 739.925 961.277 744.191 957.735C746.366 959.598 751.378 962.683 759.449 961.002C760.704 962.29 762.722 963.594 765.03 963.286C765.606 964.127 766.552 965.163 768.006 965.808C769.73 966.58 771.7 966.603 773.864 965.881C777.901 967.296 782.41 966.763 785.497 963.226C787.175 963.23 790.502 962.75 793.826 959.208C797.299 960.32 808.017 962.869 817.256 955.745C818.646 956.219 821.377 956.937 824.713 956.715C828.902 956.436 834.842 954.584 839.853 947.504C844.848 949.389 850.995 949.069 855.165 945.364C855.036 945.947 855.195 946.563 855.611 947.01C857.932 949.506 861.666 945.791 862.454 943.742C865.798 946.005 867.54 942.319 867.649 939.363C868.228 939.562 868.85 939.631 869.478 939.469C873.489 938.435 872.02 932.102 870.584 929.637C875.291 927.474 873.611 921.352 870.015 919.088C871.26 917.846 871.657 916.552 871.197 915.224C869.794 911.177 861.373 910.401 858.492 910.624ZM778.381 808.283C758.821 794.683 739.277 799.851 725.394 818.652C723.81 820.559 722.145 817.953 722.985 816.713C723.222 816.36 723.464 816.013 723.707 815.671C722.527 814.181 719.979 811.785 718.169 812.924C716.577 813.92 716.603 817.222 716.619 819.173C716.621 819.45 716.623 819.699 716.62 819.911C717.171 820.352 717.682 820.296 718.164 820.244C718.292 820.229 718.417 820.216 718.542 820.212C719.174 820.19 719.527 820.178 719.134 821.089C718.617 821.509 718.414 821.806 718.213 822.099C717.982 822.438 717.755 822.769 717.049 823.277C716.642 823.569 716.378 823.551 716.142 823.535C716.042 823.528 715.948 823.522 715.848 823.539C714.986 823.69 714.096 824.593 713.356 825.343C713.121 825.583 712.9 825.807 712.701 825.986C707.537 830.624 703.292 836.662 705.908 848.562L706.553 848.36C708.593 847.727 709.575 850.888 707.537 851.521C701.279 853.461 694.978 857.691 695.733 865.163C697.259 863.885 699.258 862.842 701.717 862.051C703.75 861.402 704.761 864.547 702.73 865.203C692.346 867.712 689.871 883.688 699.854 889.023C701.338 889.817 700.748 892.138 699.069 892.138H699.035C698.729 892.138 693.564 892.131 693.27 895.647C693.21 896.356 692.701 896.948 692.011 897.117C691.761 897.18 685.818 898.716 686.146 904.413C686.169 904.846 686.017 905.28 685.728 905.608C685.503 905.866 680.303 911.997 687.94 920.736C688.391 921.252 688.476 921.997 688.156 922.603C683.519 932.168 688.827 939.253 698.08 941.756C698.609 941.898 699.037 942.302 699.215 942.822C699.36 943.246 702.668 952.498 713.789 953.077C712.314 950.244 710.761 946.288 710.685 942.673C710.646 940.54 713.949 940.467 713.995 942.607C714.075 946.357 716.325 951.137 717.898 953.587C719.05 954.524 726.173 959.976 732.301 956.751C732.781 956.497 733.367 956.503 733.846 956.751C734.016 956.841 737.729 958.698 741.954 955.272L741.829 955.103C740.85 953.79 739.721 952.275 738.941 949.588C738.262 947.565 741.401 946.512 742.079 948.535C744.311 955.187 749.723 959.022 757.453 957.973C756.867 956.864 756.248 955.51 756.056 954.441C755.677 952.341 758.941 951.754 759.313 953.858C759.694 955.99 762.29 961.078 765.185 959.817C766.037 959.445 767.065 959.857 767.394 960.737C767.628 961.333 769.028 964.223 773.283 962.558C773.683 962.399 774.14 962.409 774.537 962.578C774.768 962.677 780.228 964.925 783.425 960.535C783.809 960.002 784.66 959.877 785.301 960.016C790.343 960.954 795.584 952.883 797.301 948.989C798.161 947.036 801.191 948.375 800.327 950.326C799.404 952.415 798.073 954.471 796.359 956.46C804.799 958.5 813.687 956.158 819.117 949.254C820.437 947.577 823.035 949.628 821.715 951.303C821.216 951.938 820.692 952.544 820.149 953.12C824.042 953.941 831.722 954.034 837.799 944.633C838.084 944.189 838.567 943.911 839.094 943.878C847.865 943.391 851.402 935.763 849.723 927.927C849.275 925.84 852.729 925.013 853.178 927.101C855.341 935.469 852.394 942.179 846.043 945.341C848.942 945.165 852.75 943.984 854.917 940.555C855.685 939.345 857.591 939.659 857.926 941.054C858.21 942.256 858.376 943.183 858.459 943.901L858.495 943.872C859.038 943.382 859.704 942.359 859.789 940.26C859.847 938.709 861.914 938.117 862.798 939.383C863.186 939.939 863.742 940.541 864.159 940.879C864.309 940.267 864.466 938.933 864.249 936.182C864.126 934.617 866.145 933.782 867.161 934.98C867.556 935.444 868.152 935.943 868.538 936.152C869.313 933.97 868.086 931.246 866.533 929.694C865.45 928.626 866.318 926.715 867.844 926.867C869.212 926.969 870.147 926.189 870.197 924.834C870.299 922.189 866.361 921.037 866.327 921.027C864.94 920.643 864.697 918.718 865.943 917.998C867.609 917.042 868.048 916.27 868.048 916.27C865.567 913.889 860.723 913.801 858.135 913.798C857.363 917.569 855.322 921.067 851.702 923.728C849.997 925.002 848.025 922.358 849.723 921.077C857.767 914.889 856.028 904.527 850.391 897.445C849.977 896.925 849.922 896.197 850.24 895.614C853.471 890.444 848.638 885.043 844.318 882.78C843.787 882.502 843.447 881.949 843.431 881.35C843.42 880.999 843.072 873.015 832.824 869.119C832.667 869.332 832.503 869.538 832.328 869.736C832.187 869.897 832.04 870.053 831.887 870.205C836.105 879.711 828.242 886.278 819.616 888.507C817.55 889.041 816.722 885.836 818.788 885.303C825.549 883.554 833.021 878.335 828.392 870.618C827.899 869.839 828.161 868.781 828.951 868.311C835.915 859.061 827.437 851.302 821.672 849.3C820.725 848.971 820.283 847.827 820.762 846.947C825.798 836.153 815.001 829.327 805.965 826.794C805.577 829.359 805.006 832.085 804.252 834.973C803.713 837.038 800.576 835.954 801.045 834.139C808.477 810.174 799.846 792.558 776.829 813.841C775.229 815.256 773.042 812.772 774.642 811.358C775.915 810.235 777.164 809.212 778.381 808.283ZM725.308 813.529C726.509 812.005 727.759 810.598 729.049 809.305C724.195 807.346 718.542 806.116 715.659 807.525C711.935 809.341 712.345 816.923 712.566 820.978C712.586 821.345 712.604 821.683 712.617 821.985C713.111 821.673 713.594 821.387 714.049 821.133C714.049 820.704 714.039 820.247 714.029 819.773C713.96 816.54 713.874 812.5 716.758 810.683C719.804 808.76 723.272 811.309 725.308 813.529Z" fill="#0C1A23"/>
<path d="M636.039 857.044C636.231 857.459 663.305 899.474 673.333 914.361C669.204 913.076 669.991 913.119 666.542 912.037C665.32 911.936 665.275 912.476 665.762 912.898C673.464 917.653 676.343 919.782 676.45 919.896C696.283 942.209 718.385 971.229 718.385 971.229C720.887 974.246 724.341 971.015 723.462 969.043C710.721 954.549 693.229 933.389 681.588 920.867C675.036 913.039 639.668 858.658 637.272 856.308C636.766 855.829 635.784 856.494 636.031 857.049L636.039 857.044Z" fill="#474747"/>
<g style="mix-blend-mode:multiply">
<path d="M651.901 879.247L675.45 914.569L683.396 924.483L722.772 971.374C723.477 970.665 723.817 969.674 723.465 968.881C723.235 968.368 697.347 939.787 684.953 923.779C684.457 913.154 684.311 911.247 683.134 911.247C682.468 911.247 683.502 921.034 681.718 920.769C675.185 912.952 654.582 881.433 652.721 878.894L651.901 879.247Z" fill="#353637"/>
</g>
<path d="M656.205 872.153L643.82 880.184L634.747 866.732L647.132 858.701L656.205 872.153Z" fill="#E6E7E8"/>
<path d="M647.366 872.36C650.834 870.097 654.705 869.859 656.02 871.828C657.334 873.796 655.608 877.226 652.14 879.489C648.68 881.748 644.809 881.986 643.486 880.022C642.172 878.053 643.906 874.618 647.358 872.364L647.366 872.36Z" fill="#E6E7E8"/>
<path d="M638.815 859.402C642.283 857.139 646.155 856.901 647.469 858.87C648.784 860.838 647.057 864.268 643.589 866.531C640.129 868.79 636.258 869.028 634.935 867.064C633.616 865.086 635.355 861.66 638.807 859.406L638.815 859.402Z" fill="white"/>
<g style="mix-blend-mode:multiply">
<path d="M638.567 859.54L651.982 879.657C648.656 881.837 644.934 882.067 643.663 880.171L634.837 866.936C633.569 865.027 635.24 861.72 638.559 859.544L638.567 859.54Z" fill="#E6E7E8"/>
</g>
<path d="M637.274 856.311C637.601 856.77 639.135 858.732 641.254 861.798C640.997 862.604 640.656 862.852 639.761 862.865C637.483 859.338 636.067 857.138 636.026 857.052C635.734 856.435 636.812 855.659 637.274 856.311Z" fill="#474747"/>
<g style="mix-blend-mode:multiply">
<path d="M640.667 862.711L636.508 856.327C636.732 856.265 637.121 856.156 637.3 856.327C637.718 856.733 639.131 858.759 641.223 861.807C641.079 862.204 641.07 862.461 640.667 862.711Z" fill="#A7A9AC"/>
</g>
<path d="M563.583 855.756C563.39 856.171 536.316 898.185 526.288 913.072C530.417 911.788 529.63 911.83 533.079 910.749C534.301 910.648 534.346 911.187 533.859 911.609C526.157 916.365 523.278 918.494 523.171 918.608C503.338 940.92 481.236 969.941 481.236 969.941C478.734 972.958 475.28 969.726 476.159 967.754C488.9 953.261 506.392 932.1 518.033 919.578C524.585 911.75 559.953 857.369 562.349 855.019C562.855 854.54 563.837 855.205 563.59 855.76L563.583 855.756Z" fill="#474747"/>
<g style="mix-blend-mode:multiply">
<path d="M547.72 877.959L524.171 913.281L516.225 923.195L476.85 970.086C476.144 969.377 475.804 968.385 476.156 967.593C476.386 967.08 502.274 938.499 514.668 922.49C515.164 911.866 515.31 909.958 516.487 909.958C517.153 909.958 516.119 919.745 517.904 919.481C524.436 911.663 545.039 880.144 546.9 877.606L547.72 877.959Z" fill="#353637"/>
</g>
<path d="M543.416 870.864L555.801 878.895L564.874 865.443L552.489 857.413L543.416 870.864Z" fill="#E6E7E8"/>
<path d="M552.255 871.071C548.787 868.808 544.916 868.57 543.601 870.539C542.287 872.508 544.013 875.938 547.481 878.201C550.941 880.459 554.812 880.697 556.135 878.733C557.449 876.764 555.715 873.33 552.263 871.076L552.255 871.071Z" fill="#E6E7E8"/>
<path d="M560.806 858.113C557.338 855.85 553.466 855.612 552.152 857.581C550.838 859.55 552.564 862.98 556.032 865.243C559.492 867.501 563.363 867.739 564.686 865.775C566.005 863.798 564.266 860.372 560.814 858.118L560.806 858.113Z" fill="white"/>
<g style="mix-blend-mode:multiply">
<path d="M561.054 858.252L547.639 878.368C550.965 880.548 554.687 880.778 555.958 878.882L564.784 865.647C566.052 863.739 564.381 860.432 561.062 858.256L561.054 858.252Z" fill="#E6E7E8"/>
</g>
<path d="M562.347 855.022C562.02 855.482 560.486 857.443 558.367 860.51C558.624 861.315 558.965 861.563 559.86 861.576C562.138 858.05 563.554 855.85 563.595 855.763C563.888 855.146 562.809 854.37 562.347 855.022Z" fill="#474747"/>
<g style="mix-blend-mode:multiply">
<path d="M558.954 861.422L563.113 855.038C562.889 854.976 562.501 854.868 562.321 855.038C561.903 855.445 560.49 857.471 558.398 860.518C558.542 860.915 558.552 861.173 558.954 861.422Z" fill="#A7A9AC"/>
</g>
</svg>
