<svg width="1200" height="1115" viewBox="0 0 1200 1115" fill="none" xmlns="http://www.w3.org/2000/svg">
<path d="M316.205 1056.28C284.248 1049.82 265.958 1046.77 235.313 1035.63C100.084 986.469 601.782 998.311 601.782 998.311C601.782 998.311 997.852 953.876 977.447 1030.4C945.969 1041.06 927.433 1044.5 894.715 1050.31C858.682 1056.7 836.923 1051.05 801.565 1060.5C780.129 1066.23 769.464 1073.66 748.249 1080.16C704.958 1093.43 676.212 1084.25 634.263 1101.3C625.986 1104.67 621.908 1107.95 613.427 1110.76C566.47 1126.31 540.995 1083.11 492.7 1072.45C425.109 1057.52 384.055 1069.97 316.205 1056.28Z" fill="#7E7E7E"/>
<path d="M212.635 1035.88C199.696 1031.52 193.919 1025.61 181.382 1020.2C159.929 1010.95 146.492 1009.6 124.387 1002.04C422.525 940.766 1084.08 988.858 1084.08 988.858C1084.08 988.858 1070.89 1001.08 1061.4 1007.52C1038.83 1022.84 1023.19 1027.87 996.441 1033.14C955.912 1041.12 932.009 1019.23 891.033 1024.43C861.164 1028.22 846.466 1039.97 816.883 1045.58C778.226 1052.91 754.488 1062.33 716.378 1052.54C688.347 1045.34 679.68 1016.04 650.807 1017.96C628.054 1019.48 617.842 1032.24 599.33 1045.58C583.608 1056.91 580.318 1071.18 562.559 1078.91C519.69 1097.59 502.271 1030.54 455.927 1024.43C407.153 1018 381.048 1064.62 333.232 1053.03C316.392 1048.95 309.068 1040.26 292.304 1035.88C262.198 1028.01 242.13 1045.8 212.635 1035.88Z" fill="#6D6D6D"/>
<path d="M267.792 998.311C249.26 996.049 243.553 1015.97 225.453 1020.55C184.439 1030.93 131.48 1034.69 94.3616 998.311C75.4649 979.79 47.4081 954.631 61.7933 938.853L1166.2 938.853C1166.2 938.853 1135.31 970.825 1110.43 983.353C1084.39 996.467 1067.23 1000.46 1038.12 1001.79C1005.79 1003.27 988.956 985.98 956.61 986.867C914.548 988.02 895.732 1018.32 853.655 1018.71C834.856 1018.88 823.333 1006.05 805.855 1012.99C782.771 1022.15 797.942 1059.99 774.601 1068.47C742.417 1080.16 742.445 1022.14 711.479 1007.52C662.327 984.303 627.252 1018.63 572.948 1020.55C540.193 1021.71 521.748 1022.35 489.023 1020.55C441.76 1017.95 415.621 996.623 368.908 1004.28C341.93 1008.7 328.854 1035.17 302.723 1027.13C285.833 1021.93 285.332 1000.45 267.792 998.311Z" fill="#5E5E5E"/>
<path d="M138.377 970.201C116.734 973.183 106.609 992.134 85.2221 987.669C59.0757 982.211 40.6719 935.675 40.6719 935.675L1181.76 928.894L1166.06 939.991C1166.06 939.991 1109.02 977.155 1068.36 976.161C1048.22 975.669 1056.7 961.958 1036.67 959.86C1005.43 956.589 968.373 965.759 938.733 976.161C918.351 983.314 911.274 995.651 889.812 998.062C865.678 1000.77 870.047 988.52 845.873 986.189C826.45 984.316 799.535 973.406 781.955 981.892C767.236 988.996 765.695 1003.26 750.7 1009.75C727.981 1019.6 712.304 1004.76 687.557 1004.24C644.285 1003.33 617.436 1025.34 574.162 1024.49C538.353 1023.78 521.912 1003.61 486.101 1004.24C467.794 1004.57 455.14 1001.03 437.113 1004.24C411.52 1008.8 397.991 1042.02 375.904 1028.28C357.281 1016.7 372.12 991.864 358.167 974.928C326.316 936.266 280.453 988.885 230.515 985.82C194.09 983.584 174.53 965.221 138.377 970.201Z" fill="#474747"/>
<path d="M491.449 1042.17C489.003 1053.74 489.003 1060.88 491.449 1072.45C551.658 1087.85 565.787 1128.69 613.993 1110.36C629.015 1093.65 502.714 988.904 491.449 1042.17Z" fill="#A5A5A5"/>
<path d="M673.935 1043.11C665.449 1059.5 667.832 1076.52 680.493 1089.94C716.198 1088.89 732.265 1085.02 747.142 1080.84C755.027 1057.29 688.583 1014.81 673.935 1043.11Z" fill="#A5A5A5"/>
<path d="M867.699 1035.3C856.377 1041.65 845.506 1042.52 840.61 1054.56C879.165 1054.56 888.712 1050.29 895.764 1050.29C914.333 1042.15 933.12 1036.05 934.594 1015.79C936.573 988.603 891.448 1022 867.699 1035.3Z" fill="#A5A5A5"/>
<path d="M391.746 1039.36C407.945 1022.26 316.154 1034.63 309.758 1054.91C331.629 1060.27 344.423 1060.72 360.49 1062.06C374.716 1057.82 382.282 1050.82 391.746 1039.36Z" fill="#A5A5A5"/>
<path d="M965.785 228.308C959.828 319.226 887.511 371.012 832.209 399.56C776.907 428.109 743.268 458.278 732.01 548.25C721.738 630.374 616.64 783.538 437.92 764.992C420.844 763.22 403.097 759.879 384.695 754.76C325.256 738.227 279.594 716.93 245.002 692.505C156.793 630.226 140.579 547.603 151.577 471.691C166.89 366.014 234.103 289.638 322.586 209.069C340.512 192.746 365.642 173.925 395.368 154.412C483.263 96.6942 611.337 32.8606 712.105 9.3222C733.442 4.33915 753.555 1.16374 771.803 0.232813C905.379 -6.57293 971.739 137.387 965.785 228.308Z" fill="#EFBDA0"/>
<path d="M481.243 792.299C480.263 792.299 479.284 792.293 478.302 792.284L478.335 789.272C479.308 789.284 480.275 789.287 481.243 789.287C487.224 789.287 493.244 789.082 499.138 788.681L499.343 791.688C493.383 792.094 487.293 792.299 481.243 792.299ZM457.275 791.257C455.615 791.112 453.919 790.953 452.231 790.778C446.997 790.236 441.667 789.537 436.385 788.702L436.855 785.726C442.083 786.551 447.362 787.244 452.542 787.78C454.211 787.952 455.889 788.112 457.534 788.253L457.275 791.254V791.257ZM520.258 789.407L519.809 786.428C526.655 785.397 533.522 784.069 540.223 782.481L540.919 785.412C534.137 787.018 527.185 788.365 520.258 789.407ZM415.729 784.722C410.477 783.532 405.132 782.18 399.834 780.706C398.34 780.291 396.854 779.872 395.378 779.45L396.206 776.552C397.677 776.971 399.156 777.389 400.642 777.802C405.891 779.263 411.191 780.601 416.395 781.782L415.729 784.719V784.722ZM561.18 779.706L560.243 776.844C566.794 774.699 573.348 772.247 579.724 769.553L580.896 772.328C574.444 775.054 567.812 777.537 561.18 779.706ZM375.292 773.355C368.536 771.18 361.853 768.89 355.429 766.553L356.459 763.721C362.85 766.046 369.497 768.321 376.217 770.487L375.292 773.355ZM599.933 763.347L598.538 760.678C604.634 757.493 610.705 754.005 616.584 750.311L618.187 752.863C612.239 756.601 606.098 760.129 599.933 763.35V763.347ZM335.84 758.969C329.268 756.264 322.795 753.423 316.6 750.528L317.878 747.798C324.031 750.675 330.461 753.498 336.988 756.186L335.84 758.973V758.969ZM297.798 741.134C291.518 737.784 285.377 734.271 279.544 730.698L281.12 728.128C286.902 731.671 292.992 735.151 299.217 738.477L297.798 741.134ZM635.562 740.975L633.766 738.555C639.286 734.458 644.755 730.074 650.013 725.528L651.984 727.806C646.668 732.403 641.142 736.835 635.562 740.975ZM261.977 719.12C256.17 715.002 250.55 710.694 245.274 706.316L247.2 703.996C252.416 708.326 257.975 712.586 263.721 716.662L261.977 719.12ZM667.396 713.465L665.266 711.335C670.144 706.455 674.923 701.327 679.467 696.085L681.742 698.058C677.153 703.352 672.326 708.533 667.396 713.465ZM229.642 692.217C224.58 687.24 219.758 682.043 215.311 676.776L217.613 674.833C222 680.03 226.755 685.158 231.754 690.069L229.642 692.217ZM694.967 681.681L692.557 679.873C696.73 674.318 700.737 668.564 704.474 662.776L707.005 664.409C703.232 670.26 699.183 676.071 694.967 681.684V681.681ZM202.535 660.014C198.554 654.199 194.857 648.146 191.552 642.019L194.203 640.588C197.461 646.622 201.097 652.584 205.021 658.311L202.535 660.014ZM717.762 646.303L715.117 644.863C718.485 638.674 721.589 632.393 724.34 626.19L727.094 627.41C724.31 633.685 721.17 640.042 717.762 646.3V646.303ZM182.551 622.951C179.921 616.495 177.6 609.788 175.654 603.025L178.55 602.193C180.466 608.855 182.75 615.455 185.341 621.815L182.551 622.951ZM734.757 607.767L731.9 606.809C734.205 599.925 736.043 593.185 737.357 586.78L740.307 587.386C738.969 593.908 737.101 600.765 734.757 607.767ZM170.878 582.487C169.658 575.69 168.742 568.659 168.157 561.588L171.161 561.341C171.737 568.315 172.641 575.254 173.846 581.957L170.881 582.49L170.878 582.487ZM743.477 566.613L740.5 566.155C741.609 558.931 742.91 551.977 744.369 545.488L747.31 546.148C745.866 552.568 744.58 559.455 743.48 566.61L743.477 566.613ZM170.369 540.553L167.355 540.538C167.389 533.675 167.705 526.598 168.299 519.506L171.303 519.756C170.715 526.77 170.402 533.765 170.369 540.55V540.553ZM752.737 526.092L749.868 525.167C752.113 518.214 754.677 511.598 757.491 505.506L760.227 506.768C757.464 512.752 754.942 519.253 752.734 526.092H752.737ZM173.783 499.077L170.806 498.613C171.881 491.687 173.216 484.736 174.768 477.958L177.706 478.63C176.169 485.339 174.852 492.217 173.786 499.077H173.783ZM770.237 488.68L767.721 487.023C771.593 481.139 775.978 475.538 780.747 470.372L782.962 472.417C778.237 477.533 774.073 482.853 770.237 488.68ZM183.075 458.511L180.195 457.631C182.229 450.982 184.534 444.29 187.053 437.744L189.864 438.825C187.372 445.306 185.085 451.928 183.075 458.511ZM798.119 458.348L796.232 455.998C801.433 451.825 807.062 447.836 813.438 443.802L815.05 446.348C808.77 450.319 803.232 454.245 798.119 458.345V458.348ZM833.066 435.912L831.641 433.258C833.66 432.173 835.799 431.05 838.002 429.911C842.124 427.784 846.195 425.597 850.1 423.415L851.57 426.045C847.635 428.245 843.534 430.444 839.385 432.589C837.197 433.719 835.07 434.837 833.066 435.912ZM198.006 419.658L195.273 418.387C198.178 412.142 201.366 405.827 204.747 399.624L207.392 401.067C204.041 407.213 200.884 413.47 198.006 419.658ZM869.643 415.278L868.025 412.735C874.007 408.93 879.801 404.977 885.246 400.986L887.027 403.414C881.528 407.445 875.679 411.437 869.64 415.275L869.643 415.278ZM903.536 390.345L901.575 388.058C906.941 383.458 912.054 378.676 916.776 373.853L918.931 375.959C914.149 380.846 908.969 385.687 903.536 390.345ZM217.908 383.075L215.35 381.481C218.969 375.676 222.871 369.78 226.945 363.956L229.416 365.683C225.372 371.464 221.5 377.315 217.908 383.075ZM932.924 360.19L930.571 358.307C934.955 352.83 939.014 347.148 942.636 341.415L945.182 343.024C941.5 348.85 937.375 354.626 932.921 360.19H932.924ZM241.776 348.875L239.389 347.034C243.539 341.653 247.968 336.149 252.554 330.675L254.865 332.609C250.306 338.053 245.904 343.524 241.779 348.872L241.776 348.875ZM955.367 324.541L952.643 323.251C955.605 316.997 958.184 310.52 960.311 303.997L963.177 304.931C961.01 311.574 958.383 318.172 955.369 324.541H955.367ZM268.557 316.84L266.316 314.828C270.835 309.799 275.632 304.621 280.574 299.433L282.756 301.511C277.835 306.675 273.056 311.833 268.557 316.84ZM297.367 286.562L295.236 284.432C299.982 279.69 305.023 274.755 310.221 269.763L312.309 271.936C307.124 276.913 302.098 281.835 297.367 286.562ZM968.42 284.49L965.461 283.926C966.732 277.229 967.606 270.312 968.064 263.364L968.079 263.129L971.086 263.316L971.071 263.563C970.607 270.634 969.718 277.675 968.423 284.493L968.42 284.49ZM327.517 257.574L325.465 255.369C329.56 251.561 333.899 247.569 338.368 243.498C339.205 242.736 340.058 241.968 340.926 241.197L342.93 243.447C342.071 244.213 341.224 244.972 340.396 245.728C335.936 249.789 331.603 253.775 327.517 257.577V257.574ZM968.164 242.369C967.817 235.635 967.115 228.673 966.072 221.674L969.053 221.231C970.107 228.323 970.821 235.382 971.171 242.212L968.161 242.366L968.164 242.369ZM358.906 230.032L357.026 227.676C362.202 223.545 367.81 219.249 373.692 214.902L375.482 217.324C369.627 221.647 364.049 225.919 358.903 230.029L358.906 230.032ZM392.479 205.168L390.759 202.694C396.318 198.832 402.164 194.879 408.13 190.942L409.79 193.457C403.842 197.38 398.017 201.32 392.476 205.168H392.479ZM962.113 201.239C960.519 194.545 958.615 187.802 956.46 181.198L959.326 180.264C961.507 186.947 963.433 193.77 965.048 200.54L962.116 201.239H962.113ZM427.375 182.12L425.769 179.571C431.573 175.914 437.578 172.208 443.622 168.554L445.18 171.133C439.151 174.775 433.161 178.472 427.375 182.12ZM949.201 161.682C946.514 155.262 943.543 148.917 940.376 142.825L943.048 141.436C946.255 147.6 949.259 154.021 951.98 160.519L949.201 161.682ZM463.181 160.468L461.669 157.862C467.65 154.388 473.782 150.893 479.893 147.477L481.363 150.107C475.264 153.514 469.147 157 463.181 160.468ZM499.714 140.048L498.285 137.393C504.417 134.094 510.658 130.802 516.838 127.605L518.224 130.28C512.059 133.468 505.833 136.755 499.714 140.045V140.048ZM929.98 124.794C926.217 118.886 922.185 113.168 918 107.793L920.377 105.944C924.62 111.391 928.706 117.187 932.52 123.176L929.98 124.794ZM536.882 120.817L535.541 118.121C541.805 115.009 548.151 111.921 554.4 108.941L555.696 111.662C549.462 114.632 543.131 117.714 536.882 120.82V120.817ZM574.664 102.822L573.417 100.081C579.817 97.1675 586.268 94.2994 592.593 91.5608L593.792 94.3265C587.486 97.059 581.052 99.9181 574.667 102.825L574.664 102.822ZM904.416 92.0729C899.568 87.0206 894.457 82.2635 889.229 77.9252L891.152 75.6054C896.467 80.013 901.659 84.8515 906.588 89.9851L904.416 92.0729ZM613.068 86.1951L611.926 83.4084C618.467 80.727 625.027 78.118 631.424 75.6536L632.506 78.4645C626.13 80.9198 619.588 83.5198 613.068 86.1951ZM652.11 71.1797L651.095 68.3447C657.796 65.9466 664.476 63.6539 670.949 61.533L671.889 64.3951C665.441 66.507 658.787 68.7906 652.11 71.1797ZM872.497 65.6875C866.645 61.9427 860.54 58.5775 854.354 55.6853L855.632 52.9557C861.936 55.9022 868.158 59.3337 874.121 63.1478L872.497 65.6845V65.6875ZM691.848 58.1888L690.999 55.2996C697.881 53.2781 704.697 51.4102 711.254 49.7412L711.995 52.6605C705.471 54.3175 698.694 56.1794 691.845 58.1888H691.848ZM835.052 48.2137C828.507 46.1831 821.73 44.5774 814.914 43.4416L815.408 40.471C822.36 41.6279 829.269 43.2668 835.947 45.3366L835.055 48.2137H835.052ZM732.337 47.9546L731.725 45.0052C738.831 43.5319 745.794 42.2817 752.42 41.2905L752.866 44.2701C746.297 45.2552 739.388 46.4935 732.337 47.9546ZM773.561 41.893L773.332 38.8893C775.387 38.7327 777.439 38.6001 779.434 38.5007C782.432 38.347 785.451 38.2717 788.407 38.2717C790.411 38.2717 792.433 38.3079 794.418 38.3772L794.313 41.3869C792.36 41.3176 790.375 41.2845 788.407 41.2845C785.499 41.2845 782.534 41.3598 779.587 41.5104C777.617 41.6098 775.589 41.7394 773.561 41.896V41.893Z" fill="#06005A"/>
<path d="M808.682 907.233C800.513 914.573 779.967 929.108 762.857 928.814C762.721 928.888 762.634 928.889 762.605 928.809C762.689 928.811 762.773 928.813 762.857 928.814C764.607 927.869 774.522 914.932 774.522 907.233C774.125 907.233 736.389 922.17 714.939 907.233C716.131 907.233 758.633 881.785 766.577 869.614C766.18 870.167 716.131 874.593 700.242 857.443C700.639 856.339 767.934 817.193 774.488 801.648C773.917 802.495 766.103 807.219 760.341 804.459C760.33 804.46 760.324 804.458 760.324 804.451C760.33 804.454 760.336 804.457 760.341 804.459C760.919 804.413 775.922 795.006 777.8 789.447C777.8 789.781 733.991 802.451 722.5 789.447C723.218 789.447 777.77 755.124 783.541 738.781C783.083 739.42 749.723 738.35 739.976 726.098C740.452 726.762 780.817 706.263 790.371 688.97C788.395 690.925 762.274 700.017 752.185 690.755C752.185 691.089 801.5 633.408 805.091 611.402C804.376 613.063 785.119 618.366 781.43 616.424C781.412 616.426 781.399 616.419 781.391 616.403C781.404 616.41 781.417 616.417 781.43 616.424C782.594 616.331 805.357 582.531 807.007 570.058C807.007 570.392 793.361 574.726 787.376 574.726C787.855 574.726 808.443 542.384 809.879 531.715C810.262 531.448 802.219 533.382 798.149 534.382C803.495 526.825 814.476 510.443 815.625 505.375C815.816 505.375 808.682 509.821 805.091 512.043C810.358 497.373 820.7 465.832 819.934 457.029C820.405 457.686 826.913 499.728 831.683 513.428C831.825 513.645 831.904 513.852 831.904 514.044C831.831 513.846 831.757 513.64 831.683 513.428C830.64 511.836 826.152 509.687 823.764 508.709C827.831 527.7 838.83 571.26 850.312 593.681C850.348 593.7 850.357 593.717 850.337 593.731C850.329 593.714 850.32 593.698 850.312 593.681C849.538 593.263 836.451 591.546 833.584 588.761C835.85 592.498 845.354 610.319 850.337 619.738L840.522 616.403C847.544 633.852 863.839 671.284 872.84 681.42C871.648 680.092 850.277 678.764 843.243 671.18C844.787 673.996 864.679 734.904 888.64 751.104C888.401 751.104 869.249 755.772 858.237 751.104C864.621 763.33 882.033 789.847 900.61 798.116C900.85 798.783 868.771 810.353 853.21 801.568C853.449 801.568 880.461 836.408 925.647 855.09C925.713 855.08 925.747 855.093 925.747 855.131C925.714 855.117 925.681 855.103 925.647 855.09C923.982 855.339 901.757 870.269 886.558 866.485C888.116 866.969 913.132 877.04 925.747 882.138C918.492 887.689 900.501 898.055 886.526 895.149C887.236 895.55 897.208 904.537 902.286 909.145C891.194 912.034 864.605 913.612 846.986 896.808C847.225 897.808 855.843 919.488 860.392 924.148C859.913 924.815 818.019 919.325 808.682 907.233Z" fill="url(#paint0_linear_757_2958)"/>
<path d="M82.1109 909.726C75.9253 915.284 60.3675 926.29 47.4118 926.067C47.3087 926.123 47.243 926.124 47.2212 926.063C47.2847 926.065 47.3482 926.066 47.4118 926.067C48.7369 925.351 56.2445 915.555 56.2445 909.726C55.9437 909.726 27.3703 921.036 11.1286 909.726C12.031 909.726 44.2134 890.457 50.229 881.241C49.9282 881.66 12.0309 885.011 0 872.025C0.300256 871.189 51.2566 841.547 56.2193 829.777C55.7864 830.418 49.8697 833.995 45.5071 831.906C45.4985 831.906 45.4942 831.904 45.4942 831.9C45.4985 831.902 45.5028 831.904 45.5071 831.906C45.9445 831.871 57.3047 824.748 58.7269 820.539C58.7269 820.791 25.5544 830.385 16.8534 820.539C17.3971 820.539 58.7042 794.549 63.0738 782.174C62.7272 782.658 37.4672 781.847 30.0862 772.57C30.4472 773.073 61.011 757.551 68.2456 744.457C66.7494 745.938 46.9703 752.822 39.331 745.809C39.331 746.062 76.6725 702.385 79.3917 685.723C78.8498 686.981 64.2689 690.996 61.4753 689.526C61.4614 689.527 61.4516 689.521 61.446 689.51C61.4556 689.515 61.4654 689.52 61.4753 689.526C62.3565 689.455 79.5926 663.862 80.8419 654.417C80.8419 654.67 70.5095 657.952 65.9777 657.952C66.3403 657.952 81.9295 633.463 83.0171 625.384C83.3072 625.182 77.2165 626.646 74.1349 627.403C78.1833 621.681 86.4975 609.277 87.3676 605.439C87.5126 605.439 82.1108 608.805 79.3917 610.488C83.3797 599.38 91.2105 575.497 90.6305 568.832C90.9875 569.329 95.9148 601.163 99.5271 611.537C99.6348 611.701 99.694 611.858 99.694 612.003C99.6387 611.853 99.5831 611.698 99.5271 611.537C98.7373 610.331 95.3386 608.704 93.5308 607.964C96.6101 622.344 104.938 655.328 113.632 672.304C113.66 672.319 113.667 672.332 113.652 672.342C113.645 672.33 113.639 672.317 113.632 672.304C113.047 671.988 103.137 670.688 100.967 668.579C102.682 671.409 109.879 684.903 113.652 692.034L106.22 689.51C111.537 702.722 123.875 731.065 130.691 738.74C129.789 737.735 113.607 736.729 108.28 730.986C109.449 733.119 124.512 779.239 142.655 791.505C142.474 791.505 127.972 795.04 119.634 791.505C124.468 800.762 137.652 820.842 151.719 827.103C151.9 827.608 127.61 836.369 115.827 829.716C116.008 829.716 136.462 856.097 170.677 870.243C170.727 870.236 170.752 870.245 170.752 870.274C170.727 870.264 170.702 870.253 170.677 870.243C169.416 870.432 152.587 881.737 141.078 878.872C142.258 879.238 161.2 886.864 170.752 890.724C165.259 894.927 151.636 902.776 141.054 900.576C141.592 900.88 149.143 907.685 152.988 911.173C144.589 913.361 124.456 914.556 111.114 901.832C111.295 902.59 117.821 919.005 121.265 922.534C120.903 923.039 89.1806 918.882 82.1109 909.726Z" fill="url(#paint1_linear_757_2958)"/>
<path d="M853.89 783.518L858.078 684.486C858.078 684.486 832.416 709.242 831.695 708.824C830.973 708.406 831.695 698.333 831.695 698.333C824.855 706.446 810.086 721.665 805.731 717.636C801.376 713.608 801.962 710.083 802.8 708.824C800.566 711.761 795.094 716.965 791.074 714.279C787.053 711.594 787.723 707.565 788.561 705.887C782.977 707.425 771.809 709.579 771.809 705.887C771.809 701.271 814.943 686.164 819.969 680.709C824.994 675.254 809.918 679.87 809.918 676.093C809.918 672.316 838.418 665.381 842.164 663.504C858.078 655.531 858.078 653.831 858.078 639.659V631.59C858.078 629.626 834.228 638.588 834.228 638.588L832.093 636.045L858.078 626.414V576.199L802.8 603.916L795.336 598.436L858.078 569.916V551.043C858.078 526.94 821.083 541.549 824.487 531.344C837.058 523.994 846.243 526.034 848.254 517.642C832.233 522.315 797.642 528.702 797.789 521.883C797.937 515.063 814 513.296 816.836 511.443C808.76 512.864 760.564 513.957 760.268 510.547C759.899 506.285 796.936 498.142 796.936 494.991C796.936 491.841 786.644 492.077 785.72 488.927C784.795 485.776 841.68 477.275 840.571 477.275L840.501 477.275C838.608 477.277 811.315 477.294 810.041 474.375C808.746 471.41 858.078 465.061 858.078 461.052C858.078 459.009 858.232 453.957 858.368 448.239L831.579 453.916L829.906 451.4L858.53 442.563C858.628 435.487 858.58 426.45 858.078 424.857C856.968 421.337 819.716 432.373 818.62 426.257C822.952 422.99 824.861 423.425 829.023 416.812H804.611C803.599 413.045 822.711 408.697 836.933 401.951C850.455 395.536 859.095 386.65 859.167 385.494C859.56 379.203 859.294 372.625 858.711 366.37L842.83 370.121L854.004 357.327L836.933 361.577L851.4 350.656L832.898 352.858C843.686 345.136 855.667 327.533 856.999 320.417C857.738 322.085 868.402 340.42 883.956 347.417C890.888 350.535 867.736 348.817 865.455 348.817L888.064 357.327C882.124 360.875 869.724 355.814 869.724 355.814L878.414 362.537C876.561 364.842 865.455 361.128 865.455 361.128C865.455 361.128 865.864 364.923 865.864 367.295C870.835 372.418 883.474 379.343 883.474 379.343C875.332 380.244 865.455 374.173 865.455 374.173V385.494C880.311 392.845 894.88 407.08 908.915 412.179C906.767 412.818 887.532 413.992 883.34 412.818C888.373 423.338 908.915 429.25 914.529 432.944C912.753 436.65 881.174 430.456 866.73 424.08L867.359 450.077C878.763 456.995 923.857 462.954 922.97 465.178C922.082 467.402 906.342 464.666 905.032 466.896C913.101 478.894 941.007 483.03 943.538 484.883C943.538 491.24 936.121 492.343 930.203 491.726C936.861 495.679 953.048 500.239 950.533 502.611C948.018 504.984 908.915 511.227 895.229 510.547C900.346 513.64 913.305 521.207 910.494 522.827C907.442 524.586 940.732 536.908 947.125 538.058C947.4 537.954 947.678 537.846 947.959 537.736C948.445 538.15 948.094 538.233 947.125 538.058C927.808 545.395 922.99 537.395 922.97 541.526C938.309 550.414 963.378 557.953 963.378 563.378C963.378 563.378 950.788 564.483 947.959 564.528C945.129 564.574 891.038 551.043 891.038 551.043C891.038 551.043 905.032 563.378 902.028 564.528C899.025 565.679 875.626 554.666 875.626 554.666L875.472 595.581L925.23 611.765C925.23 613.554 920.971 613.262 920.946 616.355C920.932 617.948 875.557 597.67 875.538 599.544C875.519 601.472 875.472 622.563 875.472 622.563C875.472 622.563 907.877 636.663 920.946 636.993C937.281 637.405 920.206 645.546 912.183 642.146C904.16 638.746 923.697 652.594 943.538 655.531C963.378 658.469 919.383 663.556 912.183 655.531C912.869 661.401 922.285 670.414 947.959 672.776C949.585 678.146 933.989 683.704 926.583 679.251C920.946 679.045 937.692 693.269 953.739 693.681C959.293 693.475 955.551 699.893 947.959 698.333C940.367 696.773 945.304 705.887 958.882 705.887C965.945 710.468 935.881 717.636 908.054 692.392C909.172 701.92 934.175 709.475 926.583 710.874C917.264 711.857 898.99 706.625 891.195 699.752C894.396 702.957 901.951 710.747 903.366 714.279C891.147 710.874 885.387 707.288 875.309 695.953C875.584 726.708 876.174 752.782 877.291 783.518H853.89Z" fill="url(#paint2_linear_757_2958)"/>
<path d="M280.729 842.132L283.446 771.955C266.354 766.459 230.745 753.608 225.04 746.167C217.909 736.867 203.986 758.427 200.251 753.777C197.263 750.057 201.044 740.672 203.307 736.445C189.272 741.799 158.96 749.972 149.995 739.826C163.012 735.458 190.811 722.409 197.874 705.161C197.535 705.583 181.914 709.388 177.84 705.161C174.58 701.778 180.782 694.732 184.291 691.632C172.633 693.182 148.161 694.254 143.543 686.137C140.826 683.177 222.323 648.935 233.868 616.383C235.566 611.31 225.04 615.115 225.04 611.733C225.04 608.351 237.604 598.204 242.358 596.936C242.698 595.668 197.195 600.318 193.12 594.4C189.86 589.665 207.609 581.154 216.89 577.49C208.854 577.631 192.373 576.898 190.743 572.84C188.706 567.767 233.869 550.433 245.075 533.101C244.056 533.523 237.265 534.792 235.567 530.564C233.868 526.337 278.012 507.313 280.729 479.834C280.729 478.566 256.281 492.094 245.075 489.981C236.11 488.29 255.601 472.648 266.467 465.038L250.168 462.501C266.987 451.054 302.001 419.307 308.73 383.205C308.815 382.542 308.88 382.178 308.914 382.178C308.855 382.521 308.794 382.863 308.73 383.205C307.966 389.166 305.552 419.296 308.914 426.144C312.649 433.753 334.382 463.769 355.095 467.996H332.684C337.89 473.351 348.032 484.652 346.946 487.02C345.859 489.388 324.308 483.216 313.668 479.834C315.479 486.316 320.459 499.872 325.892 502.239C332.684 505.199 375.13 528.028 386.336 530.564C385.792 530.564 371.621 532.255 364.603 533.101L380.563 547.896H364.603C377.507 557.761 403.654 578.673 405.012 583.408C406.37 586.367 382.6 583.408 380.563 583.408C378.526 583.408 392.108 595.668 386.336 601.163C381.718 605.56 353.397 598.486 339.815 594.4V603.7C350.002 615.819 374.655 641.663 391.769 648.089C395.504 649.78 370.376 654.853 355.095 641.325C361.321 652.88 382.397 678.02 416.897 686.137C422.33 686.137 384.977 697.128 377.507 691.632C384.525 697.974 402.228 711.586 416.897 715.306L400.937 723.339C413.275 725.734 437.815 731.117 437.271 733.485C436.592 736.445 387.354 746.168 358.491 739.826C350.341 736.445 379.544 754.622 377.507 759.695C375.877 763.754 331.099 761.386 308.914 759.695C316.611 763.359 331.393 771.702 328.948 775.76C326.503 779.818 307.555 777.451 298.387 775.76L305.178 842.132H280.729Z" fill="url(#paint3_linear_757_2958)"/>
<path d="M168.891 880.074C180.92 888.392 209.393 905.572 227.373 907.998C227.485 908.096 227.555 908.108 227.576 908.025C227.508 908.016 227.441 908.007 227.373 907.998C225.523 906.389 212.061 881.619 213.086 877.17C213.448 877.17 255.417 898.198 276.803 899.673C276.84 899.698 276.854 899.699 276.842 899.676C276.829 899.675 276.816 899.674 276.803 899.673C275.672 898.93 252.918 877.023 249.692 869.952C250.697 870.688 286.867 871.986 299.664 866.643C298.577 867.369 236.269 823.81 224.677 806.75C230.232 807.597 242.645 808.782 247.862 806.75C249.673 806.75 221.779 791.867 218.519 785.333C219.243 784.971 242.388 789.681 254.351 787.517C254.381 787.531 254.391 787.53 254.382 787.511C254.372 787.513 254.361 787.515 254.351 787.517C253.209 786.966 223.989 762.715 218.567 752.753C219.812 754.013 245.247 759.061 260.803 754.509C260.852 754.513 260.885 754.503 260.903 754.479C260.87 754.489 260.836 754.499 260.803 754.509C257.885 754.265 200.335 704.518 196.059 690.593C195.335 689.504 219.606 698.579 232.647 693.134C231.923 693.134 188.822 651.034 184.106 632.882C184.402 632.964 192.103 634.109 196.059 634.692L179.033 607.831L198.595 612.187C190.384 600.087 173.455 573.129 171.426 562.094C171.064 561.368 183.381 568.991 188.452 568.265C181.174 555.472 166.349 528.194 164.601 520.264C165.182 521.136 169.253 522.347 171.426 522.891L164.543 493.852C159.593 515.268 147.807 560.134 140.272 568.265C140.852 568.265 148.483 564.151 152.227 562.094C145.344 576.856 130.202 607.54 124.695 612.187C125.565 612.187 137.616 609.283 143.533 607.831C136.65 630.336 118.537 678.397 101.149 690.593C101.729 690.593 114.915 688.173 121.435 686.963C109.414 710.816 82.0236 759.521 67.3652 766.194C66.9551 766.34 66.7348 766.431 66.7348 766.458C66.9422 766.379 67.1524 766.291 67.3652 766.194C71.3965 764.758 93.7685 757.994 105.496 754.479L71.0819 795.134C79.1722 795.014 97.0192 794.046 103.685 791.142C105.496 790.779 60.9388 853.213 23.9889 866.643C25.0757 866.643 54.4182 869.91 66.7348 866.643C62.8708 874.266 54.4907 890.529 51.8824 894.594C67.7008 894.836 103.757 892.27 121.435 880.074L124.695 905.484C136.046 900.402 160.776 888.205 168.891 880.074Z" fill="url(#paint4_linear_757_2958)"/>
<path d="M787.356 848.436C779.613 853.441 760.138 863.354 743.92 863.153C743.791 863.203 743.709 863.204 743.682 863.149C743.761 863.151 743.841 863.152 743.92 863.153C745.579 862.508 754.977 853.686 754.977 848.436C754.6 848.436 718.832 858.622 698.501 848.436C699.631 848.436 739.917 831.081 747.447 822.781C747.07 823.159 699.631 826.177 684.57 814.481C684.946 813.728 748.733 787.032 754.945 776.431C754.403 777.009 746.997 780.231 741.536 778.349C741.525 778.35 741.52 778.348 741.52 778.343C741.525 778.345 741.531 778.347 741.536 778.349C742.084 778.318 756.304 771.902 758.084 768.112C758.084 768.339 716.559 776.979 705.667 768.112C706.348 768.112 758.056 744.705 763.526 733.56C763.092 733.995 731.472 733.265 722.232 724.91C722.684 725.363 760.944 711.384 770 699.59C768.127 700.924 743.368 707.124 733.805 700.808C733.805 701.036 780.549 661.7 783.953 646.693C783.274 647.826 765.022 651.442 761.525 650.118C761.507 650.119 761.495 650.114 761.488 650.104C761.5 650.108 761.512 650.113 761.525 650.118C762.628 650.055 784.204 627.004 785.768 618.498C785.768 618.726 772.834 621.682 767.161 621.682C767.615 621.682 787.129 599.626 788.491 592.35C788.854 592.168 781.23 593.487 777.372 594.169C782.44 589.015 792.848 577.844 793.937 574.388C794.118 574.388 787.356 577.419 783.953 578.935C788.945 568.931 798.747 547.421 798.021 541.418C798.468 541.866 804.636 570.537 809.158 579.879C809.293 580.027 809.367 580.168 809.367 580.299C809.298 580.164 809.228 580.024 809.158 579.879C808.169 578.793 803.915 577.328 801.652 576.661C805.506 589.612 815.932 619.318 826.815 634.608C826.849 634.621 826.858 634.633 826.839 634.642C826.831 634.631 826.823 634.619 826.815 634.608C826.082 634.323 813.677 633.152 810.96 631.253C813.107 633.802 822.116 645.954 826.839 652.377L817.536 650.104C824.192 662.003 839.637 687.53 848.169 694.442C847.039 693.536 826.783 692.63 820.115 687.459C821.579 689.379 840.433 730.916 863.145 741.963C862.918 741.963 844.765 745.147 834.327 741.963C840.378 750.3 856.883 768.384 874.491 774.023C874.718 774.478 844.312 782.368 829.562 776.377C829.789 776.377 855.393 800.137 898.223 812.876C898.285 812.87 898.317 812.879 898.317 812.904C898.286 812.895 898.254 812.886 898.223 812.876C896.644 813.047 875.578 823.228 861.171 820.647C862.648 820.977 886.36 827.846 898.317 831.322C891.44 835.108 874.387 842.177 861.141 840.195C861.814 840.469 871.267 846.597 876.079 849.739C865.566 851.71 840.363 852.786 823.662 841.326C823.889 842.008 832.058 856.793 836.37 859.971C835.916 860.426 796.206 856.682 787.356 848.436Z" fill="#4C7A70"/>
<path d="M360.447 870.041C348.17 877.977 317.293 893.693 291.579 893.375C291.375 893.455 291.244 893.456 291.201 893.369C291.327 893.372 291.453 893.374 291.579 893.375C294.209 892.353 309.11 878.365 309.11 870.041C308.513 870.041 251.803 886.191 219.568 870.041C221.358 870.041 285.231 842.526 297.17 829.366C296.574 829.964 221.358 834.75 197.48 816.207C198.076 815.012 299.21 772.687 309.06 755.879C308.2 756.795 296.458 761.903 287.799 758.919C287.782 758.92 287.773 758.917 287.773 758.91C287.782 758.913 287.79 758.916 287.799 758.919C288.667 758.869 311.214 748.698 314.036 742.688C314.036 743.048 248.199 756.747 230.93 742.688C232.009 742.688 313.991 705.576 322.664 687.906C321.976 688.597 271.842 687.439 257.193 674.192C257.909 674.91 318.57 652.746 332.928 634.048C329.959 636.163 290.703 645.992 275.541 635.979C275.541 636.339 349.653 573.973 355.05 550.179C353.975 551.976 325.036 557.709 319.491 555.61C319.464 555.611 319.444 555.604 319.433 555.587C319.452 555.595 319.472 555.602 319.491 555.61C321.24 555.509 355.449 518.964 357.928 505.477C357.928 505.838 337.421 510.524 328.427 510.524C329.147 510.524 360.087 475.556 362.246 464.02C362.821 463.731 350.733 465.822 344.617 466.904C352.645 458.739 369.126 441.049 370.876 435.554C370.512 435.834 360.28 440.421 355.05 442.75C362.965 426.888 378.507 392.785 377.356 383.267C378.064 383.977 387.844 429.434 395.013 444.247C395.227 444.482 395.344 444.705 395.344 444.913C395.235 444.699 395.124 444.476 395.013 444.247C393.445 442.525 386.7 440.203 383.112 439.145C389.224 459.678 405.753 506.777 423.008 531.019C423.062 531.04 423.076 531.058 423.047 531.073C423.034 531.055 423.021 531.037 423.008 531.019C421.845 530.568 402.178 528.711 397.87 525.699C401.275 529.74 415.558 549.008 423.047 559.192L408.296 555.587C418.849 574.453 443.338 614.926 456.865 625.885C455.074 624.449 422.957 623.013 412.385 614.813C414.706 617.858 444.6 683.714 480.61 701.23C480.25 701.23 451.468 706.277 434.919 701.23C444.513 714.448 470.68 743.12 498.598 752.061C498.958 752.782 450.749 765.292 427.364 755.792C427.723 755.792 468.318 793.463 536.225 813.662C536.323 813.651 536.374 813.665 536.374 813.706C536.324 813.692 536.274 813.677 536.225 813.662C533.722 813.932 500.322 830.075 477.48 825.983C479.821 826.506 517.416 837.396 536.374 842.907C525.471 848.91 498.434 860.118 477.432 856.976C478.499 857.409 493.486 867.126 501.117 872.108C484.447 875.232 444.489 876.938 418.01 858.769C418.37 859.851 431.321 883.291 438.157 888.33C437.437 889.051 374.478 883.115 360.447 870.041Z" fill="url(#paint5_linear_757_2958)"/>
<path d="M1079.21 907.233C1071.04 914.573 1050.49 929.108 1033.38 928.814C1033.24 928.888 1033.16 928.889 1033.13 928.809C1033.21 928.811 1033.3 928.813 1033.38 928.814C1035.13 927.869 1045.05 914.932 1045.05 907.233C1044.65 907.233 1006.91 922.17 985.463 907.233C986.654 907.233 1029.16 881.785 1037.1 869.614C1036.7 870.167 986.654 874.593 970.766 857.443C971.162 856.339 1038.46 817.193 1045.01 801.648C1044.44 802.495 1036.63 807.219 1030.86 804.459C1030.85 804.46 1030.85 804.458 1030.85 804.451C1030.85 804.454 1030.86 804.457 1030.86 804.459C1031.44 804.413 1046.45 795.006 1048.32 789.447C1048.32 789.781 1004.51 802.451 993.023 789.447C993.741 789.447 1048.29 755.124 1054.06 738.781C1053.61 739.42 1020.25 738.35 1010.5 726.098C1010.98 726.762 1051.34 706.263 1060.89 688.97C1058.92 690.925 1032.8 700.017 1022.71 690.755C1022.71 691.089 1072.02 633.408 1075.61 611.402C1074.9 613.063 1055.64 618.366 1051.95 616.424C1051.93 616.426 1051.92 616.419 1051.91 616.403C1051.93 616.41 1051.94 616.417 1051.95 616.424C1053.12 616.331 1075.88 582.531 1077.53 570.058C1077.53 570.392 1063.88 574.726 1057.9 574.726C1058.38 574.726 1078.97 542.384 1080.4 531.715C1080.79 531.448 1072.74 533.382 1068.67 534.382C1074.02 526.825 1085 510.443 1086.15 505.375C1086.34 505.375 1079.21 509.821 1075.61 512.043C1080.88 497.373 1091.22 465.832 1090.46 457.029C1090.93 457.686 1097.44 499.728 1102.21 513.428C1102.35 513.645 1102.43 513.852 1102.43 514.044C1102.35 513.846 1102.28 513.64 1102.21 513.428C1101.16 511.836 1096.68 509.687 1094.29 508.709C1098.35 527.7 1109.35 571.26 1120.83 593.681C1120.87 593.7 1120.88 593.717 1120.86 593.731C1120.85 593.714 1120.84 593.698 1120.83 593.681C1120.06 593.263 1106.97 591.546 1104.11 588.761C1106.37 592.498 1115.88 610.319 1120.86 619.738L1111.05 616.403C1118.07 633.852 1134.36 671.284 1143.36 681.42C1142.17 680.092 1120.8 678.764 1113.77 671.18C1115.31 673.996 1135.2 734.904 1159.16 751.104C1158.92 751.104 1139.77 755.772 1128.76 751.104C1135.14 763.33 1152.56 789.847 1171.13 798.116C1171.37 798.783 1139.29 810.353 1123.73 801.568C1123.97 801.568 1150.98 836.408 1196.17 855.09C1196.24 855.08 1196.27 855.093 1196.27 855.131C1196.24 855.117 1196.2 855.103 1196.17 855.09C1194.51 855.339 1172.28 870.269 1157.08 866.485C1158.64 866.969 1183.66 877.04 1196.27 882.138C1189.02 887.689 1171.02 898.055 1157.05 895.149C1157.76 895.55 1167.73 904.537 1172.81 909.145C1161.72 912.034 1135.13 913.612 1117.51 896.808C1117.75 897.808 1126.37 919.488 1130.92 924.148C1130.44 924.815 1088.54 919.325 1079.21 907.233Z" fill="url(#paint6_linear_757_2958)"/>
<path d="M957.047 844.498C942.595 853.841 906.248 872.341 875.979 871.966C875.738 872.06 875.585 872.061 875.534 871.959C875.682 871.962 875.831 871.964 875.979 871.966C879.075 870.763 896.615 854.297 896.615 844.498C895.912 844.498 829.156 863.51 791.211 844.498C793.319 844.498 868.507 812.109 882.561 796.618C881.858 797.322 793.319 802.955 765.211 781.127C765.912 779.721 884.962 729.898 896.556 710.113C895.545 711.192 881.722 717.204 871.529 713.692C871.509 713.693 871.499 713.689 871.499 713.681C871.509 713.685 871.519 713.688 871.529 713.692C872.551 713.633 899.092 701.66 902.415 694.585C902.415 695.009 824.914 711.135 804.586 694.585C805.856 694.585 902.361 650.899 912.57 630.099C911.76 630.912 852.746 629.549 835.501 613.955C836.345 614.801 907.751 588.71 924.653 566.7C921.158 569.189 874.948 580.76 857.1 568.973C857.1 569.397 944.341 495.982 950.694 467.974C949.428 470.088 915.362 476.838 908.836 474.366C908.803 474.368 908.78 474.359 908.767 474.34C908.79 474.349 908.812 474.358 908.836 474.366C910.894 474.248 951.163 431.228 954.082 415.353C954.082 415.777 929.942 421.294 919.355 421.294C920.202 421.294 956.623 380.131 959.164 366.551C959.841 366.212 945.612 368.673 938.412 369.946C947.863 360.335 967.263 339.511 969.323 333.042C968.895 333.372 956.851 338.772 950.694 341.514C960.011 322.842 978.306 282.697 976.951 271.494C977.785 272.33 989.297 325.839 997.736 343.276C997.988 343.552 998.126 343.816 998.126 344.06C997.997 343.808 997.867 343.546 997.736 343.276C995.891 341.249 987.951 338.515 983.727 337.27C990.921 361.441 1010.38 416.883 1030.69 445.419C1030.75 445.444 1030.77 445.465 1030.74 445.483C1030.72 445.462 1030.71 445.441 1030.69 445.419C1029.32 444.888 1006.17 442.702 1001.1 439.157C1005.11 443.914 1021.92 466.596 1030.74 478.583L1013.37 474.34C1025.79 496.548 1054.62 544.19 1070.54 557.091C1068.44 555.4 1030.63 553.71 1018.19 544.057C1020.92 547.641 1056.11 625.164 1098.5 645.783C1098.07 645.783 1064.19 651.724 1044.71 645.783C1056 661.343 1086.81 695.094 1119.67 705.618C1120.09 706.467 1063.35 721.193 1035.82 710.011C1036.24 710.011 1084.03 754.355 1163.96 778.132C1164.08 778.12 1164.14 778.136 1164.14 778.184C1164.08 778.167 1164.02 778.15 1163.96 778.132C1161.02 778.45 1121.7 797.452 1094.81 792.636C1097.57 793.252 1141.82 806.07 1164.14 812.558C1151.3 819.624 1119.48 832.817 1094.76 829.119C1096.01 829.628 1113.65 841.067 1122.64 846.931C1103.01 850.609 1055.98 852.618 1024.81 831.23C1025.23 832.503 1040.48 860.096 1048.52 866.028C1047.68 866.876 973.564 859.889 957.047 844.498Z" fill="url(#paint7_linear_757_2958)"/>
<path d="M765.934 843.647C778.827 854.114 809.344 875.736 828.615 878.789C828.736 878.912 828.81 878.927 828.833 878.822C828.76 878.811 828.688 878.8 828.615 878.789C826.632 876.764 812.204 845.591 813.302 839.992C813.69 839.992 858.674 866.455 881.595 868.312C881.635 868.343 881.649 868.345 881.637 868.315C881.623 868.314 881.609 868.313 881.595 868.312C880.383 867.377 855.995 839.808 852.537 830.908C853.614 831.835 892.381 833.469 906.098 826.744C904.933 827.658 838.151 772.839 825.726 751.369C831.68 752.434 844.984 753.927 850.575 751.369C852.517 751.369 822.62 732.639 819.126 724.416C819.902 723.96 844.708 729.888 857.531 727.164C857.563 727.182 857.574 727.18 857.564 727.157C857.553 727.16 857.542 727.162 857.531 727.164C856.307 726.47 824.988 695.952 819.177 683.413C820.512 684.999 847.773 691.352 864.446 685.624C864.498 685.629 864.534 685.617 864.553 685.587C864.517 685.599 864.482 685.611 864.446 685.624C861.318 685.317 799.636 622.71 795.053 605.186C794.277 603.816 820.291 615.236 834.268 608.384C833.492 608.384 787.296 555.401 782.242 532.557C782.559 532.661 790.813 534.102 795.053 534.835L776.805 501.031L797.771 506.512C788.97 491.285 770.825 457.358 768.651 443.471C768.263 442.557 781.464 452.151 786.9 451.237C779.099 435.137 763.209 400.808 761.335 390.828C761.959 391.926 766.322 393.449 768.651 394.135L761.274 357.589C755.968 384.541 743.336 441.004 735.26 451.237C735.881 451.237 744.061 446.06 748.073 443.471C740.696 462.048 724.466 500.665 718.565 506.512C719.497 506.512 732.413 502.858 738.755 501.031C731.378 529.354 711.964 589.837 693.327 605.186C693.949 605.186 708.082 602.141 715.07 600.618C702.186 630.637 672.829 691.932 657.118 700.33C656.678 700.514 656.442 700.628 656.442 700.662C656.664 700.563 656.89 700.452 657.118 700.33C661.438 698.522 685.417 690.01 697.987 685.587L661.101 736.751C669.773 736.599 688.901 735.381 696.045 731.726C697.987 731.269 650.23 809.842 610.627 826.744C611.791 826.744 643.241 830.855 656.442 826.744C652.301 836.338 643.319 856.804 640.523 861.92C657.478 862.224 696.123 858.996 715.07 843.647L718.565 875.625C730.731 869.229 757.236 853.879 765.934 843.647Z" fill="url(#paint8_linear_757_2958)"/>
<path d="M164.862 902.357L171.339 749.175C171.339 749.175 131.646 787.468 130.53 786.821C129.414 786.174 130.53 770.594 130.53 770.594C119.95 783.143 97.1062 806.683 90.3696 800.451C83.6329 794.22 84.54 788.768 85.8356 786.821C82.3808 791.364 73.9164 799.413 67.698 795.259C61.4795 791.105 62.5157 784.874 63.8112 782.277C55.1743 784.657 37.9005 787.989 37.9005 782.277C37.9005 775.138 104.619 751.771 112.392 743.333C120.165 734.895 96.8461 742.035 96.8461 736.193C96.8461 730.352 146.723 723.212 146.723 716.721C146.723 710.23 108.506 725.808 102.676 721.265C98.0121 717.63 107.21 711.528 112.392 708.932C100.949 709.365 77.8021 709.062 76.7657 704.388C75.4702 698.547 171.339 688.811 171.339 678.426V604.431L107.21 640.13L96.8461 634.937L171.339 595.993V542.768L120.813 595.993V578.468C104.404 593.612 70.8075 621.955 67.698 614.167C64.5885 606.378 63.8112 598.806 63.8112 595.993C57.1176 603.782 42.5645 617.022 37.9005 607.676C33.2365 598.329 35.9572 592.098 37.9005 590.151C26.6725 594.045 4.34613 599.498 4.86434 590.151C5.51209 578.468 98.1416 547.961 102.676 539.523C107.21 531.085 76.7657 538.225 76.7657 531.734C76.7657 526.541 116.926 516.589 137.006 512.262C129.017 509.017 113.816 499.281 116.926 486.299C92.145 493.527 42.6407 505.347 42.8695 494.799C43.0983 484.25 51.9279 475.881 56.314 473.014C43.823 475.212 18.7266 478.289 18.2689 473.014C17.6968 466.421 76.7657 438.904 76.7657 434.031C76.7657 429.159 59.1746 436.898 57.7443 432.025C56.314 427.152 87.7799 414.253 86.0636 414.253C84.3473 414.253 46.8742 418.839 44.8719 414.253C42.8695 409.668 137.267 378.711 140.7 373.551C144.133 368.392 160.152 354.633 158.435 349.187C156.719 343.741 108.905 368.106 107.21 358.647C105.854 351.079 119.437 339.824 126.397 335.142H88.6381C116.671 318.899 172.795 285.496 173.024 281.827C173.253 278.158 173.119 270.362 173.024 266.922C166.254 269.693 152.085 274.089 149.568 269.502C147.05 264.916 150.616 261.477 152.714 260.33L142.416 258.896L168.733 241.412L149.568 239.405L161.01 232.812L130.116 230.232C146.802 218.289 180.69 191.651 182.75 180.644C183.894 183.224 190.759 218.193 224.228 232.812H212.499L217.362 241.412L201.343 232.812L203.918 247.144L195.622 243.131L224.228 272.655L207.064 269.502L208.781 279.821L191.045 266.922L195.622 277.527L182.75 269.502V286.7C205.729 298.069 251.346 322.242 249.972 327.975C248.599 333.709 235.288 331.511 228.804 329.695C241.2 337.625 265.305 354.919 262.559 360.652C259.813 366.385 220.604 351.575 201.343 343.454L220.509 373.551C238.149 384.252 273.086 406.513 271.713 409.953C270.339 413.393 262.012 408.223 259.984 411.673C259.087 428.879 340.537 459.828 338.935 464.414C337.333 469 318.625 468.236 309.472 467.281C319.77 473.395 339.393 486.542 335.503 490.211C331.612 493.881 288.304 492.696 267.136 491.645C275.05 496.429 289.791 506.623 285.443 509.129C280.008 512.262 204.204 506.836 198.483 501.964C198.712 502.193 198.578 519.448 198.483 528.047L280.58 573.909L262.559 578.468L198.483 537.22V598.273C211.069 610.885 240.99 637.428 259.984 642.702C259.984 642.988 249.4 646.715 237.1 644.708C237.329 645.396 242.344 651.874 244.823 655.027L231.379 653.594C250.163 667.297 271.718 689.696 303.527 697.445C325.285 700.297 376.98 730.509 373.834 736.193C371.316 740.741 356.194 738.088 348.947 736.193C361.247 743.248 383.445 758.044 373.834 760.796C364.222 763.548 345.228 756.783 336.933 753.057C326.826 761.082 303.121 772.319 289.162 753.057C288.876 753.057 283.155 752.197 280.58 756.496C278.782 759.499 273.774 761.104 270.332 760.822C284.249 768.734 339.314 803.585 359.245 804.078C367.541 803.791 361.819 815.257 332.642 812.677C332.07 812.104 338.077 832.168 307.755 822.423C307.184 822.136 289.755 854.464 246.905 799.021C247.404 800.218 248.344 811.596 244.823 817.836C241.105 824.429 196.938 776.102 196.48 767.388C196.252 768.306 199.436 857.749 201.057 902.357H164.862Z" fill="url(#paint9_linear_757_2958)"/>
<path d="M9.4918 925.905C4.76034 921.905 -2.69736 910.008 9.492 905.608C21.6814 901.208 51.1866 906.645 51.1866 906.645C51.1866 906.645 25.1644 896.313 36.2534 878.496C40.4198 871.801 58.0449 856.627 67.8941 856.24C80.8535 856.24 92.0509 871.276 93.7059 873.602C92.5328 871.859 87.1396 862.899 95.247 856.24C100.349 856.496 106.632 859.828 106.632 859.828C106.632 859.828 102.376 846.296 112.694 841.692C117.869 839.383 132.21 837.901 146.109 843.087C153.24 841.006 154.388 859.828 154.388 859.828C154.388 859.828 155.82 850.295 160.396 850.295C166.063 850.295 172.116 858.525 172.116 858.525C172.116 858.525 164.457 834.575 173.316 832.171C179.651 830.451 190.388 847.243 190.388 847.243C190.388 847.243 190.784 834.056 199.801 833.003C202.552 832.682 230.423 813.997 255.631 819.04C280.839 824.083 290.316 828.729 289.561 846.296C292.11 835.435 304.906 836.48 306.629 836.36C312.764 835.936 318.364 847.243 318.364 847.243C318.364 847.243 314.721 834.55 343.662 830.522C353.628 829.135 362.718 816.2 375.36 816.2C389.018 816.847 402.792 836.36 402.792 836.36C402.792 836.36 403.975 819.913 408.583 819.04C425.499 817.422 428.9 832.516 432.814 831.752C437.901 830.76 440.476 816.2 454.992 816.2C464.83 816.2 468.992 823.259 471.958 831.752C474.777 839.821 462.663 854.471 469.131 853.459C472.379 852.951 487.22 848.609 488.154 859.828C489.067 870.806 478.345 878.187 482.498 887.462C485.684 894.576 483.652 881.725 510.776 884.816C530.607 887.076 522.858 919.403 522.858 919.403H627.085C627.085 919.403 616.968 884.816 627.085 884.816C632.085 884.622 646.903 897.858 646.903 897.858C646.903 897.858 643.204 869.849 662.581 871.013C666.978 870.998 649.942 846.297 664.06 846.296C679.628 846.658 684.967 852.201 686.789 855.699C684.643 849.018 679.849 832.819 683.879 833.003C696.503 835.439 693.832 830.474 693.832 824.083C693.832 824.083 693.832 805.029 706.021 806.098C720.018 807.326 719.874 816.2 719.874 816.2C719.874 816.2 725.348 810.675 736.036 812.552C748.181 814.684 737.934 827.426 736.258 829.403C737.473 828.032 743.458 821.745 749.21 824.083C761.21 826.029 754.643 834.533 754.643 834.533C754.643 834.533 757.362 832.092 764.774 833.772C773.503 835.749 770.365 839.731 770.686 839.784C872.544 856.494 826.622 871.836 899.444 871.013C926.948 870.702 950.166 868.527 987.175 877.841C1001.98 881.566 997.911 896.247 1009.32 900.726C1034.53 910.623 1026.48 897.467 1082.15 897.467C1106.11 897.467 1093.77 910.992 1115.35 916.188C1139.96 922.113 1191.84 908.133 1199.43 933.205C1207.02 958.276 1137.59 943.494 1052.54 951.266C1006.52 955.471 960.702 962.701 903.664 966.857C851.429 970.662 802.857 987.79 749.21 990.243C698.149 992.577 630.072 1004.42 584.348 1004.42C537.164 1004.42 454.032 991.381 402.792 988.471C351.091 985.535 296.323 971.323 246.998 966.857C192.26 961.9 171.948 955.949 128.624 950.979C50.2666 941.989 9.4918 925.905 9.4918 925.905Z" fill="#4C7A70"/>
<path d="M885.135 955.779C885.135 962.599 859.118 959.368 844.136 961.67C820.971 965.228 816.185 957.146 793.189 961.67C770.433 966.146 758.475 974.067 736.045 978.195C718.718 981.384 691.61 979.458 663.2 981.384C627.76 983.787 606.367 990.243 572.675 990.243C542.549 990.243 513.457 988.743 475.784 984.573C440.197 980.635 420.991 972.291 385.258 970.046C361.965 968.582 348.454 974.254 325.497 970.046C303.79 966.066 294.096 954.847 272.454 950.525C245.097 945.061 228.779 953.326 201.024 950.525C163.136 946.701 106.254 933.68 106.254 927.525C106.254 921.617 168.401 929.469 193.537 924.531C203.542 922.565 223.458 923.97 236.742 922.228C248.583 920.675 256.249 913.351 270.395 912.006C291.906 909.959 305.502 913.491 331.515 912.006C355.08 910.66 384.726 920.578 411.205 919.771C427.906 919.261 462.921 912.277 480.541 912.006C499.181 911.718 501.768 914.695 521.222 914.695C537.772 914.695 578.123 909.282 594.095 909.491C616.703 909.787 629.572 911.323 650.696 912.005C669.428 912.611 716.712 898.399 733.991 899.28C758.431 900.526 767.22 918.037 788.106 919.771C816.889 922.159 862.43 919.771 894.861 919.771C931.554 925.449 885.135 948.537 885.135 955.779Z" fill="#5B8C82"/>
<path d="M661.871 930.411C665.45 942.588 654.929 946.818 639.878 953.092C614.318 963.746 589.785 962.446 559.064 960.233C537.757 958.698 520.896 954.887 503.824 946.372C492.213 940.58 485.922 934.415 485.922 930.411C485.922 923.827 497.315 918.966 515.588 916.55C530.931 914.522 544.322 911.085 562.133 910.67C592.904 909.952 608.166 913.61 629.648 916.55C640.327 918.012 658.905 920.32 661.871 930.411Z" fill="#B19573" fill-opacity="0.7"/>
<path d="M623.947 929.153C626.013 937.429 619.941 940.304 611.256 944.568C596.506 951.809 582.349 950.926 564.621 949.422C552.326 948.378 542.596 945.788 532.745 940.001C526.044 936.064 522.414 931.874 522.414 929.153C522.414 924.678 528.988 921.374 539.533 919.732C548.387 918.354 556.114 916.018 566.392 915.736C584.149 915.248 592.956 917.734 605.353 919.732C611.515 920.726 622.236 922.295 623.947 929.153Z" fill="#78644C"/>
<path d="M816.505 649.666C795.358 727.287 754.335 828.277 693.602 878.229L941.562 903.027C941.562 903.027 850.545 781.195 816.505 649.666Z" fill="url(#paint10_linear_757_2958)"/>
<path d="M816.504 649.666C816.504 649.666 937.982 701.059 1006.42 678.421C1019.67 750.656 1107.47 855.591 1107.47 855.591L941.562 903.027C941.562 903.027 822.945 744.905 816.504 649.666Z" fill="url(#paint11_linear_757_2958)"/>
<path opacity="0.63" d="M772.82 886.152L841.973 893.066L814.352 702.134L772.82 886.152Z" fill="#141414"/>
<path d="M816.451 652.924C816.462 651.838 816.484 650.763 816.507 649.666C816.507 649.666 803.878 814.116 756.668 846.959C757.022 847.679 771.782 868.19 772.832 886.152C773.02 886.174 805.336 839.479 814.308 706.444C814.65 817.473 841.973 893.066 841.973 893.066C849.884 863.702 875.627 854.871 874.909 855.225C817.755 799.544 816.263 674.609 816.451 652.924Z" fill="#DB9F68"/>
<path d="M991.724 922.663C991.624 922.663 991.525 922.663 991.426 922.641C951.983 915.416 833.333 686.199 816.771 653.855C812.595 665.357 798.519 702.643 776.809 744.584C752.723 791.101 714.054 853.031 666.545 883.947C665.783 884.445 664.755 884.224 664.258 883.459C663.761 882.694 663.982 881.664 664.744 881.165C711.645 850.649 749.972 789.217 773.87 743.055C799.801 692.937 814.783 649.555 814.937 649.123C815.158 648.492 815.722 648.048 816.385 648.004C817.036 647.96 817.677 648.314 817.976 648.913C818.307 649.578 851.905 715.597 890.1 781.682C953.673 891.692 980.62 917.277 992.022 919.361C992.917 919.527 993.514 920.391 993.359 921.3C993.215 922.098 992.519 922.663 991.735 922.663H991.724Z" fill="#969696"/>
<path d="M1005.83 679.241C1005.83 679.241 1081.8 816.52 1154.18 858.926" stroke="#9B9B9B" stroke-width="2" stroke-miterlimit="10" stroke-linecap="round"/>
<path d="M670.322 887.215L665.935 876.223L668.222 875.082C669.305 874.539 669.747 873.22 669.206 872.134C668.664 871.048 667.35 870.605 666.267 871.148L658.113 875.215C657.03 875.758 656.588 877.076 657.13 878.162C657.671 879.248 658.986 879.691 660.069 879.148L662.356 878.007L668.443 888.146L670.333 887.204L670.322 887.215Z" fill="#2B2B2B"/>
<path d="M1149.95 860.876L1153.58 851.779L1151.69 850.837C1150.8 850.394 1150.44 849.297 1150.88 848.399C1151.32 847.502 1152.41 847.136 1153.31 847.579L1160.06 850.948C1160.95 851.391 1161.32 852.488 1160.88 853.386C1160.43 854.283 1159.34 854.649 1158.45 854.206L1156.56 853.264L1151.52 861.663L1149.95 860.887V860.876Z" fill="#2B2B2B"/>
<path d="M990.218 925.167L994.604 914.175L992.317 913.033C991.235 912.49 990.793 911.172 991.334 910.086C991.875 909 993.19 908.557 994.273 909.1L1002.43 913.166C1003.51 913.709 1003.95 915.028 1003.41 916.114C1002.87 917.2 1001.55 917.643 1000.47 917.1L998.184 915.959L992.096 926.098L990.207 925.156L990.218 925.167Z" fill="#2B2B2B"/>
<path d="M720.931 804.163C720.931 819.698 708.727 829.803 708.727 851.499C706.365 871.617 692.418 869.585 684.714 880.69C675.719 893.654 668.679 897.008 655.976 906.33C643.334 915.607 587.894 917.428 571.177 917.428C542.945 917.428 504.326 916.961 482.234 902.702C471.198 895.578 461.494 896.433 452.844 886.607C445.398 878.147 442.382 856.835 437.097 846.765C428.83 823.097 406.389 815.111 403.633 804.163C476.984 804.163 669.016 804.163 720.931 804.163Z" fill="#EFBDA0" fill-opacity="0.3"/>
<path d="M693.767 816.015C685.663 837.078 679.043 836.018 675.265 848.343C671.727 859.887 676.472 866.173 670.147 875.956C662.764 887.377 647.902 880.367 637.473 888.579C628.476 895.664 630.018 903.139 619.317 907.231C607.132 911.889 607.749 917.175 571.705 918.143C506.533 919.892 513.496 912.975 495.359 900.413C486.299 894.138 479.627 884.612 472.527 875.956C466.413 868.503 481.053 854.273 476.515 842.032C470.232 832.938 452.777 834.537 452.777 816.015C512.995 816.015 651.147 816.015 693.767 816.015Z" fill="#EFBDA0" fill-opacity="0.3"/>
<path d="M892.775 928.324C887.767 927.857 879.534 923.668 886.661 910.644C891.36 902.237 897.187 905.298 900.891 909.121C899.196 906.096 893.68 890.506 900.112 882.987C905.982 876.125 913.156 877.327 916.009 878.786C914.495 875.752 911.921 868.843 913.738 865.483C915.555 862.122 924.744 867.466 929.111 870.559C922.531 863.324 912.969 847.173 927.364 840.451C945.357 832.049 1022.74 816.47 1039.34 843.077C1043.53 851.059 1043.07 859.939 1042.31 863.382C1044.99 859.823 1052.13 853.614 1059.26 857.255C1066.38 860.896 1067.23 867.641 1066.77 870.559C1075.33 863.032 1095.91 851.479 1109.74 865.483C1116.17 873.044 1110.79 885.905 1107.3 891.389C1110.21 889.172 1116.97 885.403 1120.75 888.063C1124.52 890.724 1125.58 900.142 1125.64 904.518C1128.14 894.89 1140.35 878.121 1169.14 888.063C1200.02 899.546 1193.18 919.338 1185.91 927.799C1185.91 927.799 1172.4 935.066 1161.01 935.066C1116.03 935.066 1125.64 931.599 1090.59 938.504C1057.79 944.969 1003.84 936.153 996.156 937.404C988.469 938.655 983.254 947.314 965.565 946.838C952.076 946.474 944.834 937.781 931.23 942.937C925.831 944.983 923.53 945.708 916.955 947.72C906.53 950.91 892.369 948.221 891.012 937.404C890.563 933.82 892.775 928.324 892.775 928.324Z" fill="#4C7A70"/>
<defs>
<linearGradient id="paint0_linear_757_2958" x1="812.995" y1="457.029" x2="812.995" y2="928.869" gradientUnits="userSpaceOnUse">
<stop stop-color="#EFBDA0"/>
<stop offset="0.666667" stop-color="#57877C"/>
</linearGradient>
<linearGradient id="paint1_linear_757_2958" x1="85.376" y1="568.832" x2="85.376" y2="926.109" gradientUnits="userSpaceOnUse">
<stop stop-color="#EFBDA0"/>
<stop offset="0.666667" stop-color="#57877C"/>
</linearGradient>
<linearGradient id="paint2_linear_757_2958" x1="861.822" y1="320.417" x2="861.822" y2="783.518" gradientUnits="userSpaceOnUse">
<stop stop-color="#EFBDA0"/>
<stop offset="0.666667" stop-color="#57877C"/>
</linearGradient>
<linearGradient id="paint3_linear_757_2958" x1="290.378" y1="382.178" x2="290.378" y2="842.132" gradientUnits="userSpaceOnUse">
<stop stop-color="#EFBDA0"/>
<stop offset="0.666667" stop-color="#57877C"/>
</linearGradient>
<linearGradient id="paint4_linear_757_2958" x1="161.826" y1="493.852" x2="161.826" y2="908.08" gradientUnits="userSpaceOnUse">
<stop stop-color="#EFBDA0"/>
<stop offset="0.666667" stop-color="#57877C"/>
</linearGradient>
<linearGradient id="paint5_linear_757_2958" x1="366.927" y1="383.267" x2="366.927" y2="893.435" gradientUnits="userSpaceOnUse">
<stop stop-color="#EFBDA0"/>
<stop offset="0.273059" stop-color="#4C7A70"/>
</linearGradient>
<linearGradient id="paint6_linear_757_2958" x1="1083.52" y1="457.029" x2="1083.52" y2="928.869" gradientUnits="userSpaceOnUse">
<stop stop-color="#EFBDA0"/>
<stop offset="0.666667" stop-color="#57877C"/>
</linearGradient>
<linearGradient id="paint7_linear_757_2958" x1="964.675" y1="271.494" x2="964.675" y2="872.036" gradientUnits="userSpaceOnUse">
<stop stop-color="#EFBDA0"/>
<stop offset="0.273059" stop-color="#4C7A70"/>
</linearGradient>
<linearGradient id="paint8_linear_757_2958" x1="758.362" y1="357.589" x2="758.362" y2="878.892" gradientUnits="userSpaceOnUse">
<stop stop-color="#EFBDA0"/>
<stop offset="0.273059" stop-color="#4C7A70"/>
</linearGradient>
<linearGradient id="paint9_linear_757_2958" x1="190.519" y1="180.644" x2="190.519" y2="902.357" gradientUnits="userSpaceOnUse">
<stop stop-color="#EFBDA0"/>
<stop offset="0.273059" stop-color="#4C7A70"/>
</linearGradient>
<linearGradient id="paint10_linear_757_2958" x1="817.582" y1="649.666" x2="817.582" y2="903.027" gradientUnits="userSpaceOnUse">
<stop offset="0.3125" stop-color="#CE8F56"/>
<stop offset="1" stop-color="#93561F"/>
</linearGradient>
<linearGradient id="paint11_linear_757_2958" x1="822.479" y1="667.996" x2="1060.1" y2="859.749" gradientUnits="userSpaceOnUse">
<stop stop-color="#616161"/>
<stop offset="1" stop-color="#1B1B1B"/>
</linearGradient>
</defs>
</svg>
