<svg width="1201" height="1116" viewBox="0 0 1201 1116" fill="none" xmlns="http://www.w3.org/2000/svg">
<path fill-rule="evenodd" clip-rule="evenodd" d="M332.842 925.217C332.582 925.078 325.126 923.169 309.228 912.599C293.335 902.023 277.98 923.069 278.562 934.178C279.121 944.843 271.582 943.55 271.582 943.55C271.582 943.55 279.16 963.399 298.049 951.996C316.944 940.598 320.14 931.282 332.432 939.433L332.842 925.211V925.217Z" fill="#0C1A23"/>
<path d="M275.777 947.585C282.508 955.791 289.227 954.21 296.057 950.004C300.751 947.12 305.792 942.518 311.136 939.197L310.816 935.479C303.753 938.674 297.323 944.342 291.864 948.389C285.743 953.161 279.273 949.887 275.777 947.585Z" fill="#DC5C1D"/>
<path fill-rule="evenodd" clip-rule="evenodd" d="M312.417 932.52C304.391 934.91 297.562 941.261 290.681 946.613C284.421 951.491 278.483 948.6 275.348 946.275C278.145 947.151 283.641 948.359 288.76 943.521C297.094 935.578 303.382 929.272 312.727 928.863L312.417 932.52Z" fill="#EFBDA0"/>
<path fill-rule="evenodd" clip-rule="evenodd" d="M312.349 927.241C301.476 927.601 295.042 934.051 289.728 939.377C285.93 943.182 281.34 947.268 275.547 945.442C278.616 945.52 285.096 944.194 289.278 934.694C292.22 928.014 295.38 924.912 299.208 923.397C303.025 921.887 306.567 921.882 311.664 923.397C311.664 923.397 312.825 924.61 312.349 927.241Z" fill="#B3E1EB"/>
<path d="M287.355 933.635C290.352 926.871 293.93 922.947 297.902 921.389C300.968 920.183 304.622 920.852 308.523 921.927L306.947 917.606C304.079 916.773 301.093 916.491 297.902 917.214C293.744 918.157 289.86 920.882 287.012 926.311C283.73 932.61 282.112 939.602 276.336 944.347C279.381 942.346 283.91 941.402 287.355 933.635Z" fill="#EBA91F"/>
<path fill-rule="evenodd" clip-rule="evenodd" d="M285.551 924.876C283.116 929.544 282.336 934.973 279.594 939.483C280.61 934.123 280.421 929.065 283.095 924.168C287.08 916.858 295.199 913.4 303.302 914.502L303.686 915.625C297.719 915.625 290.168 916.775 285.551 924.876Z" fill="#F3E3D2"/>
<path d="M450.498 827.067C450.943 822.065 442.684 817.15 436.863 817.15C425.732 800.646 405.325 795.074 380.859 809.697C370.406 805.112 356.386 816.671 357.199 827.067C341.302 827.067 333.835 843.493 339.175 849.173C322.63 857.56 330.791 864.019 328.118 869.368C324.151 871.812 315.902 878.925 316.263 883.253C312.717 884.854 306.399 891.801 309.204 899.78C306.426 902.585 301.916 909.569 303.659 916.008C310.487 925.87 313.678 925.87 309.204 938.75C310.905 945.939 314.872 949.528 320.871 950.391C323.648 950.391 336.043 967.865 342.778 957.365C345.438 959.091 358.345 969.915 366.9 961.178C367.689 961.248 366.957 962.263 371.279 964.66C386.141 972.901 392.347 968.384 403.451 964.178C408.584 964.929 414.969 962.418 418.761 961.178C431.412 964.488 440.83 963.763 447.582 959.057C451.202 959.142 463.23 955.043 466.425 947.505C471.856 944.542 482.724 941.279 477.758 925.487C482.316 917.012 484.173 903.141 465.552 893.558C473.208 888.42 471.536 880.418 469.655 867.767C469.068 858.147 461.042 855.221 458.47 853.019C463.462 840.623 457.785 833.896 450.498 827.067Z" fill="#FCF4F0"/>
<path d="M376.493 967.979C374.784 967.983 371.396 967.494 368.012 963.887C364.476 965.02 353.561 967.615 344.153 960.361C342.737 960.843 339.956 961.575 336.558 961.349C332.213 961.059 326.014 959.107 320.853 951.553C310.389 950.139 304.772 942.032 307.573 931.193C308.03 929.067 311.548 929.908 311.091 932.034C309.381 940.013 312.984 947.78 321.915 948.277C322.451 948.31 322.943 948.594 323.233 949.045C329.422 958.619 337.243 958.524 341.207 957.688C340.654 957.102 340.121 956.485 339.612 955.838C338.268 954.132 340.913 952.044 342.259 953.751C347.787 960.782 356.838 963.166 365.433 961.089C363.687 959.063 362.332 956.97 361.392 954.843C360.512 952.856 363.597 951.493 364.473 953.481C366.221 957.446 371.774 965.533 376.908 964.578C377.562 964.437 378.212 964.696 378.603 965.239C381.86 969.709 387.418 967.42 387.654 967.319C388.059 967.147 388.524 967.137 388.932 967.299C393.263 968.994 394.689 966.051 394.929 965.445C395.262 964.549 396.309 964.128 397.177 964.507C400.125 965.792 402.769 960.61 403.157 958.44C403.535 956.297 406.859 956.895 406.474 959.033C406.278 960.122 405.648 961.501 405.051 962.63C412.923 963.698 418.433 959.793 420.706 953.019C421.398 950.959 424.593 952.031 423.901 954.091C423.073 956.945 421.859 958.501 420.834 959.879C425.135 963.368 428.917 961.477 429.089 961.386C429.578 961.133 430.174 961.126 430.663 961.386C436.903 964.669 444.157 959.117 445.33 958.163C446.931 955.669 449.223 950.801 449.304 946.982C449.352 944.803 452.714 944.878 452.675 947.05C452.598 950.731 451.017 954.759 449.513 957.644C460.839 957.054 464.207 947.633 464.355 947.201C464.537 946.672 464.972 946.261 465.511 946.116C474.934 943.567 480.339 936.352 475.617 926.612C475.29 925.995 475.378 925.237 475.836 924.711C483.613 915.812 478.317 909.569 478.088 909.306C477.795 908.972 477.64 908.531 477.663 908.089C477.997 902.288 471.946 900.724 471.69 900.66C470.989 900.488 470.47 899.884 470.409 899.163C470.106 895.549 464.753 895.59 464.53 895.59C464.52 895.59 464.514 895.59 464.504 895.59C462.794 895.59 462.193 893.226 463.705 892.418C473.87 886.984 471.349 870.716 460.775 868.161C458.708 867.493 459.737 864.291 461.807 864.952C464.311 865.757 466.347 866.819 467.901 868.12C468.67 860.511 462.254 856.204 455.881 854.229C453.805 853.584 454.805 850.365 456.882 851.01L457.539 851.216C460.203 839.098 455.881 832.949 450.622 828.226C448.935 820.955 437.223 820.233 435.928 818.522C423.043 801.627 399.577 798.463 382.382 811.173C367.613 814.071 363.876 818.901 355.651 829.049C346.449 831.629 335.454 838.579 340.583 849.571C341.07 850.467 340.62 851.632 339.656 851.967C333.786 854.006 325.152 861.907 332.244 871.326C333.048 871.805 333.315 872.882 332.813 873.676C328.099 881.533 335.709 886.848 342.592 888.629C344.696 889.173 343.853 892.436 341.75 891.892C332.966 889.622 324.959 882.935 329.254 873.254C328.869 872.884 328.553 872.503 328.3 872.149C317.863 876.116 317.51 884.247 317.499 884.604C317.483 885.214 317.135 885.777 316.596 886.06C312.197 888.364 307.275 893.864 310.565 899.129C310.889 899.722 310.832 900.464 310.41 900.993C304.671 908.205 302.901 918.757 311.091 925.058C312.82 926.363 310.813 929.055 309.076 927.758C299.604 920.794 300.75 908.21 307.141 899.709C304.563 893.024 308.378 886.838 314.22 883.515C314.607 880.731 316.606 873.045 326.948 869.058C324.689 860.523 328.845 852.818 336.868 849.429C332.4 836.766 344.553 827.897 355.708 825.6C356.662 812.681 369.557 807.895 380.906 808.109C399.725 795.617 423.801 797.708 438.188 815.987C444.547 815.987 450.388 819.69 452.817 825.624C459.779 832.949 462.899 838.215 460.618 852.133C468.413 855.573 472.967 863.197 470.659 871.626C474.115 878.428 474.893 887.455 468.812 892.96C470.918 893.722 472.914 895.175 473.568 897.727C476.672 898.846 481.061 901.907 481.044 907.661C482.484 909.721 486.455 916.958 479.083 926.096C484.046 936.85 477.849 945.995 467.207 949.15C463.749 957.027 456.631 961.551 447.164 961.029C445.05 962.697 437.348 968.084 429.847 964.75C427.393 965.681 422.9 965.994 418.555 962.387C416.34 964.285 411.237 967.427 403.019 965.714C401.741 967.025 399.685 968.354 397.335 968.04C396.749 968.896 395.785 969.951 394.305 970.609C392.549 971.394 390.543 971.418 388.338 970.683C384.228 972.124 379.637 971.581 376.493 967.979Z" fill="#0C1A23"/>
<path d="M448.868 810.282C446.383 806.322 435.782 809.554 430.793 811.665C431.639 814.119 433.395 819.124 433.672 819.492C434.016 819.954 447.486 822.944 447.829 823.982C448.106 824.811 450.553 825.94 451.743 826.399C451.821 822.677 451.352 814.243 448.864 810.282H448.868Z" fill="#FCF4F0"/>
<path d="M446.45 816.013C444.751 813.097 440.578 815.76 438.707 817.456C438.707 818.898 438.707 818.821 442.806 819.96C446.086 820.87 447.815 823.527 448.27 824.743C448.371 823.048 448.149 818.929 446.45 816.013Z" fill="#DFCAD3"/>
<path d="M452.877 829.213L451.293 828.593C449.301 827.814 446.466 824.727 446.54 821.18C446.638 816.61 445.654 815.298 445.057 814.924C444.258 814.422 442.957 814.857 441.956 815.342C440.55 816.559 439.414 817.702 439.121 818.116C439.01 818.528 438.716 818.868 438.312 819.033C437.388 819.411 436.717 818.76 435.939 818.008C435.416 817.506 434.749 816.822 433.973 816.03C432.699 814.729 431.257 813.252 430.009 812.109L428.543 810.764L430.336 809.902C431.594 809.295 442.782 804.07 448.795 807.003C450.619 807.892 451.822 809.467 452.277 811.553C454.023 819.593 453.363 825.815 453.117 827.528L452.877 829.213ZM444.194 812.002C445.047 812.002 445.815 812.214 446.493 812.642C449.082 814.274 449.297 818.329 449.233 821.241C449.203 822.569 449.887 823.867 450.676 824.794C450.845 822.07 450.821 817.55 449.641 812.126C449.362 810.839 448.697 809.955 447.612 809.426C444.541 807.926 438.383 809.366 433.299 811.52C434.179 812.382 435.076 813.299 435.902 814.145C436.441 814.695 437.051 815.322 437.543 815.807C438.113 815.177 438.986 814.338 440.321 813.188L440.446 813.08L440.59 813.006C441.919 812.335 443.119 811.998 444.191 811.998L444.194 812.002Z" fill="#0C1A23"/>
<path d="M362.255 804.774C353.794 807.909 356.902 828.148 359.511 837.873C365.936 837.873 381.25 823.51 388.106 816.33C383.013 811.172 370.716 801.639 362.251 804.774H362.255Z" fill="#FCF4F0"/>
<path d="M359.037 838.642C358.288 838.642 357.604 838.14 357.405 837.378C356.795 835.032 351.665 814.216 358.818 806.325C361.019 803.898 364.043 802.964 367.808 803.554L367.845 803.561C371.597 804.239 380.546 807.151 387.558 813.33C388.256 813.947 388.323 815.012 387.71 815.71C387.093 816.407 386.027 816.475 385.33 815.858C378.888 810.181 370.71 807.505 367.268 806.878C364.67 806.474 362.725 807.033 361.319 808.584C357.102 813.235 358.026 826.331 360.672 836.528C360.904 837.428 360.365 838.349 359.465 838.585C359.323 838.622 359.182 838.638 359.04 838.638L359.037 838.642Z" fill="#0C1A23"/>
<path d="M362.895 817.364C364.402 811.61 373.112 814.968 377.279 817.364C377.791 818.393 372.314 822.758 369.317 822.93C366.92 823.068 364.378 829.722 363.411 833.032C362.612 830.207 361.392 823.118 362.899 817.364H362.895Z" fill="#DFCAD3"/>
<path d="M362.975 833.016C362.186 833.016 361.482 832.46 361.323 831.654C360.986 829.942 358.232 814.82 365.025 811.763C370.523 809.288 375.906 813.441 377.982 815.983C378.572 816.704 378.464 817.766 377.746 818.356C377.025 818.946 375.963 818.838 375.373 818.12C374.156 816.634 370.175 813.145 366.407 814.84C363.558 816.121 363.265 824.07 364.627 831.01C364.806 831.924 364.212 832.81 363.299 832.989C363.191 833.009 363.08 833.019 362.972 833.019L362.975 833.016Z" fill="#0C1A23"/>
<path fill-rule="evenodd" clip-rule="evenodd" d="M412.508 771.22C411.644 770.276 410.082 770.349 409.279 771.342C407.063 774.088 403.197 780.17 400.543 794.253C397.873 808.425 396.865 816.088 410.215 817.286C422.509 818.568 424.41 810.546 421.842 799.68C418.79 785.192 415.477 774.46 412.503 771.22H412.508Z" fill="#0C1A23"/>
<path fill-rule="evenodd" clip-rule="evenodd" d="M414.861 781.159C413.526 777.113 412.086 774.112 410.656 773.568C409.784 773.318 408.816 775.104 408.496 775.643C410.362 777.742 412.483 779.648 414.861 781.153V781.159Z" fill="#F3E3D2"/>
<path d="M415.658 783.756L415.663 783.761C416.467 786.503 417.14 789.282 417.768 792.068C412.869 790.319 408.728 786.923 405.477 782.918C405.958 781.465 407.054 778.323 407.593 777.38C409.931 779.905 412.614 782.129 415.658 783.756Z" fill="#EBA91F"/>
<path d="M418.223 794.144C419.132 798.438 419.846 802.528 420.323 805.48C413.303 802.823 407.53 797.509 403.289 791.413C403.289 790.723 404.33 786.86 404.851 785.016C408.441 789.141 412.96 792.522 418.229 794.144H418.223Z" fill="#B3E1EB"/>
<path d="M401.609 802.677C401.814 800.052 402.23 796.995 402.811 793.865C407.376 799.928 413.41 805.059 420.659 807.549L420.665 807.543C420.472 811.099 418.971 813.335 415.646 814.529C409.79 812.336 405.032 807.82 401.609 802.677Z" fill="#EFBDA0"/>
<path d="M412.605 815.212C408.175 813.005 404.431 809.567 401.459 805.641C400.712 812.287 406.178 815.826 412.605 815.212Z" fill="#DC5C1D"/>
<path d="M377.271 872.769C380.699 872.769 383.484 870.884 383.484 868.558C383.484 866.232 380.706 864.348 377.271 864.348C373.836 864.348 371.059 866.232 371.059 868.558C371.059 870.884 373.836 872.769 377.271 872.769Z" fill="#EFBDA0"/>
<path d="M378.322 863.115C377.749 863.212 377.183 863.556 376.735 863.9C376.273 864.237 375.531 864.857 375.531 865.495C375.531 865.683 375.666 865.845 375.841 865.896C376.455 866.064 377.321 865.43 377.776 865.083C378.255 864.716 378.659 864.46 378.936 863.897C379.138 863.479 378.761 863.027 378.322 863.111V863.115Z" fill="#342838"/>
<path d="M411.082 869.169C397.939 870.028 388.517 862.778 387.276 850.235C385.672 833.808 408.257 823.355 420.716 832.632C428.563 838.497 432.851 849.068 428.351 858.244C428.351 858.136 424.225 868.309 411.082 869.169Z" fill="#342838"/>
<path d="M410.166 869.014C417.902 868.822 423.963 865.228 428.355 858.237C428.527 860.162 428.355 861.76 427.277 863.651C419.075 872.408 404.247 873.426 393.564 865.865C393.291 865.667 392.995 865.619 392.83 865.741C392.637 865.876 392.664 866.095 392.911 866.391C401.439 876.507 420.434 872.601 426.043 865.774C420.842 879.639 396.467 876.282 389.944 866.307C389.772 866.108 389.674 865.808 389.674 865.464C389.668 864.74 389.428 864.035 388.943 863.354C385.272 858.116 382.137 848.357 388.019 843.442C386.071 858.659 395.398 869.375 410.166 869.017V869.014Z" fill="#B2CFD6"/>
<path d="M393.383 844.642C392.847 844.73 391.569 844.069 391.347 843.051C390.615 839.721 395.53 834.708 397.954 834.708C399.285 834.708 398.419 835.996 396.956 837.334C395.456 838.706 394.084 842.02 394.03 843.196C393.986 844.167 393.919 844.548 393.383 844.639V844.642Z" fill="white"/>
<path d="M407.992 843.065C407.422 846.884 404.8 848.553 401.874 848.553C398.948 848.553 397.34 846.51 397.34 842.886C397.34 840.207 400.38 836.957 403.07 836.957C405.76 836.957 408.602 838.976 407.988 843.065H407.992Z" fill="white"/>
<path d="M413.41 879.167C412.261 877.839 411.162 878.688 410.98 879.389C409.267 882.703 404.177 883.974 403.867 879.925C403.753 878.449 401.983 879.133 402.091 880.98C402.448 887.055 411.115 884.89 412.055 881.789C414.802 885.201 422.205 885.733 422.532 880.107C422.66 877.919 420.172 877.619 419.902 879.248C419.296 882.935 415.773 881.897 413.407 879.17L413.41 879.167Z" fill="#342838"/>
<path d="M693.376 824.847C692.939 819.935 688.523 809.861 696.407 806.161C703.518 803.522 711.556 809.807 713.236 808.51C726.526 798.245 740.731 795.219 761.762 807.79C772.028 803.288 785.795 814.638 784.997 824.847C800.608 824.847 807.941 840.978 802.697 846.556C818.944 854.792 810.93 861.135 813.555 866.388C817.451 868.788 825.551 875.773 825.197 880.023C828.68 881.595 834.883 888.418 832.129 896.253C834.857 899.007 839.286 905.866 837.574 912.189C840.935 913.093 850.015 912.235 848.936 916.706C848.128 920.051 852.756 923.921 851.403 927.03C849.367 929.783 851.403 934.658 848.936 937.784C845.538 942.089 839.731 947.105 836.347 944.122C830.784 947.219 822.449 945.698 820.672 945.954C817.944 945.954 805.773 963.114 799.159 952.803C796.547 954.497 783.872 965.127 775.47 956.547C774.696 956.616 775.031 957.987 770.788 960.341C756.193 968.435 750.481 963.624 739.577 959.493C734.535 960.231 728.266 957.765 724.542 956.547C712.118 959.797 702.869 959.086 696.239 954.464C692.684 954.547 680.873 950.522 677.735 943.12C672.402 940.21 661.729 937.006 666.605 921.497C662.13 913.175 660.306 899.554 678.592 890.142C671.074 885.098 672.716 877.239 674.563 864.816C675.139 855.368 683.021 852.495 685.547 850.333C680.645 838.16 686.219 831.553 693.376 824.847Z" fill="#FCF4F0"/>
<path d="M697.933 813.321C699.529 810.603 703.449 813.085 705.207 814.665C705.207 816.01 705.207 815.938 701.356 816.999C698.275 817.848 696.65 820.323 696.223 821.457C696.128 819.877 696.337 816.038 697.933 813.321Z" fill="#DFCAD3"/>
<path d="M780.052 802.957C788.36 806.035 785.308 825.91 782.746 835.46C776.437 835.46 761.398 821.355 754.665 814.304C759.667 809.239 771.743 799.878 780.055 802.957H780.052Z" fill="#FCF4F0"/>
<path d="M765.297 815.32C764.794 816.33 770.173 820.617 773.116 820.786C775.47 820.921 778.251 826.857 779.201 830.107C779.985 827.333 781.276 815.74 777.794 811.964C774.239 808.927 771.388 810.001 765.297 815.32Z" fill="#DFCAD3"/>
<path d="M780.959 829.352C784.494 816.629 778.273 799.707 764.599 813.963C763.248 815.616 765.806 817.711 767.161 816.062C776.94 804.743 780.959 819.887 777.715 828.72C777.304 830.82 780.548 831.438 780.959 829.352Z" fill="#0C1A23"/>
<path d="M732.082 866.192C744.989 867.037 754.241 859.916 755.459 847.599C757.035 831.468 734.856 821.203 722.621 830.312C714.915 836.072 710.705 846.453 715.124 855.464C715.124 855.358 719.176 865.348 732.082 866.192Z" fill="#342838"/>
<path d="M732.986 866.04C725.389 865.852 719.437 862.323 715.124 855.457C714.955 857.348 715.124 858.917 716.183 860.774C724.237 869.374 738.799 870.374 749.289 862.949C749.558 862.753 749.849 862.707 750.011 862.826C750.2 862.959 750.173 863.174 749.932 863.465C741.557 873.399 722.903 869.563 717.395 862.859C722.503 876.474 746.439 873.177 752.845 863.382C753.013 863.187 753.109 862.892 753.109 862.555C753.116 861.843 753.351 861.151 753.828 860.482C757.433 855.338 760.511 845.755 754.735 840.929C756.648 855.871 747.489 866.395 732.986 866.044V866.04Z" fill="#B2CFD6"/>
<path d="M765.282 869.728C761.915 869.728 759.181 867.878 759.181 865.594C759.181 863.309 761.909 861.459 765.282 861.459C768.655 861.459 771.383 863.309 771.383 865.594C771.383 867.878 768.655 869.728 765.282 869.728Z" fill="#EFBDA0"/>
<path d="M764.243 860.247C764.806 860.343 765.362 860.681 765.803 861.019C766.256 861.35 766.984 861.959 766.984 862.584C766.984 862.77 766.852 862.929 766.68 862.978C766.077 863.144 765.227 862.521 764.78 862.18C764.31 861.82 763.912 861.568 763.641 861.015C763.442 860.605 763.813 860.161 764.243 860.244V860.247Z" fill="#342838"/>
<path d="M729.801 876.011C730.93 874.707 732.009 875.541 732.188 876.229C733.87 879.483 738.868 880.731 739.173 876.756C739.285 875.306 741.023 875.978 740.917 877.792C740.566 883.757 732.056 881.632 731.132 878.586C728.434 881.936 721.165 882.459 720.844 876.934C720.718 874.786 723.161 874.491 723.426 876.09C724.022 879.712 727.481 878.692 729.805 876.014L729.801 876.011Z" fill="#342838"/>
<path d="M749.464 842.107C749.99 842.193 751.245 841.544 751.463 840.544C752.181 837.274 747.355 832.352 744.975 832.352C743.667 832.352 744.518 833.616 745.955 834.93C747.428 836.278 748.775 839.532 748.828 840.687C748.871 841.64 748.937 842.014 749.464 842.104V842.107Z" fill="white"/>
<path d="M735.125 840.558C735.685 844.308 738.26 845.947 741.134 845.947C744.007 845.947 745.586 843.941 745.586 840.382C745.586 837.751 742.6 834.56 739.958 834.56C737.317 834.56 734.526 836.542 735.129 840.558H735.125Z" fill="white"/>
<path fill-rule="evenodd" clip-rule="evenodd" d="M839.047 910.624C839.171 905.605 837.317 900.386 834.158 896.183C836.688 889.619 832.942 883.544 827.206 880.281C826.825 877.547 824.862 869.999 814.706 866.083C816.924 857.702 812.843 850.135 804.964 846.808C809.289 834.547 797.75 825.907 786.924 823.506C788.893 803.177 778.567 795.061 761.8 806.229C750.511 799.279 731.87 789.633 711.711 807.328C708.25 805.843 699.922 802.769 695.053 805.145C689.247 807.978 690.168 818.663 690.649 823.91C684.129 830.859 681.249 836.1 683.44 849.463C675.785 852.841 671.313 860.328 673.58 868.606C670.186 875.285 669.421 884.15 675.393 889.556C673.324 890.304 671.365 891.731 670.722 894.237C667.674 895.336 663.363 898.342 663.38 903.992C661.967 906.015 658.067 913.122 665.307 922.096C660.432 932.657 666.518 941.637 676.969 944.735C680.365 952.471 687.355 956.914 696.652 956.401C698.728 958.039 706.291 963.329 713.656 960.055C716.067 960.969 720.48 961.277 724.746 957.735C726.921 959.598 731.933 962.683 740.004 961.002C741.258 962.29 743.277 963.594 745.585 963.286C746.16 964.127 747.107 965.163 748.56 965.808C750.285 966.58 752.255 966.603 754.419 965.881C758.456 967.296 762.965 966.763 766.052 963.226C767.73 963.23 771.057 962.75 774.38 959.208C777.854 960.32 788.572 962.869 797.811 955.745C799.201 956.219 801.932 956.937 805.268 956.715C809.456 956.436 815.397 954.584 820.407 947.504C825.402 949.389 831.55 949.069 835.72 945.364C835.591 945.947 835.75 946.563 836.166 947.01C838.487 949.506 842.22 945.791 843.009 943.742C846.353 946.005 848.095 942.319 848.203 939.363C848.783 939.562 849.405 939.631 850.033 939.469C854.044 938.435 852.575 932.102 851.139 929.637C855.845 927.474 854.166 921.352 850.57 919.088C851.815 917.846 852.212 916.552 851.751 915.224C850.349 911.177 841.928 910.401 839.047 910.624ZM758.936 808.283C739.376 794.683 719.832 799.851 705.948 818.652C704.364 820.559 702.7 817.953 703.539 816.713C703.777 816.36 704.019 816.013 704.262 815.671C703.081 814.181 700.534 811.785 698.724 812.924C697.132 813.92 697.158 817.222 697.173 819.173C697.176 819.45 697.177 819.699 697.175 819.911C697.726 820.352 698.236 820.296 698.719 820.244C698.847 820.229 698.972 820.216 699.096 820.212C699.729 820.19 700.082 820.178 699.688 821.089C699.171 821.509 698.968 821.806 698.768 822.099C698.536 822.438 698.31 822.769 697.604 823.277C697.197 823.569 696.933 823.551 696.696 823.535C696.597 823.528 696.502 823.522 696.403 823.539C695.54 823.69 694.651 824.593 693.911 825.343C693.676 825.583 693.455 825.807 693.255 825.986C688.092 830.624 683.847 836.662 686.463 848.562L687.108 848.36C689.147 847.727 690.13 850.888 688.092 851.521C681.834 853.461 675.532 857.691 676.288 865.163C677.813 863.885 679.813 862.842 682.272 862.051C684.305 861.402 685.316 864.547 683.284 865.203C672.901 867.712 670.426 883.688 680.409 889.023C681.893 889.817 681.302 892.138 679.624 892.138H679.59C679.284 892.138 674.119 892.131 673.824 895.647C673.765 896.356 673.255 896.948 672.566 897.117C672.315 897.18 666.372 898.716 666.701 904.413C666.724 904.846 666.571 905.28 666.283 905.608C666.058 905.866 660.857 911.997 668.494 920.736C668.946 921.252 669.031 921.997 668.71 922.603C664.073 932.168 669.381 939.253 678.635 941.756C679.163 941.898 679.591 942.302 679.77 942.822C679.915 943.246 683.222 952.498 694.344 953.077C692.869 950.244 691.316 946.288 691.239 942.673C691.201 940.54 694.503 940.467 694.55 942.607C694.63 946.357 696.88 951.137 698.452 953.587C699.604 954.524 706.728 959.976 712.856 956.751C713.336 956.497 713.921 956.503 714.401 956.751C714.57 956.841 718.284 958.698 722.509 955.272L722.383 955.103C721.404 953.79 720.275 952.275 719.496 949.588C718.817 947.565 721.955 946.512 722.634 948.535C724.866 955.187 730.277 959.022 738.007 957.973C737.422 956.864 736.802 955.51 736.611 954.441C736.232 952.341 739.496 951.754 739.868 953.858C740.248 955.99 742.845 961.078 745.74 959.817C746.592 959.445 747.62 959.857 747.949 960.737C748.183 961.333 749.583 964.223 753.837 962.558C754.238 962.399 754.695 962.409 755.092 962.578C755.323 962.677 760.782 964.925 763.98 960.535C764.364 960.002 765.215 959.877 765.856 960.016C770.898 960.954 776.139 952.883 777.856 948.989C778.716 947.036 781.746 948.375 780.882 950.326C779.959 952.415 778.628 954.471 776.913 956.46C785.353 958.5 794.242 956.158 799.672 949.254C800.992 947.577 803.59 949.628 802.269 951.303C801.77 951.938 801.247 952.544 800.703 953.12C804.597 953.941 812.276 954.034 818.354 944.633C818.638 944.189 819.122 943.911 819.648 943.878C828.419 943.391 831.957 935.763 830.277 927.927C829.83 925.84 833.284 925.013 833.732 927.101C835.896 935.469 832.949 942.179 826.597 945.341C829.496 945.165 833.304 943.984 835.472 940.555C836.24 939.345 838.146 939.659 838.481 941.054C838.765 942.256 838.931 943.183 839.013 943.901L839.05 943.872C839.593 943.382 840.259 942.359 840.344 940.26C840.402 938.709 842.469 938.117 843.353 939.383C843.741 939.939 844.297 940.541 844.713 940.879C844.863 940.267 845.021 938.933 844.804 936.182C844.681 934.617 846.699 933.782 847.716 934.98C848.11 935.444 848.706 935.943 849.093 936.152C849.867 933.97 848.64 931.246 847.087 929.694C846.005 928.626 846.873 926.715 848.399 926.867C849.767 926.969 850.702 926.189 850.752 924.834C850.854 922.189 846.915 921.037 846.882 921.027C845.494 920.643 845.251 918.718 846.498 917.998C848.163 917.042 848.603 916.27 848.603 916.27C846.121 913.889 841.278 913.801 838.69 913.798C837.918 917.569 835.876 921.067 832.257 923.728C830.552 925.002 828.58 922.358 830.277 921.077C838.322 914.889 836.582 904.527 830.946 897.445C830.532 896.925 830.477 896.197 830.795 895.614C834.026 890.444 829.193 885.043 824.872 882.78C824.342 882.502 824.002 881.949 823.985 881.35C823.975 880.999 823.627 873.015 813.378 869.119C813.222 869.332 813.058 869.538 812.883 869.736C812.742 869.897 812.595 870.053 812.442 870.205C816.66 879.711 808.797 886.278 800.171 888.507C798.104 889.041 797.277 885.836 799.343 885.303C806.103 883.554 813.576 878.335 808.947 870.618C808.454 869.839 808.715 868.781 809.505 868.311C816.47 859.061 807.991 851.302 802.227 849.3C801.28 848.971 800.838 847.827 801.316 846.947C806.353 836.153 795.556 829.327 786.52 826.794C786.132 829.359 785.56 832.085 784.806 834.973C784.267 837.038 781.13 835.954 781.6 834.139C789.032 810.174 780.401 792.558 757.384 813.841C755.783 815.256 753.597 812.772 755.196 811.358C756.47 810.235 757.719 809.212 758.936 808.283ZM705.863 813.529C707.064 812.005 708.313 810.598 709.604 809.305C704.75 807.346 699.096 806.116 696.214 807.525C692.49 809.341 692.9 816.923 693.121 820.978C693.14 821.345 693.158 821.683 693.171 821.985C693.665 821.673 694.149 821.387 694.604 821.133C694.604 820.704 694.594 820.247 694.583 819.773C694.515 816.54 694.428 812.5 697.313 810.683C700.358 808.76 703.826 811.309 705.863 813.529Z" fill="#0C1A23"/>
<path d="M616.593 857.044C616.786 857.459 643.86 899.474 653.888 914.361C649.759 913.076 650.546 913.119 647.096 912.037C645.875 911.936 645.829 912.476 646.317 912.898C654.019 917.653 656.898 919.782 657.005 919.896C676.838 942.209 698.94 971.229 698.94 971.229C701.442 974.246 704.895 971.015 704.017 969.043C691.275 954.549 673.783 933.389 662.143 920.867C655.591 913.039 620.223 858.658 617.826 856.308C617.321 855.829 616.339 856.494 616.586 857.049L616.593 857.044Z" fill="#474747"/>
<g style="mix-blend-mode:multiply">
<path d="M632.456 879.247L656.004 914.569L663.951 924.483L703.326 971.374C704.032 970.665 704.372 969.674 704.02 968.881C703.79 968.368 677.901 939.787 665.508 923.779C665.012 913.154 664.866 911.247 663.689 911.247C663.023 911.247 664.057 921.034 662.272 920.769C655.74 912.952 635.137 881.433 633.275 878.894L632.456 879.247Z" fill="#353637"/>
</g>
<path d="M636.759 872.153L624.375 880.184L615.302 866.732L627.686 858.701L636.759 872.153Z" fill="#E6E7E8"/>
<path d="M627.921 872.36C631.389 870.097 635.26 869.859 636.575 871.828C637.889 873.796 636.163 877.226 632.695 879.489C629.235 881.748 625.363 881.986 624.041 880.022C622.726 878.053 624.46 874.618 627.913 872.364L627.921 872.36Z" fill="#E6E7E8"/>
<path d="M619.37 859.402C622.838 857.139 626.709 856.901 628.024 858.87C629.338 860.838 627.612 864.268 624.144 866.531C620.684 868.79 616.813 869.028 615.49 867.064C614.171 865.086 615.91 861.66 619.362 859.406L619.37 859.402Z" fill="white"/>
<g style="mix-blend-mode:multiply">
<path d="M619.121 859.54L632.537 879.657C629.211 881.837 625.489 882.067 624.218 880.171L615.392 866.936C614.123 865.027 615.795 861.72 619.114 859.544L619.121 859.54Z" fill="#E6E7E8"/>
</g>
<path d="M617.829 856.311C618.155 856.77 619.69 858.732 621.808 861.798C621.552 862.604 621.211 862.852 620.316 862.865C618.038 859.338 616.622 857.138 616.581 857.052C616.288 856.435 617.366 855.659 617.829 856.311Z" fill="#474747"/>
<g style="mix-blend-mode:multiply">
<path d="M621.222 862.711L617.062 856.327C617.286 856.265 617.675 856.156 617.855 856.327C618.273 856.733 619.686 858.759 621.778 861.807C621.633 862.204 621.624 862.461 621.222 862.711Z" fill="#A7A9AC"/>
</g>
<path d="M529.446 855.756C529.253 856.171 502.179 898.185 492.151 913.072C496.28 911.788 495.493 911.83 498.943 910.749C500.164 910.648 500.21 911.187 499.722 911.609C492.02 916.365 489.141 918.494 489.034 918.608C469.201 940.92 447.099 969.941 447.099 969.941C444.597 972.958 441.144 969.726 442.022 967.754C454.764 953.261 472.256 932.1 483.896 919.578C490.448 911.75 525.816 857.369 528.213 855.019C528.718 854.54 529.7 855.205 529.453 855.76L529.446 855.756Z" fill="#474747"/>
<g style="mix-blend-mode:multiply">
<path d="M513.583 877.959L490.035 913.281L482.089 923.195L442.713 970.086C442.007 969.377 441.667 968.385 442.019 967.593C442.249 967.08 468.138 938.499 480.531 922.49C481.027 911.866 481.173 909.958 482.35 909.958C483.016 909.958 481.982 919.745 483.767 919.481C490.299 911.663 510.902 880.144 512.764 877.606L513.583 877.959Z" fill="#353637"/>
</g>
<path d="M509.28 870.864L521.664 878.895L530.737 865.443L518.353 857.413L509.28 870.864Z" fill="#E6E7E8"/>
<path d="M518.118 871.071C514.65 868.808 510.779 868.57 509.464 870.539C508.15 872.508 509.876 875.938 513.344 878.201C516.805 880.459 520.676 880.697 521.998 878.733C523.313 876.764 521.579 873.33 518.126 871.076L518.118 871.071Z" fill="#E6E7E8"/>
<path d="M526.669 858.113C523.201 855.85 519.33 855.612 518.015 857.581C516.701 859.55 518.427 862.98 521.895 865.243C525.355 867.501 529.227 867.739 530.549 865.775C531.868 863.798 530.129 860.372 526.677 858.118L526.669 858.113Z" fill="white"/>
<g style="mix-blend-mode:multiply">
<path d="M526.918 858.252L513.502 878.368C516.828 880.548 520.55 880.778 521.821 878.882L530.647 865.647C531.916 863.739 530.244 860.432 526.925 858.256L526.918 858.252Z" fill="#E6E7E8"/>
</g>
<path d="M528.21 855.022C527.884 855.482 526.349 857.443 524.231 860.51C524.487 861.315 524.828 861.563 525.724 861.576C528.001 858.05 529.418 855.85 529.458 855.763C529.751 855.146 528.673 854.37 528.21 855.022Z" fill="#474747"/>
<g style="mix-blend-mode:multiply">
<path d="M524.817 861.422L528.977 855.038C528.753 854.976 528.364 854.868 528.184 855.038C527.766 855.445 526.354 857.471 524.261 860.518C524.406 860.915 524.415 861.173 524.817 861.422Z" fill="#A7A9AC"/>
</g>
</svg>
