<svg width="116" height="126" viewBox="0 0 116 126" fill="none" xmlns="http://www.w3.org/2000/svg">
<path d="M15.7364 89.018C17.0892 72.858 21.0586 65.7393 9.714 50.9229C10.2906 50.5901 27.2976 53.1315 26.4325 61.7297C25.3718 72.2522 39.6533 74.1678 39.9741 67.9698C40.2949 61.7718 33.5965 54.6829 31.0758 45.0062C29.0212 37.1187 31.1681 27.3075 41.3177 15.7244C41.3177 15.7244 39.2334 35.3235 44.644 43.0756C53.0348 48.5048 57.0027 31.0327 57.0027 31.0327C67.8395 31.0327 62.4262 60.6414 68.6747 49.4443C74.9232 38.2473 78.2397 16.3449 74.2224 1.44937C82.4277 10.5524 87.9945 36.6625 87.9945 43.0757C87.9945 51.3228 74.6367 71.8405 81.7778 83.2306C87.7443 92.747 87.9945 72.0325 102.322 64.4143C94.6549 110.478 108.323 124.019 58.7369 124.019C22.1819 124.019 13.6308 114.123 15.7364 89.018Z" fill="#ED9120"/>
<path d="M56.0122 123.562C56.0122 123.562 27.5192 122.83 29.1341 97.3017C29.1341 94.4285 30.8717 86.2014 37.1144 84.8653C34.2532 89.225 38.2849 103.007 41.9914 99.9837C46.3524 96.4262 48.9938 93.0593 45.3181 81.0867C41.6424 69.1141 46.4375 52.5424 54.2137 46.4718C55.3453 46.3688 52.2511 65.5609 61.7804 64.1174C76.9553 43.2678 64.2319 77.8129 65.8865 80.3602C67.1693 82.3351 75.0008 62.3413 74.0988 88.249C74.1977 92.4654 85.0502 102.354 84.632 92.3031C89.1324 100.385 97.6668 122.048 56.0121 123.569L56.0122 123.562Z" fill="#FCB036"/>
<path d="M43.0313 101.793C43.0331 101.671 45.5493 111.388 49.1445 108.351C52.7396 105.315 48.3641 102.074 48.3641 95.8346C48.3641 88.5918 50.5743 85.0056 55.9448 77.9033C54.6718 92.1075 61.2396 85.6385 61.2396 85.6385C61.2396 85.6385 64.3606 88.3944 59.7448 100.827C57.464 106.971 65.1412 106.593 65.1412 94.5688C70.6686 99.3505 63.7934 119.906 73.3347 105.468C74.1681 109.021 76.5859 120.631 55.9467 120.631C43.4219 120.631 42.1073 109.848 43.0313 101.793Z" fill="#FEC83F"/>
</svg>
