<svg width="115" height="150" viewBox="0 0 115 150" fill="none" xmlns="http://www.w3.org/2000/svg">
<path d="M4.99417 114.302L102.119 127.832L98.8637 144.059L1.35655 126.239C1.35655 126.239 -1.54099 120.273 4.98724 114.302L4.99417 114.302Z" fill="#533716"/>
<path d="M114.056 123.048C114.173 123.05 14.0594 149.214 14.0594 149.214L12.6284 138.096L114.975 115.703C115.616 117.623 115.585 120.067 114.056 123.048Z" fill="#6C471C"/>
<path d="M114.973 115.703L12.626 138.096L10.936 124.965C10.936 124.965 78.3928 112.576 109.77 110.115C110.204 110.27 113.776 112.075 114.973 115.703Z" fill="#76491F"/>
<path d="M114.706 115.031C114.161 113.651 112.884 112.318 112.333 111.831L100.742 115.031H114.706Z" fill="#8E5B28"/>
<path d="M22.6563 136.176C23.1115 142.869 23.0971 147.286 14.0564 149.214C10.4291 149.986 6.13982 140.058 6.24846 133.185C6.35711 126.311 10.7388 124.26 14.45 124.318C17.5954 124.368 20.9689 127.927 22.2083 133.185L36.4493 131.793L22.6563 136.176Z" fill="#8E5B28"/>
<path d="M107.398 132.396C107.351 135.316 104.636 143.7 100.849 144.062C96.3887 144.483 93.8245 138.902 93.7875 135.98C93.7222 130.473 97.7887 127.77 99.8658 127.803C101.943 127.836 107.444 129.025 107.39 132.402L107.398 132.396Z" fill="#6C471C"/>
<path d="M56.0296 120.639C30.9815 120.639 10.0528 123.963 12.0984 91.646C16.4964 98.1342 18.1397 102.733 19.2568 95.9815C22.9076 85.6669 24.0652 77.4152 14.5374 59.9247C15.1098 59.617 31.166 60.7202 30.0311 71.2264C29.4914 77.3255 37.2892 70.7833 37.6077 65.0516C37.9262 59.3199 30.1646 57.6142 28.69 49.1253C27.4322 41.885 27.8845 31.2856 39.4132 27.0269C39.4132 27.0269 39.8556 41.2204 51.4051 47.2892C58.2373 50.8792 57.3463 34.8737 76.3547 31.5829C63.5834 50.7296 70.0262 65.0335 73.2361 69.8764C79.6957 79.6221 84.3739 53.3135 84.3739 53.3135C92.9872 63.0365 86.1555 101.14 96.4023 78.4028C96.4023 99.2542 112.228 120.639 56.0296 120.639Z" fill="#ED9120"/>
<path d="M51.976 119.182C51.976 119.182 22.9986 120.109 32.3483 100.466C36.9786 93.3805 33.4168 87.7299 26.191 79.9023C26.191 79.9023 42.854 80.7658 41.0746 86.4742C39.2952 92.1826 49.087 88.5768 45.4378 77.505C41.7886 66.4331 41.0746 66.114 42.5884 52.7498C53.0066 62.616 46.5251 76.6947 53.3628 74.9039C58.406 73.5832 52.4723 69.8812 61.5549 59.2078C60.7535 75.3524 79.2242 76.5242 74.8225 91.8557C71.7329 102.617 86.101 103.572 85.6859 94.2774C90.9264 97.9978 87.5163 119.182 51.9759 119.189L51.976 119.182Z" fill="#FCB036"/>
<path d="M36.6166 102.26C36.6166 102.26 42.9304 111.078 46.4995 108.27C50.0687 105.461 42.0151 104.024 43.0268 96.9243C44.0385 89.8242 48.6366 89.5238 48.6366 89.5238C48.6366 89.5238 50.974 99.552 55.9412 97.6858C60.9084 95.8196 57.2741 84.501 57.2741 77.0566C69.293 91.3177 65.4664 94.8157 59.7672 102.978C56.6578 107.431 63.5917 107.913 69.6511 104.233C72.3538 114.364 59.5609 116.199 51.9048 116.472C42.5501 116.805 34.8733 116.416 36.6166 102.26Z" fill="#FEC83F"/>
</svg>
