<svg width="115" height="150" viewBox="0 0 115 150" fill="none" xmlns="http://www.w3.org/2000/svg">
<path d="M4.99417 114.302L102.119 127.832L98.8637 144.059L1.35655 126.239C1.35655 126.239 -1.54099 120.273 4.98724 114.302L4.99417 114.302Z" fill="#533716"/>
<path d="M114.056 123.048C114.173 123.05 14.0594 149.214 14.0594 149.214L12.6284 138.096L114.975 115.703C115.616 117.623 115.585 120.067 114.056 123.048Z" fill="#6C471C"/>
<path d="M114.973 115.703L12.626 138.096L10.936 124.965C10.936 124.965 78.3928 112.576 109.77 110.115C110.204 110.27 113.776 112.075 114.973 115.703Z" fill="#76491F"/>
<path d="M114.706 115.031C114.161 113.651 112.884 112.318 112.333 111.831L100.742 115.031H114.706Z" fill="#8E5B28"/>
<path d="M22.6563 136.176C23.1115 142.869 23.0971 147.286 14.0564 149.214C10.4291 149.986 6.13982 140.058 6.24846 133.185C6.35711 126.311 10.7388 124.26 14.45 124.318C17.5954 124.368 20.9689 127.927 22.2083 133.185L36.4493 131.793L22.6563 136.176Z" fill="#8E5B28"/>
<path d="M107.398 132.396C107.351 135.316 104.636 143.7 100.849 144.062C96.3887 144.483 93.8245 138.902 93.7875 135.98C93.7222 130.473 97.7887 127.77 99.8658 127.803C101.943 127.836 107.444 129.025 107.39 132.402L107.398 132.396Z" fill="#6C471C"/>
<path d="M56.8887 120.503C29.4218 120.503 7.28196 125.46 11.5413 83.0859C14.7049 94.0342 19.6325 96.0365 20.7496 89.2848C22.3665 82.1619 13.2633 63.5698 14.0525 63.1455C14.6249 62.8378 25.5159 63.6454 28.2187 72.5364C30.7623 80.9041 36.5932 73.32 36.9117 67.5883C37.2302 61.8565 28.4838 61.5202 24.3975 53.9488C20.7496 47.1897 22.8131 39.9612 27.2867 35.4552C27.2867 35.4552 24.6977 52.1875 39.4957 46.4387C42.1432 45.4102 30.3618 38.7406 38.1905 23.2509C45.8328 43.1528 52.2032 40.9975 55.4322 36.7692C59.1602 31.8876 55.2451 20.4345 73.9766 11.1407C68.0133 24.3773 69.4619 37.4648 72.6718 42.3077C79.1313 52.0534 63.182 48.9448 66.1479 63.6178C67.9507 72.5364 82.3238 84.1022 80.9608 70.2752C98.3077 75.4324 91.0163 115.158 97.0184 89.2848C106.249 110.521 98.3077 120.504 56.8887 120.503Z" fill="#ED9120"/>
<path d="M86.009 55.4173C78.131 54.383 92.3668 38.9672 90.9115 30.8259C94.8202 30.8259 100.217 57.2826 86.009 55.4173Z" fill="#ED9120"/>
<path d="M52.8336 118.999C52.8336 118.999 24.9554 122.922 26.5586 99.3144C27.4973 89.8081 26.5586 87.769 27.14 83.0839C28.8857 81.1597 35.9809 94.5262 34.2015 100.235C42.3375 96.7208 46.903 78.9292 43.2538 67.8573C39.6047 56.7854 37.6045 55.057 42.3375 50.1208C44.3801 47.9929 51.1581 70.3526 55.2959 63.0886C66.924 42.6749 61.6677 76.1337 65.2641 81.1597C72.2421 75.4706 77.2255 79.1517 72.2421 97.5575C72.3402 101.457 84.6996 97.0634 84.2844 87.769C96.3263 100.172 94.1873 117.599 52.8335 119.006L52.8336 118.999Z" fill="#FCB036"/>
<path d="M37.3122 105.055C38.553 106.306 41.3841 110.311 44.9533 107.503C51.786 102.128 39.2261 102.389 48.7647 89.6997C50.4595 98.8044 52.5645 97.1084 53.7549 94.037C55.262 90.1485 56.5796 89.9842 54.4141 73.8613C72.8686 90.4584 59.1264 103.753 61.3816 102.503C64.4915 100.78 65.2588 99.1021 67.1251 94.037C70.9612 101.765 69.4408 105.126 67.5958 107.503C65.4983 110.206 72.1205 110.647 74.1197 105.055C77.0166 107.088 79.3342 117.758 52.8054 117.758C43.5972 117.758 36.0759 115.093 37.3122 105.055Z" fill="#FEC83F"/>
</svg>
