<svg width="116" height="126" viewBox="0 0 116 126" fill="none" xmlns="http://www.w3.org/2000/svg">
<path d="M56.9833 124.24C29.3582 124.24 11.0065 127.981 13.0521 91.6096C17.4501 98.9116 19.0934 104.088 20.2105 96.489C23.8613 84.8805 25.0189 75.5937 15.4911 55.9093C16.0635 55.563 32.1197 56.8045 30.9849 68.6286C30.4451 75.4928 38.243 68.1299 38.5615 61.6793C38.8799 55.2286 30.833 42.9286 29.3584 33.3748C28.1006 25.2263 30.8421 5.65649 42.3708 0.863553C42.3708 0.863553 36.3656 33.4345 47.9152 40.2646C54.7474 44.3049 58.3681 19.2082 77.3765 15.5046C64.6052 37.0531 70.98 61.6589 74.1899 67.1093C80.6494 78.0775 85.3276 48.4688 85.3276 48.4688C93.9409 59.4114 82.7116 117.375 99.4673 75.3745C107.464 112.661 92.53 124.24 56.9833 124.24Z" fill="#ED9120"/>
<path d="M52.9291 122.6C52.9291 122.6 23.9517 123.643 33.3014 101.537C37.9317 93.5622 34.3699 87.2028 27.1441 78.3933C27.1441 78.3933 43.8072 79.3651 42.0277 85.7896C40.2483 92.2141 50.0401 88.156 46.3909 75.6953C42.7418 63.2346 42.0277 62.8755 43.5415 47.8349C53.9597 58.9387 50.5497 74.1759 57.3874 72.1605C62.4306 70.6741 56.8731 73.6726 65.9557 61.6603C65.1543 79.8301 82.7653 72.2312 78.3636 89.4859C75.2741 101.597 85.8618 105.676 85.4467 95.2154C90.6872 99.4024 88.4694 122.6 52.929 122.608L52.9291 122.6Z" fill="#FCB036"/>
<path d="M37.5705 103.554C37.5705 103.554 43.8842 113.478 47.4534 110.317C51.0226 107.157 42.9689 105.54 43.9807 97.5489C44.9924 89.5583 49.5905 89.2202 49.5905 89.2202C49.5905 89.2202 51.9279 100.506 56.8951 98.406C61.8623 96.3057 58.2279 83.5673 58.2279 75.1891C70.2469 91.2391 66.4203 95.1759 60.721 104.362C57.6117 109.373 69.9542 112.447 75.0959 103.554C77.7986 114.955 68.3764 118.354 60.7203 118.661C51.3656 119.037 35.8272 119.485 37.5705 103.554Z" fill="#FEC83F"/>
</svg>
