<svg width="116" height="126" viewBox="0 0 116 126" fill="none" xmlns="http://www.w3.org/2000/svg">
<path d="M56.7543 124.054C29.1877 124.054 11.5517 119.578 11.5522 94.2832C11.5503 77.0722 25.6218 66.5511 23.8617 46.1313C25.3659 48.829 32.5415 54.9398 31.6826 63.3074C30.6296 73.5477 39.9562 73.2275 40.2747 67.1957C40.5932 61.1639 33.5124 53.9214 34.2082 44.8811C35.6979 25.5376 48.949 18.4541 48.4825 19.751C47.4981 22.6004 39.6329 41.9571 52.9767 36.5009C67.4424 30.5871 54.7075 18.426 52.6525 13.1956C50.4438 8.61494 53.8702 1.04496 53.8725 1.04506C54.1591 5.50884 58.9484 13.868 72.9207 26.6379C79.4424 33.752 69.7561 56.0919 71.7933 62.5204C77.1922 79.5572 94.7135 79.3499 88.1552 53.5869C123.371 120.886 88.1552 124.054 56.7543 124.054Z" fill="#ED9120"/>
<path d="M58.6791 121.298C58.6791 121.298 30.3919 120.586 31.9951 95.7419C32.9338 85.7379 38.2475 83.296 36.2923 78.7968C36.2923 78.7968 41.2711 83.9496 39.4917 89.9569C37.7123 95.9642 51.7114 91.6132 48.0623 79.9617C44.4131 68.3102 43.6503 52.1215 51.3704 46.2138C52.4938 46.1135 46.5907 65.3244 56.0512 63.9197C65.5117 62.515 58.5598 54.0612 58.5598 54.0612C58.5598 54.0612 69.1016 56.7762 68.2062 81.989C68.3043 86.0924 78.254 89.0357 77.8388 79.2547C78.055 79.6231 100.033 119.824 58.679 121.305L58.6791 121.298Z" fill="#FCB036"/>
<path d="M57.42 118.445C57.42 118.445 41.4427 120.306 44.5302 93.924C44.5319 93.805 47.3124 105.196 50.8815 102.241C54.4507 99.2862 49.4467 95.8228 50.4584 88.351C51.4702 80.8793 56.2537 76.3739 56.2537 76.3739C56.2537 76.3739 54.439 92.6385 59.4062 90.6746C64.3735 88.7107 62.1292 81.3035 62.1292 81.3035C62.1292 81.3035 69.6402 89.8784 64.8559 101.872C64.1519 104.034 69.345 109.675 71.3442 103.79C71.4532 103.911 76.1337 114.21 57.427 118.445L57.42 118.445Z" fill="#FEC83F"/>
</svg>
