<svg width="115" height="150" viewBox="0 0 115 150" fill="none" xmlns="http://www.w3.org/2000/svg">
<path d="M4.99417 114.302L102.119 127.832L98.8637 144.059L1.35655 126.239C1.35655 126.239 -1.54099 120.273 4.98724 114.302L4.99417 114.302Z" fill="#533716"/>
<path d="M114.056 123.048C114.173 123.05 14.0594 149.214 14.0594 149.214L12.6284 138.096L114.975 115.703C115.616 117.623 115.585 120.067 114.056 123.048Z" fill="#6C471C"/>
<path d="M114.973 115.703L12.626 138.096L10.936 124.965C10.936 124.965 78.3928 112.576 109.77 110.115C110.204 110.27 113.776 112.075 114.973 115.703Z" fill="#76491F"/>
<path d="M114.706 115.031C114.161 113.651 112.884 112.318 112.333 111.831L100.742 115.031H114.706Z" fill="#8E5B28"/>
<path d="M22.6563 136.176C23.1115 142.869 23.0971 147.286 14.0564 149.214C10.4291 149.986 6.13982 140.058 6.24846 133.185C6.35711 126.311 10.7388 124.26 14.45 124.318C17.5954 124.368 20.9689 127.927 22.2083 133.185L36.4493 131.793L22.6563 136.176Z" fill="#8E5B28"/>
<path d="M107.398 132.396C107.351 135.316 104.636 143.7 100.849 144.062C96.3887 144.483 93.8245 138.902 93.7875 135.98C93.7222 130.473 97.7887 127.77 99.8658 127.803C101.943 127.836 107.444 129.025 107.39 132.402L107.398 132.396Z" fill="#6C471C"/>
<path d="M55.6609 120.613C36.36 121.569 8.62487 120.988 11.1021 93.6251C11.8717 85.1242 18.4092 81.9653 18.4092 69.7277C18.4092 69.7277 27.4738 70.2941 26.6087 78.2454C37.0127 66.6992 37.9898 62.6038 38.3106 56.8721C38.8538 47.1679 29.0398 37.6505 30.5957 28.1371C36.2093 35.8582 40.218 35.8073 44.37 32.6802C48.522 29.5532 42.031 13.968 50.7361 4.2219C50.7361 4.2219 56.1323 37.2609 62.4325 40.7369C66.201 42.816 71.1389 39.4374 67.1106 23.0642C74.776 28.1371 76.9865 33.0701 76.0769 39.4374C74.4197 51.0377 64.5467 49.0495 69.3171 63.2507C74.4307 78.4733 92.2374 77.4306 92.2374 59.5383C113.317 124.145 82.0926 119.304 55.6609 120.613Z" fill="#ED9120"/>
<path d="M53.6098 119.103C53.6098 119.103 22.2197 121.91 23.8346 98.3024C24.7802 88.7962 33.0295 82.9921 31.0601 78.7167C31.0601 78.7167 37.9727 87.5261 36.1804 93.2346C34.388 98.943 46.5914 90.8956 42.9157 79.8237C39.2399 68.7518 33.4557 63.3474 45.9287 68.675C47.0603 68.5797 49.5538 40.1344 53.6109 39.5667C55.2145 39.3424 54.4385 56.2458 56.1945 64.3865C68.1495 45.6742 64.1081 57.7916 63.2062 81.7502C63.305 85.6493 73.3271 88.4462 72.9089 79.1519C89.9799 85.1779 95.2644 117.703 53.6097 119.11L53.6098 119.103Z" fill="#FCB036"/>
<path d="M33.6121 98.2597C36.2621 100.853 38.1735 106.577 41.7686 103.769C45.3638 100.961 42.6095 98.4913 43.6286 91.3912C47.8496 99.7621 49.9981 95.5409 49.9981 95.5409C49.9981 95.5409 53.9641 85.8106 52.6451 70.4998C59.9432 74.721 56.0937 83.7319 60.1557 91.3912C68.4551 83.8789 64.7716 85.6676 64.7716 99.0112C64.7716 107.775 71.6296 104.603 73.6433 99.0112C77.3916 104.272 81.8619 118.467 55.5379 118.467C34.7316 118.467 31.7755 113.065 33.6121 98.2597Z" fill="#FEC83F"/>
</svg>
