<svg width="115" height="150" viewBox="0 0 115 150" fill="none" xmlns="http://www.w3.org/2000/svg">
<path d="M4.99417 114.302L102.119 127.832L98.8637 144.059L1.35655 126.239C1.35655 126.239 -1.54099 120.273 4.98724 114.302L4.99417 114.302Z" fill="#533716"/>
<path d="M114.056 123.048C114.173 123.05 14.0594 149.214 14.0594 149.214L12.6284 138.096L114.975 115.703C115.616 117.623 115.585 120.067 114.056 123.048Z" fill="#6C471C"/>
<path d="M114.973 115.703L12.626 138.096L10.936 124.965C10.936 124.965 78.3928 112.576 109.77 110.115C110.204 110.27 113.776 112.075 114.973 115.703Z" fill="#76491F"/>
<path d="M114.706 115.031C114.161 113.651 112.884 112.318 112.333 111.831L100.742 115.031H114.706Z" fill="#8E5B28"/>
<path d="M22.6563 136.176C23.1115 142.869 23.0971 147.286 14.0564 149.214C10.4291 149.986 6.13982 140.058 6.24846 133.185C6.35711 126.311 10.7388 124.26 14.45 124.318C17.5954 124.368 20.9689 127.927 22.2083 133.185L36.4493 131.793L22.6563 136.176Z" fill="#8E5B28"/>
<path d="M107.398 132.396C107.351 135.316 104.636 143.7 100.849 144.062C96.3887 144.483 93.8245 138.902 93.7875 135.98C93.7222 130.473 97.7887 127.77 99.8658 127.803C101.943 127.836 107.444 129.025 107.39 132.402L107.398 132.396Z" fill="#6C471C"/>
<path d="M54.6124 120.368C23.3758 120.368 11.6382 115.816 11.6387 91.9534C11.6368 75.7168 23.4798 66.12 21.7198 46.8562C23.2239 49.4011 30.3996 55.166 29.5407 63.0599C28.4877 72.7205 37.8142 72.4184 38.1327 66.7281C38.4512 61.0378 31.3705 54.2052 32.0663 45.6767C33.556 27.4284 46.8071 20.7459 46.3406 21.9693C45.3562 24.6575 37.491 42.9183 50.8348 37.771C65.3004 32.192 55.9394 26.6973 53.5417 18.0668C51.2539 9.83136 64.9768 3.14324 65.2065 2.6822C62.2344 15.1501 62.7668 23.3647 76.7391 35.4116C83.2608 42.123 72.7153 62.6608 74.7525 68.7254C80.1841 84.8948 90.9509 85.2294 85.2968 57.7227C119.222 107.54 99.967 120.368 54.6124 120.368Z" fill="#ED9120"/>
<path d="M56.5385 117.767C56.5385 117.767 28.2513 117.095 29.8545 93.658C30.7932 84.2204 36.1069 81.9167 34.1517 77.6722C34.1517 77.6722 39.1305 82.5333 37.3511 88.2006C35.5717 93.8678 49.5708 89.7631 45.9216 78.7712C42.2725 67.7793 41.5097 52.5071 49.2297 46.9338C50.3532 46.8392 44.4501 64.9626 53.9106 63.6374C63.371 62.3122 56.4192 54.3369 56.4192 54.3369C56.4192 54.3369 66.9609 56.8983 66.0655 80.6838C66.1636 84.5548 76.1133 87.3315 75.6982 78.1042C75.9143 78.4518 97.8922 116.377 56.5384 117.774L56.5385 117.767Z" fill="#FCB036"/>
<path d="M55.2794 115.076C55.2794 115.076 39.3021 116.832 42.3895 91.9437C42.3913 91.8314 45.1717 102.578 48.7409 99.7901C52.3101 97.0023 47.3061 93.735 48.3178 86.6862C49.3296 79.6375 54.1131 75.3871 54.1131 75.3871C54.1131 75.3871 52.2984 90.731 57.2656 88.8783C62.2328 87.0256 59.9886 80.0377 59.9886 80.0377C59.9886 80.0377 67.4996 88.1271 62.7153 99.4421C62.0113 101.482 67.2044 106.803 69.2036 101.251C69.3126 101.365 73.9931 111.081 55.2863 115.076L55.2794 115.076Z" fill="#FEC83F"/>
</svg>
