<svg width="116" height="126" viewBox="0 0 116 126" fill="none" xmlns="http://www.w3.org/2000/svg">
<path d="M56.6165 124.232C22.7548 125.416 7.16418 118.257 9.64137 89.2964C10.411 80.2991 18.714 76.4718 18.714 63.5196C18.714 63.5196 28.4295 70.9743 27.5644 79.39C37.9684 67.1695 38.9455 62.835 39.2663 56.7685C39.8095 46.4976 29.9954 36.4244 31.5513 26.3554C37.1649 34.5274 41.1736 34.4736 45.3256 31.1639C49.4776 27.8542 42.9866 11.3588 51.6917 1.04361C51.6917 1.04361 57.088 36.0121 63.3882 39.691C67.1566 41.8916 72.0946 38.3157 68.0663 20.9863C75.7317 26.3554 77.9421 31.5765 77.0325 38.3157C75.3753 50.5934 65.5024 48.4891 70.2728 63.5196C75.3863 79.6312 92.4223 92.5765 90.6515 56.7685C106.703 115.759 97.2923 122.809 56.6165 124.232Z" fill="#ED9120"/>
<path d="M54.5629 122.634C54.5629 122.634 23.1729 125.605 24.7878 100.619C25.7333 90.5573 33.9826 84.4143 32.0132 79.8892C32.0132 79.8892 38.9259 89.2131 37.1335 95.2549C35.3411 101.297 47.5445 92.7793 43.8688 81.0609C40.1931 69.3424 34.4088 63.6223 46.8818 69.261C48.0134 69.1602 50.507 39.0537 54.5641 38.4529C56.1676 38.2155 55.3916 56.106 57.1476 64.7222C69.1027 44.9171 65.0612 57.7421 64.1593 83.0998C64.2581 87.2267 74.2802 90.1869 73.8621 80.3498C90.9331 86.7277 96.2175 121.153 54.5628 122.642L54.5629 122.634Z" fill="#FCB036"/>
<path d="M34.5652 100.573C37.2152 103.317 39.1266 109.376 42.7218 106.404C46.3169 103.432 43.5626 100.818 44.5818 93.3036C48.8027 102.163 50.9512 97.6956 50.9512 97.6956C50.9512 97.6956 54.9173 87.397 53.5982 71.1921C60.8963 75.6598 57.0468 85.1969 61.1089 93.3036C69.4082 85.3525 65.7247 87.2456 65.7247 101.369C65.7247 110.644 72.5827 107.287 74.5964 101.369C78.3448 106.937 82.815 121.96 56.491 121.96C35.6848 121.96 32.7286 116.243 34.5652 100.573Z" fill="#FEC83F"/>
</svg>
