<svg width="115" height="150" viewBox="0 0 115 150" fill="none" xmlns="http://www.w3.org/2000/svg">
<path d="M4.99417 114.302L102.119 127.832L98.8637 144.059L1.35655 126.239C1.35655 126.239 -1.54099 120.273 4.98724 114.302L4.99417 114.302Z" fill="#533716"/>
<path d="M114.056 123.048C114.173 123.05 14.0594 149.214 14.0594 149.214L12.6284 138.096L114.975 115.703C115.616 117.623 115.585 120.067 114.056 123.048Z" fill="#6C471C"/>
<path d="M114.973 115.703L12.626 138.096L10.936 124.965C10.936 124.965 78.3928 112.576 109.77 110.115C110.204 110.27 113.776 112.075 114.973 115.703Z" fill="#76491F"/>
<path d="M114.706 115.031C114.161 113.651 112.884 112.318 112.333 111.831L100.742 115.031H114.706Z" fill="#8E5B28"/>
<path d="M22.6563 136.176C23.1115 142.869 23.0971 147.286 14.0564 149.214C10.4291 149.986 6.13982 140.058 6.24846 133.185C6.35711 126.311 10.7388 124.26 14.45 124.318C17.5954 124.368 20.9689 127.927 22.2083 133.185L36.4493 131.793L22.6563 136.176Z" fill="#8E5B28"/>
<path d="M107.398 132.396C107.351 135.316 104.636 143.7 100.849 144.062C96.3887 144.483 93.8245 138.902 93.7875 135.98C93.7222 130.473 97.7887 127.77 99.8658 127.803C101.943 127.836 107.444 129.025 107.39 132.402L107.398 132.396Z" fill="#6C471C"/>
<path d="M15.7341 87.9774C17.087 73.0332 21.0564 66.45 9.71173 52.7483C10.2883 52.4406 27.2954 54.7908 26.4302 62.7421C25.3695 72.4729 39.651 74.2444 39.9718 68.5127C40.2926 62.781 33.5943 56.2254 31.0735 47.2767C29.0189 39.9827 29.8238 28.8883 39.9735 18.1766C39.9735 18.1766 39.2312 38.3225 44.6417 45.4914C53.0325 50.5122 49.2834 37.2791 49.2834 37.2791C60.1203 37.2791 58.7454 60.8449 64.9939 50.4902C71.2424 40.1356 74.4559 37.2791 78.7406 37.2791C72.8492 47.2767 81.7466 52.5784 83.3823 58.167C85.5247 65.4866 74.6344 72.0922 81.7756 82.6253C87.742 91.4258 79.8197 66.9558 97.4199 61.089C89.5499 78.6893 127.764 120.345 58.7346 120.345C27.7908 121.485 9.71173 122.161 15.7341 87.9774Z" fill="#ED9120"/>
<path d="M56.0122 119.923C56.0122 119.923 27.5192 119.246 29.1341 95.6386C29.1341 92.9816 30.8717 85.3734 37.1144 84.1379C34.2532 88.1696 38.2849 100.915 41.9914 98.1188C46.3524 94.829 48.9938 91.7154 45.3181 80.6435C41.6424 69.5717 46.4375 54.2467 54.2137 48.6328C55.3453 48.5375 52.2511 66.2858 61.7804 64.9509C76.9553 45.6699 64.2319 77.616 65.8866 79.9717C67.1693 81.798 75.0008 63.3084 74.0989 87.2669C74.1977 91.1661 85.0502 100.31 84.632 91.016C89.1324 98.4898 97.6668 118.523 56.0121 119.93L56.0122 119.923Z" fill="#FCB036"/>
<path d="M43.0313 99.7924C43.0331 99.6792 45.5493 108.665 49.1445 105.857C52.7396 103.049 48.3641 100.052 48.3641 94.2821C48.3641 87.5843 50.5743 84.2679 55.9448 77.6999C54.6718 90.8355 61.2396 84.8532 61.2396 84.8532C61.2396 84.8532 64.3606 87.4017 59.7448 98.899C57.464 104.58 65.1412 104.231 65.1412 93.1117C70.6686 97.5335 63.7934 116.543 73.3347 103.191C74.1681 106.476 76.5859 117.213 55.9467 117.213C43.4219 117.213 42.1073 107.241 43.0313 99.7924Z" fill="#FEC83F"/>
</svg>
