<svg width="116" height="126" viewBox="0 0 116 126" fill="none" xmlns="http://www.w3.org/2000/svg">
<path d="M57.2489 124.102C33.0272 124.102 7.64222 129.661 11.9016 82.1411C15.0651 94.4188 19.9928 96.6642 21.1099 89.0926C22.7268 81.1049 13.6236 60.2553 14.4128 59.7795C14.9852 59.4343 25.8762 60.34 28.5789 70.3106C31.1226 79.6944 36.9535 71.1893 37.2719 64.7616C37.5904 58.3339 28.8441 57.9568 24.7578 49.466C21.1099 41.8862 23.1734 33.78 27.6469 28.7267C27.6469 28.7267 25.058 47.4908 39.856 41.044C42.5035 39.8906 30.7221 32.4111 38.5508 15.0406C46.193 37.3591 52.5635 34.942 55.7925 30.2003C59.5204 24.726 55.6054 11.8822 74.3368 1.45986C68.3736 16.3037 69.8222 30.9804 73.0321 36.4114C79.4916 47.3405 63.5423 43.8544 66.5082 60.309C68.3109 70.3106 82.6841 83.2807 81.3211 67.7749C98.668 73.5583 91.3766 118.108 97.3787 89.0927C106.609 112.908 92.3454 124.102 57.2489 124.102Z" fill="#ED9120"/>
<path d="M86.3693 51.1128C78.4913 49.9529 92.727 32.6652 91.2718 23.5354C95.1805 23.5354 100.577 53.2046 86.3693 51.1128Z" fill="#ED9120"/>
<path d="M53.193 122.415C53.193 122.415 25.3148 126.815 26.918 100.34C27.8567 89.6797 26.918 87.3929 27.4994 82.1389C29.2451 79.9811 36.3402 94.9706 34.5608 101.372C42.6969 97.4317 47.2624 77.4797 43.6132 65.0635C39.964 52.6472 37.9639 50.7088 42.6969 45.1733C44.7395 42.787 51.5175 67.8617 55.6553 59.7157C67.2834 36.8233 62.0271 74.3448 65.6235 79.9811C72.6014 73.6011 77.5849 77.7293 72.6014 98.37C72.6995 102.743 85.0589 97.8159 84.6438 87.3929C96.6857 101.302 94.5467 120.845 53.1929 122.423L53.193 122.415Z" fill="#FCB036"/>
<path d="M37.6716 106.779C38.9124 108.182 41.7435 112.673 45.3127 109.524C52.1454 103.496 39.5854 103.789 49.1241 89.559C50.8189 99.7693 52.9239 97.8673 54.1143 94.4229C55.6214 90.0623 56.939 89.8781 54.7734 71.7974C73.2279 90.4099 59.4858 105.318 61.7409 103.917C64.8509 101.985 65.6182 100.103 67.4844 94.4229C71.3206 103.09 69.8001 106.858 67.9552 109.524C65.8577 112.556 72.4799 113.049 74.4791 106.779C77.376 109.058 79.6935 121.024 53.1648 121.024C43.9566 121.024 36.4353 118.036 37.6716 106.779Z" fill="#FEC83F"/>
</svg>
