<svg width="1126" height="395" viewBox="0 0 1126 395" fill="none" xmlns="http://www.w3.org/2000/svg">
<path d="M957.903 263.98C957.903 263.98 922.515 253.089 925.167 233.109C926.087 226.338 905.687 218.648 905.687 179.129C905.687 175.67 921.006 124.193 878.548 89.4205C836.09 54.6484 783.21 79.0073 783.21 79.0073C783.21 79.0073 770.911 6.00416 685.553 7.4024C600.196 8.80065 586.792 91.7755 590.437 96.4117C590.437 96.4117 555.418 94.7559 544.076 110.321C544.076 110.321 522.239 26.8674 410.884 39.3781C299.528 51.8887 321.107 170.997 321.107 170.997C321.107 170.997 277.25 168.017 270.99 194.436C270.99 194.436 227.132 173.867 204.191 199.109C183.901 221.408 187.51 254.965 188.614 262.472C188.762 263.465 188.872 263.98 188.872 263.98C188.872 263.98 155.105 270.935 148.845 294.926C148.845 294.926 128.665 290.069 120.674 298.385C120.674 298.385 88.5269 289.958 86.2438 314.722C86.2438 314.722 41.3555 298.237 20.7341 322.376C0.112726 346.514 5.3416 357.479 18.23 372.602C31.1184 387.725 76.8538 388.424 107.123 385.812C137.392 383.199 233.245 386.989 233.245 386.989L815.542 383.898C815.542 383.898 1061.89 393.649 1099.31 384.781C1136.72 375.914 1120 329.514 1090.25 321.161C1060.49 312.809 1043.81 316.451 1033.36 321.676C1033.36 321.676 1025.51 273.915 999.441 269.132C973.369 264.348 957.866 263.98 957.866 263.98H957.903Z" fill="white"/>
<path fill-rule="evenodd" clip-rule="evenodd" d="M892.65 300.187C963.831 287.811 1030.92 295.833 1031.29 386.548C821.445 384.745 611.923 385.475 402.305 386.205C289.734 386.597 177.134 386.989 64.4419 386.989C-38.9673 375.525 33.2454 283.282 93.7907 355.124C102.428 352.577 105.08 348.741 107.311 345.515C117.837 330.291 139.044 354.916 145.602 344.011C172.476 299.325 270.486 271.203 248.825 350.395C257.283 329.928 299.726 345.061 317.701 364.668C328.557 295.37 375.582 285.713 450.277 304.047C458.967 273.8 527.462 265.341 527.462 265.341C549.417 235.464 625.923 227.315 643.352 266.482C644.71 235.464 613.248 213.734 613.248 213.734C656.188 95.233 823.301 198.632 752.461 304.603C774.828 302.828 799.475 317.977 809.501 328.557C817.86 315.826 834.763 311.337 834.763 311.337C796.136 261.885 837.752 225.268 837.752 225.268C837.752 225.268 844.189 308.614 892.65 300.187ZM733.094 300.187C720.191 259.172 673.807 227.281 632.872 227.281C695.187 190.51 769.129 261.592 733.094 300.187Z" fill="#B3E1EB"/>
<path d="M385.872 46.2358C385.872 46.2358 338.296 89.0663 374.31 126.414C374.31 126.414 428.588 114.713 439.562 167.405C439.562 167.405 511.074 180.357 469.831 252.882C469.831 252.882 459.41 262.853 453.665 243.02C447.921 223.187 443.612 212.406 421.776 213.657C399.939 214.908 429.03 176.236 381.675 178.37C334.319 180.504 349.746 190.179 344.988 191.501C337.694 190.108 328.857 186.994 324.222 178.37C309.617 144.264 315.706 65.5878 385.946 46.2726L385.872 46.2358Z" fill="#B3E1EB"/>
<path d="M243.112 264.385C262.518 256.237 302.695 241.625 322.431 256.069C325.046 257.982 285.202 278.331 292.162 311.521C292.162 311.521 286.896 305.67 274.229 309.423C261.561 313.176 236.3 275.534 225.179 272.039C214.058 268.543 188.282 265.967 188.834 265.599C189.386 265.231 179.407 220.12 205.699 199.256C205.699 224.301 210.384 257.438 243.112 264.385Z" fill="#B3E1EB"/>
<path d="M963.168 260.138C925.569 255.481 906.23 193.46 912.211 154.889C920.307 102.674 852.109 46.3038 785.313 74.1973C756.036 -31.4882 584.05 -21.1714 584.944 93.5785C578.896 92.7959 558.42 91.4843 545.573 102.674C491.954 -19.0936 291.639 20.6827 318.148 169.091C301.058 169.091 274.502 172.235 269.289 192.225C209.529 167.881 178.101 206.093 186.321 262.785C169.424 267.079 152.455 275.128 147.429 293.371C138.362 291.692 125.8 287.656 119.559 297.019C102.83 292.515 84.8699 293.818 84.6196 313.3C57.0671 304.05 22.7947 303.71 6.16638 332.44C-16.076 366.91 30.4454 386.36 56.7072 390.043C356.681 394.909 759.837 396.656 1097.43 388.829C1160.63 377.085 1108.13 292.385 1035.59 317.906C1031.14 298.551 1023.65 275.777 1004.43 269.144C989.393 264.315 978.724 262.064 963.168 260.138ZM960.674 266.053C953.203 267.055 935.535 270.284 915.714 292.385C955.065 268.125 1035.59 266.053 1028.18 342.033C1035.59 333.674 1035.59 323.099 1035.59 323.099C1102.15 302.014 1148.36 376.961 1095.84 381.838C758.258 384.462 351.583 383.907 57.3331 382.5C-16.7312 374.778 -0.587326 294.668 87.3815 318.107C90.2398 300.533 102.159 295.625 120.56 300.887C128.063 293.389 140.13 295.56 149.467 297.465C154.709 280.005 170.184 271.862 186.899 267.398C189.437 266.72 217.096 264.911 233.196 277.576C225.521 261.637 193.633 261.954 189.963 262.327C181.591 206.326 213.07 171.623 271.464 197.269C274.709 198.991 282.452 205.872 284.72 217.72C284.246 198.264 274.262 194.489 272.444 193.678C278.2 175.368 302.129 172.532 319.377 173.267C320.551 173.317 322.392 190.34 346.437 191.75C325.061 186.019 322.392 170.813 322.392 170.813C303.568 31.8309 508.6 -9.8913 541.347 120.697C541.347 120.697 544.684 138.537 527.241 166.246C557.13 142.625 548.767 111.383 549.784 110.531C558.984 102.829 573.836 101.136 585.381 101.467C585.381 101.467 592.38 126.545 609.096 136.629C595.65 119.731 594.005 95.3544 594.005 94.1673C601.88 -9.46458 757.484 -12.8821 779.2 83.1713C779.2 83.1713 786.879 114.127 762.797 143.759C793.548 121.522 788.158 81.7187 788.158 81.7187C857.285 51.4813 904.353 118.456 901.019 152.984C897.209 181.796 905.01 203.973 910.942 215.112C911.978 217.058 892.53 195.204 852.277 205.978C818.151 215.112 797.097 273.176 829.994 304.757C813.502 273.614 821.31 228.874 855.961 216.329C900.263 203.083 917.277 232.805 921.497 239.897C931.511 256.725 942.706 263.902 960.674 266.053Z" fill="#324C76"/>
<path d="M450.281 304.235C409.493 253.958 300.307 274.249 308.016 349.028C295.217 343.534 253.295 326.38 248.523 350.856C259.132 331.777 299.831 354.803 315.211 362.005C312.447 291.584 400.089 263.904 450.244 304.235H450.281Z" fill="#324C76"/>
<path d="M643.462 267.218C656.52 197.977 545.186 187.105 526.786 266.241C544.461 248.726 558.842 227.825 584.177 227.457C599.847 226.607 641.298 240.04 643.462 267.218Z" fill="#324C76"/>
<path d="M733.016 300.482C783.744 262.251 681.087 172.26 631.897 227.7C676.487 213.03 761.581 240.942 733.016 300.482Z" fill="#324C76"/>
</svg>
