<svg width="1120" height="390" viewBox="0 0 1120 390" fill="none" xmlns="http://www.w3.org/2000/svg">
<path d="M166.093 263.12C166.093 263.12 194.669 259.804 198.829 232.249C197.909 225.478 218.309 217.788 218.309 178.269C218.309 174.81 202.99 123.333 245.448 88.5604C287.906 53.7883 340.786 78.1472 340.786 78.1472C340.786 78.1472 353.085 5.14405 438.443 6.54229C523.801 7.94054 537.204 90.9153 533.559 95.5516C533.559 95.5516 568.579 93.8958 579.92 109.46C579.92 109.46 610.059 27.0744 701.119 35.7743C824.272 60.3276 802.889 170.137 802.889 170.137C802.889 170.137 846.747 167.157 853.007 193.576C911.934 168.213 943.733 206.195 935.124 263.12C935.124 263.12 968.891 270.075 975.152 294.066C975.152 294.066 995.331 289.209 1003.32 297.524C1003.32 297.524 1035.47 289.098 1037.75 313.862C1037.75 313.862 1082.64 297.377 1103.26 321.515C1123.88 345.654 1118.65 356.619 1105.77 371.742C1092.88 386.865 1047.14 387.564 1016.87 384.952C986.604 382.339 890.751 386.129 890.751 386.129L308.454 383.038C308.454 383.038 62.1021 392.789 24.6889 383.921C-12.7242 375.054 3.99388 328.654 33.7476 320.301C63.5014 311.948 80.1826 315.591 90.6406 320.816C90.6406 320.816 98.4841 273.055 124.555 268.272C150.627 263.488 166.13 263.12 166.13 263.12H166.093Z" fill="white"/>
<path fill-rule="evenodd" clip-rule="evenodd" d="M231.348 299.327C182.888 290.901 163.445 291.711 163.445 291.711C95.7329 301.884 92.9023 345.857 92.9023 386.127C415.444 383.356 737.02 386.129 1059.56 386.129C1115.83 386.129 1130.06 332.499 1062.7 333.718C1034.23 334.234 1030.21 354.264 1030.21 354.264C1002.86 333.327 979.509 343.372 980.803 356.642C976.09 348.804 943.965 291.527 901.286 296.678C874.31 299.934 864.882 326.16 873.513 349.188C865.934 331.576 826.821 338.434 806.114 364.427C794.582 290.816 703.279 278.083 652.431 320.14C643.741 289.893 591.811 284.741 591.811 284.741C582.859 232.525 511.088 229.12 480.531 265.836C482.127 244.956 503.535 219.526 546.486 226.421C532.161 217.235 518.391 211.753 518.391 211.753C518.391 211.753 486.391 123.443 400.775 171.425C315.16 219.407 371.537 303.743 371.537 303.743C349.171 301.968 320.23 327.217 320.23 334.145C311.871 321.414 291.321 306.045 291.321 306.045C318.099 259.281 282.554 227.623 282.554 227.623C282.554 227.623 279.809 307.754 231.348 299.327ZM491.127 226.421C443.384 187.455 348.066 249.62 390.135 299.428C410.708 237.187 439.125 232.755 491.127 226.421Z" fill="#B3E1EB"/>
<path d="M738.124 45.3757C738.124 45.3757 785.7 88.2062 749.686 125.554C749.686 125.554 695.408 113.853 684.434 166.545C684.434 166.545 612.922 179.497 654.165 252.022C654.165 252.022 664.586 261.993 670.331 242.16C676.075 222.327 680.384 211.546 702.22 212.797C724.057 214.048 694.966 175.376 742.322 177.51C789.677 179.644 774.25 189.318 779.008 190.641C786.302 189.247 795.139 186.134 799.774 177.51C814.379 143.404 798.559 67.0944 738.05 45.4125L738.124 45.3757Z" fill="#B3E1EB"/>
<path d="M880.884 263.525C858.208 266.717 821.301 240.765 801.565 255.209C798.95 257.122 838.794 277.471 831.834 310.66C831.834 310.66 837.1 304.81 849.767 308.563C862.435 312.316 881.586 277.966 892.707 274.47C921.099 261.907 935.715 265.107 935.162 264.739C934.61 264.371 944.589 219.259 918.297 198.396C918.297 229.397 919.737 255.279 880.884 263.525Z" fill="#B3E1EB"/>
<path d="M195.888 237.197C195.85 236.499 195.809 230.308 197.615 228.132C208.914 214.514 221.212 195.259 215.625 171.094C202.734 99.8903 272.281 45.8144 339.16 73.7424C358.02 -34.0428 538.652 -18.5569 538.652 91.6403C551.159 89.9008 566.528 89.2955 578.791 103.977C582.529 92.4043 587.693 83.3973 595.28 73.8788C664.876 -8.69855 810.431 37.8876 807.533 148.906C807.396 155.722 806.812 162.403 805.711 169.13C825.263 168.753 846.899 171.705 854.66 191.837C875.944 182.932 902.944 178.379 920.804 196.52C938.348 214.891 944.417 234.006 941.606 258.091C959.164 262.207 971.213 273.501 977.817 291.109C985.43 288.584 997.003 287.073 1004.36 295.852C1018.8 291.965 1036.61 289.467 1039.38 312.453C1047.96 307.709 1069.45 303.639 1080.73 306.687C1142.85 323.468 1123.69 386.686 1067.29 389.183C728.068 390.061 26.5711 387.969 26.5711 387.969C-13.2355 380.573 -2.22807 333.026 28.2282 319.896C46.0908 312.196 70.9675 308.453 88.5983 317.508C86.6104 318.514 96.5488 283.406 115.09 271.191C131.277 260.526 197.169 260.563 195.888 237.197ZM209.676 291.111C175.799 260.079 133.79 274.172 119.697 280.677C103.026 288.371 90.1127 316.323 96.4865 340.13C91.2052 334.275 88.5983 323.767 88.5983 323.767C70.8495 316.34 52.6775 317.508 35.1879 323.245C9.47253 331.68 -8.30114 375.274 28.1546 380.978C112.423 380.978 268.072 377.432 387.888 378.144C611.759 377.823 1066.66 381.64 1066.66 381.64C1105.39 377.602 1129.83 352.89 1099.18 322.308C1083.55 306.712 1055.95 311.063 1036.61 317.247C1033.76 299.673 1019.73 296.573 1003.44 300.027C995.933 292.529 983.866 294.7 974.53 296.605C969.308 279.213 953.889 270.073 937.124 265.568C933.483 264.59 917.186 262.833 890.515 275.509C904.297 259.383 931.126 257.785 934.492 258.091C938.451 231.578 932.304 200.451 904.454 190.007C887.331 184.635 868.514 189.381 852.532 196.409C852.532 196.409 845.509 200.028 839.121 217.635C839.834 198.704 847.981 191.837 847.981 191.837C840.887 174.808 816.399 173.102 805.075 175.626C803.95 175.877 801.605 189.495 777.965 190.857C800.197 184.414 801.605 169.953 801.605 169.953C816.532 59.736 682.118 -7.5531 605.959 75.9394C594.847 87.6088 587.272 102.609 583.136 117.967C582.968 118.59 576.743 139.848 596.525 165.825C567.613 141.153 574.352 110.176 574.352 110.176C565.874 100.255 551.797 99.8784 538.652 100.255C538.652 100.255 534.571 119.349 518.668 131.898C523.536 123.19 530.784 111.452 529.882 93.1725C522.413 -5.11601 367.75 -18.6789 345.651 79.067C345.651 79.067 334.147 111.372 361.319 143.109C330.669 118.98 335.669 81.8078 335.669 81.8078C268.607 54.9613 210.947 107.864 223.382 177.092C226.371 193.729 219.322 209.827 215.088 216.57C214.432 217.614 243.697 199.851 276.5 212.972C298.483 221.766 320.606 271.963 291.018 306.687C309.003 261.831 290.492 230.337 270.872 221.941C235.724 206.902 203.078 228.507 202.688 237.197C201.974 253.14 183.032 260.19 163.089 265.116C163.089 265.116 198.7 268.616 209.676 291.111Z" fill="#324C76"/>
<path d="M672.055 303.375C713.87 251.832 824.592 274.335 817.029 347.696C827.601 337.066 869.767 322.8 873.813 349.995C863.537 326.644 818.84 358.399 806.021 364.401C811.211 292.39 734.657 262.26 672.092 303.375H672.055Z" fill="#324C76"/>
<path d="M480.535 266.358C473.115 208.254 572.594 211.912 597.545 264.027C587.574 247.941 500.406 196.422 480.535 266.358Z" fill="#324C76"/>
<path d="M390.98 299.622C376.397 293.035 377.502 271.877 380.853 258.668C393.365 210.575 472.505 195.17 491.147 226.324C453.414 211.387 405.632 219.514 388.991 261.391C384.867 273.092 380.374 290.018 390.98 299.622Z" fill="#324C76"/>
</svg>
