<svg width="313" height="154" viewBox="0 0 313 154" fill="none" xmlns="http://www.w3.org/2000/svg">
<path d="M291.484 2.37256L232.61 53.8737L230.295 153.528L288.539 90.1087L291.484 2.37256Z" fill="#E39D62"/>
<path d="M233.027 53.7636L254.132 93.3304L289.801 53.4003V48.7085L233.027 53.7636Z" fill="#CF874B"/>
<path d="M232.926 53.4959L255.825 88.3245L312.286 23.8086L292.752 0.99707L232.926 53.4959Z" fill="#FBC787"/>
<path d="M249.395 123.114C248.606 123.075 248.238 122.118 248.796 121.56L276.877 93.496C277.061 93.3121 277.314 93.2147 277.574 93.2279V93.2279C278.37 93.2686 278.741 94.2342 278.177 94.7977L250.084 122.849C249.902 123.031 249.652 123.127 249.395 123.114V123.114Z" fill="#F3E3D2"/>
<path d="M253.298 110.497C252.626 110.238 252.443 109.373 252.953 108.864L267.399 94.4293C267.68 94.1487 268.1 94.0598 268.471 94.2028V94.2028C269.149 94.4644 269.333 95.3376 268.819 95.851L254.359 110.273C254.08 110.55 253.665 110.638 253.298 110.497V110.497Z" fill="#F3E3D2"/>
<path d="M233.162 52.5046L15.872 37.3293L12.9082 135.375L230.056 153.807L230.127 152.834L233.162 52.5046Z" fill="#F4BA79"/>
<path d="M14.6035 79.1501L225.369 97.5304L233.068 55.547L233.126 53.6072L14.6035 74.9888V79.1501Z" fill="#E39D62"/>
<path d="M14.1374 38.2571L0.369141 74.8684L221.758 94.3452L233.13 53.4702L14.1374 38.2571Z" fill="#FBC787"/>
<path d="M21.3524 107.474C21.3953 105.739 22.897 104.402 24.6253 104.561L60.623 107.861C62.1958 108.005 63.3874 109.344 63.3481 110.923L62.8613 130.511C62.818 132.253 61.3043 133.592 59.5698 133.422L23.5802 129.897C22.0156 129.744 20.8347 128.409 20.8736 126.837L21.3524 107.474Z" fill="#F3E3D2"/>
<rect x="27.5098" y="109.678" width="31.2679" height="0.92773" rx="0.463865" transform="rotate(5.74648 27.5098 109.678)" fill="#606060"/>
<rect x="27.418" y="114.157" width="31.2679" height="0.92773" rx="0.463865" transform="rotate(5.74648 27.418 114.157)" fill="#606060"/>
<rect x="39" y="120.151" width="19.8121" height="0.92773" rx="0.463865" transform="rotate(5.74648 39 120.151)" fill="#606060"/>
</svg>
