<svg width="28" height="24" viewBox="0 0 28 24" fill="none" xmlns="http://www.w3.org/2000/svg">
<path d="M26.2328 0.191528C27.3686 0.191528 27.9365 0.727882 27.9365 1.80059C27.9365 2.36849 27.7156 2.81019 27.2739 3.1257C23.9927 5.58661 22.2575 8.45768 22.0682 11.7389C23.9612 11.8651 25.4125 12.4961 26.4221 13.6319C27.4317 14.7046 27.9365 16.0613 27.9365 17.7019C27.9365 19.2794 27.3686 20.6676 26.2328 21.8665C25.097 23.0023 23.7088 23.5702 22.0682 23.5702C20.4276 23.5702 19.0078 22.9077 17.8089 21.5826C16.61 20.2575 16.0105 18.2067 16.0105 15.4303C16.0105 12.6539 16.957 9.81434 18.85 6.91172C20.7431 4.0091 22.7623 1.92679 24.9077 0.664781C25.4125 0.349279 25.8542 0.191528 26.2328 0.191528ZM10.8994 0.191528C12.0352 0.191528 12.6031 0.727882 12.6031 1.80059C12.6031 2.36849 12.3823 2.81019 11.9405 3.1257C8.65933 5.58661 6.92406 8.45768 6.73476 11.7389C8.62778 11.8651 10.0791 12.4961 11.0887 13.6319C12.0983 14.7046 12.6031 16.0613 12.6031 17.7019C12.6031 19.2794 12.0352 20.6676 10.8994 21.8665C9.76358 23.0023 8.37537 23.5702 6.73476 23.5702C5.09415 23.5702 3.67439 22.9077 2.47549 21.5826C1.27658 20.2575 0.677124 18.2067 0.677124 15.4303C0.677124 12.6539 1.62363 9.81434 3.51664 6.91172C5.40965 4.0091 7.42887 1.92679 9.57428 0.664781C10.0791 0.349279 10.5208 0.191528 10.8994 0.191528Z" fill="white"/>
</svg>
