<svg width="0" height="0" class="hidden">
  <symbol xmlns="http://www.w3.org/2000/svg" viewBox="0 0 367 180" id="small-cloud-left">
    <path class="cloud-body" d="M107.041 50.5469C107.041 50.5469 104.724 42.1759 127.384 42.4227C127.384 42.4227 133.521 21.7584 161.718 24.9463C179.802 -9.15137 213.993 -6.01637 239.862 34.597C259.566 0.551495 296.292 26.3389 293.879 69.5808C293.879 69.5808 342.669 75.8806 344.814 117.7C379.529 134.321 365.992 173.058 327.389 160.592C299.055 175.706 250.789 185.027 222.169 165.016C222.169 165.016 200.204 186.704 167.086 167.473C167.086 167.473 126.523 187.177 94.2041 162.887C13.0695 160.592 0.202782 19.5848 107.041 50.5469Z"></path>
    <path class="cloud-shadow" d="M106.084 57.7197C23.0033 21.8237 40.9478 180.687 121.3 120.352C146.367 156.42 204.05 140.054 225.415 108.241C210.651 134.402 258.962 113.698 266.758 105.513C266.758 105.513 267.808 121.675 291.439 122.245C291.439 122.245 309.277 148.503 337.693 132.483C342.031 141.578 353.524 133.706 351.272 126.316C380.984 140.593 354.939 174.781 327.543 160.609C287.392 182.307 256.284 181.444 221.01 165.05C206.998 182.996 182.936 175.123 165.917 166.985C145.716 177.255 109.125 181.339 92.7369 161.509C83.7544 171.484 59.8723 176.59 31.2866 167.908C-12.6515 168.649 -5.45347 117.936 34.5671 124.5C13.6052 83.2359 49.6838 22.2458 106.105 57.7401L106.084 57.7197Z" fill="#B3E1EB"></path>
    <path class="cloud-border" fill-rule="evenodd" clip-rule="evenodd" d="M31.0034 170.517C72.2218 185.755 91.6286 164.456 91.6286 164.456C125.165 189.661 167.256 169.215 167.256 169.215C201.622 189.17 221.689 167.999 221.689 167.999C251.387 188.764 297.664 179.328 327.065 163.645C363.4 178.281 383.058 131.661 347.366 116.286C346.089 77.5923 295.869 67.7107 295.869 67.7107C298.339 40.7795 268.117 -6.21064 239.776 30.0201C223.983 -2.60771 178.808 -12.994 160.447 22.7637C131.187 19.4556 126.059 39.4534 126.059 39.4534C107.494 36.2971 104.95 47.8837 104.95 47.8837C55.6391 25.3498 11.627 74.8631 30.8757 122.539C-18.8774 122.085 -0.384031 177.409 31.0034 170.517ZM290.478 71.7458C294.012 33.2124 264.136 2.84459 238.772 39.4201C223.643 0.39045 183.478 -11.1423 163.317 28.12C148.829 26.4821 133.937 28.8616 129.928 44.4958C123.953 44.4308 111.203 43.9544 110.603 50.3243C122.287 55.7354 131.634 75.5135 131.634 81.3386C124.861 70.3658 112.744 57.6279 102.489 52.9416C52.0216 29.8789 21.4384 85.809 38.3141 127.608C-3.93298 118.28 -4.95144 173.294 31.3626 165.319C48.6266 171.702 73.6259 176.1 87.9521 161.067L87.9528 161.066L87.9563 161.063L87.9582 161.061C87.9582 161.061 79.741 153.571 76.7824 140.443C84.0557 152.154 94.6327 160.459 94.6327 160.459C115.5 176.142 144.598 174.186 167.256 163.187C167.256 163.187 183.785 154.866 190.565 146.175C183.785 161.061 171.95 166.112 171.95 166.112C188.488 174.998 207.711 175.478 221.023 161.432C252.408 183.379 295.101 175.022 326.77 158.135C354.222 169.194 378.36 135.123 345.668 121.031C345.668 121.031 345.397 126.574 339.789 134.529C343.343 123.835 342.368 116.451 342.368 116.451C341.48 89.5161 313.391 76.2585 290.478 71.7458Z" fill="#324C76"></path>
    <path class="cloud-border" d="M156.703 58.4481C166.343 43.813 186.71 43.0388 196.73 56.9541C182.454 50.0539 170.989 49.5183 156.703 58.4268V58.4481Z" fill="#324C76"></path>
    <path class="cloud-border" d="M180.238 80.751C208.824 26.2346 284.55 58.465 266.697 117.652C269.81 64.4022 219.484 38.4721 180.238 80.751Z" fill="#324C76"></path>
  </symbol>
  <symbol  xmlns="http://www.w3.org/2000/svg" viewBox="0 0 1119 390" id="big-cloud-left">
    <path class="cloud-body" d="M182.536 229.548C100.418 163.615 192.788 19.4172 340.102 78.1291C378.002 -46.1355 538.484 10.1269 532.875 95.5336C532.875 95.5336 567.895 93.8778 579.237 109.442C625.26 -16.3651 825.193 29.0191 802.205 170.119C802.205 170.119 846.063 167.139 852.323 193.558C911.25 168.195 943.049 206.177 934.44 263.102C934.44 263.102 968.207 270.057 974.468 294.048C974.468 294.048 994.647 289.191 1002.64 297.506C1002.64 297.506 1034.79 289.08 1037.07 313.844C1127.27 285.832 1154.46 394.412 1039.45 384.447C1039.45 384.447 351.453 384.345 24.0057 383.903C-28.5001 371.458 19.4336 294.534 89.9573 320.798C89.9573 320.798 98.3311 280.315 125.548 270.07C156.785 258.312 185.166 256.073 182.536 229.548Z" ></path>
    <path class="cloud-shadow" fill-rule="evenodd" clip-rule="evenodd" d="M230.665 299.309C157.53 286.593 92.2188 294.298 92.2188 386.109C414.76 383.338 736.336 386.111 1058.87 386.111C1115.14 386.111 1129.38 332.481 1062.02 333.7C1033.55 334.216 1029.52 354.246 1029.52 354.246C1002.18 333.309 978.825 343.354 980.119 356.624C975.406 348.787 943.282 291.509 900.603 296.66C873.626 299.916 864.199 326.142 872.829 349.17C865.251 331.558 826.137 338.416 805.43 364.409C793.899 290.798 687.543 262.066 639.268 334.127C651.695 276.644 584.779 292.417 584.779 292.417C593.144 231.954 510.404 229.102 479.847 265.818C481.444 244.938 502.851 219.508 545.802 226.403C531.477 217.217 517.707 211.735 517.707 211.735C474.767 93.2339 300.013 197.754 370.854 303.725C348.487 301.95 319.547 327.199 319.547 334.127C311.188 321.396 290.637 306.028 290.637 306.028C317.416 259.263 281.871 227.605 281.871 227.605C281.871 227.605 279.125 307.736 230.665 299.309ZM490.443 226.403C442.7 187.437 347.382 249.602 389.451 299.41C410.024 237.169 438.441 232.737 490.443 226.403Z" fill="#B3E1EB"></path>
    <path class="cloud-shadow" d="M737.44 45.3577C737.44 45.3577 785.017 88.1881 749.003 125.536C749.003 125.536 694.724 113.835 683.751 166.527C683.751 166.527 612.239 179.479 653.481 252.004C653.481 252.004 663.903 261.975 669.647 242.142C675.392 222.309 679.7 211.528 701.537 212.779C723.373 214.03 694.282 175.358 741.638 177.492C788.994 179.626 773.566 189.3 778.324 190.623C785.618 189.229 794.455 186.115 799.091 177.492C813.695 143.386 797.875 67.0764 737.366 45.3945L737.44 45.3577Z" fill="#B3E1EB"></path>
    <path class="cloud-shadow" d="M880.2 263.507C857.524 266.699 820.617 240.747 800.881 255.191C798.267 257.104 838.11 277.452 831.151 310.642C831.151 310.642 836.416 304.792 849.084 308.545C861.751 312.298 880.903 277.948 892.024 274.452C920.415 261.889 935.031 265.089 934.479 264.721C933.926 264.353 943.906 219.241 917.613 198.378C917.613 229.379 919.053 255.26 880.2 263.507Z" fill="#B3E1EB"></path>
    <path class="cloud-border" d="M177.683 230.684C87.9147 157.683 199.439 15.6635 338.476 73.7243C357.336 -34.0609 537.968 -18.575 537.968 91.6222C550.476 89.8827 565.845 89.2775 578.107 103.959C581.846 92.3863 587.009 83.3793 594.596 73.8608C664.193 -8.71662 809.747 37.8695 806.85 148.888C806.713 155.704 806.128 162.385 805.027 169.112C824.579 168.734 846.216 171.687 853.976 191.819C875.26 182.914 902.26 178.361 920.12 196.502C937.665 214.873 943.733 233.988 940.923 258.073C958.481 262.189 970.53 273.483 977.133 291.091C984.746 288.566 996.319 287.055 1003.67 295.834C1018.11 291.947 1035.93 289.449 1038.69 312.435C1047.27 307.691 1068.77 303.621 1080.05 306.669C1142.17 323.45 1123.01 386.668 1066.61 389.165C727.384 390.043 25.8875 387.951 25.8875 387.951C-13.9191 380.555 -2.91166 333.008 27.5446 319.878C45.4072 312.178 70.2839 308.435 87.9147 317.49C85.9268 318.495 86.3541 290.278 104.895 278.063C121.083 267.398 195.839 245.448 177.683 230.684ZM208.993 291.093C160.242 258.548 77.1023 270.265 95.8029 340.112C90.5216 334.257 87.9147 323.749 87.9147 323.749C70.1659 316.322 51.9939 317.49 34.5043 323.227C8.78893 331.662 -8.98473 375.256 27.471 380.96C111.74 380.96 267.389 377.414 387.204 378.126C611.075 377.805 1065.98 381.622 1065.98 381.622C1104.7 377.584 1129.15 352.872 1098.49 322.29C1082.86 306.694 1055.27 311.045 1035.93 317.229C1033.07 299.655 1019.04 296.555 1002.75 300.009C995.249 292.511 983.182 294.682 973.846 296.586C968.625 279.195 953.205 270.054 936.44 265.55C932.799 264.572 916.503 262.815 889.831 275.491C903.613 259.365 930.442 257.766 933.808 258.073C937.767 231.56 931.62 200.433 903.77 189.989C886.647 184.617 867.83 189.363 851.849 196.391C851.849 196.391 844.825 200.01 838.437 217.617C839.151 198.686 847.297 191.819 847.297 191.819C840.203 174.79 815.715 173.084 804.392 175.608C803.266 175.859 800.921 189.477 777.281 190.838C799.514 184.396 800.921 169.935 800.921 169.935C815.848 59.7179 681.434 -7.57117 605.275 75.9213C594.163 87.5907 586.588 102.591 582.452 117.949C582.284 118.572 576.06 139.83 595.841 165.807C566.93 141.135 573.669 110.158 573.669 110.158C565.191 100.237 551.113 99.8603 537.968 100.237C537.968 100.237 533.887 119.331 517.985 131.88C522.853 123.172 530.101 111.434 529.199 93.1544C521.73 -5.13408 367.067 -18.697 344.967 79.049C344.967 79.049 333.463 111.353 360.636 143.091C329.985 118.962 334.985 81.7898 334.985 81.7898C187.058 22.5709 111.825 182.779 185.558 221.923C186.648 222.502 243.013 199.833 275.816 212.954C297.799 221.748 319.922 271.945 290.335 306.669C308.319 261.812 289.808 230.318 270.189 221.923C235.04 206.884 189.373 227.709 188.984 236.399C188.27 252.342 162.934 261.24 141.232 267.969C141.232 267.969 185.558 259.389 208.993 291.093Z" fill="#324C76"></path>
    <path class="cloud-border" d="M671.371 303.357C713.186 251.814 823.908 274.317 816.346 347.678C826.917 337.048 869.083 322.782 873.129 349.977C862.853 326.625 818.156 358.381 805.337 364.383C810.528 292.371 733.973 262.242 671.408 303.357H671.371Z" fill="#324C76"></path>
    <path class="cloud-border" d="M479.851 266.34C472.431 208.236 571.91 211.894 596.861 264.009C586.89 247.923 499.722 196.403 479.851 266.34Z" fill="#324C76"></path>
    <path class="cloud-border" d="M390.296 299.603C375.714 293.017 376.818 271.859 380.169 258.65C392.682 210.557 471.821 195.152 490.463 226.306C452.73 211.369 404.949 219.496 388.307 261.373C384.183 273.074 379.691 290 390.296 299.603Z" fill="#324C76"></path>
  </symbol>
  <symbol fill="none" xmlns="http://www.w3.org/2000/svg" viewBox="0 0 1126 395" id="big-cloud-right">
    <path class="cloud-body" d="M940.876 245.089C999.17 134.415 857.781 35.2193 782.94 80.3011C728.464 -47.3424 578.63 12.6714 590.167 97.7056C590.167 97.7056 555.147 96.0498 543.806 111.614C510.195 -16.8361 295.964 35.0019 320.837 172.291C320.837 172.291 276.979 169.311 270.719 195.73C219.268 171.6 174.589 200.605 188.602 265.274C188.602 265.274 154.835 272.229 148.574 296.22C148.574 296.22 128.395 291.363 120.404 299.678C120.404 299.678 88.565 286.329 85.9735 316.016C10.5344 288.312 -31.2022 370.176 54.8599 386.075H1099.04C1158.72 370.266 1095.09 294.478 1033.08 322.97C1033.08 322.97 1025.24 275.209 999.17 270.426C984.378 267.712 940.876 263.482 940.876 245.089Z" fill="white"></path>
    <path class="cloud-shadow" fill-rule="evenodd" clip-rule="evenodd" d="M892.611 300.169C963.792 287.792 1030.88 295.815 1031.25 386.53C821.406 384.727 611.884 385.457 402.266 386.187C289.694 386.579 177.095 386.971 64.4028 386.971C-39.0064 375.507 33.2063 283.264 93.7516 355.106C102.389 352.559 105.041 348.723 107.272 345.496C117.798 330.273 139.005 354.898 145.563 343.993C172.437 299.306 270.447 271.184 248.786 350.377C257.244 329.91 299.687 345.043 317.661 364.65C328.517 295.352 378.772 307.82 453.467 326.154C433.778 261.11 523.785 286.776 523.785 286.776C514.995 236.147 625.884 227.297 643.313 266.464C644.671 235.445 613.208 213.716 613.208 213.716C656.148 95.2149 823.262 198.614 752.422 304.585C774.789 302.81 799.436 317.959 809.462 328.539C817.821 315.808 834.724 311.319 834.724 311.319C796.097 261.867 837.713 225.25 837.713 225.25C837.713 225.25 844.15 308.596 892.611 300.169ZM733.055 300.169C720.152 259.154 673.768 227.263 632.833 227.263C695.148 190.492 769.09 261.574 733.055 300.169Z" fill="#B3E1EB"></path>
    <path class="cloud-shadow" d="M385.833 46.2178C385.833 46.2178 338.257 89.0482 374.271 126.396C374.271 126.396 428.549 114.695 439.523 167.387C439.523 167.387 511.035 180.339 469.792 252.864C469.792 252.864 459.371 262.835 453.626 243.002C447.882 223.169 443.573 212.388 421.737 213.639C399.9 214.89 428.991 176.218 381.635 178.352C334.28 180.486 349.707 190.16 344.949 191.483C337.655 190.09 328.818 186.976 324.183 178.352C309.578 144.246 315.667 65.5698 385.907 46.2546L385.833 46.2178Z" fill="#B3E1EB"></path>
    <path class="cloud-shadow" d="M243.073 264.367C262.479 256.219 302.656 241.608 322.392 256.051C325.007 257.965 285.163 278.313 292.123 311.503C292.123 311.503 286.857 305.652 274.19 309.405C261.522 313.158 236.261 275.516 225.14 272.021C214.019 268.525 188.242 265.949 188.795 265.581C189.347 265.213 179.368 220.102 205.66 199.238C205.66 224.283 210.345 257.421 243.073 264.367Z" fill="#B3E1EB"></path>
    <path class="cloud-border" d="M963.129 260.12C925.53 255.463 965.519 218.294 960.635 179.569C950.526 99.4287 852.07 46.2859 785.274 74.1794C755.997 -31.5061 584.011 -21.1893 584.905 93.5606C578.857 92.778 558.381 91.4663 545.534 102.656C491.914 -19.1116 291.6 20.6647 318.109 169.073C301.019 169.073 274.463 172.217 269.25 192.208C209.489 167.863 178.062 206.075 186.281 262.768C169.385 267.061 152.416 275.11 147.39 293.353C138.322 291.674 125.761 287.638 119.52 297.001C102.791 292.497 84.8308 293.8 84.5806 313.282C57.028 304.032 22.7556 303.692 6.12732 332.422C-16.115 366.892 30.4063 386.342 56.6681 390.025C356.642 394.891 759.798 396.638 1097.39 388.811C1160.59 377.068 1108.09 292.367 1035.55 317.888C1031.1 298.533 1023.61 275.759 1004.4 269.126C989.354 264.297 978.685 262.046 963.129 260.12ZM960.635 266.035C953.164 267.037 935.496 270.266 915.675 292.367C955.025 268.107 1035.55 266.035 1028.14 342.015C1035.55 333.656 1035.55 323.081 1035.55 323.081C1102.11 301.996 1148.32 376.943 1095.8 381.82C758.219 384.444 351.544 383.889 57.2941 382.482C-16.7702 374.76 -0.626389 294.65 87.3424 318.089C90.2007 300.515 102.12 295.607 120.521 300.869C128.024 293.371 140.091 295.542 149.427 297.447C154.67 279.987 170.144 271.844 186.86 267.38C189.398 266.702 217.056 264.893 233.157 277.558C225.482 261.619 193.594 261.936 189.924 262.309C181.552 206.308 213.031 171.605 271.425 197.251C274.67 198.973 282.413 205.854 284.681 217.702C284.207 198.246 274.223 194.471 272.405 193.66C278.161 175.35 302.09 172.514 319.338 173.249C320.512 173.299 322.353 190.322 346.398 191.732C325.022 186.001 322.353 170.795 322.353 170.795C303.529 31.8129 508.561 -9.90924 541.308 120.679C541.308 120.679 544.645 138.519 527.201 166.228C557.091 142.607 548.728 111.365 549.745 110.513C558.945 102.811 573.797 101.118 585.342 101.449C585.342 101.449 592.341 126.527 609.057 136.611C595.611 119.713 593.966 95.3364 593.966 94.1493C601.841 -9.48253 757.444 -12.9001 779.161 83.1534C779.161 83.1534 786.84 114.109 762.758 143.741C793.509 121.504 788.119 81.7007 788.119 81.7007C857.246 51.4634 941.416 106.167 952.59 186.542C954.235 220.947 945.428 233.382 938.186 248.069C934.589 249.879 929.759 240.754 923.363 233.382C916.123 222.893 892.491 195.186 852.238 205.96C818.112 215.094 797.058 273.158 829.955 304.739C813.463 273.597 821.27 228.856 855.922 216.311C900.224 203.065 917.238 232.787 921.458 239.88C931.472 256.707 942.667 263.884 960.635 266.035Z" fill="#324C76"></path>
    <path class="cloud-border" d="M450.242 304.217C409.454 253.94 300.268 274.231 307.976 349.01C295.178 343.517 253.255 326.362 248.484 350.838C259.092 331.759 299.792 354.786 315.172 361.987C312.408 291.566 400.05 263.886 450.205 304.217H450.242Z" fill="#324C76"></path>
    <path class="cloud-border" d="M643.422 267.201C656.481 197.959 545.147 187.087 526.747 266.223C544.422 248.708 558.803 227.807 584.138 227.439C599.807 226.589 641.259 240.022 643.422 267.201Z" fill="#324C76"></path>
    <path class="cloud-border" d="M732.977 300.464C783.705 262.233 681.048 172.242 631.858 227.682C676.448 213.012 761.542 240.924 732.977 300.464Z" fill="#324C76"></path>
  </symbol>
  <symbol fill="none" xmlns="http://www.w3.org/2000/svg" viewBox="0 0 465 196" id="small-cloud-right">
    <path class="cloud-body" d="M69.6147 99.8778C69.6147 99.8778 49.9182 59.1066 86.544 41.3126C90.0031 39.6393 112.304 30.1709 129.315 51.8421C129.315 51.8421 146.61 -8.31471 203.421 4.13293C260.231 16.5806 258.319 49.5566 258.319 49.5566C258.319 49.5566 269.022 43.7613 283.061 43.4348C295.27 43.19 306.868 48.6588 315.292 57.5149C322.699 65.3508 332.791 76.8598 333.401 82.1246C333.401 82.1246 360.179 74.9825 374.015 101.469C374.015 101.469 377.759 110.162 378.899 118.529C378.899 118.529 404.293 112.734 421.018 132.609C421.018 132.609 458.377 125.467 461.958 145.71C461.958 145.71 466.272 175.053 429.646 165.095C429.646 165.095 411.658 193.337 367.219 188.236C360.22 187.419 331.611 173.054 327.989 166.564C327.989 166.564 314.275 202.438 254.29 190.807C250.465 190.072 215.629 177.665 206.269 163.218C206.269 163.218 191.619 189.052 143.639 191.378C129.966 192.031 116.414 188.725 104.531 181.991C94.2354 176.155 81.9454 168.523 76.7771 162.769C76.7771 162.769 74.8644 173.462 57.8538 177.216C39.2967 181.298 20.3734 172.482 10.0368 156.484C2.46753 144.771 -1.80548 129.752 10.6066 115.917C35.7563 87.8382 78.3642 116.121 74.6202 111.06C74.5388 110.938 69.574 99.8778 69.574 99.8778" fill="white"></path>
    <path class="cloud-shadow" d="M199.634 87.4872C177.83 75.5648 137.053 78.3577 133.051 112.114C131.134 128.283 100.368 131.952 124.349 160.745C124.349 160.745 127.442 136.053 143.964 136.257C160.487 136.462 161.667 124.136 169.358 121.035C177.05 117.933 192.309 120.407 199.634 132.936C206.959 145.465 254.822 118.328 260.619 74.5017C264.025 48.7534 242.899 -7.88631 173.849 8.04819C211.16 1.84642 232.629 68.6221 199.634 87.4872Z" fill="#B3E1EB"></path>
    <path class="cloud-shadow" d="M206.055 157.317C206.055 157.317 289.695 198.781 317.286 138.012C317.286 138.012 353.929 161.481 377.857 118.791C476.172 145.818 407.774 227.675 329.902 167.723C305.517 203.571 223.148 202.51 206.055 157.317Z" fill="#B3E1EB"></path>
    <path class="cloud-border" d="M206.757 166.948C175.87 207.836 111.365 197.092 77.9973 166.622C64.2084 193.99 21.2196 177.057 8.77463 157.806C-20.0407 113.269 35.6649 86.3853 71.5268 108.546H71.6081C37.2464 69.8083 89.493 4.81251 128.988 48.022C134.834 -11.3605 247.012 -19.0009 261.607 45.3913C290.679 32.9367 324.274 49.8553 335.273 79.937C359.647 76.0851 376.912 93.9545 380.974 116.3C387.526 115.362 407.588 114.056 422.198 130.544C483.269 118.452 471.43 183.217 430.907 167.56C406.956 199.822 356.01 196.489 328.802 170.295C321.558 196.25 249.521 212.156 206.757 166.948ZM206.594 159.561C229.111 193.684 310.276 207.41 328.11 162.01C352.758 189.403 407.023 197.458 429.198 162.989C462.576 176.443 482.504 124.015 420.611 135.155C410.572 123.498 396.915 118.944 381.684 121.999C381.684 121.999 366.804 123.945 350.812 141.189C356.374 124.154 376.956 117.549 376.956 117.549C374.101 96.7691 360.026 80.7106 337.184 84.6601C337.184 84.6601 339.27 105.52 328.006 113.516C333.638 99.1922 330.022 82.7133 330.022 82.7133C325.572 62.3405 291.71 36.6834 262.507 51.0764C262.507 51.0764 267.126 65.261 256.731 90.0366C260.503 68.6949 256.936 57.4045 255.352 50.0519C233.479 -12.7707 147.756 -3.39313 130.576 56.5925C95.9403 12.5946 47.6339 69.242 78.8975 110.138C79.8335 111.362 87.4235 121.896 106.819 128.067C83.5299 125.128 66.7796 112.418 62.8859 110.949C31.5831 99.1368 -11.3136 119.6 12.1523 155.766C23.7357 173.634 70.2109 188.538 75.9625 158.786C107.592 193.347 179.485 206.763 206.594 159.683V159.561Z" fill="#324C76"></path>
  </symbol>
</svg>
