<svg width="710" height="671" viewBox="0 0 710 671" fill="none" xmlns="http://www.w3.org/2000/svg">
<path fill-rule="evenodd" clip-rule="evenodd" d="M381.317 502.912C381.506 502.811 386.918 501.425 398.457 493.753C409.992 486.077 421.137 501.353 420.715 509.416C420.309 517.157 425.781 516.219 425.781 516.219C425.781 516.219 420.281 530.625 406.571 522.349C392.856 514.076 390.536 507.314 381.614 513.23L381.317 502.908V502.912Z" fill="#0C1A23"/>
<path d="M422.734 519.146C417.849 525.103 412.972 523.955 408.015 520.902C404.608 518.809 400.949 515.469 397.07 513.058L397.302 510.359C402.429 512.678 407.096 516.793 411.058 519.73C415.501 523.194 420.197 520.818 422.734 519.146Z" fill="#DC5C1D"/>
<path fill-rule="evenodd" clip-rule="evenodd" d="M396.14 508.213C401.966 509.948 406.923 514.558 411.918 518.442C416.461 521.983 420.771 519.884 423.047 518.197C421.016 518.833 417.027 519.71 413.312 516.198C407.263 510.433 402.699 505.855 395.916 505.559L396.14 508.213Z" fill="#EFBDA0"/>
<path fill-rule="evenodd" clip-rule="evenodd" d="M396.178 504.382C404.07 504.643 408.741 509.325 412.598 513.191C415.354 515.952 418.686 518.918 422.891 517.593C420.663 517.649 415.959 516.687 412.924 509.792C410.789 504.943 408.495 502.691 405.716 501.592C402.946 500.496 400.375 500.492 396.676 501.592C396.676 501.592 395.833 502.472 396.178 504.382Z" fill="#B3E1EB"/>
<path d="M414.326 509.022C412.151 504.113 409.554 501.265 406.671 500.133C404.446 499.258 401.793 499.744 398.962 500.524L400.106 497.388C402.188 496.784 404.355 496.579 406.671 497.103C409.689 497.788 412.508 499.766 414.575 503.706C416.957 508.278 418.132 513.353 422.324 516.797C420.114 515.345 416.827 514.66 414.326 509.022Z" fill="#EBA91F"/>
<path fill-rule="evenodd" clip-rule="evenodd" d="M415.637 502.665C417.404 506.053 417.97 509.994 419.961 513.267C419.223 509.377 419.361 505.706 417.42 502.151C414.527 496.846 408.634 494.335 402.753 495.135L402.474 495.95C406.805 495.95 412.286 496.785 415.637 502.665Z" fill="#F3E3D2"/>
<path d="M295.913 431.68C295.59 428.049 301.584 424.482 305.809 424.482C313.888 412.503 328.7 408.459 346.458 419.072C354.045 415.745 364.22 424.134 363.631 431.68C375.169 431.68 380.588 443.602 376.713 447.725C388.721 453.812 382.798 458.5 384.738 462.383C387.618 464.157 393.605 469.319 393.343 472.461C395.917 473.623 400.502 478.665 398.466 484.456C400.482 486.492 403.756 491.561 402.491 496.235C397.535 503.393 395.219 503.393 398.466 512.741C397.232 517.959 394.352 520.564 389.998 521.19C387.982 521.19 378.986 533.874 374.097 526.252C372.167 527.505 362.799 535.361 356.589 529.02C356.017 529.071 356.548 529.807 353.411 531.547C342.624 537.529 338.12 534.251 330.06 531.197C326.334 531.743 321.7 529.92 318.948 529.02C309.765 531.422 302.93 530.896 298.029 527.481C295.401 527.542 286.672 524.567 284.352 519.096C280.411 516.945 272.523 514.577 276.127 503.115C272.819 496.964 271.471 486.896 284.986 479.94C279.429 476.211 280.643 470.403 282.008 461.221C282.434 454.238 288.259 452.114 290.126 450.517C286.503 441.519 290.623 436.636 295.913 431.68Z" fill="#FCF4F0"/>
<path d="M349.619 533.957C350.86 533.959 353.318 533.604 355.775 530.986C358.341 531.808 366.264 533.692 373.092 528.427C374.12 528.777 376.138 529.308 378.605 529.144C381.758 528.934 386.258 527.517 390.003 522.034C397.599 521.008 401.676 515.124 399.643 507.256C399.311 505.713 396.758 506.324 397.089 507.867C398.33 513.658 395.715 519.296 389.233 519.656C388.844 519.68 388.487 519.886 388.276 520.214C383.784 527.162 378.108 527.094 375.231 526.487C375.632 526.061 376.018 525.614 376.388 525.144C377.364 523.906 375.444 522.39 374.467 523.629C370.455 528.732 363.885 530.463 357.647 528.956C358.914 527.485 359.898 525.966 360.58 524.422C361.219 522.98 358.98 521.991 358.344 523.434C357.075 526.312 353.045 532.181 349.318 531.488C348.844 531.385 348.371 531.574 348.088 531.968C345.724 535.212 341.69 533.55 341.518 533.477C341.225 533.352 340.887 533.345 340.591 533.462C337.447 534.693 336.412 532.557 336.238 532.117C335.997 531.467 335.237 531.161 334.607 531.437C332.467 532.369 330.548 528.608 330.266 527.033C329.992 525.477 327.579 525.911 327.859 527.463C328.001 528.254 328.458 529.254 328.891 530.074C323.178 530.849 319.179 528.015 317.529 523.098C317.027 521.603 314.707 522.381 315.21 523.876C315.81 525.948 316.692 527.077 317.436 528.077C314.314 530.61 311.569 529.237 311.444 529.171C311.089 528.988 310.656 528.983 310.302 529.171C305.773 531.554 300.508 527.524 299.656 526.832C298.494 525.021 296.83 521.489 296.772 518.716C296.737 517.135 294.296 517.189 294.325 518.765C294.381 521.437 295.529 524.361 296.62 526.455C288.399 526.027 285.955 519.189 285.847 518.876C285.715 518.491 285.4 518.193 285.008 518.088C278.169 516.238 274.246 511.001 277.673 503.931C277.91 503.484 277.847 502.933 277.514 502.552C271.87 496.092 275.713 491.561 275.88 491.37C276.093 491.128 276.205 490.808 276.188 490.487C275.946 486.276 280.338 485.141 280.523 485.095C281.032 484.97 281.409 484.532 281.453 484.008C281.673 481.386 285.559 481.415 285.72 481.415C285.727 481.415 285.732 481.415 285.74 481.415C286.98 481.415 287.417 479.699 286.32 479.113C278.941 475.169 280.771 463.361 288.446 461.507C289.946 461.022 289.199 458.698 287.697 459.177C285.879 459.762 284.401 460.533 283.274 461.477C282.716 455.954 287.373 452.828 291.998 451.395C293.505 450.927 292.779 448.59 291.272 449.058L290.794 449.207C288.861 440.412 291.998 435.949 295.815 432.521C297.039 427.244 305.54 426.72 306.48 425.478C315.833 413.215 332.864 410.919 345.345 420.144C356.065 422.248 358.777 425.753 364.747 433.118C371.426 434.991 379.406 440.036 375.683 448.013C375.33 448.664 375.657 449.51 376.356 449.753C380.617 451.233 386.883 456.967 381.736 463.804C381.152 464.151 380.959 464.933 381.323 465.509C384.745 471.213 379.221 475.07 374.225 476.363C372.698 476.757 373.31 479.126 374.837 478.731C381.212 477.084 387.024 472.23 383.906 465.204C384.185 464.934 384.415 464.658 384.599 464.401C392.174 467.281 392.431 473.182 392.438 473.441C392.45 473.884 392.702 474.293 393.094 474.498C396.287 476.171 399.859 480.162 397.471 483.984C397.236 484.415 397.277 484.953 397.583 485.337C401.749 490.571 403.034 498.23 397.089 502.804C395.834 503.75 397.291 505.705 398.552 504.763C405.426 499.709 404.595 490.575 399.956 484.405C401.828 479.553 399.058 475.062 394.818 472.651C394.537 470.63 393.086 465.052 385.58 462.157C387.219 455.963 384.203 450.37 378.379 447.911C381.623 438.72 372.802 432.282 364.705 430.615C364.013 421.238 354.654 417.764 346.417 417.92C332.757 408.853 315.282 410.371 304.84 423.638C300.224 423.638 295.985 426.326 294.222 430.632C289.169 435.949 286.904 439.771 288.56 449.874C282.902 452.37 279.597 457.903 281.272 464.022C278.763 468.959 278.199 475.511 282.613 479.507C281.084 480.06 279.635 481.114 279.161 482.966C276.907 483.778 273.722 486 273.734 490.176C272.689 491.671 269.807 496.924 275.158 503.557C271.555 511.362 276.053 518 283.778 520.29C286.288 526.007 291.454 529.291 298.325 528.912C299.859 530.123 305.45 534.032 310.894 531.613C312.675 532.288 315.936 532.516 319.09 529.898C320.697 531.275 324.402 533.555 330.367 532.312C331.294 533.264 332.786 534.228 334.492 534.001C334.917 534.622 335.617 535.388 336.691 535.865C337.966 536.435 339.422 536.452 341.022 535.919C344.005 536.965 347.337 536.571 349.619 533.957Z" fill="#0C1A23"/>
<path d="M297.107 419.496C298.911 416.621 306.605 418.967 310.227 420.499C309.612 422.28 308.338 425.913 308.137 426.18C307.888 426.515 298.111 428.685 297.861 429.439C297.66 430.041 295.884 430.861 295.02 431.193C294.964 428.492 295.304 422.371 297.11 419.496H297.107Z" fill="#FCF4F0"/>
<path d="M298.872 423.655C300.105 421.539 303.134 423.472 304.492 424.703C304.492 425.75 304.492 425.694 301.517 426.521C299.136 427.181 297.881 429.109 297.551 429.992C297.478 428.762 297.639 425.772 298.872 423.655Z" fill="#DFCAD3"/>
<path d="M294.201 433.236L295.351 432.786C296.797 432.221 298.854 429.98 298.8 427.406C298.729 424.088 299.444 423.137 299.877 422.865C300.457 422.5 301.401 422.816 302.128 423.168C303.148 424.052 303.973 424.881 304.186 425.182C304.266 425.48 304.479 425.728 304.773 425.847C305.443 426.122 305.93 425.649 306.495 425.104C306.874 424.739 307.359 424.242 307.922 423.667C308.847 422.723 309.894 421.651 310.799 420.822L311.863 419.846L310.562 419.219C309.649 418.779 301.528 414.987 297.164 417.115C295.84 417.761 294.966 418.904 294.636 420.418C293.369 426.254 293.848 430.77 294.027 432.013L294.201 433.236ZM300.503 420.744C299.884 420.744 299.326 420.898 298.835 421.209C296.956 422.393 296.799 425.336 296.846 427.45C296.868 428.414 296.371 429.356 295.798 430.029C295.676 428.052 295.693 424.771 296.549 420.834C296.753 419.9 297.235 419.259 298.022 418.874C300.251 417.786 304.721 418.83 308.411 420.394C307.772 421.02 307.122 421.686 306.522 422.3C306.131 422.699 305.688 423.154 305.331 423.506C304.917 423.048 304.283 422.439 303.315 421.605L303.224 421.527L303.119 421.473C302.155 420.986 301.284 420.741 300.506 420.741L300.503 420.744Z" fill="#0C1A23"/>
<path d="M359.963 415.498C366.104 417.774 363.848 432.463 361.955 439.522C357.291 439.522 346.176 429.097 341.199 423.885C344.896 420.142 353.822 413.223 359.965 415.498H359.963Z" fill="#FCF4F0"/>
<path d="M362.297 440.08C362.84 440.08 363.337 439.715 363.481 439.162C363.924 437.459 367.648 422.351 362.456 416.623C360.859 414.862 358.664 414.184 355.931 414.612L355.904 414.617C353.181 415.109 346.685 417.223 341.596 421.708C341.089 422.155 341.04 422.929 341.486 423.435C341.933 423.942 342.707 423.99 343.213 423.543C347.889 419.422 353.824 417.48 356.322 417.025C358.209 416.731 359.62 417.137 360.641 418.263C363.702 421.639 363.031 431.145 361.111 438.546C360.942 439.199 361.333 439.867 361.986 440.038C362.089 440.065 362.192 440.077 362.295 440.077L362.297 440.08Z" fill="#0C1A23"/>
<path d="M359.495 424.636C358.401 420.46 352.079 422.897 349.055 424.636C348.683 425.383 352.659 428.551 354.834 428.676C356.574 428.776 358.419 433.606 359.121 436.009C359.701 433.958 360.586 428.813 359.493 424.636H359.495Z" fill="#DFCAD3"/>
<path d="M359.437 435.997C360.01 435.997 360.521 435.593 360.636 435.008C360.881 433.765 362.88 422.789 357.95 420.57C353.959 418.774 350.052 421.789 348.544 423.634C348.116 424.157 348.195 424.928 348.716 425.356C349.239 425.784 350.01 425.706 350.438 425.185C351.321 424.106 354.211 421.573 356.946 422.804C359.014 423.734 359.227 429.503 358.238 434.541C358.109 435.204 358.539 435.847 359.202 435.977C359.281 435.992 359.361 435.999 359.44 435.999L359.437 435.997Z" fill="#0C1A23"/>
<path fill-rule="evenodd" clip-rule="evenodd" d="M323.509 391.145C324.137 390.461 325.27 390.513 325.853 391.234C327.462 393.227 330.268 397.642 332.194 407.864C334.132 418.15 334.864 423.712 325.174 424.582C316.25 425.512 314.871 419.689 316.735 411.802C318.95 401.287 321.354 393.497 323.513 391.145H323.509Z" fill="#0C1A23"/>
<path fill-rule="evenodd" clip-rule="evenodd" d="M321.794 398.358C322.763 395.422 323.809 393.244 324.846 392.849C325.479 392.668 326.182 393.964 326.414 394.355C325.06 395.879 323.52 397.262 321.794 398.354V398.358Z" fill="#F3E3D2"/>
<path d="M321.223 400.244L321.219 400.248C320.636 402.238 320.148 404.255 319.691 406.277C323.248 405.008 326.253 402.543 328.613 399.636C328.264 398.581 327.468 396.301 327.077 395.616C325.38 397.449 323.432 399.064 321.223 400.244Z" fill="#EBA91F"/>
<path d="M319.348 407.782C318.688 410.899 318.17 413.868 317.824 416.01C322.919 414.082 327.109 410.224 330.188 405.8C330.188 405.299 329.432 402.496 329.054 401.157C326.448 404.151 323.168 406.605 319.344 407.782H319.348Z" fill="#B3E1EB"/>
<path d="M331.406 413.976C331.257 412.071 330.956 409.852 330.534 407.581C327.221 411.981 322.841 415.706 317.579 417.512L317.575 417.508C317.715 420.089 318.805 421.712 321.218 422.579C325.469 420.987 328.922 417.709 331.406 413.976Z" fill="#EFBDA0"/>
<path d="M323.435 423.073C326.65 421.472 329.367 418.976 331.524 416.126C332.067 420.95 328.1 423.518 323.435 423.073Z" fill="#DC5C1D"/>
<path d="M351.883 468.154C349.215 468.154 347.048 466.687 347.048 464.877C347.048 463.067 349.21 461.6 351.883 461.6C354.557 461.6 356.719 463.067 356.719 464.877C356.719 466.687 354.557 468.154 351.883 468.154Z" fill="#EFBDA0"/>
<path d="M351.07 460.64C351.516 460.717 351.957 460.984 352.306 461.252C352.665 461.514 353.242 461.997 353.242 462.493C353.242 462.64 353.137 462.766 353.001 462.805C352.523 462.936 351.849 462.443 351.495 462.173C351.122 461.887 350.807 461.687 350.592 461.249C350.435 460.924 350.729 460.572 351.07 460.638V460.64Z" fill="#342838"/>
<path d="M325.573 465.355C335.802 466.024 343.135 460.381 344.101 450.618C345.35 437.833 327.771 429.697 318.074 436.917C311.966 441.482 308.629 449.71 312.132 456.852C312.132 456.768 315.343 464.686 325.573 465.355Z" fill="#342838"/>
<path d="M326.285 465.234C320.264 465.084 315.547 462.287 312.128 456.846C311.994 458.344 312.128 459.588 312.968 461.059C319.351 467.876 330.892 468.668 339.207 462.783C339.419 462.628 339.65 462.592 339.779 462.686C339.928 462.791 339.907 462.962 339.716 463.192C333.078 471.066 318.294 468.025 313.928 462.712C317.976 473.503 336.948 470.89 342.025 463.127C342.158 462.972 342.234 462.739 342.234 462.471C342.24 461.907 342.426 461.358 342.804 460.828C345.661 456.751 348.101 449.156 343.523 445.331C345.039 457.174 337.779 465.514 326.285 465.236V465.234Z" fill="#B2CFD6"/>
<path d="M311.244 444.27C311.509 437.728 316.993 431.534 324.717 431.237C332.959 430.92 338.654 429.809 343.848 445.541C331.716 440.191 326.424 439.584 311.244 444.27Z" fill="#FCF4F0"/>
<path d="M335.06 443.765C335.06 443.765 340.415 447.265 338.972 451.177C337.53 455.088 331.969 453.34 332.38 450.456C332.791 447.572 333.411 445.823 333.718 444.692C334.024 443.56 335.055 443.765 335.055 443.765H335.06Z" fill="#FCF4F0"/>
<path d="M347.458 446.694C346.342 447.375 340.459 445.075 334.995 443.895C328.552 442.505 329.805 441.107 324.325 442.09C318.845 443.073 318.591 444.06 311.6 444.72C309.098 444.958 309.956 444.314 310.657 444.132C312.261 443.717 315.746 442.932 318.813 441.921C324.333 440.1 327.843 438.429 334.834 440.966C335.433 441.184 343.055 444.934 347.725 445.826C348.103 445.975 347.91 446.422 347.458 446.694Z" fill="#342838"/>
<path d="M318.679 478.92C318.948 478.92 319.206 478.715 319.327 478.368C319.359 478.276 320.012 476.491 321.427 476.483H321.435C322.003 476.483 322.458 476.866 322.982 477.305C323.558 477.788 324.441 478.683 325.242 478.38C326.262 477.998 326.58 477.788 327.156 477.305C327.68 476.862 328.136 476.483 328.704 476.483H328.712C330.154 476.495 330.803 478.348 330.811 478.364C330.976 478.84 331.395 479.053 331.758 478.836C332.117 478.618 332.274 478.054 332.113 477.579C332.072 477.458 331.065 474.602 328.724 474.586C328.716 474.586 328.712 474.586 328.704 474.586C327.72 474.586 327.015 475.178 326.395 475.702C325.923 476.1 325.589 476.338 325.122 476.576C324.727 476.777 324.223 476.1 323.748 475.702C323.123 475.178 322.418 474.586 321.439 474.586C321.431 474.586 321.427 474.586 321.419 474.586C319.073 474.602 318.07 477.458 318.03 477.579C317.865 478.054 318.026 478.618 318.384 478.836C318.481 478.892 318.582 478.92 318.679 478.92Z" fill="#342838"/>
</svg>
