<svg width="710" height="671" viewBox="0 0 710 671" fill="none" xmlns="http://www.w3.org/2000/svg">
<path fill-rule="evenodd" clip-rule="evenodd" d="M501.317 502.912C501.506 502.811 506.918 501.425 518.457 493.753C529.992 486.077 541.137 501.353 540.715 509.416C540.309 517.157 545.781 516.219 545.781 516.219C545.781 516.219 540.281 530.625 526.571 522.349C512.856 514.076 510.536 507.314 501.614 513.23L501.317 502.908V502.912Z" fill="#0C1A23"/>
<path d="M542.734 519.146C537.849 525.103 532.972 523.955 528.015 520.902C524.608 518.809 520.949 515.469 517.07 513.058L517.302 510.359C522.429 512.678 527.096 516.793 531.058 519.73C535.501 523.194 540.197 520.818 542.734 519.146Z" fill="#DC5C1D"/>
<path fill-rule="evenodd" clip-rule="evenodd" d="M516.14 508.213C521.966 509.948 526.923 514.558 531.918 518.442C536.461 521.983 540.771 519.884 543.047 518.197C541.016 518.833 537.027 519.71 533.312 516.198C527.263 510.433 522.699 505.855 515.916 505.559L516.14 508.213Z" fill="#EFBDA0"/>
<path fill-rule="evenodd" clip-rule="evenodd" d="M516.178 504.382C524.07 504.643 528.741 509.325 532.598 513.191C535.354 515.952 538.686 518.918 542.891 517.593C540.663 517.649 535.959 516.687 532.924 509.792C530.789 504.943 528.495 502.691 525.716 501.592C522.946 500.496 520.375 500.492 516.676 501.592C516.676 501.592 515.833 502.472 516.178 504.382Z" fill="#B3E1EB"/>
<path d="M534.326 509.022C532.151 504.113 529.554 501.265 526.671 500.133C524.446 499.258 521.793 499.744 518.962 500.524L520.106 497.388C522.188 496.784 524.355 496.579 526.671 497.103C529.689 497.788 532.508 499.766 534.575 503.706C536.957 508.278 538.132 513.353 542.324 516.797C540.114 515.345 536.827 514.66 534.326 509.022Z" fill="#EBA91F"/>
<path fill-rule="evenodd" clip-rule="evenodd" d="M535.637 502.665C537.404 506.053 537.97 509.994 539.961 513.267C539.223 509.377 539.361 505.706 537.42 502.151C534.527 496.846 528.634 494.335 522.753 495.135L522.474 495.95C526.805 495.95 532.286 496.785 535.637 502.665Z" fill="#F3E3D2"/>
<path d="M415.913 431.68C415.59 428.049 421.584 424.482 425.809 424.482C433.888 412.503 448.7 408.459 466.458 419.072C474.045 415.745 484.22 424.134 483.631 431.68C495.169 431.68 500.588 443.602 496.713 447.725C508.721 453.812 502.798 458.5 504.738 462.383C507.618 464.157 513.605 469.319 513.343 472.461C515.917 473.623 520.502 478.665 518.466 484.456C520.482 486.492 523.756 491.561 522.491 496.235C517.535 503.393 515.219 503.393 518.466 512.741C517.232 517.959 514.352 520.564 509.998 521.19C507.982 521.19 498.986 533.874 494.097 526.252C492.167 527.505 482.799 535.361 476.589 529.02C476.017 529.071 476.548 529.807 473.411 531.547C462.624 537.529 458.12 534.251 450.06 531.197C446.334 531.743 441.7 529.92 438.948 529.02C429.765 531.422 422.93 530.896 418.029 527.481C415.401 527.542 406.672 524.567 404.352 519.096C400.411 516.945 392.523 514.577 396.127 503.115C392.819 496.964 391.471 486.896 404.986 479.94C399.429 476.211 400.643 470.403 402.008 461.221C402.434 454.238 408.259 452.114 410.126 450.517C406.503 441.519 410.623 436.636 415.913 431.68Z" fill="#FCF4F0"/>
<path d="M469.619 533.957C470.86 533.959 473.318 533.604 475.775 530.986C478.341 531.808 486.264 533.692 493.092 528.427C494.12 528.777 496.138 529.308 498.605 529.144C501.758 528.934 506.258 527.517 510.003 522.034C517.599 521.008 521.676 515.124 519.643 507.256C519.311 505.713 516.758 506.324 517.089 507.867C518.33 513.658 515.715 519.296 509.233 519.656C508.844 519.68 508.487 519.886 508.276 520.214C503.784 527.162 498.108 527.094 495.231 526.487C495.632 526.061 496.018 525.614 496.388 525.144C497.364 523.906 495.444 522.39 494.467 523.629C490.455 528.732 483.885 530.463 477.647 528.956C478.914 527.485 479.898 525.966 480.58 524.422C481.219 522.98 478.98 521.991 478.344 523.434C477.075 526.312 473.045 532.181 469.318 531.488C468.844 531.385 468.371 531.574 468.088 531.968C465.724 535.212 461.69 533.55 461.518 533.477C461.225 533.352 460.887 533.345 460.591 533.462C457.447 534.693 456.412 532.557 456.238 532.117C455.997 531.467 455.237 531.161 454.607 531.437C452.467 532.369 450.548 528.608 450.266 527.033C449.992 525.477 447.579 525.911 447.859 527.463C448.001 528.254 448.458 529.254 448.891 530.074C443.178 530.849 439.179 528.015 437.529 523.098C437.027 521.603 434.707 522.381 435.21 523.876C435.81 525.948 436.692 527.077 437.436 528.077C434.314 530.61 431.569 529.237 431.444 529.171C431.089 528.988 430.656 528.983 430.302 529.171C425.773 531.554 420.508 527.524 419.656 526.832C418.494 525.021 416.83 521.489 416.772 518.716C416.737 517.135 414.296 517.189 414.325 518.765C414.381 521.437 415.529 524.361 416.62 526.455C408.399 526.027 405.955 519.189 405.847 518.876C405.715 518.491 405.4 518.193 405.008 518.088C398.169 516.238 394.246 511.001 397.673 503.931C397.91 503.484 397.847 502.933 397.514 502.552C391.87 496.092 395.713 491.561 395.88 491.37C396.093 491.128 396.205 490.808 396.188 490.487C395.946 486.276 400.338 485.141 400.523 485.095C401.032 484.97 401.409 484.532 401.453 484.008C401.673 481.386 405.559 481.415 405.72 481.415C405.727 481.415 405.732 481.415 405.74 481.415C406.98 481.415 407.417 479.699 406.32 479.113C398.941 475.169 400.771 463.361 408.446 461.507C409.946 461.022 409.199 458.698 407.697 459.177C405.879 459.762 404.401 460.533 403.274 461.477C402.716 455.954 407.373 452.828 411.998 451.395C413.505 450.927 412.779 448.59 411.272 449.058L410.794 449.207C408.861 440.412 411.998 435.949 415.815 432.521C417.039 427.244 425.54 426.72 426.48 425.478C435.833 413.215 452.864 410.919 465.345 420.144C476.065 422.248 478.777 425.753 484.747 433.118C491.426 434.991 499.406 440.036 495.683 448.013C495.33 448.664 495.657 449.51 496.356 449.753C500.617 451.233 506.883 456.967 501.736 463.804C501.152 464.151 500.959 464.933 501.323 465.509C504.745 471.213 499.221 475.07 494.225 476.363C492.698 476.757 493.31 479.126 494.837 478.731C501.212 477.084 507.024 472.23 503.906 465.204C504.185 464.934 504.415 464.658 504.599 464.401C512.174 467.281 512.431 473.182 512.438 473.441C512.45 473.884 512.702 474.293 513.094 474.498C516.287 476.171 519.859 480.162 517.471 483.984C517.236 484.415 517.277 484.953 517.583 485.337C521.749 490.571 523.034 498.23 517.089 502.804C515.834 503.75 517.291 505.705 518.552 504.763C525.426 499.709 524.595 490.575 519.956 484.405C521.828 479.553 519.058 475.062 514.818 472.651C514.537 470.63 513.086 465.052 505.58 462.157C507.219 455.963 504.203 450.37 498.379 447.911C501.623 438.72 492.802 432.282 484.705 430.615C484.013 421.238 474.654 417.764 466.417 417.92C452.757 408.853 435.282 410.371 424.84 423.638C420.224 423.638 415.985 426.326 414.222 430.632C409.169 435.949 406.904 439.771 408.56 449.874C402.902 452.37 399.597 457.903 401.272 464.022C398.763 468.959 398.199 475.511 402.613 479.507C401.084 480.06 399.635 481.114 399.161 482.966C396.907 483.778 393.722 486 393.734 490.176C392.689 491.671 389.807 496.924 395.158 503.557C391.555 511.362 396.053 518 403.778 520.29C406.288 526.007 411.454 529.291 418.325 528.912C419.859 530.123 425.45 534.032 430.894 531.613C432.675 532.288 435.936 532.516 439.09 529.898C440.697 531.275 444.402 533.555 450.367 532.312C451.294 533.264 452.786 534.228 454.492 534.001C454.917 534.622 455.617 535.388 456.691 535.865C457.966 536.435 459.422 536.452 461.022 535.919C464.005 536.965 467.337 536.571 469.619 533.957Z" fill="#0C1A23"/>
<path d="M417.107 419.496C418.911 416.621 426.605 418.967 430.227 420.499C429.612 422.28 428.338 425.913 428.137 426.18C427.888 426.515 418.111 428.685 417.861 429.439C417.66 430.041 415.884 430.861 415.02 431.193C414.964 428.492 415.304 422.371 417.11 419.496H417.107Z" fill="#FCF4F0"/>
<path d="M418.872 423.655C420.105 421.539 423.134 423.472 424.492 424.703C424.492 425.75 424.492 425.694 421.517 426.521C419.136 427.181 417.881 429.109 417.551 429.992C417.478 428.762 417.639 425.772 418.872 423.655Z" fill="#DFCAD3"/>
<path d="M414.201 433.236L415.351 432.786C416.797 432.221 418.854 429.98 418.8 427.406C418.729 424.088 419.444 423.137 419.877 422.865C420.457 422.5 421.401 422.816 422.128 423.168C423.148 424.052 423.973 424.881 424.186 425.182C424.266 425.48 424.479 425.728 424.773 425.847C425.443 426.122 425.93 425.649 426.495 425.104C426.874 424.739 427.359 424.242 427.922 423.667C428.847 422.723 429.894 421.651 430.799 420.822L431.863 419.846L430.562 419.219C429.649 418.779 421.528 414.987 417.164 417.115C415.84 417.761 414.966 418.904 414.636 420.418C413.369 426.254 413.848 430.77 414.027 432.013L414.201 433.236ZM420.503 420.744C419.884 420.744 419.326 420.898 418.835 421.209C416.956 422.393 416.799 425.336 416.846 427.45C416.868 428.414 416.371 429.356 415.798 430.029C415.676 428.052 415.693 424.771 416.549 420.834C416.753 419.9 417.235 419.259 418.022 418.874C420.251 417.786 424.721 418.83 428.411 420.394C427.772 421.02 427.122 421.686 426.522 422.3C426.131 422.699 425.688 423.154 425.331 423.506C424.917 423.048 424.283 422.439 423.315 421.605L423.224 421.527L423.119 421.473C422.155 420.986 421.284 420.741 420.506 420.741L420.503 420.744Z" fill="#0C1A23"/>
<path d="M479.963 415.498C486.104 417.774 483.848 432.463 481.955 439.522C477.291 439.522 466.176 429.097 461.199 423.885C464.896 420.142 473.822 413.223 479.965 415.498H479.963Z" fill="#FCF4F0"/>
<path d="M482.297 440.08C482.84 440.08 483.337 439.715 483.481 439.162C483.924 437.459 487.648 422.351 482.456 416.623C480.859 414.862 478.664 414.184 475.931 414.612L475.904 414.617C473.181 415.109 466.685 417.223 461.596 421.708C461.089 422.155 461.04 422.929 461.486 423.435C461.933 423.942 462.707 423.99 463.213 423.543C467.889 419.422 473.824 417.48 476.322 417.025C478.209 416.731 479.62 417.137 480.641 418.263C483.702 421.639 483.031 431.145 481.111 438.546C480.942 439.199 481.333 439.867 481.986 440.038C482.089 440.065 482.192 440.077 482.295 440.077L482.297 440.08Z" fill="#0C1A23"/>
<path d="M479.495 424.636C478.401 420.46 472.079 422.897 469.055 424.636C468.683 425.383 472.659 428.551 474.834 428.676C476.574 428.776 478.419 433.606 479.121 436.009C479.701 433.958 480.586 428.813 479.493 424.636H479.495Z" fill="#DFCAD3"/>
<path d="M479.437 435.997C480.01 435.997 480.521 435.593 480.636 435.008C480.881 433.765 482.88 422.789 477.95 420.57C473.959 418.774 470.052 421.789 468.544 423.634C468.116 424.157 468.195 424.928 468.716 425.356C469.239 425.784 470.01 425.706 470.438 425.185C471.321 424.106 474.211 421.573 476.946 422.804C479.014 423.734 479.227 429.503 478.238 434.541C478.109 435.204 478.539 435.847 479.202 435.977C479.281 435.992 479.361 435.999 479.44 435.999L479.437 435.997Z" fill="#0C1A23"/>
<path fill-rule="evenodd" clip-rule="evenodd" d="M443.509 391.145C444.137 390.461 445.27 390.513 445.853 391.234C447.462 393.227 450.268 397.642 452.194 407.864C454.132 418.15 454.864 423.712 445.174 424.582C436.25 425.512 434.871 419.689 436.735 411.802C438.95 401.287 441.354 393.497 443.513 391.145H443.509Z" fill="#0C1A23"/>
<path fill-rule="evenodd" clip-rule="evenodd" d="M441.794 398.358C442.763 395.422 443.809 393.244 444.846 392.849C445.479 392.668 446.182 393.964 446.414 394.355C445.06 395.879 443.52 397.262 441.794 398.354V398.358Z" fill="#F3E3D2"/>
<path d="M441.223 400.244L441.219 400.248C440.636 402.238 440.148 404.255 439.691 406.277C443.248 405.008 446.253 402.543 448.613 399.636C448.264 398.581 447.468 396.301 447.077 395.616C445.38 397.449 443.432 399.064 441.223 400.244Z" fill="#EBA91F"/>
<path d="M439.348 407.782C438.688 410.899 438.17 413.868 437.824 416.01C442.919 414.082 447.109 410.224 450.188 405.8C450.188 405.299 449.432 402.496 449.054 401.157C446.448 404.151 443.168 406.605 439.344 407.782H439.348Z" fill="#B3E1EB"/>
<path d="M451.406 413.976C451.257 412.071 450.956 409.852 450.534 407.581C447.221 411.981 442.841 415.706 437.579 417.512L437.575 417.508C437.715 420.089 438.805 421.712 441.218 422.579C445.469 420.987 448.922 417.709 451.406 413.976Z" fill="#EFBDA0"/>
<path d="M443.435 423.073C446.65 421.472 449.367 418.976 451.524 416.126C452.067 420.95 448.1 423.518 443.435 423.073Z" fill="#DC5C1D"/>
<path d="M471.883 468.154C469.215 468.154 467.048 466.687 467.048 464.877C467.048 463.067 469.21 461.6 471.883 461.6C474.557 461.6 476.719 463.067 476.719 464.877C476.719 466.687 474.557 468.154 471.883 468.154Z" fill="#EFBDA0"/>
<path d="M471.07 460.64C471.516 460.717 471.957 460.984 472.306 461.252C472.665 461.514 473.242 461.997 473.242 462.493C473.242 462.64 473.137 462.766 473.001 462.805C472.523 462.936 471.849 462.443 471.495 462.173C471.122 461.887 470.807 461.687 470.592 461.249C470.435 460.924 470.729 460.572 471.07 460.638V460.64Z" fill="#342838"/>
<path d="M445.573 465.355C455.802 466.024 463.135 460.381 464.101 450.618C465.35 437.833 447.771 429.697 438.074 436.917C431.966 441.482 428.629 449.71 432.132 456.852C432.132 456.768 435.343 464.686 445.573 465.355Z" fill="#342838"/>
<path d="M446.285 465.234C440.264 465.084 435.547 462.287 432.128 456.846C431.994 458.344 432.128 459.588 432.968 461.059C439.351 467.876 450.892 468.668 459.207 462.783C459.419 462.628 459.65 462.592 459.779 462.686C459.928 462.791 459.907 462.962 459.716 463.192C453.078 471.066 438.294 468.025 433.928 462.712C437.976 473.503 456.948 470.89 462.025 463.127C462.158 462.972 462.234 462.739 462.234 462.471C462.24 461.907 462.426 461.358 462.804 460.828C465.661 456.751 468.101 449.156 463.523 445.331C465.039 457.174 457.779 465.514 446.285 465.236V465.234Z" fill="#B2CFD6"/>
<path d="M431.244 444.27C431.509 437.728 436.993 431.534 444.717 431.237C452.959 430.92 458.654 429.809 463.848 445.541C451.716 440.191 446.424 439.584 431.244 444.27Z" fill="#FCF4F0"/>
<path d="M455.06 443.765C455.06 443.765 460.415 447.265 458.972 451.177C457.53 455.088 451.969 453.34 452.38 450.456C452.791 447.572 453.411 445.823 453.718 444.692C454.024 443.56 455.055 443.765 455.055 443.765H455.06Z" fill="#FCF4F0"/>
<path d="M467.458 446.694C466.342 447.375 460.459 445.075 454.995 443.895C448.552 442.505 449.805 441.107 444.325 442.09C438.845 443.073 438.591 444.06 431.6 444.72C429.098 444.958 429.956 444.314 430.657 444.132C432.261 443.717 435.746 442.932 438.813 441.921C444.333 440.1 447.843 438.429 454.834 440.966C455.433 441.184 463.055 444.934 467.725 445.826C468.103 445.975 467.91 446.422 467.458 446.694Z" fill="#342838"/>
<path d="M438.679 478.92C438.948 478.92 439.206 478.715 439.327 478.368C439.359 478.276 440.012 476.491 441.427 476.483H441.435C442.003 476.483 442.458 476.866 442.982 477.305C443.558 477.788 444.441 478.683 445.242 478.38C446.262 477.998 446.58 477.788 447.156 477.305C447.68 476.862 448.136 476.483 448.704 476.483H448.712C450.154 476.495 450.803 478.348 450.811 478.364C450.976 478.84 451.395 479.053 451.758 478.836C452.117 478.618 452.274 478.054 452.113 477.579C452.072 477.458 451.065 474.602 448.724 474.586C448.716 474.586 448.712 474.586 448.704 474.586C447.72 474.586 447.015 475.178 446.395 475.702C445.923 476.1 445.589 476.338 445.122 476.576C444.727 476.777 444.223 476.1 443.748 475.702C443.123 475.178 442.418 474.586 441.439 474.586C441.431 474.586 441.427 474.586 441.419 474.586C439.073 474.602 438.07 477.458 438.03 477.579C437.865 478.054 438.026 478.618 438.384 478.836C438.481 478.892 438.582 478.92 438.679 478.92Z" fill="#342838"/>
</svg>
