<svg width="711" height="671" viewBox="0 0 711 671" fill="none" xmlns="http://www.w3.org/2000/svg">
<path d="M403.477 430.187C403.151 426.531 399.866 419.036 405.732 416.282C411.024 414.319 417.005 418.995 418.255 418.03C428.144 410.392 438.714 408.141 454.363 417.494C462.001 414.144 472.246 422.59 471.652 430.187C483.268 430.187 488.724 442.19 484.823 446.34C496.912 452.469 490.949 457.188 492.902 461.097C495.801 462.883 501.828 468.08 501.565 471.243C504.156 472.413 508.772 477.489 506.723 483.32C508.752 485.369 512.048 490.473 510.775 495.177C513.276 495.85 520.032 495.212 519.229 498.539C518.628 501.028 522.071 503.907 521.064 506.221C519.55 508.269 521.064 511.897 519.229 514.223C516.701 517.426 512.38 521.158 509.862 518.939C505.722 521.244 499.52 520.112 498.198 520.302C496.168 520.302 487.111 533.071 482.19 525.398C480.246 526.659 470.815 534.568 464.563 528.184C463.987 528.236 464.236 529.256 461.079 531.007C450.219 537.03 445.969 533.45 437.855 530.376C434.104 530.925 429.438 529.09 426.667 528.184C417.423 530.603 410.541 530.073 405.607 526.635C402.962 526.696 394.173 523.701 391.838 518.193C387.87 516.028 379.929 513.644 383.557 502.104C380.227 495.911 378.87 485.776 392.476 478.773C386.882 475.019 388.104 469.171 389.478 459.927C389.907 452.897 395.772 450.759 397.651 449.151C394.004 440.093 398.152 435.177 403.477 430.187Z" fill="#FCF4F0"/>
<path d="M406.868 421.611C408.056 419.589 410.973 421.436 412.281 422.612C412.281 423.612 412.281 423.559 409.416 424.349C407.123 424.98 405.914 426.822 405.596 427.666C405.525 426.49 405.681 423.633 406.868 421.611Z" fill="#DFCAD3"/>
<path d="M467.975 413.898C474.158 416.189 471.887 430.978 469.98 438.084C465.285 438.084 454.095 427.588 449.085 422.342C452.807 418.573 461.792 411.607 467.977 413.898H467.975Z" fill="#FCF4F0"/>
<path d="M456.991 423.099C456.616 423.85 460.619 427.04 462.809 427.166C464.56 427.267 466.63 431.683 467.337 434.102C467.92 432.038 468.881 423.412 466.29 420.601C463.645 418.342 461.523 419.141 456.991 423.099Z" fill="#DFCAD3"/>
<path d="M468.65 433.539C471.28 424.071 466.651 411.48 456.477 422.087C455.471 423.317 457.375 424.877 458.383 423.649C465.659 415.227 468.65 426.496 466.236 433.068C465.93 434.631 468.344 435.091 468.65 433.539Z" fill="#0C1A23"/>
<path fill-rule="evenodd" clip-rule="evenodd" d="M511.872 494.013C511.964 490.278 510.584 486.395 508.234 483.268C510.117 478.383 507.329 473.863 503.061 471.435C502.777 469.401 501.317 463.785 493.76 460.871C495.41 454.634 492.373 449.004 486.511 446.528C489.729 437.404 481.143 430.976 473.087 429.189C474.552 414.063 466.869 408.023 454.392 416.333C445.993 411.161 432.122 403.984 417.122 417.151C414.546 416.046 408.349 413.759 404.726 415.526C400.406 417.635 401.091 425.585 401.449 429.489C396.597 434.661 394.455 438.56 396.085 448.504C390.388 451.017 387.061 456.588 388.748 462.748C386.222 467.718 385.654 474.314 390.097 478.337C388.557 478.894 387.1 479.955 386.622 481.82C384.354 482.638 381.146 484.874 381.158 489.079C380.107 490.584 377.205 495.872 382.592 502.55C378.965 510.408 383.494 517.09 391.27 519.395C393.797 525.151 398.998 528.458 405.916 528.076C407.46 529.295 413.088 533.231 418.569 530.795C420.362 531.475 423.646 531.704 426.82 529.068C428.439 530.455 432.168 532.751 438.174 531.499C439.107 532.458 440.609 533.428 442.327 533.199C442.755 533.825 443.459 534.596 444.541 535.076C445.824 535.65 447.29 535.667 448.9 535.13C451.904 536.183 455.259 535.787 457.556 533.155C458.805 533.157 461.281 532.8 463.753 530.164C466.338 530.992 474.313 532.889 481.188 527.588C482.222 527.94 484.254 528.475 486.737 528.31C489.853 528.102 494.274 526.724 498.002 521.455C501.719 522.858 506.293 522.62 509.396 519.864C509.3 520.297 509.418 520.755 509.728 521.088C511.455 522.945 514.233 520.181 514.82 518.657C517.308 520.34 518.604 517.598 518.685 515.398C519.116 515.546 519.579 515.597 520.046 515.477C523.031 514.708 521.938 509.995 520.869 508.161C524.371 506.551 523.121 501.996 520.446 500.311C521.372 499.387 521.668 498.424 521.325 497.437C520.281 494.425 514.015 493.847 511.872 494.013ZM452.261 417.862C437.706 407.742 423.164 411.588 412.833 425.577C411.654 426.996 410.416 425.057 411.041 424.134C411.218 423.872 411.398 423.613 411.578 423.359C410.7 422.25 408.805 420.467 407.457 421.315C406.273 422.056 406.292 424.513 406.304 425.965C406.306 426.171 406.307 426.356 406.305 426.514C406.715 426.842 407.095 426.801 407.454 426.761C407.549 426.751 407.642 426.741 407.735 426.738C408.205 426.722 408.468 426.713 408.175 427.39C407.79 427.703 407.639 427.924 407.49 428.142C407.318 428.394 407.15 428.641 406.624 429.018C406.321 429.236 406.125 429.222 405.949 429.21C405.875 429.205 405.804 429.201 405.73 429.213C405.089 429.326 404.427 429.998 403.876 430.556C403.701 430.734 403.537 430.901 403.388 431.034C399.546 434.486 396.388 438.979 398.334 447.833L398.814 447.683C400.332 447.212 401.063 449.564 399.546 450.035C394.89 451.478 390.201 454.626 390.763 460.186C391.898 459.235 393.386 458.459 395.216 457.871C396.728 457.387 397.481 459.727 395.969 460.215C388.243 462.082 386.401 473.97 393.829 477.94C394.934 478.531 394.494 480.258 393.245 480.258H393.22C392.992 480.258 389.149 480.253 388.93 482.869C388.886 483.396 388.506 483.837 387.994 483.963C387.807 484.01 383.385 485.153 383.629 489.392C383.647 489.714 383.533 490.037 383.318 490.281C383.151 490.473 379.281 495.035 384.964 501.537C385.3 501.922 385.363 502.476 385.124 502.927C381.674 510.044 385.624 515.316 392.509 517.179C392.903 517.285 393.221 517.585 393.354 517.972C393.462 518.287 395.923 525.172 404.199 525.603C403.101 523.494 401.945 520.551 401.888 517.861C401.86 516.274 404.317 516.219 404.352 517.812C404.411 520.602 406.085 524.159 407.255 525.982C408.113 526.679 413.413 530.736 417.973 528.337C418.33 528.147 418.766 528.152 419.123 528.337C419.249 528.403 422.012 529.785 425.156 527.236L425.062 527.11C424.334 526.133 423.494 525.006 422.914 523.006C422.409 521.501 424.744 520.717 425.249 522.223C426.91 527.173 430.936 530.026 436.688 529.246C436.252 528.42 435.792 527.413 435.649 526.617C435.367 525.055 437.796 524.618 438.073 526.184C438.356 527.77 440.288 531.556 442.442 530.618C443.076 530.341 443.841 530.648 444.086 531.302C444.26 531.746 445.302 533.896 448.467 532.657C448.766 532.539 449.105 532.546 449.401 532.672C449.573 532.746 453.635 534.418 456.015 531.152C456.3 530.756 456.933 530.663 457.41 530.766C461.162 531.464 465.062 525.458 466.34 522.561C466.98 521.108 469.234 522.104 468.591 523.556C467.904 525.11 466.914 526.64 465.638 528.12C471.918 529.638 478.532 527.895 482.573 522.758C483.555 521.51 485.488 523.036 484.506 524.282C484.134 524.755 483.744 525.206 483.34 525.635C486.237 526.246 491.952 526.314 496.474 519.319C496.686 518.989 497.046 518.782 497.437 518.757C503.964 518.395 506.596 512.719 505.346 506.889C505.013 505.335 507.583 504.721 507.917 506.274C509.527 512.501 507.334 517.493 502.608 519.846C504.765 519.715 507.599 518.836 509.211 516.285C509.783 515.384 511.201 515.618 511.45 516.657C511.662 517.551 511.785 518.24 511.847 518.775L511.874 518.753C512.278 518.388 512.773 517.627 512.837 516.065C512.88 514.911 514.418 514.471 515.076 515.413C515.364 515.827 515.778 516.275 516.088 516.526C516.2 516.07 516.317 515.078 516.155 513.031C516.064 511.867 517.566 511.245 518.322 512.137C518.616 512.482 519.059 512.853 519.347 513.009C519.923 511.385 519.01 509.358 517.855 508.203C517.049 507.408 517.695 505.987 518.83 506.099C519.848 506.175 520.544 505.595 520.581 504.587C520.657 502.619 517.727 501.762 517.702 501.754C516.669 501.468 516.488 500.036 517.416 499.501C518.655 498.789 518.982 498.215 518.982 498.215C517.136 496.443 513.531 496.377 511.606 496.375C511.032 499.181 509.512 501.784 506.819 503.764C505.55 504.712 504.083 502.745 505.346 501.791C511.332 497.187 510.038 489.477 505.844 484.207C505.536 483.82 505.494 483.278 505.731 482.845C508.136 478.997 504.539 474.978 501.324 473.295C500.93 473.088 500.677 472.677 500.664 472.231C500.657 471.97 500.398 466.029 492.772 463.129C492.655 463.288 492.533 463.442 492.403 463.589C492.298 463.709 492.188 463.825 492.075 463.937C495.214 471.011 489.363 475.898 482.944 477.556C481.406 477.953 480.791 475.569 482.328 475.172C487.358 473.87 492.919 469.987 489.474 464.245C489.108 463.665 489.302 462.878 489.89 462.528C495.072 455.645 488.763 449.872 484.474 448.382C483.769 448.137 483.44 447.286 483.796 446.631C487.544 438.6 479.51 433.521 472.786 431.635C472.498 433.544 472.072 435.573 471.511 437.722C471.11 439.258 468.776 438.452 469.125 437.101C474.656 419.268 468.233 406.161 451.107 421.997C449.915 423.05 448.288 421.202 449.479 420.15C450.426 419.314 451.356 418.553 452.261 417.862ZM412.77 421.765C413.663 420.631 414.593 419.584 415.553 418.622C411.941 417.164 407.735 416.249 405.59 417.297C402.819 418.649 403.124 424.291 403.288 427.308C403.303 427.581 403.316 427.832 403.326 428.057C403.693 427.825 404.053 427.613 404.392 427.424C404.392 427.104 404.384 426.764 404.377 426.411C404.326 424.006 404.261 421 406.408 419.647C408.674 418.217 411.254 420.113 412.77 421.765Z" fill="#0C1A23"/>
<path d="M457.825 463.389C455.252 463.389 453.162 461.974 453.162 460.228C453.162 458.482 455.247 457.068 457.825 457.068C460.403 457.068 462.488 458.482 462.488 460.228C462.488 461.974 460.403 463.389 457.825 463.389Z" fill="#EFBDA0"/>
<path d="M457.034 456.141C457.464 456.214 457.889 456.472 458.226 456.73C458.572 456.983 459.129 457.449 459.129 457.927C459.129 458.069 459.028 458.19 458.896 458.228C458.436 458.355 457.785 457.879 457.444 457.618C457.084 457.342 456.781 457.15 456.573 456.728C456.422 456.414 456.705 456.075 457.034 456.138V456.141Z" fill="#342838"/>
<path d="M432.457 460.684C442.323 461.329 449.395 455.887 450.326 446.472C451.53 434.142 434.577 426.295 425.225 433.259C419.335 437.661 416.116 445.596 419.494 452.484C419.494 452.403 422.591 460.039 432.457 460.684Z" fill="#342838"/>
<path d="M433.146 460.568C427.339 460.424 422.789 457.726 419.492 452.478C419.363 453.923 419.492 455.123 420.302 456.542C426.458 463.116 437.589 463.88 445.607 458.204C445.812 458.055 446.035 458.02 446.159 458.111C446.303 458.212 446.283 458.377 446.098 458.599C439.696 466.193 425.438 463.26 421.228 458.136C425.132 468.543 443.429 466.023 448.325 458.536C448.454 458.387 448.527 458.161 448.527 457.903C448.532 457.359 448.712 456.831 449.076 456.319C451.832 452.387 454.185 445.062 449.77 441.373C451.232 452.795 444.231 460.839 433.146 460.57V460.568Z" fill="#B2CFD6"/>
<path d="M445.733 442.275C446.135 442.341 447.094 441.845 447.261 441.081C447.81 438.581 444.121 434.818 442.302 434.818C441.302 434.818 441.953 435.785 443.051 436.789C444.177 437.819 445.207 440.307 445.247 441.19C445.28 441.918 445.331 442.204 445.733 442.273V442.275Z" fill="white"/>
<path d="M431.329 438.259C432.878 436.444 435.4 437.07 436.815 438.643C437.739 436.674 440.4 435.793 442.198 437.174C444.513 438.955 443.596 441.814 441.789 443.536C441.118 444.18 438.368 447.294 437.409 447.054C434.562 446.369 428.342 441.761 431.329 438.254V438.259Z" fill="white"/>
<path d="M434.191 473.088C434.191 473.088 432.744 479.847 430.898 479.797C429.052 479.746 428.195 472.476 428.195 472.476L431.688 470.34L434.191 473.088Z" fill="#DC5C1D"/>
<path fill-rule="evenodd" clip-rule="evenodd" d="M432.531 468.356C432.394 467.83 431.57 467.192 430.707 468.189L430.709 468.192C428.933 470.239 426.289 471.018 425.833 468.25C425.631 467.028 423.764 467.253 423.86 468.895C423.97 470.796 425.157 471.76 426.617 472.012C426.617 474.502 427.535 481.305 430.773 481.301L430.777 481.305C433.876 481.221 435.896 475.25 435.649 472.438C437.39 472.558 439.07 471.821 439.203 469.55C439.284 468.164 437.956 467.65 437.87 468.758C437.637 471.797 433.817 470.843 432.531 468.356ZM433.674 472.831C432.984 472.199 432.44 471.42 431.704 470.83C429.651 471.817 428.888 472.32 428.612 472.536C428.732 474.354 429.572 479.214 430.693 479.287C432.531 479.408 433.73 473.914 433.674 472.831Z" fill="#342838"/>
<path fill-rule="evenodd" clip-rule="evenodd" d="M210.692 500.265C210.503 500.165 205.091 498.779 193.551 491.107C182.016 483.43 170.871 498.707 171.293 506.77C171.699 514.511 166.227 513.573 166.227 513.573C166.227 513.573 171.727 527.979 185.438 519.703C199.152 511.43 201.472 504.668 210.394 510.584L210.692 500.261V500.265Z" fill="#0C1A23"/>
<path d="M169.273 516.499C174.159 522.455 179.036 521.308 183.993 518.255C187.401 516.161 191.059 512.821 194.938 510.411L194.706 507.711C189.579 510.031 184.912 514.145 180.95 517.082C176.507 520.546 171.811 518.17 169.273 516.499Z" fill="#DC5C1D"/>
<path fill-rule="evenodd" clip-rule="evenodd" d="M195.868 505.565C190.042 507.3 185.085 511.91 180.09 515.794C175.547 519.335 171.237 517.236 168.961 515.549C170.991 516.185 174.981 517.062 178.696 513.55C184.745 507.785 189.31 503.207 196.092 502.911L195.868 505.565Z" fill="#EFBDA0"/>
<path fill-rule="evenodd" clip-rule="evenodd" d="M195.826 501.734C187.934 501.995 183.263 506.676 179.406 510.543C176.65 513.304 173.318 516.27 169.113 514.945C171.341 515.001 176.045 514.039 179.08 507.144C181.215 502.294 183.509 500.043 186.288 498.943C189.058 497.848 191.629 497.844 195.328 498.943C195.328 498.943 196.172 499.824 195.826 501.734Z" fill="#B3E1EB"/>
<path d="M177.682 506.376C179.857 501.466 182.454 498.618 185.337 497.486C187.562 496.611 190.215 497.097 193.046 497.877L191.902 494.741C189.821 494.137 187.653 493.932 185.337 494.456C182.319 495.141 179.5 497.119 177.433 501.059C175.051 505.631 173.876 510.707 169.684 514.151C171.894 512.699 175.181 512.013 177.682 506.376Z" fill="#EBA91F"/>
<path fill-rule="evenodd" clip-rule="evenodd" d="M176.371 500.018C174.604 503.406 174.037 507.347 172.047 510.62C172.785 506.729 172.647 503.058 174.588 499.504C177.481 494.198 183.374 491.688 189.256 492.488L189.534 493.303C185.203 493.303 179.722 494.137 176.371 500.018Z" fill="#F3E3D2"/>
<path d="M296.096 429.029C296.419 425.398 290.425 421.831 286.2 421.831C278.121 409.852 263.309 405.807 245.551 416.421C237.964 413.093 227.788 421.483 228.377 429.029C216.839 429.029 211.42 440.951 215.295 445.074C203.287 451.161 209.21 455.849 207.27 459.732C204.39 461.506 198.403 466.668 198.665 469.81C196.091 470.972 191.506 476.015 193.542 481.806C191.526 483.841 188.252 488.911 189.517 493.584C194.473 500.742 196.789 500.742 193.542 510.091C194.776 515.309 197.656 517.914 202.01 518.54C204.026 518.54 213.022 531.224 217.911 523.602C219.841 524.855 229.209 532.711 235.419 526.369C235.992 526.421 235.461 527.157 238.597 528.897C249.385 534.879 253.889 531.6 261.948 528.547C265.674 529.093 270.308 527.27 273.061 526.369C282.243 528.772 289.079 528.246 293.98 524.83C296.608 524.892 305.337 521.916 307.657 516.446C311.598 514.295 319.487 511.927 315.883 500.464C319.19 494.313 320.539 484.245 307.023 477.289C312.58 473.561 311.366 467.752 310.001 458.57C309.575 451.587 303.75 449.463 301.883 447.866C305.506 438.868 301.386 433.985 296.096 429.029Z" fill="#FCF4F0"/>
<path d="M242.385 531.306C241.145 531.309 238.686 530.954 236.229 528.336C233.663 529.158 225.741 531.042 218.912 525.777C217.884 526.126 215.866 526.657 213.4 526.493C210.246 526.283 205.746 524.866 202.001 519.383C194.405 518.357 190.328 512.473 192.361 504.606C192.693 503.062 195.246 503.673 194.915 505.216C193.674 511.007 196.289 516.645 202.771 517.005C203.16 517.03 203.517 517.235 203.728 517.563C208.22 524.512 213.896 524.443 216.774 523.836C216.372 523.411 215.986 522.963 215.616 522.493C214.641 521.255 216.56 519.74 217.537 520.979C221.549 526.082 228.119 527.813 234.358 526.305C233.09 524.835 232.107 523.315 231.424 521.771C230.786 520.329 233.025 519.34 233.66 520.783C234.929 523.661 238.96 529.531 242.686 528.837C243.161 528.735 243.633 528.923 243.917 529.317C246.28 532.561 250.315 530.9 250.486 530.827C250.78 530.702 251.117 530.694 251.413 530.812C254.557 532.042 255.592 529.907 255.766 529.466C256.008 528.816 256.768 528.511 257.398 528.786C259.538 529.718 261.457 525.957 261.738 524.382C262.013 522.827 264.426 523.261 264.146 524.813C264.004 525.603 263.547 526.604 263.113 527.423C268.827 528.199 272.826 525.364 274.476 520.448C274.978 518.952 277.298 519.73 276.795 521.226C276.194 523.297 275.313 524.426 274.569 525.427C277.691 527.959 280.436 526.586 280.561 526.52C280.915 526.337 281.348 526.332 281.703 526.52C286.232 528.903 291.497 524.874 292.349 524.181C293.511 522.371 295.175 518.838 295.233 516.066C295.268 514.484 297.709 514.539 297.68 516.115C297.624 518.786 296.476 521.71 295.385 523.805C303.606 523.376 306.05 516.538 306.158 516.225C306.29 515.841 306.605 515.542 306.997 515.437C313.836 513.587 317.759 508.35 314.332 501.281C314.095 500.833 314.158 500.282 314.491 499.901C320.136 493.441 316.292 488.91 316.125 488.719C315.913 488.477 315.8 488.157 315.817 487.836C316.059 483.625 311.668 482.49 311.482 482.444C310.973 482.319 310.596 481.881 310.552 481.357C310.332 478.734 306.446 478.764 306.285 478.764C306.278 478.764 306.273 478.764 306.265 478.764C305.025 478.764 304.588 477.048 305.686 476.462C313.064 472.518 311.234 460.71 303.559 458.855C302.059 458.37 302.806 456.046 304.308 456.526C306.126 457.111 307.604 457.882 308.732 458.826C309.289 453.303 304.632 450.177 300.007 448.743C298.5 448.275 299.226 445.938 300.733 446.407L301.211 446.556C303.144 437.761 300.007 433.298 296.19 429.87C294.966 424.592 286.465 424.068 285.525 422.826C276.172 410.563 259.14 408.267 246.66 417.492C235.94 419.596 233.227 423.101 227.258 430.467C220.578 432.339 212.598 437.384 216.321 445.362C216.674 446.013 216.348 446.858 215.648 447.101C211.388 448.581 205.121 454.316 210.268 461.153C210.852 461.5 211.045 462.282 210.681 462.858C207.259 468.561 212.783 472.419 217.779 473.711C219.306 474.106 218.694 476.474 217.167 476.08C210.792 474.433 204.98 469.579 208.098 462.552C207.819 462.283 207.589 462.007 207.405 461.75C199.83 464.629 199.573 470.531 199.566 470.79C199.554 471.233 199.302 471.642 198.91 471.847C195.717 473.519 192.145 477.511 194.533 481.333C194.768 481.763 194.727 482.302 194.421 482.686C190.255 487.92 188.97 495.58 194.915 500.153C196.17 501.1 194.713 503.054 193.452 502.112C186.578 497.058 187.409 487.924 192.048 481.754C190.176 476.902 192.946 472.411 197.186 470C197.467 467.979 198.918 462.401 206.424 459.506C204.785 453.312 207.801 447.719 213.625 445.259C210.382 436.068 219.203 429.631 227.299 427.964C227.991 418.586 237.351 415.113 245.588 415.268C259.248 406.201 276.722 407.719 287.165 420.986C291.78 420.986 296.02 423.674 297.783 427.981C302.836 433.298 305.101 437.12 303.445 447.222C309.103 449.719 312.408 455.252 310.733 461.37C313.242 466.307 313.807 472.86 309.392 476.855C310.921 477.408 312.37 478.463 312.844 480.315C315.098 481.127 318.283 483.349 318.271 487.525C319.316 489.02 322.198 494.273 316.847 500.906C320.45 508.712 315.952 515.349 308.228 517.639C305.718 523.356 300.551 526.64 293.68 526.261C292.146 527.472 286.555 531.382 281.111 528.962C279.33 529.637 276.069 529.865 272.915 527.247C271.307 528.625 267.603 530.905 261.638 529.662C260.711 530.614 259.218 531.578 257.513 531.35C257.087 531.972 256.388 532.737 255.313 533.214C254.039 533.785 252.583 533.802 250.983 533.268C247.999 534.314 244.667 533.92 242.385 531.306Z" fill="#0C1A23"/>
<path d="M294.905 416.844C293.101 413.969 285.406 416.316 281.785 417.848C282.399 419.629 283.674 423.262 283.875 423.529C284.124 423.864 293.901 426.034 294.151 426.788C294.352 427.39 296.128 428.209 296.992 428.542C297.048 425.841 296.708 419.719 294.902 416.844H294.905Z" fill="#FCF4F0"/>
<path d="M293.136 421.004C291.903 418.887 288.874 420.82 287.516 422.051C287.516 423.098 287.516 423.042 290.491 423.869C292.872 424.529 294.127 426.457 294.457 427.341C294.53 426.11 294.369 423.12 293.136 421.004Z" fill="#DFCAD3"/>
<path d="M297.808 430.585L296.658 430.135C295.212 429.57 293.154 427.329 293.208 424.755C293.279 421.437 292.564 420.485 292.131 420.214C291.551 419.849 290.607 420.165 289.88 420.517C288.86 421.4 288.035 422.23 287.822 422.531C287.742 422.829 287.529 423.076 287.235 423.196C286.565 423.47 286.078 422.998 285.513 422.452C285.133 422.088 284.649 421.591 284.086 421.016C283.161 420.072 282.114 419 281.209 418.171L280.145 417.194L281.446 416.568C282.359 416.128 290.48 412.335 294.845 414.464C296.168 415.11 297.042 416.252 297.372 417.767C298.639 423.602 298.16 428.119 297.981 429.362L297.808 430.585ZM291.505 418.092C292.124 418.092 292.682 418.247 293.173 418.557C295.052 419.741 295.209 422.685 295.163 424.799C295.141 425.763 295.637 426.705 296.21 427.378C296.332 425.401 296.315 422.12 295.459 418.183C295.256 417.248 294.774 416.607 293.986 416.223C291.757 415.134 287.287 416.179 283.597 417.743C284.235 418.369 284.886 419.034 285.486 419.649C285.877 420.047 286.32 420.502 286.677 420.855C287.091 420.397 287.725 419.788 288.693 418.954L288.784 418.875L288.889 418.822C289.853 418.335 290.724 418.09 291.502 418.09L291.505 418.092Z" fill="#0C1A23"/>
<path d="M232.037 412.85C225.896 415.125 228.152 429.815 230.045 436.874C234.709 436.874 245.824 426.449 250.801 421.237C247.104 417.494 238.178 410.574 232.035 412.85H232.037Z" fill="#FCF4F0"/>
<path d="M229.703 437.43C229.16 437.43 228.663 437.065 228.519 436.512C228.076 434.81 224.352 419.701 229.544 413.973C231.142 412.211 233.336 411.534 236.069 411.962L236.096 411.967C238.819 412.459 245.316 414.573 250.405 419.057C250.911 419.505 250.96 420.278 250.515 420.785C250.067 421.291 249.294 421.34 248.787 420.892C244.112 416.772 238.176 414.829 235.678 414.374C233.791 414.081 232.38 414.487 231.359 415.612C228.298 418.989 228.969 428.494 230.89 435.896C231.058 436.549 230.667 437.217 230.014 437.388C229.911 437.415 229.808 437.428 229.705 437.428L229.703 437.43Z" fill="#0C1A23"/>
<path d="M232.505 421.988C233.599 417.811 239.921 420.248 242.945 421.988C243.317 422.734 239.341 425.902 237.166 426.027C235.426 426.127 233.581 430.957 232.879 433.36C232.299 431.31 231.414 426.164 232.507 421.988H232.505Z" fill="#DFCAD3"/>
<path d="M232.563 433.345C231.99 433.345 231.479 432.941 231.364 432.356C231.119 431.113 229.12 420.137 234.051 417.918C238.041 416.122 241.949 419.136 243.456 420.981C243.884 421.505 243.806 422.276 243.285 422.704C242.761 423.132 241.99 423.054 241.562 422.532C240.679 421.453 237.789 418.921 235.054 420.152C232.986 421.082 232.773 426.851 233.762 431.889C233.892 432.552 233.461 433.195 232.798 433.325C232.72 433.34 232.639 433.347 232.56 433.347L232.563 433.345Z" fill="#0C1A23"/>
<path fill-rule="evenodd" clip-rule="evenodd" d="M268.499 388.493C267.871 387.808 266.738 387.861 266.155 388.582C264.546 390.575 261.74 394.989 259.814 405.212C257.876 415.498 257.144 421.06 266.834 421.93C275.758 422.861 277.137 417.037 275.274 409.151C273.058 398.634 270.654 390.845 268.495 388.493H268.499Z" fill="#0C1A23"/>
<path fill-rule="evenodd" clip-rule="evenodd" d="M270.21 395.706C269.241 392.77 268.195 390.591 267.158 390.196C266.525 390.015 265.822 391.312 265.59 391.703C266.944 393.226 268.484 394.61 270.21 395.702V395.706Z" fill="#F3E3D2"/>
<path d="M270.785 397.591L270.789 397.595C271.372 399.585 271.86 401.602 272.317 403.624C268.76 402.355 265.755 399.89 263.395 396.983C263.744 395.928 264.54 393.648 264.93 392.963C266.628 394.796 268.575 396.411 270.785 397.591Z" fill="#EBA91F"/>
<path d="M272.656 405.132C273.316 408.25 273.834 411.218 274.18 413.361C269.085 411.432 264.895 407.575 261.816 403.151C261.816 402.649 262.572 399.846 262.95 398.507C265.556 401.501 268.836 403.955 272.66 405.132H272.656Z" fill="#B3E1EB"/>
<path d="M260.598 411.326C260.746 409.421 261.048 407.202 261.47 404.93C264.783 409.331 269.163 413.055 274.425 414.862L274.429 414.858C274.289 417.439 273.199 419.062 270.786 419.929C266.535 418.337 263.082 415.059 260.598 411.326Z" fill="#EFBDA0"/>
<path d="M268.569 420.425C265.354 418.823 262.637 416.327 260.48 413.477C259.937 418.301 263.904 420.87 268.569 420.425Z" fill="#DC5C1D"/>
<path d="M240.34 465.469C242.994 465.469 245.149 464.01 245.149 462.21C245.149 460.409 242.999 458.951 240.34 458.951C237.681 458.951 235.531 460.409 235.531 462.21C235.531 464.01 237.681 465.469 240.34 465.469Z" fill="#EFBDA0"/>
<path d="M241.149 457.997C240.705 458.073 240.267 458.339 239.92 458.605C239.562 458.866 238.988 459.346 238.988 459.839C238.988 459.985 239.093 460.11 239.228 460.15C239.703 460.28 240.374 459.789 240.726 459.521C241.097 459.236 241.41 459.038 241.624 458.602C241.78 458.279 241.488 457.929 241.149 457.994V457.997Z" fill="#342838"/>
<path d="M266.513 462.684C256.339 463.349 249.046 457.737 248.086 448.027C246.844 435.312 264.327 427.221 273.971 434.402C280.045 438.942 283.364 447.125 279.881 454.227C279.881 454.144 276.687 462.018 266.513 462.684Z" fill="#342838"/>
<path d="M265.798 462.565C271.786 462.416 276.478 459.634 279.878 454.223C280.011 455.713 279.878 456.949 279.043 458.413C272.694 465.192 261.216 465.98 252.947 460.128C252.736 459.974 252.506 459.937 252.378 460.031C252.23 460.135 252.25 460.305 252.441 460.535C259.043 468.365 273.746 465.341 278.088 460.057C274.062 470.789 255.194 468.19 250.145 460.469C250.012 460.316 249.936 460.083 249.936 459.817C249.931 459.256 249.746 458.711 249.37 458.184C246.528 454.129 244.102 446.575 248.655 442.771C247.147 454.549 254.367 462.844 265.798 462.567V462.565Z" fill="#B2CFD6"/>
<path d="M252.813 443.701C252.398 443.769 251.409 443.258 251.237 442.47C250.67 439.892 254.475 436.012 256.351 436.012C257.381 436.012 256.711 437.008 255.578 438.044C254.417 439.106 253.355 441.671 253.314 442.582C253.28 443.333 253.227 443.628 252.813 443.699V443.701Z" fill="white"/>
<path d="M267.663 439.559C266.066 437.688 263.465 438.334 262.006 439.956C261.052 437.925 258.308 437.017 256.454 438.441C254.067 440.278 255.013 443.226 256.876 445.002C257.568 445.666 260.404 448.877 261.393 448.629C264.329 447.923 270.743 443.171 267.663 439.555V439.559Z" fill="white"/>
<path d="M264.719 475.474C264.719 475.474 266.211 482.444 268.115 482.392C270.019 482.34 270.903 474.843 270.903 474.843L267.301 472.641L264.719 475.474Z" fill="#DC5C1D"/>
<path fill-rule="evenodd" clip-rule="evenodd" d="M266.423 470.594C266.564 470.051 267.415 469.393 268.305 470.421L268.302 470.424C270.134 472.535 272.861 473.339 273.33 470.484C273.539 469.224 275.465 469.456 275.366 471.149C275.252 473.11 274.028 474.104 272.523 474.364C272.523 476.932 271.576 483.947 268.236 483.943L268.232 483.947C265.037 483.861 262.954 477.703 263.208 474.803C261.413 474.927 259.68 474.167 259.543 471.825C259.459 470.395 260.829 469.866 260.918 471.009C261.158 474.142 265.098 473.159 266.423 470.594ZM265.245 475.209C265.957 474.556 266.517 473.754 267.276 473.145C269.394 474.162 270.181 474.681 270.465 474.904C270.341 476.778 269.475 481.791 268.319 481.866C266.423 481.991 265.187 476.325 265.245 475.209Z" fill="#342838"/>
</svg>
