<svg width="711" height="671" viewBox="0 0 711 671" fill="none" xmlns="http://www.w3.org/2000/svg">
<path d="M291.598 434.215C291.923 430.56 295.209 423.064 289.342 420.31C284.05 418.347 278.069 423.024 276.819 422.058C266.93 414.42 256.361 412.169 240.711 421.522C233.073 418.173 222.829 426.619 223.422 434.215C211.806 434.215 206.35 446.218 210.252 450.369C198.162 456.497 204.126 461.216 202.172 465.125C199.273 466.911 193.246 472.108 193.509 475.271C190.918 476.441 186.302 481.518 188.352 487.348C186.322 489.397 183.026 494.501 184.3 499.206C181.799 499.878 175.042 499.24 175.846 502.567C176.446 505.056 173.003 507.935 174.01 510.249C175.525 512.298 174.01 515.925 175.846 518.251C178.374 521.454 182.695 525.186 185.213 522.967C189.352 525.272 195.554 524.14 196.877 524.33C198.906 524.33 207.963 537.099 212.885 529.426C214.828 530.688 224.26 538.597 230.511 532.212C231.088 532.264 230.838 533.284 233.996 535.036C244.856 541.058 249.106 537.478 257.219 534.404C260.971 534.954 265.636 533.119 268.407 532.212C277.651 534.631 284.533 534.101 289.467 530.663C292.112 530.724 300.901 527.729 303.236 522.222C307.204 520.056 315.146 517.672 311.517 506.132C314.848 499.94 316.205 489.804 302.598 482.801C308.192 479.047 306.97 473.2 305.596 463.955C305.167 456.926 299.302 454.787 297.423 453.179C301.07 444.121 296.923 439.205 291.598 434.215Z" fill="#FCF4F0"/>
<path d="M288.206 425.638C287.018 423.616 284.101 425.463 282.793 426.639C282.793 427.639 282.793 427.585 285.658 428.376C287.951 429.007 289.16 430.849 289.478 431.693C289.549 430.517 289.393 427.66 288.206 425.638Z" fill="#DFCAD3"/>
<path d="M227.099 417.926C220.917 420.217 223.188 435.006 225.094 442.112C229.789 442.112 240.979 431.616 245.989 426.37C242.267 422.601 233.282 415.635 227.097 417.926H227.099Z" fill="#FCF4F0"/>
<path d="M238.079 427.126C238.454 427.877 234.451 431.067 232.261 431.192C230.51 431.293 228.441 435.71 227.734 438.129C227.15 436.065 226.19 427.438 228.78 424.628C231.426 422.369 233.547 423.168 238.079 427.126Z" fill="#DFCAD3"/>
<path d="M226.425 437.568C223.794 428.1 228.423 415.509 238.598 426.116C239.603 427.346 237.7 428.905 236.691 427.678C229.415 419.256 226.425 430.525 228.839 437.097C229.144 438.66 226.73 439.12 226.425 437.568Z" fill="#0C1A23"/>
<path d="M262.794 464.98C253.19 465.608 246.306 460.31 245.399 451.145C244.227 439.142 260.73 431.503 269.834 438.282C275.568 442.568 278.701 450.292 275.413 456.997C275.413 456.918 272.398 464.352 262.794 464.98Z" fill="#342838"/>
<path d="M262.122 464.867C267.775 464.726 272.203 462.101 275.413 456.992C275.539 458.398 275.413 459.566 274.625 460.948C268.632 467.347 257.796 468.091 249.991 462.566C249.791 462.421 249.574 462.386 249.454 462.475C249.313 462.574 249.333 462.734 249.513 462.95C255.745 470.342 269.625 467.488 273.723 462.5C269.923 472.631 252.111 470.177 247.345 462.889C247.22 462.743 247.148 462.524 247.148 462.273C247.143 461.743 246.968 461.229 246.614 460.731C243.931 456.903 241.641 449.772 245.939 446.181C244.515 457.3 251.331 465.13 262.122 464.869V464.867Z" fill="#B2CFD6"/>
<path d="M238.09 467.611C240.595 467.611 242.63 466.234 242.63 464.534C242.63 462.834 240.6 461.458 238.09 461.458C235.58 461.458 233.551 462.834 233.551 464.534C233.551 466.234 235.58 467.611 238.09 467.611Z" fill="#EFBDA0"/>
<path d="M238.864 460.556C238.445 460.628 238.031 460.879 237.704 461.13C237.366 461.377 236.824 461.83 236.824 462.295C236.824 462.433 236.923 462.551 237.051 462.588C237.499 462.712 238.132 462.249 238.465 461.995C238.814 461.726 239.11 461.539 239.312 461.128C239.46 460.822 239.184 460.492 238.864 460.554V460.556Z" fill="#342838"/>
<path d="M264.494 472.286C263.654 471.315 262.851 471.936 262.718 472.448C261.466 474.87 257.747 475.798 257.52 472.84C257.437 471.761 256.143 472.261 256.222 473.611C256.483 478.05 262.816 476.468 263.503 474.202C265.511 476.695 270.92 477.084 271.159 472.973C271.252 471.375 269.435 471.155 269.238 472.345C268.794 475.04 266.22 474.281 264.491 472.288L264.494 472.286Z" fill="#342838"/>
<path d="M249.862 447.058C249.47 447.122 248.537 446.639 248.374 445.895C247.839 443.462 251.431 439.799 253.202 439.799C254.175 439.799 253.542 440.74 252.473 441.718C251.377 442.72 250.374 445.141 250.335 446.001C250.303 446.71 250.253 446.989 249.862 447.055V447.058Z" fill="white"/>
<path d="M260.53 445.905C260.113 448.696 258.197 449.915 256.059 449.915C253.921 449.915 252.746 448.423 252.746 445.775C252.746 443.816 254.968 441.442 256.933 441.442C258.899 441.442 260.976 442.917 260.527 445.905H260.53Z" fill="white"/>
<path fill-rule="evenodd" clip-rule="evenodd" d="M183.203 498.041C183.11 494.306 184.49 490.423 186.84 487.296C184.958 482.411 187.745 477.891 192.013 475.463C192.297 473.428 193.758 467.812 201.314 464.899C199.664 458.662 202.701 453.032 208.564 450.556C205.345 441.432 213.931 435.004 221.987 433.217C220.522 418.09 228.205 412.051 240.682 420.361C249.082 415.189 262.952 408.012 277.953 421.179C280.528 420.074 286.725 417.787 290.348 419.554C294.669 421.662 293.983 429.613 293.626 433.517C298.477 438.688 300.62 442.588 298.99 452.532C304.686 455.045 308.013 460.616 306.326 466.775C308.852 471.746 309.421 478.342 304.977 482.365C306.517 482.921 307.974 483.983 308.453 485.848C310.72 486.665 313.928 488.902 313.916 493.107C314.968 494.612 317.869 499.9 312.482 506.578C316.11 514.436 311.581 521.118 303.804 523.423C301.278 529.179 296.076 532.485 289.158 532.103C287.614 533.323 281.986 537.259 276.506 534.823C274.712 535.503 271.428 535.732 268.254 533.096C266.636 534.483 262.906 536.779 256.9 535.527C255.967 536.485 254.465 537.456 252.748 537.227C252.319 537.853 251.615 538.623 250.534 539.104C249.25 539.678 247.785 539.695 246.174 539.158C243.17 540.211 239.815 539.814 237.518 537.183C236.269 537.185 233.794 536.828 231.321 534.192C228.736 535.02 220.761 536.916 213.886 531.616C212.852 531.968 210.82 532.503 208.337 532.337C205.221 532.13 200.801 530.752 197.072 525.483C193.355 526.886 188.781 526.648 185.678 523.892C185.774 524.325 185.656 524.783 185.346 525.116C183.619 526.973 180.841 524.209 180.254 522.685C177.766 524.368 176.47 521.626 176.389 519.426C175.958 519.574 175.495 519.625 175.028 519.505C172.043 518.736 173.136 514.023 174.205 512.189C170.703 510.579 171.953 506.024 174.629 504.339C173.702 503.415 173.407 502.452 173.749 501.464C174.793 498.453 181.059 497.875 183.203 498.041ZM242.813 421.889C257.368 411.77 271.91 415.615 282.241 429.605C283.42 431.024 284.658 429.085 284.034 428.162C283.857 427.9 283.677 427.641 283.496 427.387C284.374 426.278 286.27 424.495 287.617 425.343C288.801 426.084 288.782 428.541 288.77 429.993C288.768 430.199 288.768 430.384 288.769 430.542C288.36 430.87 287.979 430.829 287.621 430.789C287.525 430.779 287.432 430.769 287.34 430.765C286.869 430.75 286.606 430.741 286.899 431.418C287.284 431.731 287.435 431.952 287.584 432.17C287.756 432.422 287.925 432.669 288.45 433.046C288.753 433.263 288.949 433.25 289.125 433.238C289.2 433.233 289.27 433.228 289.344 433.241C289.986 433.354 290.648 434.026 291.198 434.584C291.373 434.762 291.538 434.929 291.686 435.062C295.528 438.513 298.687 443.006 296.74 451.861L296.26 451.711C294.743 451.239 294.011 453.592 295.528 454.063C300.185 455.506 304.873 458.654 304.311 464.214C303.176 463.263 301.689 462.487 299.859 461.898C298.346 461.415 297.594 463.755 299.105 464.243C306.831 466.11 308.673 477.998 301.245 481.968C300.14 482.558 300.58 484.286 301.829 484.286H301.854C302.082 484.286 305.925 484.28 306.144 486.897C306.189 487.424 306.568 487.865 307.081 487.991C307.267 488.037 311.689 489.18 311.445 493.419C311.428 493.742 311.541 494.065 311.756 494.309C311.923 494.501 315.793 499.063 310.11 505.565C309.775 505.95 309.711 506.504 309.95 506.955C313.4 514.072 309.45 519.344 302.565 521.206C302.172 521.312 301.853 521.613 301.72 522C301.613 522.315 299.151 529.199 290.876 529.63C291.973 527.522 293.129 524.579 293.186 521.889C293.215 520.302 290.757 520.247 290.723 521.839C290.663 524.63 288.989 528.187 287.819 530.01C286.962 530.707 281.661 534.764 277.101 532.365C276.744 532.175 276.308 532.18 275.951 532.365C275.825 532.431 273.062 533.813 269.919 531.264L270.012 531.138C270.74 530.161 271.58 529.033 272.16 527.034C272.666 525.529 270.33 524.745 269.825 526.251C268.164 531.2 264.138 534.054 258.386 533.273C258.822 532.448 259.283 531.441 259.425 530.645C259.707 529.083 257.278 528.646 257.001 530.212C256.718 531.798 254.786 535.584 252.632 534.645C251.998 534.369 251.233 534.676 250.989 535.33C250.815 535.774 249.772 537.924 246.607 536.685C246.309 536.567 245.969 536.574 245.674 536.7C245.501 536.774 241.439 538.446 239.06 535.18C238.774 534.783 238.141 534.691 237.664 534.794C233.912 535.492 230.012 529.486 228.735 526.588C228.095 525.136 225.84 526.132 226.483 527.584C227.17 529.138 228.16 530.667 229.436 532.148C223.156 533.666 216.542 531.923 212.502 526.785C211.519 525.538 209.586 527.064 210.569 528.31C210.94 528.783 211.33 529.234 211.734 529.662C208.837 530.273 203.122 530.342 198.6 523.347C198.389 523.017 198.029 522.81 197.637 522.785C191.111 522.423 188.478 516.747 189.728 510.916C190.061 509.363 187.491 508.748 187.157 510.302C185.547 516.528 187.74 521.521 192.466 523.874C190.309 523.743 187.476 522.864 185.863 520.313C185.291 519.412 183.873 519.646 183.624 520.684C183.412 521.579 183.289 522.268 183.228 522.803L183.201 522.781C182.796 522.416 182.301 521.655 182.237 520.093C182.194 518.939 180.657 518.499 179.998 519.441C179.71 519.854 179.296 520.303 178.986 520.554C178.875 520.098 178.757 519.106 178.919 517.059C179.01 515.895 177.508 515.273 176.752 516.165C176.459 516.509 176.015 516.881 175.727 517.037C175.151 515.413 176.064 513.386 177.22 512.231C178.025 511.436 177.379 510.014 176.244 510.127C175.226 510.203 174.53 509.623 174.493 508.615C174.417 506.647 177.348 505.79 177.373 505.782C178.405 505.496 178.586 504.064 177.658 503.529C176.419 502.817 176.092 502.243 176.092 502.243C177.938 500.471 181.543 500.405 183.468 500.403C184.042 503.209 185.562 505.812 188.255 507.792C189.524 508.74 190.991 506.772 189.728 505.819C183.742 501.215 185.036 493.504 189.231 488.234C189.538 487.848 189.58 487.306 189.343 486.872C186.939 483.025 190.535 479.006 193.75 477.323C194.144 477.116 194.397 476.704 194.41 476.259C194.418 475.998 194.676 470.056 202.303 467.157C202.419 467.316 202.541 467.469 202.671 467.617C202.776 467.737 202.886 467.853 202.999 467.965C199.861 475.039 205.712 479.926 212.13 481.584C213.668 481.981 214.284 479.597 212.746 479.2C207.716 477.898 202.155 474.015 205.6 468.273C205.967 467.693 205.772 466.906 205.184 466.556C200.002 459.673 206.311 453.9 210.6 452.41C211.305 452.165 211.634 451.314 211.278 450.659C207.53 442.627 215.564 437.548 222.288 435.663C222.577 437.572 223.002 439.601 223.563 441.75C223.964 443.286 226.298 442.48 225.949 441.129C220.418 423.296 226.841 410.189 243.968 426.025C245.159 427.078 246.786 425.23 245.596 424.177C244.648 423.342 243.718 422.581 242.813 421.889ZM282.305 425.793C281.411 424.659 280.481 423.612 279.521 422.65C283.133 421.192 287.34 420.277 289.484 421.325C292.255 422.677 291.95 428.318 291.786 431.336C291.771 431.609 291.758 431.86 291.748 432.085C291.381 431.853 291.021 431.64 290.682 431.451C290.682 431.132 290.69 430.792 290.698 430.439C290.749 428.033 290.813 425.028 288.666 423.675C286.401 422.244 283.82 424.141 282.305 425.793Z" fill="#0C1A23"/>
</svg>
