<svg width="229" height="200" viewBox="0 0 229 200" fill="none" xmlns="http://www.w3.org/2000/svg">
<g clip-path="url(#clip0_1428_3004)">
<path d="M38.7741 31.7718C38.2572 25.9498 47.8507 20.2297 54.6131 20.2297C67.5428 1.02168 91.2485 -5.4634 119.669 11.5555C131.811 6.21994 148.097 19.6726 147.153 31.7718C165.62 31.7718 174.293 50.8897 168.09 57.5003C187.309 67.2612 177.829 74.7781 180.934 81.0043C185.543 83.8486 195.125 92.1266 194.706 97.164C198.825 99.0275 206.163 107.113 202.905 116.4C206.132 119.664 211.371 127.793 209.346 135.286C208.321 147.813 202.889 173.353 189.353 175.303C186.126 175.303 171.728 195.641 163.905 183.42C160.815 185.429 145.822 198.026 135.884 187.857C134.967 187.939 135.817 189.12 130.797 191.91C113.533 201.502 106.324 196.245 93.4257 191.349C87.4621 192.224 80.0457 189.301 75.6405 187.857C60.9448 191.71 50.0043 190.866 42.1612 185.389C37.9557 185.487 23.9844 180.717 20.2723 171.944C13.9641 168.496 1.33984 164.698 7.10768 146.318C1.81364 136.455 -0.343901 120.311 21.2865 109.157C12.3939 103.178 14.3361 93.8646 16.5211 79.1407C17.2024 67.9439 26.5257 64.5385 29.5134 61.9767C23.715 47.5494 30.3088 39.7195 38.7741 31.7718Z" fill="#FCF4F0"/>
<path d="M124.736 195.774C126.721 195.778 130.657 195.209 134.588 191.011C138.695 192.329 151.375 195.35 162.303 186.908C163.948 187.469 167.178 188.32 171.125 188.057C176.173 187.72 183.374 185.448 189.369 176.656C201.525 175.01 208.049 165.575 204.796 152.96C204.265 150.485 200.178 151.465 200.709 153.939C202.695 163.225 198.51 172.265 188.135 172.843C187.513 172.882 186.941 173.212 186.604 173.737C179.415 184.879 170.331 184.769 165.726 183.796C166.368 183.114 166.986 182.396 167.578 181.643C169.139 179.657 166.067 177.227 164.504 179.214C158.082 187.397 147.568 190.172 137.583 187.755C139.612 185.397 141.186 182.961 142.278 180.485C143.3 178.173 139.717 176.586 138.699 178.9C136.668 183.515 130.218 192.927 124.254 191.816C123.495 191.651 122.739 191.953 122.285 192.584C118.502 197.787 112.045 195.123 111.771 195.005C111.301 194.805 110.761 194.793 110.287 194.982C105.255 196.955 103.599 193.53 103.321 192.824C102.934 191.781 101.718 191.292 100.709 191.733C97.2844 193.228 94.2129 187.197 93.7627 184.671C93.3234 182.177 89.4622 182.874 89.9096 185.362C90.1367 186.629 90.8689 188.234 91.562 189.548C82.4185 190.791 76.0174 186.246 73.3774 178.363C72.5734 175.964 68.8614 177.212 69.6654 179.61C70.6271 182.931 72.0383 184.742 73.2286 186.347C68.2322 190.407 63.8388 188.206 63.6391 188.1C63.0713 187.806 62.3782 187.798 61.8104 188.1C54.5625 191.921 46.1358 185.46 44.7732 184.35C42.9132 181.446 40.2505 175.781 40.1565 171.336C40.1015 168.8 36.1951 168.887 36.2408 171.415C36.3309 175.699 38.1674 180.387 39.9138 183.745C26.757 183.059 22.8452 172.093 22.6729 171.591C22.4614 170.975 21.9563 170.497 21.3298 170.328C10.3843 167.361 4.10581 158.965 9.59048 147.628C9.97031 146.91 9.86849 146.028 9.33595 145.416C0.302399 135.058 6.45399 127.793 6.72026 127.487C7.06092 127.098 7.24106 126.584 7.21365 126.07C6.82599 119.318 13.8547 117.498 14.1523 117.423C14.9668 117.223 15.5698 116.521 15.6403 115.682C15.9927 111.476 22.2108 111.523 22.4693 111.523C22.481 111.523 22.4889 111.523 22.5006 111.523C24.4862 111.523 25.1849 108.771 23.4286 107.831C11.6202 101.507 14.5482 82.5732 26.8314 79.5998C29.2332 78.822 28.0377 75.0954 25.6332 75.8649C22.7238 76.8025 20.3587 78.0383 18.5536 79.5527C17.6609 70.6969 25.114 65.6838 32.517 63.3851C34.9288 62.6345 33.7662 58.8878 31.354 59.6384L30.5904 59.8778C27.4963 45.7746 32.517 38.6184 38.6255 33.1214C40.5852 24.6588 54.19 23.8183 55.6946 21.8278C70.6625 2.16407 97.921 -1.51793 117.895 13.2739C135.051 16.6474 139.393 22.2685 148.947 34.0787C159.636 37.0815 172.408 45.1709 166.45 57.9632C165.885 59.0067 166.407 60.3624 167.527 60.7526C174.345 63.1255 184.375 72.3209 176.138 83.2837C175.203 83.8407 174.893 85.0944 175.476 86.0181C180.952 95.1634 172.112 101.349 164.116 103.422C161.672 104.054 162.652 107.852 165.095 107.219C175.298 104.578 184.6 96.7946 179.611 85.5277C180.057 85.0962 180.425 84.6529 180.719 84.2409C192.842 88.8586 193.253 98.3213 193.265 98.7372C193.284 99.4473 193.688 100.102 194.314 100.432C199.425 103.113 205.142 109.515 201.319 115.642C200.944 116.333 201.01 117.196 201.5 117.812C208.166 126.206 210.223 138.487 200.709 145.82C198.7 147.338 201.032 150.472 203.05 148.962C214.052 140.857 212.721 126.211 205.298 116.317C208.293 108.537 203.86 101.337 197.075 97.47C196.625 94.2294 194.303 85.2845 182.289 80.6433C184.913 70.7105 180.085 61.7423 170.765 57.7985C175.955 43.0608 161.838 32.7381 148.88 30.0652C147.773 15.0289 132.794 9.45864 119.61 9.70767C97.7487 -4.83108 69.7818 -2.39709 53.0695 18.8765C45.6826 18.8765 38.8981 23.1871 36.0764 30.0927C27.9884 38.6184 24.364 44.7466 27.0146 60.9461C17.9597 64.9493 12.6694 73.822 15.3505 83.6328C11.3355 91.5493 10.4315 102.056 17.4963 108.463C15.049 109.349 12.7309 111.04 11.9712 114.01C8.36488 115.313 3.26661 118.875 3.28619 125.572C1.61418 127.969 -2.99851 136.392 5.56515 147.028C-0.200804 159.544 6.99785 170.188 19.3602 173.859C23.3774 183.027 31.6454 188.293 42.643 187.684C45.0982 189.626 54.0456 195.896 62.758 192.016C65.6087 193.098 70.8283 193.463 75.8757 189.265C78.4483 191.474 84.3767 195.131 93.9232 193.138C95.4073 194.664 97.7958 196.21 100.525 195.845C101.206 196.841 102.326 198.069 104.045 198.834C106.085 199.748 108.415 199.776 110.976 198.92C115.751 200.598 121.084 199.966 124.736 195.774Z" fill="#0C1A23"/>
<path d="M223.718 146.138C226.522 146.742 226.905 151.618 224.121 154.172C223.871 156.954 225.989 161.148 224.121 164.29C219.003 168.555 215.699 174.377 194.291 175.574C211.505 162.745 194.971 153.708 208.735 137.132C222.414 135.023 224.542 139.719 223.718 146.138Z" fill="#FCF4F0"/>
<path d="M196.449 178.461C200.044 178.461 203.913 177.48 207.143 174.604C206.991 175.295 207.178 176.025 207.672 176.554C208.659 177.617 210.354 177.496 211.611 177.033C212.633 176.656 214.657 175.566 215.766 172.682C216.795 173.38 217.99 173.777 219.211 173.337C220.923 172.721 221.784 170.917 221.909 167.492C222.595 167.727 223.331 167.809 224.075 167.617C225.093 167.354 226.416 166.507 226.929 163.953C227.575 160.74 226.514 157.911 225.383 155.965C225.868 155.742 226.358 155.443 226.812 155.047C227.685 154.286 228.742 152.866 228.836 150.422C228.962 147.142 226.929 144.862 224.709 143.462C226.181 141.991 226.651 140.457 226.107 138.884C224.353 133.815 211.764 133.003 208.999 133.415C208.165 133.536 207.503 134.18 207.359 135.011C206.16 141.72 200.941 145.726 200.89 145.765C198.881 147.283 201.213 150.417 203.231 148.907C203.478 148.723 208.976 144.556 210.883 137.224C212.465 137.224 214.798 137.452 217.054 137.934C220.829 138.742 222.152 139.758 222.383 140.123C222.301 140.308 221.862 141.037 219.893 142.171C219.208 142.567 218.828 143.332 218.926 144.117C219.024 144.902 219.583 145.549 220.347 145.761C220.386 145.773 225.046 147.138 224.924 150.273C224.893 151.116 224.674 151.708 224.255 152.081C223.609 152.658 222.508 152.709 222.14 152.681C221.314 152.599 220.535 153.046 220.183 153.8C219.83 154.553 219.999 155.447 220.59 156.032C220.617 156.059 223.859 159.371 223.096 163.18C223.053 163.4 223.006 163.564 222.963 163.686C222.505 163.439 221.8 162.847 221.334 162.297C220.786 161.65 219.881 161.43 219.094 161.752C218.307 162.078 217.821 162.87 217.888 163.721C218.146 166.982 217.958 168.563 217.782 169.288C217.289 168.888 216.631 168.174 216.173 167.515C215.691 166.825 214.826 166.519 214.019 166.754C213.213 166.989 212.645 167.715 212.613 168.555C212.512 171.042 211.725 172.254 211.082 172.835C211.067 172.847 211.055 172.859 211.039 172.87C210.941 172.019 210.746 170.92 210.409 169.496C210.225 168.727 209.602 168.147 208.827 168.017C208.048 167.888 207.272 168.237 206.85 168.904C203.995 173.427 199.884 174.589 196.379 174.542C198.47 173.506 200.624 171.98 202.335 169.736C205.518 165.561 206.391 159.986 204.931 153.16C204.4 150.686 200.571 151.51 201.101 153.984C202.307 159.622 201.681 164.11 199.237 167.331C195.451 172.321 188.399 172.8 188.328 172.804C187.435 172.859 186.688 173.514 186.519 174.393C186.351 175.275 186.797 176.158 187.608 176.539C189.742 177.539 192.968 178.457 196.449 178.457V178.461Z" fill="#0C1A23"/>
<path d="M40.6602 12.2379C43.5461 7.62817 55.861 11.3905 61.6562 13.8465C60.6734 16.7026 58.6333 22.5285 58.3122 22.9562C57.9128 23.4937 42.2656 26.9735 41.8662 28.1819C41.5451 29.147 38.7023 30.4613 37.3201 30.9948C37.23 26.6636 37.7743 16.8477 40.6641 12.2379H40.6602Z" fill="#FCF4F0"/>
<path d="M43.4685 18.9077C45.442 15.5141 50.2897 18.6135 52.4629 20.5868C52.4629 22.266 52.4629 22.1757 47.7014 23.5018C43.8914 24.5611 41.8826 27.6526 41.354 29.0688C41.2365 27.0955 41.495 22.3013 43.4685 18.9077Z" fill="#DFCAD3"/>
<path d="M36.0079 34.271L37.8482 33.5491C40.1624 32.6428 43.4555 29.0492 43.3694 24.9219C43.2558 19.6021 44.3992 18.0759 45.0923 17.6405C46.0203 17.0559 47.5318 17.562 48.6948 18.1269C50.3276 19.5432 51.6472 20.8732 51.9879 21.3557C52.1171 21.8344 52.4578 22.2306 52.9277 22.4229C54.0006 22.8623 54.7798 22.1051 55.6843 21.2302C56.2913 20.6456 57.0666 19.8492 57.9672 18.9273C59.4473 17.4129 61.1232 15.6945 62.5721 14.3646L64.2754 12.7992L62.1922 11.7949C60.7317 11.0887 47.7354 5.0077 40.7498 8.4209C38.6314 9.45663 37.2335 11.2888 36.7049 13.7172C34.6765 23.0741 35.444 30.3164 35.7298 32.3094L36.0079 34.271ZM46.0947 14.239C45.1041 14.239 44.2113 14.4862 43.4242 14.9844C40.417 16.8833 40.1663 21.6029 40.2407 24.9926C40.276 26.5383 39.4811 28.0488 38.5648 29.1276C38.369 25.9577 38.3964 20.6966 39.7669 14.3842C40.0919 12.8855 40.8633 11.8576 42.1242 11.2417C45.6914 9.49586 52.8454 11.1711 58.7503 13.678C57.7283 14.6824 56.6867 15.7495 55.7274 16.7342C55.1009 17.3737 54.3921 18.1034 53.8204 18.6683C53.1587 17.9347 52.1445 16.9578 50.5939 15.62L50.449 15.4945L50.2806 15.4082C48.7378 14.6274 47.3438 14.2351 46.0986 14.2351L46.0947 14.239Z" fill="#0C1A23"/>
<path d="M141.294 5.82786C151.122 9.47645 147.512 33.0314 144.481 44.3499C137.018 44.3499 119.229 27.6331 111.264 19.2766C117.181 13.2741 131.465 2.17927 141.298 5.82786H141.294Z" fill="#FCF4F0"/>
<path d="M145.027 45.2444C145.896 45.2444 146.691 44.6598 146.922 43.7732C147.631 41.0426 153.59 16.8168 145.281 7.63251C142.724 4.80779 139.212 3.72106 134.838 4.40763L134.795 4.41547C130.437 5.20404 120.04 8.5937 111.896 15.785C111.085 16.5029 111.007 17.7426 111.72 18.5547C112.436 19.3668 113.673 19.4453 114.484 18.7274C121.967 12.1207 131.466 9.00563 135.464 8.27592C138.483 7.80513 140.743 8.45639 142.376 10.2611C147.274 15.6751 146.201 30.9168 143.127 42.7845C142.857 43.832 143.484 44.9031 144.529 45.1777C144.694 45.2208 144.858 45.2405 145.023 45.2405L145.027 45.2444Z" fill="#0C1A23"/>
<path d="M140.55 20.4809C138.8 13.7839 128.682 17.6915 123.842 20.4809C123.247 21.6775 129.61 26.758 133.091 26.9581C135.875 27.119 138.827 34.8634 139.951 38.716C140.879 35.4283 142.297 27.1778 140.546 20.4809H140.55Z" fill="#DFCAD3"/>
<path d="M140.453 38.6966C141.369 38.6966 142.188 38.0492 142.372 37.1116C142.763 35.1186 145.962 17.5191 138.072 13.9607C131.686 11.0811 125.432 15.9145 123.02 18.8726C122.335 19.7121 122.46 20.9479 123.294 21.6345C124.132 22.3211 125.366 22.1955 126.051 21.3599C127.464 19.6297 132.089 15.5692 136.467 17.5426C139.775 19.0334 140.116 28.2844 138.534 36.3623C138.327 37.4255 139.016 38.4573 140.077 38.6652C140.202 38.6887 140.332 38.7005 140.457 38.7005L140.453 38.6966Z" fill="#0C1A23"/>
<path d="M123.83 84.9628C119.848 84.9628 116.614 82.7697 116.614 80.0627C116.614 77.3557 119.84 75.1626 123.83 75.1626C127.82 75.1626 131.047 77.3557 131.047 80.0627C131.047 82.7697 127.82 84.9628 123.83 84.9628Z" fill="#EFBDA0"/>
<path d="M122.602 73.7268C123.267 73.8405 123.925 74.2407 124.446 74.6409C124.982 75.0332 125.844 75.7551 125.844 76.4966C125.844 76.7163 125.687 76.9046 125.483 76.9634C124.771 77.1596 123.765 76.422 123.236 76.0179C122.68 75.5903 122.21 75.2921 121.889 74.637C121.654 74.1505 122.092 73.6248 122.602 73.7228V73.7268Z" fill="#342838"/>
<path d="M81.8533 92.4093C83.1886 90.8635 84.4651 91.8522 84.6766 92.6682C86.6658 96.5247 92.5785 98.0038 92.9387 93.292C93.0719 91.5736 95.1276 92.37 95.0023 94.52C94.5872 101.59 84.5199 99.0709 83.4275 95.4615C80.2362 99.4318 71.6372 100.052 71.2574 93.5038C71.1086 90.9577 73.9984 90.6085 74.3117 92.5034C75.0165 96.7954 79.1084 95.5871 81.8573 92.4132L81.8533 92.4093Z" fill="#342838"/>
<path d="M115.872 68.6107C115.872 68.6107 107.008 55.7457 90.3372 55.0755C73.6664 54.4053 62.319 62.3974 58.2404 67.3643C54.1619 72.3312 73.7477 58.9776 88.9172 59.5538C106.676 60.224 119.95 75.8888 115.872 68.6107Z" fill="#342838"/>
</g>
<defs>
<clipPath id="clip0_1428_3004">
<rect width="228.317" height="199.594" fill="white" transform="matrix(-1 0 0 1 228.846 0.111572)"/>
</clipPath>
</defs>
</svg>
