<svg width="1201" height="1116" viewBox="0 0 1201 1116" fill="none" xmlns="http://www.w3.org/2000/svg">
<ellipse cx="799.052" cy="207.246" rx="107.576" ry="107.7" fill="#EBA91F"/>
<ellipse cx="799.053" cy="207.246" rx="158.592" ry="158.775" fill="#ECB258" fill-opacity="0.3"/>
<ellipse cx="799.054" cy="207.245" rx="206.847" ry="207.086" fill="#EDB361" fill-opacity="0.3"/>
<path d="M316.28 1056.49C284.322 1050.04 266.032 1046.99 235.387 1035.86C100.158 986.741 601.856 998.573 601.856 998.573C601.856 998.573 997.926 954.177 977.521 1030.64C946.043 1041.29 927.507 1044.72 894.789 1050.52C858.756 1056.91 836.997 1051.27 801.639 1060.71C780.203 1066.44 769.538 1073.85 748.323 1080.35C705.032 1093.6 676.286 1084.43 634.337 1101.47C626.06 1104.84 621.982 1108.11 613.501 1110.92C566.544 1126.46 541.069 1083.3 492.774 1072.64C425.184 1057.73 384.129 1070.17 316.28 1056.49Z" fill="#7E7E7E"/>
<path d="M212.713 1036.11C199.774 1031.76 193.997 1025.85 181.46 1020.45C160.008 1011.2 146.57 1009.85 124.465 1002.3C422.603 941.078 1084.15 989.128 1084.15 989.128C1084.15 989.128 1070.97 1001.34 1061.48 1007.77C1038.91 1023.08 1023.27 1028.11 996.519 1033.37C955.99 1041.34 932.088 1019.48 891.112 1024.67C861.242 1028.46 846.544 1040.19 816.961 1045.8C778.304 1053.12 754.566 1062.54 716.456 1052.76C688.425 1045.56 679.759 1016.29 650.885 1018.21C628.132 1019.72 617.92 1032.47 599.408 1045.8C583.687 1057.12 580.396 1071.38 562.637 1079.11C519.768 1097.76 502.349 1030.78 456.005 1024.67C407.231 1018.25 381.126 1064.82 333.31 1053.24C316.47 1049.17 309.146 1040.48 292.382 1036.11C262.276 1028.24 242.208 1046.02 212.713 1036.11Z" fill="#6D6D6D"/>
<path d="M267.866 998.572C249.334 996.313 243.628 1016.22 225.527 1020.79C184.513 1031.16 131.554 1034.92 94.4358 998.572C75.5391 980.068 47.4824 954.931 61.8675 939.167L1166.27 939.168C1166.27 939.168 1135.38 971.111 1110.5 983.628C1084.47 996.73 1067.3 1000.72 1038.19 1002.05C1005.87 1003.53 989.03 986.253 956.685 987.139C914.622 988.291 895.806 1018.56 853.729 1018.95C834.93 1019.13 823.408 1006.31 805.929 1013.24C782.846 1022.39 798.016 1060.19 774.675 1068.67C742.491 1080.35 742.52 1022.38 711.553 1007.77C662.401 984.577 627.326 1018.88 573.022 1020.79C540.267 1021.95 521.822 1022.6 489.097 1020.79C441.834 1018.19 415.696 996.886 368.983 1004.54C342.004 1008.96 328.929 1035.4 302.797 1027.36C285.907 1022.17 285.406 1000.71 267.866 998.572Z" fill="#5E5E5E"/>
<path d="M138.451 970.488C116.809 973.467 106.683 992.402 85.2963 987.941C59.1499 982.487 40.7461 935.993 40.7461 935.993L1181.83 929.217L1166.14 940.305C1166.14 940.305 1109.1 977.436 1068.43 976.442C1048.29 975.951 1056.78 962.252 1036.74 960.156C1005.51 956.888 968.448 966.05 938.807 976.442C918.425 983.589 911.348 995.916 889.887 998.325C865.753 1001.03 870.121 988.79 845.948 986.462C826.524 984.591 799.609 973.69 782.029 982.169C767.311 989.267 765.77 1003.52 750.775 1010.01C728.056 1019.84 712.378 1005.02 687.631 1004.5C644.359 1003.59 617.51 1025.58 574.237 1024.72C538.427 1024.02 521.986 1003.87 486.175 1004.5C467.868 1004.82 455.214 1001.29 437.187 1004.5C411.594 1009.05 398.065 1042.24 375.978 1028.52C357.355 1016.95 372.195 992.132 358.241 975.21C326.39 936.583 280.527 989.155 230.589 986.093C194.164 983.859 174.605 965.512 138.451 970.488Z" fill="#474747"/>
<path d="M491.523 1042.39C489.077 1053.95 489.077 1061.09 491.523 1072.64C551.732 1088.03 565.862 1128.83 614.067 1110.52C629.089 1093.83 502.788 989.175 491.523 1042.39Z" fill="#A5A5A5"/>
<path d="M674.009 1043.33C665.523 1059.71 667.906 1076.71 680.567 1090.12C716.272 1089.08 732.34 1085.2 747.217 1081.03C755.101 1057.5 688.657 1015.06 674.009 1043.33Z" fill="#A5A5A5"/>
<path d="M867.773 1035.53C856.451 1041.87 845.58 1042.75 840.684 1054.77C879.239 1054.77 888.786 1050.5 895.838 1050.5C914.407 1042.38 933.195 1036.28 934.668 1016.04C936.647 988.874 891.522 1022.24 867.773 1035.53Z" fill="#A5A5A5"/>
<path d="M391.82 1039.59C408.019 1022.5 316.228 1034.86 309.832 1055.12C331.703 1060.48 344.497 1060.93 360.564 1062.27C374.79 1058.03 382.356 1051.03 391.82 1039.59Z" fill="#A5A5A5"/>
<path d="M808.757 907.575C800.588 914.909 780.041 929.431 762.931 929.137C762.795 929.21 762.708 929.211 762.679 929.131C762.763 929.134 762.847 929.135 762.931 929.137C764.681 928.192 774.596 915.267 774.596 907.575C774.199 907.575 736.463 922.498 715.014 907.575C716.205 907.575 758.707 882.149 766.652 869.989C766.254 870.542 716.205 874.963 700.316 857.829C700.713 856.725 768.009 817.614 774.563 802.082C773.991 802.929 766.177 807.649 760.416 804.892C760.404 804.893 760.399 804.89 760.399 804.883C760.404 804.886 760.41 804.889 760.416 804.892C760.993 804.846 775.996 795.447 777.874 789.893C777.874 790.226 734.065 802.885 722.574 789.893C723.292 789.893 777.844 755.6 783.615 739.271C783.157 739.91 749.798 738.84 740.05 726.599C740.527 727.263 780.891 706.782 790.445 689.504C788.469 691.457 762.348 700.541 752.259 691.288C752.259 691.621 801.574 633.99 805.166 612.004C804.45 613.664 785.194 618.962 781.504 617.022C781.486 617.024 781.473 617.017 781.465 617.001C781.478 617.008 781.491 617.015 781.504 617.022C782.668 616.929 805.431 583.159 807.081 570.697C807.081 571.03 793.435 575.36 787.45 575.36C787.929 575.36 808.517 543.047 809.953 532.387C810.337 532.121 802.293 534.053 798.223 535.052C803.57 527.502 814.55 511.134 815.699 506.071C815.89 506.071 808.756 510.512 805.166 512.733C810.432 498.076 820.774 466.562 820.008 457.768C820.48 458.424 826.987 500.429 831.757 514.116C831.9 514.333 831.978 514.54 831.978 514.732C831.905 514.534 831.831 514.328 831.757 514.116C830.714 512.526 826.226 510.379 823.838 509.402C827.905 528.376 838.904 571.898 850.386 594.299C850.422 594.318 850.431 594.335 850.411 594.349C850.403 594.332 850.394 594.315 850.386 594.299C849.612 593.882 836.525 592.166 833.658 589.383C835.924 593.117 845.428 610.922 850.411 620.332L840.596 617.001C847.618 634.435 863.913 671.833 872.915 681.96C871.723 680.634 850.352 679.307 843.317 671.729C844.861 674.543 864.753 735.398 888.715 751.583C888.475 751.583 869.324 756.247 858.311 751.583C864.695 763.798 882.107 790.293 900.684 798.554C900.924 799.22 868.845 810.78 853.284 802.002C853.523 802.002 880.536 836.812 925.722 855.477C925.787 855.467 925.821 855.48 925.821 855.518C925.788 855.505 925.755 855.491 925.722 855.477C924.056 855.727 901.832 870.643 886.632 866.863C888.19 867.346 913.206 877.409 925.821 882.501C918.566 888.048 900.575 898.405 886.6 895.502C887.31 895.902 897.283 904.881 902.36 909.485C891.268 912.372 864.679 913.948 847.06 897.159C847.299 898.158 855.917 919.819 860.466 924.475C859.987 925.141 818.093 919.656 808.757 907.575Z" fill="url(#paint0_linear_757_2958)"/>
<path d="M82.1852 910.066C75.9995 915.62 60.4417 926.616 47.4861 926.393C47.3829 926.449 47.3172 926.45 47.2955 926.389C47.3589 926.391 47.4225 926.392 47.4861 926.393C48.8111 925.678 56.3187 915.891 56.3187 910.066C56.0179 910.066 27.4446 921.367 11.2029 910.066C12.1052 910.066 44.2877 890.814 50.3032 881.606C50.0024 882.025 12.1051 885.373 0.0742188 872.399C0.374474 871.563 51.3308 841.948 56.2935 830.188C55.8606 830.829 49.9439 834.402 45.5813 832.315C45.5727 832.316 45.5684 832.314 45.5684 832.309C45.5727 832.311 45.577 832.313 45.5813 832.315C46.0188 832.28 57.3789 825.163 58.8011 820.958C58.8011 821.21 25.6286 830.795 16.9277 820.958C17.4713 820.958 58.7784 794.991 63.148 782.627C62.8014 783.111 37.5414 782.301 30.1604 773.032C30.5214 773.534 61.0852 758.026 68.3198 744.943C66.8236 746.423 47.0446 753.3 39.4052 746.294C39.4052 746.546 76.7467 702.908 79.466 686.26C78.9241 687.517 64.3431 691.529 61.5495 690.06C61.5356 690.061 61.5258 690.056 61.5202 690.044C61.5298 690.05 61.5396 690.055 61.5495 690.06C62.4307 689.99 79.6668 664.419 80.9161 654.983C80.9161 655.235 70.5837 658.514 66.0519 658.514C66.4145 658.514 82.0037 634.046 83.0914 625.975C83.3814 625.773 77.2907 627.236 74.2091 627.993C78.2575 622.275 86.5717 609.882 87.4418 606.048C87.5869 606.048 82.185 609.411 79.466 611.093C83.4539 599.994 91.2848 576.132 90.7047 569.473C91.0617 569.969 95.9891 601.776 99.6013 612.14C99.7091 612.304 99.7682 612.461 99.7682 612.606C99.7129 612.456 99.6573 612.301 99.6013 612.14C98.8115 610.935 95.4129 609.31 93.605 608.57C96.6843 622.937 105.013 655.892 113.707 672.854C113.734 672.869 113.741 672.881 113.726 672.892C113.72 672.879 113.713 672.867 113.707 672.854C113.121 672.538 103.211 671.239 101.041 669.132C102.756 671.959 109.953 685.441 113.726 692.567L106.294 690.044C111.611 703.245 123.95 731.563 130.765 739.231C129.863 738.227 113.681 737.222 108.354 731.484C109.524 733.615 124.586 779.694 142.729 791.95C142.548 791.95 128.046 795.481 119.708 791.95C124.542 801.199 137.726 821.26 151.793 827.516C151.974 828.021 127.684 836.774 115.901 830.127C116.082 830.127 136.536 856.485 170.751 870.618C170.801 870.611 170.826 870.621 170.826 870.649C170.801 870.639 170.776 870.629 170.751 870.618C169.49 870.807 152.661 882.102 141.152 879.239C142.332 879.605 161.274 887.225 170.826 891.081C165.333 895.281 151.71 903.123 141.128 900.925C141.666 901.228 149.217 908.027 153.062 911.513C144.663 913.699 124.53 914.893 111.188 902.18C111.37 902.936 117.895 919.338 121.339 922.863C120.977 923.368 89.2549 919.215 82.1852 910.066Z" fill="url(#paint1_linear_757_2958)"/>
<path d="M853.965 783.969L858.152 685.024C858.152 685.024 832.491 709.758 831.769 709.34C831.048 708.922 831.769 698.859 831.769 698.859C824.929 706.965 810.16 722.17 805.805 718.145C801.45 714.12 802.036 710.598 802.874 709.34C800.64 712.275 795.168 717.474 791.148 714.791C787.128 712.107 787.797 708.083 788.635 706.405C783.051 707.943 771.884 710.095 771.884 706.405C771.884 701.794 815.017 686.7 820.043 681.25C825.068 675.8 809.992 680.412 809.992 676.638C809.992 672.865 838.492 665.935 842.238 664.061C858.152 656.094 858.152 654.396 858.152 640.236V632.174C858.152 630.212 834.303 639.166 834.303 639.166L832.167 636.626L858.152 627.003V576.832L802.874 604.524L795.41 599.05L858.152 570.555V551.699C858.152 527.616 821.157 542.213 824.561 532.017C837.132 524.673 846.318 526.712 848.328 518.327C832.307 522.995 797.716 529.377 797.864 522.564C798.012 515.75 814.074 513.985 816.91 512.133C808.834 513.553 760.638 514.645 760.343 511.238C759.973 506.979 797.01 498.843 797.01 495.696C797.01 492.548 786.719 492.784 785.794 489.637C784.869 486.489 841.755 477.996 840.645 477.996L840.575 477.996C838.682 477.997 811.39 478.014 810.115 475.097C808.82 472.135 858.152 465.792 858.152 461.786C858.152 459.745 858.306 454.698 858.442 448.985L831.653 454.656L829.98 452.143L858.604 443.314C858.702 436.244 858.654 427.215 858.152 425.624C857.042 422.106 819.79 433.132 818.695 427.022C823.026 423.759 824.935 424.193 829.097 417.586H804.686C803.673 413.821 822.786 409.477 837.007 402.737C850.529 396.329 859.169 387.451 859.241 386.295C859.634 380.01 859.368 373.437 858.786 367.188L842.904 370.936L854.078 358.153L837.007 362.399L851.474 351.488L832.972 353.687C843.76 345.973 855.741 328.385 857.073 321.275C857.813 322.942 868.476 341.261 884.03 348.252C890.962 351.367 867.81 349.65 865.529 349.65L888.138 358.153C882.198 361.698 869.798 356.641 869.798 356.641L878.489 363.359C876.636 365.662 865.529 361.951 865.529 361.951C865.529 361.951 865.939 365.742 865.939 368.112C870.909 373.23 883.548 380.15 883.548 380.15C875.406 381.05 865.529 374.984 865.529 374.984V386.295C880.386 393.64 894.954 407.862 908.989 412.957C906.841 413.595 887.606 414.768 883.415 413.595C888.447 424.106 908.989 430.013 914.603 433.703C912.828 437.406 881.249 431.217 866.804 424.847L867.433 450.821C878.837 457.733 923.931 463.687 923.044 465.909C922.156 468.131 906.417 465.397 905.106 467.625C913.175 479.613 941.081 483.745 943.612 485.597C943.612 491.948 936.195 493.05 930.277 492.433C936.935 496.383 953.123 500.939 950.607 503.309C948.092 505.679 908.989 511.917 895.304 511.238C900.42 514.328 913.379 521.889 910.568 523.507C907.517 525.264 940.806 537.576 947.199 538.725C947.474 538.621 947.752 538.513 948.033 538.403C948.52 538.817 948.168 538.899 947.199 538.725C927.882 546.056 923.064 538.062 923.044 542.19C938.383 551.07 963.452 558.602 963.452 564.022C963.452 564.022 950.862 565.126 948.033 565.172C945.203 565.217 891.112 551.699 891.112 551.699C891.112 551.699 905.106 564.022 902.103 565.172C899.1 566.321 875.701 555.318 875.701 555.318L875.546 596.197L925.304 612.367C925.304 614.154 921.046 613.862 921.02 616.952C921.007 618.545 875.631 598.284 875.612 600.157C875.593 602.083 875.546 623.155 875.546 623.155C875.546 623.155 907.952 637.243 921.02 637.572C937.355 637.984 920.28 646.118 912.257 642.721C904.234 639.324 923.771 653.159 943.612 656.094C963.452 659.029 919.457 664.113 912.257 656.094C912.943 661.959 922.359 670.964 948.033 673.324C949.659 678.689 934.064 684.243 926.658 679.794C921.02 679.588 937.767 693.799 953.813 694.211C959.367 694.005 955.625 700.418 948.033 698.859C940.441 697.3 945.378 706.405 958.956 706.405C966.019 710.983 935.955 718.145 908.128 692.923C909.247 702.443 934.249 709.99 926.658 711.388C917.338 712.37 899.065 707.143 891.269 700.277C894.47 703.478 902.025 711.262 903.44 714.791C891.221 711.388 885.461 707.806 875.383 696.48C875.658 727.209 876.248 753.259 877.365 783.969H853.965Z" fill="url(#paint2_linear_757_2958)"/>
<path d="M280.8 842.531L283.517 772.416C266.425 766.925 230.815 754.085 225.11 746.651C217.979 737.359 204.057 758.9 200.321 754.254C197.333 750.537 201.114 741.161 203.378 736.937C189.342 742.287 159.03 750.453 150.065 740.316C163.082 735.951 190.881 722.914 197.944 705.681C197.605 706.103 181.985 709.905 177.91 705.681C174.65 702.301 180.853 695.262 184.362 692.164C172.703 693.713 148.231 694.783 143.613 686.673C140.897 683.717 222.393 649.504 233.939 616.981C235.637 611.913 225.11 615.714 225.11 612.335C225.11 608.956 237.674 598.819 242.428 597.552C242.768 596.284 197.265 600.931 193.191 595.017C189.931 590.287 207.679 581.783 216.961 578.122C208.924 578.263 192.444 577.531 190.814 573.476C188.776 568.408 233.939 551.09 245.145 533.772C244.126 534.195 237.335 535.462 235.637 531.238C233.939 527.014 278.083 508.007 280.8 480.553C280.8 479.286 256.351 492.802 245.145 490.69C236.18 489.001 255.671 473.372 266.538 465.769L250.238 463.235C267.058 451.798 302.071 420.079 308.801 384.008C308.886 383.346 308.95 382.982 308.984 382.982C308.925 383.325 308.864 383.667 308.801 384.008C308.036 389.964 305.623 420.067 308.984 426.91C312.719 434.512 334.452 464.501 355.166 468.725H332.754C337.961 474.075 348.103 485.366 347.016 487.732C345.929 490.098 324.378 483.932 313.738 480.553C315.549 487.029 320.529 500.573 325.963 502.938C332.754 505.895 375.2 528.704 386.406 531.238C385.863 531.238 371.691 532.927 364.674 533.772L380.633 548.555H364.674C377.577 558.411 403.724 579.304 405.082 584.035C406.441 586.992 382.671 584.035 380.633 584.035C378.596 584.035 392.179 596.284 386.406 601.775C381.788 606.168 353.468 599.1 339.885 595.017V604.309C350.072 616.417 374.725 642.239 391.839 648.659C395.574 650.349 370.446 655.417 355.166 641.901C361.391 653.446 382.467 678.564 416.967 686.673C422.4 686.673 385.048 697.655 377.577 692.164C384.595 698.5 402.298 712.101 416.967 715.818L401.008 723.843C413.345 726.236 437.885 731.614 437.342 733.98C436.662 736.937 387.425 746.652 358.561 740.316C350.412 736.937 379.615 755.099 377.577 760.167C375.947 764.222 331.169 761.857 308.984 760.167C316.681 763.828 331.464 772.163 329.019 776.218C326.574 780.273 307.626 777.907 298.457 776.218L305.249 842.531H280.8Z" fill="url(#paint3_linear_757_2958)"/>
<path d="M168.965 880.44C180.995 888.751 209.467 905.916 227.447 908.34C227.56 908.437 227.629 908.449 227.65 908.366C227.582 908.358 227.515 908.349 227.447 908.34C225.597 906.732 212.135 881.984 213.16 877.539C213.522 877.539 255.492 898.548 276.877 900.022C276.914 900.047 276.928 900.048 276.916 900.025C276.903 900.024 276.89 900.023 276.877 900.022C275.747 899.28 252.992 877.393 249.766 870.327C250.771 871.063 286.941 872.36 299.738 867.022C298.652 867.747 236.344 824.226 224.752 807.181C230.306 808.027 242.719 809.212 247.936 807.181C249.747 807.181 221.854 792.311 218.593 785.783C219.317 785.421 242.462 790.127 254.425 787.965C254.455 787.979 254.466 787.978 254.456 787.959C254.446 787.961 254.436 787.963 254.425 787.965C253.283 787.414 224.063 763.185 218.641 753.231C219.887 754.49 245.321 759.534 260.877 754.986C260.926 754.99 260.959 754.98 260.977 754.957C260.944 754.966 260.911 754.976 260.877 754.986C257.959 754.742 200.409 705.039 196.134 691.126C195.409 690.038 219.68 699.105 232.721 693.665C231.997 693.665 188.896 651.602 184.18 633.466C184.476 633.548 192.177 634.692 196.134 635.275L179.108 608.437L198.669 612.789C190.458 600.7 173.529 573.766 171.5 562.741C171.138 562.015 183.455 569.631 188.526 568.906C181.248 556.124 166.423 528.87 164.675 520.947C165.256 521.819 169.327 523.028 171.5 523.572L164.618 494.559C159.667 515.956 147.881 560.782 140.347 568.906C140.926 568.906 148.558 564.796 152.301 562.741C145.418 577.489 130.276 608.147 124.77 612.789C125.639 612.789 137.69 609.888 143.607 608.437C136.724 630.923 118.611 678.941 101.223 691.126C101.803 691.126 114.989 688.709 121.509 687.5C109.488 711.332 82.0978 759.994 67.4394 766.661C67.0293 766.807 66.8091 766.898 66.8091 766.925C67.0164 766.846 67.2266 766.758 67.4394 766.661C71.4705 765.226 93.8427 758.468 105.57 754.957L71.1561 795.576C79.2464 795.455 97.0935 794.488 103.759 791.586C105.57 791.224 61.013 853.603 24.0631 867.022C25.1499 867.022 54.4924 870.285 66.8091 867.022C62.945 874.638 54.5649 890.886 51.9566 894.948C67.7751 895.189 103.831 892.626 121.509 880.44L124.77 905.828C136.12 900.75 160.85 888.564 168.965 880.44Z" fill="url(#paint4_linear_757_2958)"/>
<path d="M360.525 870.416C348.248 878.346 317.371 894.048 291.657 893.73C291.453 893.809 291.322 893.81 291.279 893.724C291.405 893.726 291.531 893.728 291.657 893.73C294.287 892.708 309.188 878.733 309.188 870.416C308.591 870.416 251.881 886.552 219.646 870.416C221.437 870.416 285.31 842.925 297.249 829.777C296.652 830.375 221.436 835.156 197.559 816.629C198.155 815.436 299.288 773.148 309.138 756.355C308.278 757.27 296.536 762.373 287.877 759.392C287.86 759.393 287.851 759.39 287.851 759.383C287.86 759.386 287.869 759.389 287.877 759.392C288.745 759.342 311.292 749.18 314.115 743.175C314.115 743.535 248.277 757.222 231.008 743.175C232.087 743.175 314.069 706.097 322.742 688.442C322.054 689.132 271.92 687.975 257.271 674.74C257.988 675.457 318.648 653.313 333.006 634.631C330.037 636.744 290.781 646.565 275.619 636.56C275.619 636.92 349.731 574.609 355.128 550.836C354.053 552.631 325.114 558.36 319.569 556.262C319.542 556.264 319.522 556.256 319.511 556.239C319.53 556.247 319.55 556.255 319.569 556.262C321.318 556.162 355.527 519.648 358.006 506.174C358.006 506.534 337.5 511.216 328.505 511.216C329.225 511.216 360.165 476.278 362.324 464.752C362.899 464.464 350.811 466.553 344.695 467.634C352.723 459.476 369.204 441.802 370.954 436.311C370.59 436.592 360.359 441.174 355.128 443.502C363.043 427.654 378.585 393.58 377.434 384.071C378.143 384.781 387.922 430.198 395.091 444.997C395.305 445.232 395.422 445.455 395.422 445.663C395.313 445.448 395.202 445.227 395.091 444.997C393.524 443.277 386.778 440.956 383.19 439.9C389.302 460.415 405.831 507.473 423.086 531.693C423.141 531.714 423.155 531.732 423.125 531.747C423.112 531.729 423.099 531.711 423.086 531.693C421.924 531.242 402.256 529.387 397.948 526.378C401.353 530.415 415.636 549.666 423.125 559.841L408.374 556.239C418.927 575.089 443.416 615.526 456.943 626.475C455.152 625.041 423.035 623.606 412.464 615.413C414.784 618.455 444.678 684.253 480.688 701.754C480.328 701.754 451.547 706.796 434.997 701.754C444.591 714.961 470.758 743.607 498.676 752.54C499.036 753.26 450.827 765.759 427.442 756.268C427.801 756.268 468.396 793.906 536.303 814.087C536.401 814.076 536.452 814.09 536.452 814.131C536.402 814.117 536.353 814.102 536.303 814.087C533.8 814.357 500.4 830.485 477.558 826.397C479.899 826.92 517.494 837.8 536.452 843.306C525.55 849.304 498.512 860.502 477.51 857.362C478.577 857.796 493.564 867.504 501.195 872.481C484.525 875.603 444.567 877.308 418.088 859.154C418.448 860.235 431.399 883.655 438.235 888.69C437.516 889.41 374.556 883.479 360.525 870.416Z" fill="url(#paint5_linear_757_2958)"/>
<path d="M1079.28 907.575C1071.11 914.909 1050.56 929.431 1033.45 929.137C1033.32 929.21 1033.23 929.211 1033.2 929.131C1033.29 929.134 1033.37 929.135 1033.45 929.137C1035.2 928.192 1045.12 915.267 1045.12 907.575C1044.72 907.575 1006.99 922.498 985.537 907.575C986.729 907.575 1029.23 882.149 1037.18 869.989C1036.78 870.542 986.729 874.963 970.84 857.829C971.236 856.725 1038.53 817.614 1045.09 802.082C1044.51 802.929 1036.7 807.649 1030.94 804.892C1030.93 804.893 1030.92 804.89 1030.92 804.883C1030.93 804.886 1030.93 804.889 1030.94 804.892C1031.52 804.846 1046.52 795.447 1048.4 789.893C1048.4 790.226 1004.59 802.885 993.097 789.893C993.815 789.893 1048.37 755.6 1054.14 739.271C1053.68 739.91 1020.32 738.84 1010.57 726.599C1011.05 727.263 1051.41 706.782 1060.97 689.504C1058.99 691.457 1032.87 700.541 1022.78 691.288C1022.78 691.621 1072.1 633.99 1075.69 612.004C1074.97 613.664 1055.72 618.962 1052.03 617.022C1052.01 617.024 1052 617.017 1051.99 617.001C1052 617.008 1052.01 617.015 1052.03 617.022C1053.19 616.929 1075.95 583.159 1077.6 570.697C1077.6 571.03 1063.96 575.36 1057.97 575.36C1058.45 575.36 1079.04 543.047 1080.48 532.387C1080.86 532.121 1072.82 534.053 1068.75 535.052C1074.09 527.502 1085.07 511.134 1086.22 506.071C1086.41 506.071 1079.28 510.512 1075.69 512.733C1080.96 498.076 1091.3 466.562 1090.53 457.768C1091 458.424 1097.51 500.429 1102.28 514.116C1102.42 514.333 1102.5 514.54 1102.5 514.732C1102.43 514.534 1102.35 514.328 1102.28 514.116C1101.24 512.526 1096.75 510.379 1094.36 509.402C1098.43 528.376 1109.43 571.898 1120.91 594.299C1120.95 594.318 1120.95 594.335 1120.93 594.349C1120.93 594.332 1120.92 594.315 1120.91 594.299C1120.14 593.882 1107.05 592.166 1104.18 589.383C1106.45 593.117 1115.95 610.922 1120.93 620.332L1111.12 617.001C1118.14 634.435 1134.44 671.833 1143.44 681.96C1142.25 680.634 1120.88 679.307 1113.84 671.729C1115.38 674.543 1135.28 735.398 1159.24 751.583C1159 751.583 1139.85 756.247 1128.83 751.583C1135.22 763.798 1152.63 790.293 1171.21 798.554C1171.45 799.22 1139.37 810.78 1123.81 802.002C1124.05 802.002 1151.06 836.812 1196.25 855.477C1196.31 855.467 1196.34 855.48 1196.34 855.518C1196.31 855.505 1196.28 855.491 1196.25 855.477C1194.58 855.727 1172.36 870.643 1157.16 866.863C1158.71 867.346 1183.73 877.409 1196.34 882.501C1189.09 888.048 1171.1 898.405 1157.12 895.502C1157.83 895.902 1167.81 904.881 1172.88 909.485C1161.79 912.372 1135.2 913.948 1117.58 897.159C1117.82 898.158 1126.44 919.819 1130.99 924.475C1130.51 925.141 1088.62 919.656 1079.28 907.575Z" fill="url(#paint6_linear_757_2958)"/>
<path d="M957.125 844.896C942.673 854.23 906.326 872.713 876.057 872.339C875.816 872.433 875.663 872.434 875.612 872.332C875.76 872.335 875.909 872.337 876.057 872.339C879.153 871.137 896.693 854.686 896.693 844.896C895.99 844.896 829.234 863.89 791.289 844.896C793.397 844.896 868.585 812.535 882.639 797.058C881.936 797.761 793.397 803.389 765.289 781.58C765.991 780.176 885.04 730.396 896.634 710.628C895.623 711.706 881.8 717.713 871.607 714.204C871.587 714.205 871.577 714.202 871.577 714.193C871.587 714.197 871.597 714.2 871.607 714.204C872.629 714.145 899.17 702.183 902.493 695.114C902.493 695.538 824.992 711.65 804.664 695.114C805.934 695.114 902.44 651.467 912.648 630.685C911.839 631.497 852.824 630.136 835.579 614.556C836.423 615.4 907.829 589.333 924.731 567.342C921.236 569.829 875.026 581.389 857.178 569.612C857.178 570.036 944.419 496.686 950.772 468.703C949.506 470.815 915.441 477.559 908.914 475.089C908.881 475.091 908.858 475.083 908.845 475.063C908.868 475.072 908.891 475.081 908.914 475.089C910.973 474.971 951.241 431.989 954.16 416.128C954.16 416.552 930.02 422.064 919.433 422.064C920.28 422.064 956.701 380.937 959.242 367.369C959.92 367.03 945.69 369.489 938.49 370.761C947.941 361.159 967.341 340.353 969.401 333.89C968.973 334.22 956.929 339.614 950.772 342.354C960.089 323.698 978.384 283.589 977.029 272.396C977.863 273.231 989.375 326.693 997.814 344.114C998.066 344.391 998.204 344.654 998.204 344.898C998.075 344.646 997.945 344.384 997.814 344.114C995.969 342.09 988.029 339.358 983.805 338.114C990.999 362.264 1010.46 417.657 1030.77 446.168C1030.83 446.193 1030.85 446.214 1030.81 446.232C1030.8 446.21 1030.78 446.189 1030.77 446.168C1029.4 445.637 1006.25 443.453 1001.18 439.912C1005.19 444.664 1022 467.326 1030.81 479.303L1013.45 475.063C1025.87 497.252 1054.7 544.852 1070.62 557.741C1068.51 556.052 1030.71 554.363 1018.26 544.719C1021 548.3 1056.19 625.754 1098.57 646.355C1098.15 646.355 1064.27 652.291 1044.79 646.355C1056.08 661.901 1086.89 695.623 1119.75 706.138C1120.17 706.986 1063.42 721.699 1035.9 710.526C1036.32 710.526 1084.1 754.832 1164.04 778.588C1164.16 778.575 1164.22 778.592 1164.22 778.64C1164.16 778.623 1164.1 778.605 1164.04 778.588C1161.09 778.905 1121.78 797.891 1094.89 793.079C1097.65 793.694 1141.9 806.501 1164.22 812.983C1151.38 820.043 1119.56 833.225 1094.83 829.529C1096.09 830.039 1113.73 841.467 1122.71 847.326C1103.09 851.001 1056.05 853.008 1024.88 831.639C1025.31 832.911 1040.55 860.479 1048.6 866.406C1047.75 867.254 973.642 860.272 957.125 844.896Z" fill="url(#paint7_linear_757_2958)"/>
<path d="M766.008 844.045C778.901 854.503 809.419 876.105 828.69 879.156C828.81 879.279 828.885 879.294 828.907 879.189C828.835 879.178 828.762 879.167 828.69 879.156C826.707 877.133 812.278 845.987 813.376 840.394C813.764 840.394 858.748 866.833 881.669 868.688C881.709 868.719 881.724 868.721 881.711 868.692C881.697 868.69 881.683 868.689 881.669 868.688C880.458 867.754 856.069 840.209 852.611 831.317C853.688 832.243 892.455 833.876 906.172 827.157C905.007 828.07 838.225 773.3 825.801 751.848C831.754 752.913 845.059 754.404 850.65 751.848C852.591 751.848 822.694 733.135 819.2 724.919C819.976 724.463 844.782 730.386 857.605 727.665C857.637 727.683 857.648 727.681 857.638 727.658C857.627 727.66 857.616 727.663 857.605 727.665C856.381 726.972 825.063 696.48 819.251 683.953C820.586 685.537 847.847 691.884 864.52 686.161C864.572 686.166 864.608 686.154 864.627 686.124C864.592 686.136 864.556 686.149 864.52 686.161C861.393 685.854 799.71 623.303 795.128 605.794C794.351 604.425 820.365 615.835 834.342 608.989C833.566 608.989 787.37 556.053 782.316 533.229C782.633 533.333 790.887 534.772 795.128 535.505L776.879 501.73L797.845 507.207C789.045 491.993 770.9 458.097 768.725 444.222C768.337 443.309 781.538 452.894 786.974 451.981C779.173 435.895 763.284 401.596 761.41 391.625C762.033 392.721 766.396 394.244 768.725 394.929L761.348 358.415C756.042 385.344 743.41 441.757 735.334 451.981C735.956 451.981 744.135 446.808 748.147 444.222C740.77 462.783 724.541 501.365 718.639 507.207C719.571 507.207 732.487 503.556 738.829 501.73C731.452 530.028 712.038 590.459 693.402 605.794C694.023 605.794 708.156 602.751 715.145 601.23C702.26 631.223 672.903 692.463 657.192 700.854C656.752 701.038 656.516 701.152 656.516 701.186C656.739 701.087 656.964 700.976 657.192 700.854C661.513 699.048 685.491 690.543 698.061 686.124L661.176 737.243C669.847 737.091 688.975 735.874 696.12 732.222C698.061 731.766 650.304 810.27 610.701 827.157C611.866 827.157 643.315 831.264 656.516 827.157C652.375 836.742 643.393 857.19 640.597 862.302C657.552 862.606 696.197 859.38 715.145 844.045L718.639 875.995C730.805 869.605 757.311 854.268 766.008 844.045Z" fill="url(#paint8_linear_757_2958)"/>
<path d="M164.936 902.703L171.413 749.656C171.413 749.656 131.721 787.915 130.605 787.269C129.488 786.622 130.605 771.056 130.605 771.056C120.025 783.594 97.1804 807.113 90.4438 800.887C83.7071 794.662 84.6142 789.214 85.9098 787.269C82.455 791.808 73.9907 799.85 67.7722 795.699C61.5537 791.549 62.59 785.323 63.8854 782.729C55.2485 785.107 37.9747 788.436 37.9747 782.729C37.9747 775.596 104.693 752.25 112.466 743.819C120.24 735.389 96.9203 742.522 96.9203 736.686C96.9203 730.849 146.798 723.716 146.798 717.231C146.798 710.746 108.58 726.31 102.75 721.77C98.0863 718.139 107.284 712.043 112.466 709.449C101.023 709.881 77.8763 709.578 76.8399 704.909C75.5444 699.072 171.413 689.345 171.413 678.969V605.04L107.284 640.707L96.9203 635.519L171.413 596.609V543.431L120.887 596.609V579.099C104.478 594.231 70.8817 622.548 67.7722 614.767C64.6627 606.985 63.8854 599.419 63.8854 596.609C57.1918 604.391 42.6387 617.62 37.9747 608.282C33.3107 598.943 36.0314 592.718 37.9747 590.772C26.7467 594.663 4.42035 600.111 4.93855 590.772C5.58631 579.099 98.2158 548.619 102.75 540.189C107.284 531.758 76.8399 538.891 76.8399 532.406C76.8399 527.218 117 517.275 137.08 512.952C129.091 509.709 113.89 499.982 117 487.012C92.2192 494.234 42.7149 506.043 42.9437 495.504C43.1726 484.965 52.0021 476.602 56.3882 473.739C43.8972 475.934 18.8008 479.008 18.3431 473.739C17.771 467.151 76.8399 439.659 76.8399 434.79C76.8399 429.922 59.2488 437.654 57.8185 432.785C56.3882 427.917 87.8542 415.029 86.1378 415.029C84.4215 415.029 46.9485 419.611 44.9461 415.029C42.9437 410.448 137.341 379.518 140.774 374.363C144.207 369.208 160.226 355.462 158.509 350.021C156.793 344.579 108.979 368.923 107.284 359.472C105.928 351.911 119.511 340.665 126.471 335.988H88.7123C116.746 319.759 172.869 286.386 173.098 282.72C173.327 279.054 173.194 271.265 173.098 267.828C166.328 270.597 152.159 274.988 149.642 270.406C147.124 265.824 150.691 262.387 152.788 261.242L142.49 259.809L168.807 242.34L149.642 240.335L161.084 233.748L130.19 231.17C146.877 219.238 180.764 192.623 182.824 181.626C183.968 184.203 190.834 219.142 224.302 233.748H212.574L217.437 242.34L201.417 233.748L203.992 248.067L195.696 244.058L224.302 273.555L207.139 270.406L208.855 280.715L191.12 267.828L195.696 278.424L182.824 270.406V287.588C205.804 298.948 251.42 323.099 250.047 328.827C248.674 334.556 235.363 332.36 228.879 330.546C241.274 338.469 265.379 355.748 262.633 361.475C259.887 367.203 220.678 352.406 201.417 344.292L220.583 374.363C238.223 385.055 273.16 407.296 271.787 410.733C270.414 414.17 262.086 409.004 260.059 412.451C259.162 429.643 340.611 460.564 339.009 465.146C337.408 469.728 318.7 468.965 309.546 468.01C319.844 474.119 339.467 487.254 335.577 490.921C331.686 494.587 288.378 493.403 267.21 492.352C275.124 497.132 289.865 507.318 285.517 509.822C280.082 512.952 204.278 507.531 198.557 502.662C198.786 502.891 198.652 520.132 198.557 528.723L280.654 574.545L262.633 579.099L198.557 537.888V598.887C211.143 611.488 241.065 638.007 260.059 643.277C260.059 643.563 249.475 647.286 237.174 645.281C237.403 645.969 242.419 652.441 244.898 655.591L231.453 654.159C250.237 667.85 271.792 690.229 303.601 697.971C325.359 700.821 377.055 731.007 373.908 736.686C371.391 741.229 356.268 738.579 349.021 736.686C361.322 743.734 383.519 758.517 373.908 761.267C364.297 764.016 345.303 757.257 337.007 753.534C326.9 761.553 303.195 772.779 289.236 753.534C288.95 753.534 283.229 752.675 280.654 756.971C278.856 759.971 273.848 761.575 270.407 761.293C284.323 769.198 339.388 804.018 359.319 804.511C367.615 804.224 361.894 815.68 332.716 813.102C332.144 812.529 338.151 832.576 307.83 822.839C307.258 822.553 289.83 854.852 246.979 799.458C247.478 800.654 248.418 812.022 244.898 818.257C241.179 824.844 197.012 776.56 196.555 767.854C196.326 768.77 199.51 858.135 201.131 902.703H164.936Z" fill="url(#paint9_linear_757_2958)"/>
<path d="M9.56602 926.231C4.83456 922.234 -2.62314 910.347 9.56622 905.951C21.7556 901.556 51.2608 906.987 51.2608 906.987C51.2608 906.987 25.2386 896.665 36.3276 878.863C40.494 872.174 58.1191 857.013 67.9683 856.626C80.9277 856.626 92.1251 871.649 93.7801 873.974C92.607 872.232 87.2138 863.28 95.3212 856.626C100.424 856.882 106.706 860.212 106.706 860.212C106.706 860.212 102.45 846.692 112.768 842.092C117.943 839.785 132.285 838.304 146.183 843.485C153.314 841.406 154.463 860.212 154.463 860.212C154.463 860.212 155.894 850.687 160.47 850.687C166.138 850.687 172.19 858.909 172.19 858.909C172.19 858.909 164.531 834.981 173.39 832.579C179.725 830.861 190.462 847.638 190.462 847.638C190.462 847.638 190.858 834.462 199.875 833.41C202.626 833.089 230.497 814.421 255.705 819.46C280.913 824.498 290.391 829.14 289.635 846.692C292.184 835.84 304.98 836.884 306.703 836.765C312.838 836.341 318.438 847.638 318.438 847.638C318.438 847.638 314.795 834.956 343.736 830.931C353.702 829.546 362.792 816.622 375.435 816.622C389.092 817.269 402.866 836.765 402.866 836.765C402.866 836.765 404.049 820.332 408.657 819.46C425.573 817.843 428.974 832.923 432.888 832.161C437.975 831.169 440.55 816.622 455.066 816.622C464.904 816.622 469.066 823.675 472.033 832.161C474.851 840.223 462.737 854.859 469.205 853.849C472.454 853.341 487.295 849.002 488.228 860.212C489.141 871.18 478.419 878.554 482.572 887.821C485.758 894.929 483.726 882.089 510.85 885.178C530.682 887.436 522.932 919.734 522.932 919.734H627.159C627.159 919.734 617.042 885.178 627.159 885.178C632.159 884.984 646.978 898.208 646.978 898.208C646.978 898.208 643.278 870.224 662.655 871.386C667.052 871.372 650.016 846.692 664.134 846.692C679.702 847.053 685.041 852.592 686.863 856.086C684.718 849.411 679.924 833.227 683.953 833.41C696.578 835.844 693.906 830.884 693.906 824.498C693.906 824.498 693.906 805.46 706.095 806.529C720.092 807.755 719.948 816.622 719.948 816.622C719.948 816.622 725.423 811.102 736.11 812.977C748.255 815.107 738.008 827.838 736.333 829.814C737.547 828.444 743.532 822.162 749.284 824.498C761.285 826.442 754.717 834.939 754.717 834.939C754.717 834.939 757.437 832.5 764.849 834.178C773.577 836.154 770.44 840.133 770.761 840.185C872.619 856.881 826.696 872.209 899.518 871.386C927.022 871.076 950.241 868.903 987.249 878.209C1002.05 881.931 997.985 896.598 1009.4 901.074C1034.6 910.962 1026.55 897.817 1082.22 897.817C1106.18 897.817 1093.85 911.33 1115.43 916.522C1140.03 922.442 1191.92 908.474 1199.51 933.524C1207.1 958.573 1137.67 943.804 1052.61 951.569C1006.59 955.77 960.777 962.994 903.738 967.146C851.503 970.948 802.932 988.061 749.284 990.511C698.223 992.843 630.146 1004.67 584.422 1004.67C537.238 1004.67 454.106 991.649 402.866 988.741C351.166 985.808 296.397 971.608 247.072 967.146C192.335 962.194 172.022 956.248 128.698 951.282C50.3408 942.301 9.56602 926.231 9.56602 926.231Z" fill="#4C7A70"/>
<path d="M885.209 956.078C885.209 962.892 859.192 959.664 844.21 961.963C821.045 965.519 816.26 957.444 793.263 961.963C770.507 966.436 758.55 974.35 736.12 978.475C718.792 981.661 691.684 979.737 663.274 981.661C627.835 984.061 606.441 990.511 572.749 990.511C542.623 990.511 513.532 989.013 475.858 984.847C440.271 980.912 421.065 972.576 385.332 970.332C362.039 968.87 348.528 974.537 325.571 970.332C303.864 966.356 294.17 955.147 272.528 950.829C245.171 945.37 228.853 953.628 201.098 950.829C163.21 947.008 106.328 933.999 106.328 927.849C106.328 921.946 168.475 929.791 193.611 924.857C203.616 922.893 223.532 924.297 236.816 922.557C248.657 921.005 256.324 913.688 270.469 912.343C291.98 910.298 305.576 913.827 331.589 912.343C355.154 910.999 384.8 920.909 411.279 920.101C427.98 919.592 462.996 912.615 480.615 912.343C499.255 912.056 501.843 915.03 521.296 915.03C537.846 915.03 578.197 909.622 594.17 909.831C616.777 910.127 629.647 911.661 650.77 912.343C669.502 912.948 716.786 898.748 734.065 899.629C758.505 900.874 767.294 918.37 788.18 920.101C816.963 922.488 862.504 920.101 894.935 920.101C931.628 925.775 885.209 948.842 885.209 956.078Z" fill="#5B8C82"/>
<path d="M661.945 930.733C665.524 942.899 655.003 947.126 639.952 953.394C614.392 964.039 589.859 962.74 559.138 960.529C537.831 958.995 520.97 955.188 503.898 946.68C492.287 940.893 485.996 934.734 485.996 930.733C485.996 924.155 497.389 919.298 515.662 916.884C531.005 914.858 544.396 911.424 562.207 911.009C592.978 910.292 608.24 913.947 629.722 916.885C640.402 918.345 658.979 920.651 661.945 930.733Z" fill="#B19573" fill-opacity="0.7"/>
<path d="M624.021 929.476C626.087 937.744 620.015 940.617 611.33 944.878C596.58 952.112 582.423 951.229 564.695 949.727C552.4 948.684 542.67 946.097 532.819 940.314C526.118 936.381 522.488 932.195 522.488 929.476C522.488 925.005 529.063 921.704 539.607 920.063C548.461 918.686 556.189 916.352 566.466 916.07C584.223 915.583 593.03 918.067 605.427 920.064C611.589 921.056 622.31 922.623 624.021 929.476Z" fill="#78644C"/>
<path d="M816.579 650.235C795.432 727.788 754.409 828.689 693.676 878.597L941.637 903.374C941.637 903.374 850.619 781.648 816.579 650.235Z" fill="url(#paint10_linear_757_2958)"/>
<path d="M816.578 650.235C816.578 650.235 938.056 701.583 1006.49 678.965C1019.75 751.136 1107.54 855.979 1107.54 855.979L941.636 903.374C941.636 903.374 823.019 745.391 816.578 650.235Z" fill="url(#paint11_linear_757_2958)"/>
<path opacity="0.63" d="M772.895 886.512L842.047 893.421L814.426 702.656L772.895 886.512Z" fill="#141414"/>
<path d="M816.525 653.49C816.537 652.405 816.559 651.331 816.581 650.235C816.581 650.235 803.952 814.54 756.742 847.354C757.096 848.074 771.856 868.566 772.906 886.512C773.094 886.535 805.411 839.881 814.382 706.963C814.725 817.894 842.047 893.421 842.047 893.421C849.958 864.083 875.701 855.259 874.983 855.613C817.829 799.982 816.338 675.156 816.525 653.49Z" fill="#DB9F68"/>
<path d="M991.798 922.991C991.699 922.991 991.599 922.991 991.5 922.969C952.057 915.75 833.407 686.736 816.846 654.42C812.669 665.911 798.593 703.165 776.883 745.069C752.798 791.545 714.128 853.421 666.619 884.309C665.857 884.807 664.83 884.585 664.332 883.822C663.835 883.058 664.056 882.028 664.819 881.53C711.719 851.04 750.046 789.663 773.944 743.541C799.875 693.467 814.857 650.124 815.011 649.692C815.232 649.061 815.796 648.618 816.459 648.574C817.111 648.53 817.752 648.884 818.05 649.482C818.381 650.146 851.98 716.107 890.174 782.134C953.747 892.047 980.694 917.61 992.096 919.692C992.991 919.858 993.588 920.721 993.433 921.629C993.29 922.426 992.594 922.991 991.809 922.991H991.798Z" fill="#969696"/>
<path d="M1005.91 679.783C1005.91 679.783 1081.88 816.942 1154.25 859.31" stroke="#9B9B9B" stroke-width="2" stroke-miterlimit="10" stroke-linecap="round"/>
<path d="M670.396 887.575L666.01 876.592L668.297 875.452C669.379 874.909 669.821 873.592 669.28 872.507C668.739 871.422 667.424 870.979 666.341 871.522L658.187 875.585C657.104 876.127 656.663 877.445 657.204 878.53C657.745 879.615 659.06 880.058 660.143 879.515L662.43 878.375L668.518 888.505L670.407 887.564L670.396 887.575Z" fill="#2B2B2B"/>
<path d="M1150.02 861.259L1153.66 852.17L1151.77 851.229C1150.87 850.786 1150.51 849.69 1150.95 848.793C1151.39 847.896 1152.49 847.531 1153.38 847.974L1160.13 851.339C1161.03 851.782 1161.39 852.878 1160.95 853.775C1160.51 854.672 1159.41 855.037 1158.52 854.594L1156.63 853.653L1151.59 862.045L1150.02 861.27V861.259Z" fill="#2B2B2B"/>
<path d="M990.292 925.493L994.679 914.511L992.392 913.37C991.309 912.828 990.867 911.511 991.408 910.426C991.95 909.341 993.264 908.898 994.347 909.44L1002.5 913.503C1003.58 914.046 1004.03 915.363 1003.48 916.448C1002.94 917.533 1001.63 917.976 1000.55 917.433L998.258 916.293L992.171 926.423L990.281 925.482L990.292 925.493Z" fill="#2B2B2B"/>
<path d="M721.01 804.596C721.01 820.117 708.805 830.213 708.805 851.89C706.443 871.99 692.496 869.96 684.792 881.055C675.797 894.008 668.757 897.359 656.054 906.673C643.412 915.942 587.972 917.761 571.255 917.761C543.023 917.761 504.404 917.295 482.312 903.048C471.276 895.931 461.572 896.784 452.923 886.967C445.476 878.515 442.461 857.222 437.175 847.161C428.908 823.513 406.467 815.534 403.711 804.596C477.063 804.596 669.094 804.596 721.01 804.596Z" fill="#EFBDA0" fill-opacity="0.3"/>
<path d="M693.846 816.438C685.741 837.482 679.121 836.423 675.343 848.737C671.805 860.271 676.55 866.551 670.226 876.326C662.842 887.737 647.98 880.733 637.551 888.938C628.554 896.016 630.096 903.485 619.396 907.573C607.21 912.228 607.827 917.508 571.783 918.475C506.611 920.224 513.574 913.312 495.438 900.761C486.378 894.492 479.706 884.974 472.605 876.326C466.491 868.88 481.131 854.662 476.593 842.432C470.31 833.346 452.855 834.943 452.855 816.438C513.074 816.437 651.226 816.438 693.846 816.438Z" fill="#EFBDA0" fill-opacity="0.3"/>
<path d="M892.849 928.648C887.842 928.182 879.608 923.996 886.735 910.984C891.434 902.583 897.261 905.642 900.965 909.462C899.27 906.439 893.755 890.863 900.186 883.351C906.056 876.495 913.23 877.696 916.083 879.153C914.569 876.122 911.995 869.22 913.812 865.862C915.629 862.504 924.818 867.844 929.185 870.934C922.605 863.705 913.044 847.568 927.438 840.852C945.431 832.457 1022.82 816.892 1039.41 843.475C1043.61 851.451 1043.14 860.323 1042.38 863.763C1045.06 860.207 1052.2 854.004 1059.33 857.642C1066.46 861.279 1067.31 868.019 1066.84 870.934C1075.4 863.413 1095.98 851.87 1109.82 865.862C1116.24 873.417 1110.86 886.266 1107.37 891.746C1110.28 889.53 1117.05 885.764 1120.82 888.423C1124.59 891.081 1125.65 900.49 1125.71 904.862C1128.22 895.243 1140.42 878.489 1169.21 888.423C1200.1 899.895 1193.26 919.67 1185.98 928.123C1185.98 928.123 1172.48 935.384 1161.08 935.384C1116.11 935.384 1125.71 931.92 1090.67 938.819C1057.86 945.278 1003.92 936.47 996.23 937.72C988.544 938.97 983.328 947.621 965.639 947.145C952.15 946.782 944.908 938.096 931.305 943.248C925.905 945.292 923.604 946.016 917.029 948.026C906.605 951.214 892.443 948.527 891.086 937.72C890.637 934.139 892.849 928.648 892.849 928.648Z" fill="#4C7A70"/>
<defs>
<linearGradient id="paint0_linear_757_2958" x1="813.069" y1="457.768" x2="813.069" y2="929.192" gradientUnits="userSpaceOnUse">
<stop stop-color="#F1CB96"/>
<stop offset="0.666667" stop-color="#57877C"/>
</linearGradient>
<linearGradient id="paint1_linear_757_2958" x1="85.4502" y1="569.473" x2="85.4502" y2="926.435" gradientUnits="userSpaceOnUse">
<stop stop-color="#F1CB96"/>
<stop offset="0.666667" stop-color="#57877C"/>
</linearGradient>
<linearGradient id="paint2_linear_757_2958" x1="861.896" y1="321.275" x2="861.896" y2="783.969" gradientUnits="userSpaceOnUse">
<stop stop-color="#F1CB96"/>
<stop offset="0.666667" stop-color="#57877C"/>
</linearGradient>
<linearGradient id="paint3_linear_757_2958" x1="290.449" y1="382.982" x2="290.449" y2="842.531" gradientUnits="userSpaceOnUse">
<stop stop-color="#F1CB96"/>
<stop offset="0.666667" stop-color="#57877C"/>
</linearGradient>
<linearGradient id="paint4_linear_757_2958" x1="161.901" y1="494.559" x2="161.901" y2="908.422" gradientUnits="userSpaceOnUse">
<stop stop-color="#F1CB96"/>
<stop offset="0.666667" stop-color="#57877C"/>
</linearGradient>
<linearGradient id="paint5_linear_757_2958" x1="367.005" y1="384.071" x2="367.005" y2="893.789" gradientUnits="userSpaceOnUse">
<stop stop-color="#F1CB96"/>
<stop offset="0.273059" stop-color="#4C7A70"/>
</linearGradient>
<linearGradient id="paint6_linear_757_2958" x1="1083.59" y1="457.768" x2="1083.59" y2="929.192" gradientUnits="userSpaceOnUse">
<stop stop-color="#F1CB96"/>
<stop offset="0.666667" stop-color="#57877C"/>
</linearGradient>
<linearGradient id="paint7_linear_757_2958" x1="964.753" y1="272.396" x2="964.753" y2="872.409" gradientUnits="userSpaceOnUse">
<stop stop-color="#F1CB96"/>
<stop offset="0.273059" stop-color="#4C7A70"/>
</linearGradient>
<linearGradient id="paint8_linear_757_2958" x1="758.436" y1="358.415" x2="758.436" y2="879.259" gradientUnits="userSpaceOnUse">
<stop stop-color="#F1CB96"/>
<stop offset="0.273059" stop-color="#4C7A70"/>
</linearGradient>
<linearGradient id="paint9_linear_757_2958" x1="190.593" y1="181.626" x2="190.593" y2="902.703" gradientUnits="userSpaceOnUse">
<stop stop-color="#F1CB96"/>
<stop offset="0.273059" stop-color="#4C7A70"/>
</linearGradient>
<linearGradient id="paint10_linear_757_2958" x1="817.656" y1="650.235" x2="817.656" y2="903.374" gradientUnits="userSpaceOnUse">
<stop offset="0.3125" stop-color="#CE8F56"/>
<stop offset="1" stop-color="#93561F"/>
</linearGradient>
<linearGradient id="paint11_linear_757_2958" x1="822.553" y1="668.549" x2="1060.01" y2="860.337" gradientUnits="userSpaceOnUse">
<stop stop-color="#616161"/>
<stop offset="1" stop-color="#1B1B1B"/>
</linearGradient>
</defs>
</svg>
