<svg width="368" height="190" viewBox="0 0 368 190" fill="none" xmlns="http://www.w3.org/2000/svg">
<path d="M301.123 18.5503C301.922 18.7705 302.748 18.3016 302.968 17.503C303.188 16.7044 302.719 15.8785 301.921 15.6583L301.123 18.5503ZM35.445 17.1043L34.2288 16.2262L34.2288 16.2262L35.445 17.1043ZM184.482 180.012L184.707 178.529L184.707 178.529L184.482 180.012ZM336.386 20.6157L337.264 19.3997L336.386 20.6157ZM139.367 8.70677L139.183 10.1955L139.225 10.2006L139.267 10.2034L139.367 8.70677ZM17.8842 38.4788L16.5143 37.8676L17.8842 38.4788ZM25.2271 171.73L24.5333 173.059L24.5333 173.059L25.2271 171.73ZM173.14 184.549L173.067 183.051L173.007 183.054L172.948 183.062L173.14 184.549ZM319.111 8.70677L319.444 7.24427L319.111 8.70677ZM183.945 11.8233C183.18 12.1402 182.816 13.0177 183.133 13.7831C183.45 14.5485 184.328 14.912 185.093 14.5951L183.945 11.8233ZM338.994 169.628L338.044 168.467L338.994 169.628ZM346.047 174.306L344.871 173.374L344.8 173.463L344.744 173.563L346.047 174.306ZM301.921 15.6583C270.407 6.96858 208.023 1.02324 151.451 0.209831C123.146 -0.197138 96.2236 0.679152 75.277 3.15409C64.8084 4.391 55.7828 6.03274 48.8056 8.1325C45.3166 9.18251 42.3023 10.358 39.8615 11.6761C37.433 12.9876 35.4847 14.4868 34.2288 16.2262L36.6611 17.9824C37.5513 16.7494 39.0702 15.513 41.287 14.3158C43.4915 13.1253 46.3006 12.0193 49.6701 11.0052C56.4101 8.97688 65.2423 7.3606 75.629 6.13337C96.3929 3.68002 123.17 2.80352 151.408 3.20952C207.92 4.02206 269.99 9.96573 301.123 18.5503L301.921 15.6583ZM34.2288 16.2262C28.4109 24.2836 22.2275 37.6248 17.1867 53.2963C12.1383 68.9919 8.19984 87.137 6.93085 104.856C5.66326 122.555 7.05064 139.947 12.7586 154.06C18.4897 168.23 28.5953 179.116 44.6468 183.575L45.4498 180.684C30.4501 176.518 20.9861 166.401 15.5397 152.935C10.0703 139.412 8.67259 122.532 9.92319 105.07C11.1724 87.6275 15.0554 69.72 20.0426 54.2149C25.0376 38.6859 31.1041 25.6784 36.6611 17.9824L34.2288 16.2262ZM44.6468 183.575C75.9803 192.279 103.136 190.517 126.362 187.214C132.163 186.389 137.725 185.466 143.035 184.588C148.352 183.709 153.411 182.874 158.24 182.218C167.911 180.903 176.539 180.321 184.256 181.495L184.707 178.529C176.554 177.289 167.58 177.92 157.836 179.245C152.956 179.908 147.854 180.75 142.545 181.628C137.23 182.507 131.702 183.424 125.939 184.244C102.909 187.519 76.2186 189.231 45.4498 180.684L44.6468 183.575ZM337.264 19.3997C333.829 16.9185 329.049 14.9901 323.311 13.4707C317.555 11.9464 310.735 10.8085 303.145 9.96212C287.966 8.26951 269.577 7.72911 250.214 7.64807C211.396 7.48562 168.735 9.16133 139.467 7.21009L139.267 10.2034C168.651 12.1624 211.615 10.4866 250.201 10.648C269.54 10.729 287.798 11.2694 302.812 12.9436C310.318 13.7807 316.981 14.8977 322.544 16.3707C328.125 17.8486 332.501 19.66 335.508 21.8317L337.264 19.3997ZM139.551 7.21806C121.773 5.02468 95.2562 3.48301 71.1286 7.01427C47.1304 10.5266 24.8633 19.1545 16.5143 37.8676L19.254 39.0899C26.9137 21.9217 47.6774 13.4785 71.5631 9.98265C95.3195 6.5057 121.54 8.0187 139.183 10.1955L139.551 7.21806ZM16.5143 37.8676C6.42001 60.4928 0.276286 89.8814 0.648851 115.735C0.835174 128.664 2.65201 140.786 6.4742 150.766C10.2968 160.747 16.1715 168.697 24.5333 173.059L25.921 170.4C18.4122 166.482 12.9324 159.241 9.27577 149.693C5.61874 140.145 3.83165 128.398 3.64854 115.692C3.28224 90.2729 9.33763 61.3163 19.254 39.0899L16.5143 37.8676ZM24.5333 173.059C31.0805 176.475 41.0003 179.31 52.7515 181.571C64.5353 183.838 78.2777 185.551 92.5451 186.673C121.065 188.917 151.805 188.815 173.332 186.037L172.948 183.062C151.693 185.804 121.173 185.916 92.7804 183.682C78.5914 182.566 64.9643 180.866 53.3184 178.625C41.6401 176.378 32.0702 173.608 25.921 170.4L24.5333 173.059ZM319.444 7.24427C308.18 4.67701 283.784 1.91867 257.536 1.73798C231.323 1.55752 202.978 3.9425 183.945 11.8233L185.093 14.5951C203.534 6.95908 231.362 4.55786 257.516 4.73791C283.634 4.91771 307.797 7.66657 318.778 10.1693L319.444 7.24427ZM173.213 186.047C184.717 185.486 198.6 186.07 213.578 186.821C228.527 187.57 244.545 188.484 260.216 188.565C275.887 188.645 291.279 187.894 304.996 185.292C318.702 182.693 330.854 178.226 339.944 170.788L338.044 168.467C329.495 175.462 317.892 179.794 304.437 182.345C290.993 184.894 275.82 185.645 260.232 185.565C244.645 185.485 228.711 184.576 213.728 183.825C198.773 183.075 184.743 182.481 173.067 183.051L173.213 186.047ZM339.944 170.788C340.722 170.152 341.596 169.008 342.51 167.595C343.452 166.139 344.523 164.257 345.676 162.017C347.984 157.536 350.656 151.56 353.32 144.562C358.648 130.571 363.978 112.415 366.309 93.8538C368.637 75.3168 367.993 56.2228 361.217 40.4628C354.401 24.6115 341.429 12.2549 319.444 7.24427L318.778 10.1693C339.829 14.9671 352.024 26.6776 358.461 41.6478C364.936 56.7093 365.629 75.1911 363.332 93.48C361.039 111.745 355.783 129.665 350.517 143.495C347.885 150.408 345.257 156.279 343.009 160.644C341.885 162.827 340.863 164.618 339.991 165.966C339.091 167.357 338.43 168.151 338.044 168.467L339.944 170.788ZM184.256 181.495C203.995 184.499 241.684 187.942 275.842 188.2C292.916 188.329 309.168 187.663 321.877 185.731C328.228 184.765 333.755 183.475 338.079 181.779C342.354 180.103 345.704 177.935 347.35 175.049L344.744 173.563C343.616 175.541 341.065 177.386 336.984 178.986C332.953 180.567 327.67 181.816 321.427 182.765C308.948 184.662 292.877 185.329 275.864 185.2C241.847 184.944 204.301 181.511 184.707 178.529L184.256 181.495ZM347.222 175.237C349.409 172.477 351.29 168.287 352.884 163.163C354.488 158.009 355.837 151.791 356.903 144.879C359.035 131.055 360.047 114.354 359.643 97.6482C359.238 80.9474 357.418 64.1792 353.855 50.2351C350.316 36.3792 344.972 24.9667 337.264 19.3997L335.508 21.8317C342.305 26.7406 347.437 37.2329 350.949 50.9777C354.437 64.6342 356.243 81.1625 356.644 97.7208C357.044 114.274 356.04 130.795 353.938 144.422C352.888 151.236 351.566 157.301 350.02 162.271C348.464 167.271 346.716 171.045 344.871 173.374L347.222 175.237Z" fill="black"/>
</svg>
