<svg width="465" height="196" viewBox="0 0 465 196" fill="none" xmlns="http://www.w3.org/2000/svg">
<path d="M69.6147 99.8778C69.6147 99.8778 49.9182 59.1066 86.544 41.3126C90.0031 39.6393 112.304 30.1709 129.315 51.8421C129.315 51.8421 146.61 -8.31471 203.421 4.13293C260.231 16.5806 258.319 49.5566 258.319 49.5566C258.319 49.5566 269.022 43.7613 283.061 43.4348C295.27 43.19 306.868 48.6588 315.292 57.5149C322.699 65.3508 332.791 76.8598 333.401 82.1246C333.401 82.1246 360.179 74.9825 374.015 101.469C374.015 101.469 377.759 110.162 378.899 118.529C378.899 118.529 404.293 112.734 421.018 132.609C421.018 132.609 458.377 125.467 461.958 145.71C461.958 145.71 466.272 175.053 429.646 165.095C429.646 165.095 411.658 193.337 367.219 188.236C360.22 187.419 331.611 173.054 327.989 166.564C327.989 166.564 314.275 202.438 254.29 190.807C250.465 190.072 215.629 177.665 206.269 163.218C206.269 163.218 191.619 189.052 143.639 191.378C129.966 192.031 116.414 188.725 104.531 181.991C94.2354 176.155 81.9454 168.523 76.7771 162.769C76.7771 162.769 74.8644 173.462 57.8538 177.216C39.2967 181.298 20.3734 172.482 10.0368 156.484C2.46753 144.771 -1.80548 129.752 10.6066 115.917C35.7563 87.8382 78.3642 116.121 74.6202 111.06C74.5388 110.938 69.574 99.8778 69.574 99.8778" fill="white"/>
<path d="M199.634 87.4872C177.83 75.5648 137.053 78.3577 133.051 112.114C131.134 128.283 100.368 131.952 124.349 160.745C124.349 160.745 127.442 136.053 143.964 136.257C160.487 136.462 161.667 124.136 169.358 121.035C177.05 117.933 192.309 120.407 199.634 132.936C206.959 145.465 254.822 118.328 260.619 74.5017C264.025 48.7534 242.899 -7.88631 173.849 8.04819C211.16 1.84642 232.629 68.6221 199.634 87.4872Z" fill="#B3E1EB"/>
<path d="M206.055 157.317C206.055 157.317 289.695 198.781 317.286 138.012C317.286 138.012 353.929 161.481 377.857 118.791C476.172 145.818 407.774 227.675 329.902 167.723C305.517 203.571 223.148 202.51 206.055 157.317Z" fill="#B3E1EB"/>
<path d="M206.757 166.948C175.87 207.836 111.365 197.092 77.9973 166.622C64.2084 193.99 21.2196 177.057 8.77463 157.806C-20.0407 113.269 35.6649 86.3853 71.5268 108.546H71.6081C37.2464 69.8083 89.493 4.81251 128.988 48.022C134.834 -11.3605 247.012 -19.0009 261.607 45.3913C290.679 32.9367 324.274 49.8553 335.273 79.937C359.647 76.0851 376.912 93.9545 380.974 116.3C387.526 115.362 407.588 114.056 422.198 130.544C483.269 118.452 471.43 183.217 430.907 167.56C406.956 199.822 356.01 196.489 328.802 170.295C321.558 196.25 249.521 212.156 206.757 166.948ZM206.594 159.561C229.111 193.684 310.276 207.41 328.11 162.01C352.758 189.403 407.023 197.458 429.198 162.989C462.576 176.443 482.504 124.015 420.611 135.155C410.572 123.498 396.915 118.944 381.684 121.999C381.684 121.999 366.804 123.945 350.812 141.189C356.374 124.154 376.956 117.549 376.956 117.549C374.101 96.7691 360.026 80.7106 337.184 84.6601C337.184 84.6601 339.27 105.52 328.006 113.516C333.638 99.1922 330.022 82.7133 330.022 82.7133C325.572 62.3405 291.71 36.6834 262.507 51.0764C262.507 51.0764 267.126 65.261 256.731 90.0366C260.503 68.6949 256.936 57.4045 255.352 50.0519C233.479 -12.7707 147.756 -3.39313 130.576 56.5925C95.9403 12.5946 47.6339 69.242 78.8975 110.138C79.8335 111.362 87.4235 121.896 106.819 128.067C83.5299 125.128 66.7796 112.418 62.8859 110.949C31.5831 99.1368 -11.3136 119.6 12.1523 155.766C23.7357 173.634 70.2109 188.538 75.9625 158.786C107.592 193.347 179.485 206.763 206.594 159.683V159.561Z" fill="#324C76"/>
</svg>
