<svg width="1201" height="1116" viewBox="0 0 1201 1116" fill="none" xmlns="http://www.w3.org/2000/svg">
<path d="M732.707 309.288C795.436 299.847 843.532 245.642 843.532 180.186C843.532 139.705 825.136 103.527 796.26 79.5794C802.633 78.6202 809.156 78.123 815.796 78.123C887.793 78.123 946.157 136.576 946.157 208.682C946.157 280.787 887.793 339.24 815.796 339.24C784.22 339.24 755.265 327.996 732.707 309.288Z" fill="#FDD887"/>
<path d="M7.81872 199.205C17.3871 204.009 17.7881 205.176 13.1023 218.363C13.0816 218.42 13.1825 218.462 13.2084 218.407C19.0534 205.694 20.1556 205.139 30.3527 208.397C30.42 208.417 30.4511 208.34 30.389 208.309C20.8206 203.504 20.4196 202.338 25.1054 189.151C25.1261 189.094 25.0252 189.052 24.9993 189.106C19.1543 201.82 18.0521 202.374 7.85495 199.12C7.78767 199.099 7.75662 199.177 7.81872 199.208V199.205Z" fill="#FDD887"/>
<path d="M361.341 32.8391C375.247 27.8683 376.788 28.5836 385.441 45.8225C385.478 45.8994 385.617 45.8397 385.587 45.7555C378.515 27.8025 379.008 26.172 391.963 19.1009C392.047 19.0566 392.002 18.9444 391.911 18.9818C378.013 23.9595 376.465 23.2515 367.819 6.00541C367.782 5.92845 367.643 5.98815 367.673 6.07234C374.745 24.0254 374.252 25.6559 361.297 32.727C361.213 32.7713 361.258 32.8834 361.349 32.846L361.341 32.8391Z" fill="#FDD887"/>
<path d="M649.697 75.5543C658.752 80.1037 659.131 81.2035 654.698 93.6817C654.678 93.7317 654.778 93.7717 654.798 93.7217C660.329 81.6934 661.377 81.1635 671.021 84.2431C671.081 84.2631 671.111 84.1931 671.051 84.1631C661.996 79.6137 661.617 78.5139 666.05 66.0356C666.07 65.9856 665.97 65.9456 665.95 65.9956C660.419 78.0239 659.371 78.5539 649.727 75.4743C649.667 75.4543 649.637 75.5243 649.697 75.5543Z" fill="#FDD887"/>
<path d="M243.26 244.199C251.127 248.149 251.456 249.109 247.603 259.947C247.583 259.997 247.673 260.027 247.693 259.987C252.495 249.538 253.403 249.079 261.789 251.758C261.839 251.778 261.869 251.708 261.819 251.688C253.952 247.739 253.623 246.779 257.476 235.94C257.496 235.89 257.407 235.86 257.387 235.9C252.585 246.349 251.676 246.809 243.29 244.129C243.24 244.109 243.21 244.179 243.26 244.199Z" fill="#FDD887"/>
<path d="M316.28 1056.94C284.322 1050.49 266.032 1047.43 235.387 1036.3C100.158 987.164 601.856 999.001 601.856 999.001C601.856 999.001 997.926 954.589 977.521 1031.08C946.043 1041.73 927.507 1045.16 894.789 1050.97C858.756 1057.36 836.997 1051.72 801.639 1061.16C780.203 1066.89 769.538 1074.31 748.323 1080.81C705.032 1094.07 676.286 1084.89 634.337 1101.94C626.06 1105.3 621.982 1108.58 613.501 1111.39C566.544 1126.93 541.069 1083.76 492.774 1073.1C425.184 1058.18 384.129 1070.63 316.28 1056.94Z" fill="#3D3D3D"/>
<path d="M212.713 1036.55C199.774 1032.2 193.997 1026.29 181.46 1020.88C160.008 1011.63 146.57 1010.28 124.465 1002.73C422.603 941.485 1084.15 989.552 1084.15 989.552C1084.15 989.552 1070.97 1001.76 1061.48 1008.2C1038.91 1023.52 1023.27 1028.55 996.519 1033.81C955.99 1041.79 932.088 1019.91 891.112 1025.11C861.242 1028.9 846.544 1040.64 816.961 1046.24C778.304 1053.57 754.566 1062.99 716.456 1053.21C688.425 1046.01 679.759 1016.72 650.885 1018.64C628.132 1020.16 617.92 1032.91 599.408 1046.24C583.687 1057.57 580.396 1071.83 562.637 1079.56C519.768 1098.22 502.349 1031.22 456.005 1025.11C407.231 1018.68 381.126 1065.28 333.31 1053.69C316.47 1049.61 309.146 1040.93 292.382 1036.55C262.276 1028.68 242.208 1046.46 212.713 1036.55Z" fill="#323232"/>
<path d="M267.866 999C249.334 996.739 243.628 1016.65 225.527 1021.23C184.513 1031.6 131.554 1035.36 94.4358 999C75.5391 980.488 47.4824 955.342 61.8675 939.573L1166.27 939.573C1166.27 939.573 1135.38 971.528 1110.5 984.05C1084.47 997.157 1067.3 1001.15 1038.19 1002.48C1005.87 1003.96 989.03 986.676 956.685 987.562C914.622 988.715 895.806 1019 853.729 1019.39C834.93 1019.56 823.408 1006.74 805.929 1013.67C782.846 1022.83 798.016 1060.64 774.675 1069.12C742.491 1080.8 742.52 1022.82 711.553 1008.2C662.401 984.999 627.326 1019.31 573.022 1021.23C540.267 1022.38 521.822 1023.03 489.097 1021.23C441.834 1018.62 415.696 997.313 368.983 1004.97C342.004 1009.39 328.929 1035.84 302.797 1027.8C285.907 1022.6 285.406 1001.14 267.866 999Z" fill="#282828"/>
<path d="M138.451 970.905C116.809 973.885 106.683 992.827 85.2963 988.365C59.1499 982.909 40.7461 936.397 40.7461 936.397L1181.83 929.619L1166.14 940.711C1166.14 940.711 1109.1 977.856 1068.43 976.862C1048.29 976.37 1056.78 962.667 1036.74 960.57C1005.51 957.3 968.448 966.465 938.807 976.862C918.425 984.011 911.348 996.342 889.887 998.752C865.753 1001.46 870.121 989.214 845.948 986.885C826.524 985.013 799.609 974.109 782.029 982.59C767.311 989.691 765.77 1003.94 750.775 1010.44C728.056 1020.28 712.378 1005.45 687.631 1004.93C644.359 1004.02 617.51 1026.02 574.237 1025.16C538.427 1024.45 521.986 1004.3 486.175 1004.93C467.868 1005.25 455.214 1001.72 437.187 1004.93C411.594 1009.49 398.065 1042.68 375.978 1028.96C357.355 1017.38 372.195 992.557 358.241 975.63C326.39 936.988 280.527 989.58 230.589 986.516C194.164 984.281 174.605 965.927 138.451 970.905Z" fill="black"/>
<path d="M491.523 1042.84C489.077 1054.4 489.077 1061.54 491.523 1073.1C551.732 1088.49 565.862 1129.31 614.067 1110.99C629.089 1094.29 502.788 989.598 491.523 1042.84Z" fill="#4E4E4E"/>
<path d="M674.009 1043.77C665.523 1060.16 667.906 1077.17 680.567 1090.58C716.272 1089.54 732.34 1085.66 747.217 1081.49C755.101 1057.95 688.657 1015.49 674.009 1043.77Z" fill="#4E4E4E"/>
<path d="M867.773 1035.97C856.451 1042.31 845.58 1043.19 840.684 1055.22C879.239 1055.22 888.786 1050.95 895.838 1050.95C914.407 1042.82 933.195 1036.72 934.668 1016.47C936.647 989.298 891.522 1022.68 867.773 1035.97Z" fill="#4E4E4E"/>
<path d="M391.82 1040.03C408.019 1022.94 316.228 1035.3 309.832 1055.57C331.703 1060.93 344.497 1061.38 360.564 1062.72C374.79 1058.48 382.356 1051.48 391.82 1040.03Z" fill="#4E4E4E"/>
<path d="M808.757 907.97C800.588 915.306 780.041 929.834 762.931 929.54C762.795 929.614 762.708 929.615 762.679 929.535C762.763 929.537 762.847 929.539 762.931 929.54C764.681 928.595 774.596 915.665 774.596 907.97C774.199 907.97 736.463 922.899 715.014 907.97C716.205 907.97 758.707 882.535 766.652 870.37C766.254 870.923 716.205 875.347 700.316 858.206C700.713 857.102 768.009 817.976 774.563 802.439C773.991 803.286 766.177 808.007 760.416 805.25C760.404 805.25 760.399 805.248 760.399 805.241C760.404 805.244 760.41 805.247 760.416 805.25C760.993 805.204 775.996 795.801 777.874 790.245C777.874 790.579 734.065 803.242 722.574 790.245C723.292 790.245 777.844 755.94 783.615 739.605C783.157 740.244 749.798 739.174 740.05 726.928C740.527 727.592 780.891 707.104 790.445 689.82C788.469 691.774 762.348 700.861 752.259 691.604C752.259 691.938 801.574 634.286 805.166 612.292C804.45 613.952 785.194 619.252 781.504 617.312C781.486 617.313 781.473 617.306 781.465 617.291C781.478 617.298 781.491 617.305 781.504 617.312C782.668 617.219 805.431 583.436 807.081 570.969C807.081 571.303 793.435 575.635 787.45 575.635C787.929 575.635 808.517 543.31 809.953 532.646C810.337 532.379 802.293 534.312 798.223 535.312C803.57 527.758 814.55 511.385 815.699 506.32C815.89 506.32 808.756 510.763 805.166 512.985C810.432 498.322 820.774 466.797 820.008 457.999C820.48 458.655 826.987 500.676 831.757 514.368C831.9 514.585 831.978 514.792 831.978 514.984C831.905 514.786 831.831 514.58 831.757 514.368C830.714 512.777 826.226 510.63 823.838 509.652C827.905 528.633 838.904 572.171 850.386 594.58C850.422 594.599 850.431 594.616 850.411 594.63C850.403 594.613 850.394 594.597 850.386 594.58C849.612 594.163 836.525 592.446 833.658 589.663C835.924 593.398 845.428 611.209 850.411 620.623L840.596 617.291C847.618 634.73 863.913 672.143 872.915 682.274C871.723 680.946 850.352 679.619 843.317 672.039C844.861 674.853 864.753 735.73 888.715 751.922C888.475 751.922 869.324 756.587 858.311 751.922C864.695 764.141 882.107 790.645 900.684 798.91C900.924 799.576 868.845 811.141 853.284 802.359C853.523 802.359 880.536 837.182 925.722 855.854C925.787 855.844 925.821 855.857 925.821 855.895C925.788 855.881 925.755 855.867 925.722 855.854C924.056 856.103 901.832 871.025 886.632 867.243C888.19 867.727 913.206 877.793 925.821 882.888C918.566 888.436 900.575 898.797 886.6 895.893C887.31 896.293 897.283 905.276 902.36 909.881C891.268 912.769 864.679 914.346 847.06 897.55C847.299 898.55 855.917 920.219 860.466 924.877C859.987 925.543 818.093 920.056 808.757 907.97Z" fill="url(#paint0_linear_834_9458)"/>
<path d="M82.1852 910.461C75.9995 916.016 60.4417 927.016 47.4861 926.794C47.3829 926.849 47.3172 926.85 47.2955 926.79C47.3589 926.791 47.4225 926.793 47.4861 926.794C48.8111 926.078 56.3187 916.287 56.3187 910.461C56.0179 910.461 27.4446 921.765 11.2029 910.461C12.1052 910.461 44.2877 891.202 50.3032 881.991C50.0024 882.409 12.1051 885.759 0.0742188 872.78C0.374474 871.944 51.3308 842.318 56.2935 830.553C55.8606 831.195 49.9439 834.769 45.5813 832.681C45.5727 832.682 45.5684 832.68 45.5684 832.675C45.5727 832.677 45.577 832.679 45.5813 832.681C46.0187 832.646 57.3789 825.527 58.8011 821.32C58.8011 821.572 25.6286 831.161 16.9277 821.32C17.4713 821.32 58.7784 795.344 63.148 782.975C62.8014 783.459 37.5414 782.649 30.1604 773.376C30.5214 773.879 61.0852 758.365 68.3198 745.278C66.8236 746.757 47.0446 753.638 39.4052 746.629C39.4052 746.881 76.7467 703.228 79.466 686.574C78.9241 687.831 64.3431 691.844 61.5495 690.375C61.5356 690.376 61.5258 690.37 61.5202 690.359C61.5298 690.364 61.5396 690.369 61.5495 690.375C62.4308 690.304 79.6668 664.724 80.9161 655.284C80.9161 655.537 70.5837 658.817 66.0519 658.817C66.4145 658.817 82.0037 634.34 83.0914 626.266C83.3814 626.064 77.2907 627.527 74.2091 628.284C78.2575 622.565 86.5717 610.167 87.4418 606.332C87.5869 606.332 82.185 609.696 79.466 611.378C83.4539 600.276 91.2848 576.405 90.7047 569.743C91.0617 570.24 95.9891 602.058 99.6013 612.426C99.709 612.59 99.7682 612.747 99.7682 612.892C99.7129 612.742 99.6573 612.587 99.6013 612.426C98.8115 611.221 95.4129 609.595 93.605 608.855C96.6843 623.227 105.013 656.194 113.707 673.162C113.734 673.177 113.741 673.19 113.726 673.2C113.72 673.187 113.713 673.175 113.707 673.162C113.121 672.846 103.211 671.546 101.041 669.439C102.756 672.267 109.953 685.754 113.726 692.882L106.294 690.359C111.611 703.564 123.95 731.893 130.765 739.564C129.863 738.559 113.681 737.553 108.354 731.814C109.524 733.945 124.586 780.041 142.729 792.301C142.548 792.301 128.046 795.834 119.708 792.301C124.542 801.554 137.726 821.623 151.793 827.88C151.974 828.385 127.684 837.142 115.901 830.492C116.082 830.492 136.536 856.86 170.751 870.999C170.801 870.991 170.826 871.001 170.826 871.03C170.801 871.019 170.776 871.009 170.751 870.999C169.49 871.188 152.661 882.486 141.152 879.623C142.332 879.989 161.274 887.611 170.826 891.469C165.333 895.67 151.71 903.515 141.128 901.316C141.666 901.619 149.217 908.421 153.062 911.908C144.663 914.095 124.53 915.289 111.188 902.571C111.37 903.328 117.895 919.736 121.339 923.263C120.977 923.767 89.2549 919.612 82.1852 910.461Z" fill="url(#paint1_linear_834_9458)"/>
<path d="M853.965 784.318L858.152 685.337C858.152 685.337 832.491 710.08 831.769 709.662C831.048 709.244 831.769 699.177 831.769 699.177C824.929 707.286 810.16 722.496 805.805 718.47C801.45 714.444 802.036 710.92 802.874 709.662C800.64 712.598 795.168 717.799 791.148 715.115C787.128 712.43 787.797 708.404 788.635 706.726C783.051 708.264 771.884 710.417 771.884 706.726C771.884 702.113 815.017 687.014 820.043 681.562C825.068 676.109 809.992 680.723 809.992 676.948C809.992 673.174 838.492 666.242 842.238 664.366C858.152 656.397 858.152 654.698 858.152 640.533V632.468C858.152 630.505 834.303 639.463 834.303 639.463L832.167 636.921L858.152 627.295V577.105L802.874 604.808L795.41 599.332L858.152 570.826V551.963C858.152 527.872 821.157 542.474 824.561 532.274C837.132 524.928 846.318 526.967 848.328 518.579C832.307 523.25 797.716 529.634 797.864 522.818C798.012 516.002 814.074 514.236 816.91 512.384C808.834 513.804 760.638 514.896 760.343 511.488C759.973 507.227 797.01 499.089 797.01 495.94C797.01 492.791 786.719 493.027 785.794 489.878C784.869 486.73 841.755 478.233 840.645 478.233L840.575 478.233C838.682 478.234 811.39 478.252 810.115 475.334C808.82 472.371 858.152 466.025 858.152 462.018C858.152 459.976 858.306 454.927 858.442 449.212L831.653 454.886L829.98 452.371L858.604 443.539C858.702 436.467 858.654 427.434 858.152 425.843C857.042 422.323 819.79 433.354 818.695 427.241C823.026 423.977 824.935 424.411 829.097 417.802H804.686C803.673 414.036 822.786 409.69 837.007 402.948C850.529 396.537 859.169 387.655 859.241 386.5C859.634 380.212 859.368 373.637 858.786 367.386L842.904 371.135L854.078 358.347L837.007 362.595L851.474 351.679L832.972 353.88C843.76 346.163 855.741 328.568 857.073 321.456C857.813 323.123 868.476 341.449 884.03 348.442C890.962 351.559 867.81 349.841 865.529 349.841L888.138 358.347C882.198 361.894 869.798 356.835 869.798 356.835L878.489 363.555C876.636 365.858 865.529 362.146 865.529 362.146C865.529 362.146 865.939 365.939 865.939 368.31C870.909 373.43 883.548 380.352 883.548 380.352C875.406 381.252 865.529 375.184 865.529 375.184V386.5C880.386 393.847 894.954 408.074 908.989 413.171C906.841 413.81 887.606 414.983 883.415 413.81C888.447 424.324 908.989 430.233 914.603 433.925C912.828 437.629 881.249 431.438 866.804 425.065L867.433 451.049C878.837 457.963 923.931 463.919 923.044 466.142C922.156 468.365 906.417 465.63 905.106 467.859C913.175 479.851 941.081 483.985 943.612 485.837C943.612 492.191 936.195 493.294 930.277 492.676C936.935 496.627 953.123 501.185 950.607 503.556C948.092 505.927 908.989 512.167 895.304 511.488C900.42 514.579 913.379 522.142 910.568 523.762C907.517 525.519 940.806 537.835 947.199 538.985C947.474 538.881 947.752 538.773 948.033 538.662C948.52 539.077 948.168 539.159 947.199 538.985C927.882 546.318 923.064 538.322 923.044 542.451C938.383 551.334 963.452 558.87 963.452 564.291C963.452 564.291 950.862 565.396 948.033 565.441C945.203 565.486 891.112 551.963 891.112 551.963C891.112 551.963 905.106 564.291 902.103 565.441C899.1 566.591 875.701 555.584 875.701 555.584L875.546 596.477L925.304 612.654C925.304 614.441 921.046 614.149 921.02 617.241C921.007 618.833 875.631 598.566 875.612 600.439C875.593 602.366 875.546 623.446 875.546 623.446C875.546 623.446 907.952 637.539 921.02 637.868C937.355 638.28 920.28 646.417 912.257 643.019C904.234 639.621 923.771 653.461 943.612 656.397C963.452 659.333 919.457 664.418 912.257 656.397C912.943 662.264 922.359 671.272 948.033 673.633C949.659 679 934.064 684.555 926.658 680.105C921.02 679.899 937.767 694.115 953.813 694.527C959.367 694.321 955.625 700.736 948.033 699.177C940.441 697.618 945.378 706.726 958.956 706.726C966.019 711.305 935.955 718.47 908.128 693.239C909.247 702.762 934.249 710.313 926.658 711.711C917.338 712.693 899.065 707.464 891.269 700.595C894.47 703.798 902.025 711.585 903.44 715.115C891.221 711.711 885.461 708.127 875.383 696.798C875.658 727.537 876.248 753.597 877.365 784.318H853.965Z" fill="url(#paint2_linear_834_9458)"/>
<path d="M280.8 842.902L283.517 772.761C266.425 767.268 230.815 754.423 225.11 746.987C217.979 737.691 204.057 759.241 200.321 754.593C197.333 750.874 201.114 741.494 203.378 737.269C189.342 742.621 159.03 750.79 150.065 740.649C163.082 736.283 190.881 723.241 197.944 706.001C197.605 706.424 181.985 710.227 177.91 706.001C174.65 702.621 180.853 695.579 184.362 692.48C172.703 694.029 148.231 695.1 143.613 686.987C140.897 684.029 222.393 649.805 233.939 617.269C235.637 612.199 225.11 616.002 225.11 612.622C225.11 609.241 237.674 599.1 242.428 597.833C242.768 596.565 197.265 601.213 193.191 595.298C189.931 590.565 207.679 582.058 216.961 578.396C208.924 578.537 192.444 577.805 190.814 573.749C188.776 568.678 233.939 551.354 245.145 534.03C244.126 534.453 237.335 535.721 235.637 531.495C233.939 527.27 278.083 508.256 280.8 480.791C280.8 479.524 256.351 493.045 245.145 490.932C236.18 489.242 255.671 473.608 266.538 466.003L250.238 463.467C267.058 452.026 302.071 420.295 308.801 384.212C308.886 383.549 308.95 383.186 308.984 383.186C308.925 383.528 308.864 383.87 308.801 384.212C308.036 390.169 305.623 420.284 308.984 427.129C312.719 434.734 334.452 464.734 355.166 468.96H332.754C337.961 474.311 348.103 485.606 347.016 487.974C345.929 490.341 324.378 484.172 313.738 480.791C315.549 487.27 320.529 500.819 325.963 503.185C332.754 506.143 375.2 528.96 386.406 531.495C385.863 531.495 371.691 533.185 364.674 534.03L380.633 548.818H364.674C377.577 558.678 403.724 579.579 405.082 584.311C406.441 587.269 382.671 584.311 380.633 584.311C378.596 584.311 392.179 596.565 386.406 602.058C381.788 606.452 353.468 599.382 339.885 595.298V604.593C350.072 616.706 374.725 642.536 391.839 648.959C395.574 650.649 370.446 655.72 355.166 642.198C361.391 653.748 382.467 678.875 416.967 686.987C422.4 686.987 385.048 697.973 377.577 692.48C384.595 698.818 402.298 712.424 416.967 716.142L401.008 724.17C413.345 726.564 437.885 731.944 437.342 734.311C436.662 737.269 387.425 746.987 358.561 740.649C350.412 737.269 379.615 755.438 377.577 760.508C375.947 764.564 331.169 762.198 308.984 760.508C316.681 764.17 331.464 772.508 329.019 776.564C326.574 780.621 307.626 778.254 298.457 776.564L305.249 842.902H280.8Z" fill="url(#paint3_linear_834_9458)"/>
<path d="M168.965 880.824C180.995 889.137 209.467 906.309 227.447 908.733C227.56 908.831 227.629 908.843 227.65 908.76C227.582 908.752 227.515 908.743 227.447 908.733C225.597 907.125 212.135 882.368 213.16 877.922C213.522 877.922 255.492 898.939 276.877 900.413C276.914 900.438 276.928 900.439 276.916 900.416C276.903 900.415 276.89 900.414 276.877 900.413C275.747 899.671 252.992 877.775 249.766 870.707C250.771 871.443 286.941 872.741 299.738 867.4C298.652 868.126 236.344 824.59 224.752 807.538C230.306 808.384 242.719 809.569 247.936 807.538C249.747 807.538 221.854 792.663 218.593 786.133C219.317 785.77 242.462 790.478 254.425 788.315C254.455 788.329 254.466 788.328 254.456 788.309C254.446 788.311 254.436 788.313 254.425 788.315C253.283 787.764 224.063 763.526 218.641 753.568C219.887 754.828 245.321 759.873 260.877 755.324C260.926 755.328 260.959 755.318 260.977 755.295C260.944 755.304 260.911 755.314 260.877 755.324C257.959 755.08 200.409 705.359 196.134 691.441C195.409 690.353 219.68 699.423 232.721 693.981C231.997 693.981 188.896 651.903 184.18 633.76C184.476 633.842 192.177 634.986 196.134 635.569L179.108 608.722L198.669 613.075C190.458 600.982 173.529 574.038 171.5 563.009C171.138 562.283 183.455 569.902 188.526 569.176C181.248 556.39 166.423 529.126 164.675 521.2C165.256 522.072 169.327 523.282 171.5 523.826L164.618 494.802C159.667 516.207 147.881 561.05 140.347 569.176C140.926 569.176 148.558 565.064 152.301 563.009C145.418 577.763 130.276 608.431 124.77 613.075C125.639 613.075 137.69 610.173 143.607 608.722C136.724 631.216 118.611 679.251 101.223 691.441C101.803 691.441 114.989 689.022 121.509 687.813C109.488 711.654 82.0977 760.334 67.4393 767.003C67.0293 767.149 66.8091 767.24 66.8091 767.267C67.0164 767.188 67.2265 767.1 67.4393 767.003C71.4704 765.568 93.8427 758.807 105.57 755.295L71.1561 795.929C79.2464 795.808 97.0935 794.84 103.759 791.938C105.57 791.575 61.013 853.977 24.0631 867.4C25.1499 867.4 54.4924 870.665 66.8091 867.4C62.945 875.02 54.5649 891.273 51.9566 895.337C67.7751 895.578 103.831 893.014 121.509 880.824L124.77 906.221C136.12 901.141 160.85 888.951 168.965 880.824Z" fill="url(#paint4_linear_834_9458)"/>
<path d="M360.525 870.797C348.248 878.729 317.371 894.437 291.657 894.119C291.453 894.198 291.322 894.199 291.279 894.113C291.405 894.115 291.531 894.117 291.657 894.119C294.287 893.097 309.188 879.116 309.188 870.797C308.591 870.797 251.881 886.938 219.646 870.797C221.437 870.797 285.31 843.296 297.249 830.143C296.652 830.741 221.436 835.523 197.559 816.99C198.155 815.796 299.288 773.492 309.138 756.693C308.278 757.609 296.536 762.714 287.877 759.732C287.86 759.733 287.851 759.73 287.851 759.723C287.86 759.726 287.869 759.729 287.877 759.732C288.745 759.682 311.292 749.516 314.115 743.509C314.115 743.869 248.277 757.561 231.008 743.509C232.087 743.509 314.069 706.417 322.742 688.756C322.054 689.446 271.92 688.289 257.271 675.049C257.988 675.767 318.648 653.614 333.006 634.926C330.037 637.039 290.781 646.864 275.619 636.855C275.619 637.216 349.731 574.881 355.128 551.1C354.053 552.895 325.114 558.626 319.569 556.528C319.542 556.529 319.522 556.522 319.511 556.505C319.53 556.513 319.55 556.52 319.569 556.528C321.318 556.427 355.527 519.901 358.006 506.421C358.006 506.782 337.5 511.466 328.505 511.466C329.225 511.466 360.165 476.515 362.324 464.985C362.899 464.697 350.811 466.787 344.695 467.867C352.723 459.707 369.204 442.026 370.954 436.534C370.59 436.814 360.359 441.398 355.128 443.726C363.043 427.873 378.585 393.787 377.434 384.274C378.143 384.984 387.922 430.418 395.091 445.223C395.305 445.457 395.422 445.681 395.422 445.888C395.313 445.674 395.202 445.452 395.091 445.223C393.524 443.502 386.778 441.18 383.19 440.123C389.302 460.646 405.831 507.721 423.086 531.95C423.141 531.971 423.155 531.989 423.125 532.004C423.112 531.986 423.099 531.968 423.086 531.95C421.924 531.499 402.256 529.643 397.948 526.633C401.353 530.672 415.636 549.93 423.125 560.108L408.374 556.505C418.927 575.362 443.416 615.813 456.943 626.767C455.152 625.331 423.035 623.896 412.464 615.7C414.784 618.744 444.678 684.566 480.688 702.073C480.328 702.073 451.547 707.117 434.997 702.073C444.591 715.284 470.758 743.941 498.676 752.877C499.036 753.598 450.827 766.102 427.442 756.607C427.801 756.607 468.396 794.258 536.303 814.447C536.402 814.436 536.452 814.45 536.452 814.491C536.402 814.476 536.353 814.462 536.303 814.447C533.8 814.717 500.4 830.851 477.558 826.761C479.899 827.284 517.494 838.168 536.452 843.677C525.55 849.676 498.512 860.878 477.51 857.738C478.577 858.171 493.564 867.883 501.195 872.862C484.525 875.985 444.567 877.69 418.088 859.531C418.448 860.612 431.399 884.04 438.235 889.076C437.516 889.797 374.556 883.864 360.525 870.797Z" fill="url(#paint5_linear_834_9458)"/>
<path d="M1079.28 907.97C1071.11 915.306 1050.56 929.834 1033.45 929.54C1033.32 929.614 1033.23 929.615 1033.2 929.535C1033.29 929.537 1033.37 929.539 1033.45 929.54C1035.2 928.595 1045.12 915.665 1045.12 907.97C1044.72 907.97 1006.99 922.899 985.537 907.97C986.729 907.97 1029.23 882.535 1037.18 870.37C1036.78 870.923 986.729 875.347 970.84 858.206C971.236 857.102 1038.53 817.976 1045.09 802.439C1044.51 803.286 1036.7 808.007 1030.94 805.25C1030.93 805.25 1030.92 805.248 1030.92 805.241C1030.93 805.244 1030.93 805.247 1030.94 805.25C1031.52 805.204 1046.52 795.801 1048.4 790.245C1048.4 790.579 1004.59 803.242 993.097 790.245C993.815 790.245 1048.37 755.94 1054.14 739.605C1053.68 740.244 1020.32 739.174 1010.57 726.928C1011.05 727.592 1051.41 707.104 1060.97 689.82C1058.99 691.774 1032.87 700.861 1022.78 691.604C1022.78 691.938 1072.1 634.286 1075.69 612.292C1074.97 613.952 1055.72 619.252 1052.03 617.312C1052.01 617.313 1052 617.306 1051.99 617.291C1052 617.298 1052.01 617.305 1052.03 617.312C1053.19 617.219 1075.95 583.436 1077.6 570.969C1077.6 571.303 1063.96 575.635 1057.97 575.635C1058.45 575.635 1079.04 543.31 1080.48 532.646C1080.86 532.379 1072.82 534.312 1068.75 535.312C1074.09 527.758 1085.07 511.385 1086.22 506.32C1086.41 506.32 1079.28 510.763 1075.69 512.985C1080.96 498.322 1091.3 466.797 1090.53 457.999C1091 458.655 1097.51 500.676 1102.28 514.368C1102.42 514.585 1102.5 514.792 1102.5 514.984C1102.43 514.786 1102.35 514.58 1102.28 514.368C1101.24 512.777 1096.75 510.63 1094.36 509.652C1098.43 528.633 1109.43 572.171 1120.91 594.58C1120.95 594.599 1120.95 594.616 1120.93 594.63C1120.93 594.613 1120.92 594.597 1120.91 594.58C1120.14 594.163 1107.05 592.446 1104.18 589.663C1106.45 593.398 1115.95 611.209 1120.93 620.623L1111.12 617.291C1118.14 634.73 1134.44 672.143 1143.44 682.274C1142.25 680.946 1120.88 679.619 1113.84 672.039C1115.38 674.853 1135.28 735.73 1159.24 751.922C1159 751.922 1139.85 756.587 1128.83 751.922C1135.22 764.141 1152.63 790.645 1171.21 798.91C1171.45 799.576 1139.37 811.141 1123.81 802.359C1124.05 802.359 1151.06 837.182 1196.25 855.854C1196.31 855.844 1196.34 855.857 1196.34 855.895C1196.31 855.881 1196.28 855.867 1196.25 855.854C1194.58 856.103 1172.36 871.025 1157.16 867.243C1158.71 867.727 1183.73 877.793 1196.34 882.888C1189.09 888.436 1171.1 898.797 1157.12 895.893C1157.83 896.293 1167.81 905.276 1172.88 909.881C1161.79 912.769 1135.2 914.346 1117.58 897.55C1117.82 898.55 1126.44 920.219 1130.99 924.877C1130.51 925.543 1088.62 920.056 1079.28 907.97Z" fill="url(#paint6_linear_834_9458)"/>
<path d="M957.125 845.267C942.673 854.605 906.326 873.095 876.057 872.721C875.816 872.814 875.663 872.816 875.612 872.714C875.76 872.717 875.909 872.719 876.057 872.721C879.153 871.518 896.693 855.061 896.693 845.267C895.99 845.267 829.234 864.269 791.289 845.267C793.397 845.267 868.585 812.894 882.639 797.412C881.936 798.116 793.397 803.745 765.289 781.929C765.991 780.524 885.04 730.726 896.634 710.951C895.623 712.029 881.8 718.038 871.607 714.528C871.587 714.529 871.577 714.526 871.577 714.517C871.587 714.521 871.597 714.524 871.607 714.528C872.629 714.469 899.17 702.502 902.493 695.431C902.493 695.855 824.992 711.973 804.664 695.431C805.934 695.431 902.44 651.768 912.648 630.978C911.839 631.791 852.824 630.429 835.579 614.843C836.423 615.688 907.829 589.611 924.731 567.612C921.236 570.1 875.026 581.665 857.178 569.884C857.178 570.308 944.419 496.931 950.772 468.937C949.506 471.051 915.441 477.797 908.914 475.326C908.881 475.328 908.858 475.319 908.845 475.3C908.868 475.309 908.891 475.318 908.914 475.326C910.973 475.208 951.241 432.211 954.16 416.344C954.16 416.768 930.02 422.282 919.433 422.282C920.28 422.282 956.701 381.139 959.242 367.567C959.92 367.228 945.69 369.688 938.49 370.96C947.941 361.354 967.341 340.541 969.401 334.075C968.973 334.405 956.929 339.802 950.772 342.542C960.089 323.88 978.384 283.756 977.029 272.559C977.863 273.394 989.375 326.876 997.814 344.304C998.066 344.58 998.204 344.843 998.204 345.087C998.075 344.835 997.945 344.574 997.814 344.304C995.969 342.278 988.029 339.545 983.805 338.301C990.999 362.459 1010.46 417.873 1030.77 446.394C1030.83 446.419 1030.85 446.44 1030.81 446.458C1030.8 446.437 1030.78 446.416 1030.77 446.394C1029.4 445.863 1006.25 443.678 1001.18 440.136C1005.19 444.89 1022 467.56 1030.81 479.541L1013.45 475.3C1025.87 497.497 1054.7 545.114 1070.62 558.008C1068.51 556.318 1030.71 554.629 1018.26 544.981C1021 548.564 1056.19 626.046 1098.57 646.654C1098.15 646.654 1064.27 652.592 1044.79 646.654C1056.08 662.206 1086.89 695.94 1119.75 706.459C1120.17 707.307 1063.42 722.026 1035.9 710.849C1036.32 710.849 1084.1 755.17 1164.04 778.935C1164.16 778.923 1164.22 778.939 1164.22 778.987C1164.16 778.97 1164.1 778.953 1164.04 778.935C1161.09 779.253 1121.78 798.245 1094.89 793.431C1097.65 794.047 1141.9 806.859 1164.22 813.343C1151.38 820.405 1119.56 833.592 1094.83 829.895C1096.09 830.405 1113.73 841.838 1122.71 847.699C1103.09 851.375 1056.05 853.382 1024.88 832.005C1025.31 833.278 1040.55 860.857 1048.6 866.785C1047.75 867.634 973.642 860.65 957.125 845.267Z" fill="url(#paint7_linear_834_9458)"/>
<path d="M766.008 844.415C778.901 854.877 809.419 876.487 828.69 879.539C828.81 879.662 828.885 879.677 828.907 879.572C828.835 879.561 828.762 879.55 828.69 879.539C826.707 877.515 812.278 846.358 813.376 840.762C813.764 840.762 858.748 867.212 881.669 869.067C881.709 869.098 881.724 869.1 881.711 869.071C881.697 869.07 881.683 869.069 881.669 869.067C880.457 868.133 856.069 840.578 852.611 831.683C853.688 832.609 892.455 834.242 906.172 827.521C905.007 828.434 838.225 773.644 825.801 752.185C831.754 753.25 845.059 754.741 850.65 752.185C852.591 752.185 822.694 733.465 819.2 725.246C819.976 724.79 844.782 730.715 857.605 727.993C857.637 728.011 857.648 728.009 857.638 727.986C857.627 727.988 857.616 727.991 857.605 727.993C856.381 727.299 825.063 696.796 819.251 684.265C820.586 685.85 847.847 692.199 864.52 686.474C864.572 686.479 864.608 686.467 864.627 686.437C864.592 686.449 864.556 686.462 864.52 686.474C861.393 686.167 799.71 623.593 795.128 606.078C794.351 604.708 820.365 616.122 834.342 609.274C833.566 609.274 787.37 556.319 782.316 533.486C782.633 533.59 790.887 535.03 795.128 535.763L776.879 501.976L797.845 507.455C789.045 492.236 770.9 458.326 768.725 444.446C768.337 443.533 781.538 453.121 786.974 452.208C779.173 436.116 763.284 401.805 761.41 391.831C762.033 392.927 766.396 394.45 768.725 395.135L761.348 358.608C756.042 385.547 743.41 441.981 735.334 452.208C735.956 452.208 744.135 447.034 748.147 444.446C740.77 463.014 724.541 501.611 718.639 507.455C719.571 507.455 732.487 503.802 738.829 501.976C731.452 530.284 712.038 590.736 693.402 606.078C694.023 606.078 708.156 603.034 715.145 601.512C702.26 631.515 672.903 692.778 657.192 701.172C656.752 701.356 656.516 701.47 656.516 701.504C656.739 701.405 656.964 701.294 657.192 701.172C661.513 699.366 685.491 690.857 698.061 686.437L661.176 737.574C669.847 737.422 688.975 736.205 696.12 732.552C698.061 732.095 650.304 810.628 610.701 827.521C611.866 827.521 643.315 831.63 656.516 827.521C652.375 837.11 643.393 857.565 640.597 862.679C657.552 862.983 696.197 859.756 715.145 844.415L718.639 876.376C730.805 869.984 757.311 854.642 766.008 844.415Z" fill="url(#paint8_linear_834_9458)"/>
<path d="M164.936 903.095L171.413 749.993C171.413 749.993 131.721 788.266 130.605 787.619C129.488 786.973 130.605 771.401 130.605 771.401C120.025 783.943 97.1804 807.471 90.4438 801.243C83.7071 795.015 84.6142 789.566 85.9098 787.619C82.455 792.16 73.9907 800.205 67.7722 796.053C61.5537 791.901 62.59 785.673 63.8854 783.078C55.2485 785.457 37.9747 788.787 37.9747 783.078C37.9747 775.942 104.693 752.588 112.466 744.154C120.24 735.72 96.9203 742.857 96.9203 737.018C96.9203 731.179 146.798 724.043 146.798 717.556C146.798 711.068 108.58 726.638 102.75 722.097C98.0863 718.464 107.284 712.366 112.466 709.771C101.023 710.203 77.8763 709.9 76.8399 705.229C75.5444 699.391 171.413 689.66 171.413 679.28V605.324L107.284 641.004L96.9203 635.814L171.413 596.89V543.693L120.887 596.89V579.374C104.478 594.511 70.8817 622.839 67.7722 615.054C64.6627 607.27 63.8854 599.701 63.8854 596.89C57.1918 604.675 42.6387 617.909 37.9747 608.567C33.3107 599.225 36.0314 592.997 37.9747 591.051C26.7467 594.943 4.42035 600.393 4.93855 591.051C5.58631 579.374 98.2158 548.883 102.75 540.449C107.284 532.016 76.8399 539.151 76.8399 532.664C76.8399 527.474 117 517.527 137.08 513.202C129.091 509.959 113.89 500.228 117 487.253C92.2192 494.477 42.7149 506.291 42.9437 495.748C43.1726 485.205 52.0021 476.84 56.3882 473.975C43.8972 476.171 18.8008 479.246 18.3431 473.975C17.771 467.385 76.8399 439.882 76.8399 435.012C76.8399 430.142 59.2488 437.877 57.8185 433.007C56.3882 428.136 87.8542 415.244 86.1378 415.244C84.4215 415.244 46.9485 419.828 44.9461 415.244C42.9437 410.661 137.341 379.72 140.774 374.563C144.207 369.407 160.226 355.655 158.509 350.212C156.793 344.768 108.979 369.121 107.284 359.666C105.928 352.103 119.511 340.853 126.471 336.174H88.7123C116.746 319.939 172.869 286.554 173.098 282.887C173.327 279.22 173.194 271.427 173.098 267.989C166.328 270.759 152.159 275.152 149.642 270.568C147.124 265.984 150.691 262.547 152.788 261.401L142.49 259.968L168.807 242.492L149.642 240.486L161.084 233.897L130.19 231.318C146.877 219.381 180.764 192.757 182.824 181.756C183.968 184.334 190.834 219.286 224.302 233.897H212.574L217.437 242.492L201.417 233.897L203.992 248.221L195.696 244.211L224.302 273.719L207.139 270.568L208.855 280.881L191.12 267.989L195.696 278.589L182.824 270.568V287.757C205.804 299.121 251.42 323.281 250.047 329.011C248.674 334.741 235.363 332.545 228.879 330.73C241.274 338.656 265.379 355.941 262.633 361.671C259.887 367.4 220.678 352.598 201.417 344.481L220.583 374.563C238.223 385.258 273.16 407.508 271.787 410.946C270.414 414.385 262.086 409.217 260.059 412.665C259.162 429.863 340.611 460.795 339.009 465.379C337.408 469.963 318.7 469.199 309.546 468.244C319.844 474.355 339.467 487.495 335.577 491.163C331.686 494.831 288.378 493.646 267.21 492.596C275.124 497.377 289.865 507.567 285.517 510.071C280.082 513.202 204.278 507.779 198.557 502.909C198.786 503.138 198.652 520.385 198.557 528.98L280.654 574.818L262.633 579.374L198.557 538.147V599.169C211.143 611.775 241.065 638.303 260.059 643.575C260.059 643.861 249.475 647.586 237.174 645.58C237.403 646.268 242.419 652.742 244.898 655.894L231.453 654.461C250.237 668.157 271.792 690.545 303.601 698.289C325.359 701.14 377.055 731.337 373.908 737.018C371.391 741.563 356.268 738.912 349.021 737.018C361.322 744.069 383.519 758.857 373.908 761.608C364.297 764.358 345.303 757.597 337.007 753.872C326.9 761.894 303.195 773.125 289.236 753.872C288.95 753.872 283.229 753.013 280.654 757.31C278.856 760.312 273.848 761.916 270.407 761.634C284.323 769.541 339.388 804.374 359.319 804.867C367.615 804.581 361.894 816.04 332.716 813.462C332.144 812.889 338.151 832.943 307.83 823.203C307.258 822.916 289.83 855.227 246.979 799.813C247.478 801.009 248.418 812.381 244.898 818.619C241.179 825.208 197.012 776.906 196.555 768.197C196.326 769.114 199.51 858.511 201.131 903.095H164.936Z" fill="url(#paint9_linear_834_9458)"/>
<path d="M9.56602 926.632C4.83456 922.634 -2.62314 910.742 9.56622 906.345C21.7556 901.948 51.2608 907.382 51.2608 907.382C51.2608 907.382 25.2386 897.055 36.3276 879.247C40.494 872.556 58.1191 857.389 67.9683 857.002C80.9277 857.002 92.1251 872.03 93.7801 874.356C92.607 872.613 87.2138 863.658 95.3212 857.002C100.424 857.258 106.706 860.589 106.706 860.589C106.706 860.589 102.45 847.064 112.768 842.462C117.943 840.154 132.285 838.673 146.183 843.856C153.314 841.776 154.463 860.589 154.463 860.589C154.463 860.589 155.894 851.06 160.47 851.06C166.138 851.06 172.19 859.286 172.19 859.286C172.19 859.286 164.531 835.348 173.39 832.945C179.725 831.227 190.462 848.01 190.462 848.01C190.462 848.01 190.858 834.83 199.875 833.777C202.626 833.456 230.497 814.781 255.705 819.822C280.913 824.862 290.391 829.506 289.635 847.064C292.184 836.208 304.98 837.252 306.703 837.133C312.838 836.709 318.438 848.01 318.438 848.01C318.438 848.01 314.795 835.323 343.736 831.298C353.702 829.911 362.792 816.983 375.435 816.983C389.092 817.63 402.866 837.133 402.866 837.133C402.866 837.133 404.049 820.694 408.657 819.822C425.573 818.205 428.974 833.291 432.888 832.527C437.975 831.536 440.55 816.983 455.066 816.983C464.904 816.983 469.066 824.039 472.033 832.527C474.851 840.592 462.737 855.234 469.205 854.223C472.454 853.716 487.295 849.375 488.228 860.589C489.141 871.561 478.419 878.938 482.572 888.208C485.758 895.318 483.726 882.474 510.85 885.564C530.682 887.823 522.932 920.133 522.932 920.133H627.159C627.159 920.133 617.042 885.564 627.159 885.564C632.159 885.37 646.978 898.599 646.978 898.599C646.978 898.599 643.278 870.604 662.655 871.768C667.052 871.753 650.016 847.064 664.134 847.064C679.702 847.425 685.041 852.966 686.863 856.462C684.718 849.784 679.924 833.594 683.953 833.777C696.578 836.212 693.906 831.25 693.906 824.862C693.906 824.862 693.906 805.818 706.095 806.886C720.092 808.113 719.948 816.983 719.948 816.983C719.948 816.983 725.423 811.461 736.11 813.337C748.255 815.468 738.008 828.203 736.333 830.18C737.547 828.809 743.532 822.525 749.284 824.862C761.285 826.807 754.717 835.307 754.717 835.307C754.717 835.307 757.437 832.867 764.849 834.546C773.577 836.522 770.44 840.502 770.761 840.555C872.619 857.257 826.696 872.591 899.518 871.768C927.022 871.457 950.241 869.283 987.249 878.592C1002.05 882.316 997.985 896.988 1009.4 901.466C1034.6 911.357 1026.55 898.208 1082.22 898.208C1106.18 898.208 1093.85 911.726 1115.43 916.92C1140.03 922.841 1191.92 908.869 1199.51 933.927C1207.1 958.986 1137.67 944.211 1052.61 951.979C1006.59 956.182 960.777 963.409 903.738 967.562C851.503 971.365 802.932 988.485 749.284 990.936C698.223 993.269 630.146 1005.1 584.422 1005.1C537.238 1005.1 454.106 992.074 402.866 989.165C351.166 986.23 296.397 972.025 247.072 967.562C192.335 962.608 172.022 956.66 128.698 951.692C50.3408 942.708 9.56602 926.632 9.56602 926.632Z" fill="#013451"/>
<path d="M885.209 956.49C885.209 963.307 859.192 960.077 844.21 962.377C821.045 965.934 816.26 957.856 793.263 962.377C770.507 966.851 758.55 974.768 736.12 978.894C718.792 982.082 691.684 980.157 663.274 982.082C627.835 984.483 606.441 990.936 572.749 990.936C542.623 990.936 513.532 989.436 475.858 985.269C440.271 981.333 421.065 972.993 385.332 970.749C362.039 969.286 348.528 974.956 325.571 970.749C303.864 966.771 294.17 955.558 272.528 951.238C245.171 945.778 228.853 954.038 201.098 951.238C163.21 947.416 106.328 934.402 106.328 928.251C106.328 922.346 168.475 930.193 193.611 925.258C203.616 923.293 223.532 924.697 236.816 922.956C248.657 921.404 256.324 914.084 270.469 912.739C291.98 910.693 305.576 914.224 331.589 912.739C355.154 911.394 384.8 921.307 411.279 920.5C427.98 919.991 462.996 913.01 480.615 912.739C499.255 912.452 501.843 915.427 521.296 915.427C537.846 915.427 578.197 910.017 594.17 910.226C616.777 910.522 629.647 912.056 650.77 912.739C669.502 913.344 716.786 899.139 734.065 900.02C758.505 901.265 767.294 918.768 788.18 920.5C816.963 922.888 862.504 920.5 894.935 920.5C931.628 926.176 885.209 949.251 885.209 956.49Z" fill="#004973"/>
<path d="M661.945 931.135C665.524 943.305 655.003 947.534 639.952 953.804C614.392 964.453 589.859 963.153 559.138 960.941C537.831 959.407 520.97 955.599 503.898 947.087C492.287 941.299 485.996 935.137 485.996 931.135C485.996 924.554 497.389 919.695 515.662 917.281C531.005 915.254 544.396 911.819 562.207 911.404C592.978 910.687 608.24 914.342 629.722 917.281C640.402 918.742 658.979 921.049 661.945 931.135Z" fill="#D39E60" fill-opacity="0.7"/>
<path d="M624.021 929.878C626.087 938.149 620.015 941.023 611.33 945.285C596.58 952.522 582.423 951.639 564.695 950.136C552.4 949.093 542.67 946.505 532.819 940.72C526.118 936.786 522.488 932.598 522.488 929.878C522.488 925.405 529.063 922.103 539.607 920.462C548.461 919.084 556.189 916.749 566.466 916.467C584.223 915.98 593.03 918.465 605.427 920.462C611.589 921.455 622.31 923.023 624.021 929.878Z" fill="#665744"/>
<path d="M816.579 650.535C795.432 728.116 754.409 829.053 693.676 878.98L941.637 903.766C941.637 903.766 850.619 781.996 816.579 650.535Z" fill="url(#paint10_linear_834_9458)"/>
<path d="M816.578 650.535C816.578 650.535 938.056 701.901 1006.49 679.275C1019.75 751.473 1107.54 856.353 1107.54 856.353L941.636 903.766C941.636 903.766 823.019 745.725 816.578 650.535Z" fill="url(#paint11_linear_834_9458)"/>
<path opacity="0.63" d="M772.895 886.899L842.047 893.809L814.426 702.976L772.895 886.899Z" fill="#141414"/>
<path d="M816.525 653.791C816.537 652.706 816.559 651.632 816.581 650.535C816.581 650.535 803.952 814.9 756.742 847.726C757.096 848.446 771.856 868.946 772.906 886.898C773.094 886.92 805.411 840.25 814.382 707.284C814.725 818.255 842.047 893.809 842.047 893.809C849.958 864.46 875.701 855.634 874.983 855.988C817.829 800.336 816.338 675.465 816.525 653.791Z" fill="#824E1F"/>
<path d="M991.798 923.39C991.699 923.39 991.599 923.39 991.5 923.368C952.057 916.147 833.407 687.049 816.846 654.721C812.669 666.217 798.593 703.485 776.883 745.404C752.798 791.897 714.128 853.795 666.619 884.694C665.857 885.193 664.83 884.971 664.332 884.207C663.835 883.443 664.056 882.413 664.819 881.915C711.719 851.414 750.046 790.014 773.944 743.875C799.875 693.783 814.857 650.424 815.011 649.992C815.232 649.361 815.796 648.918 816.459 648.874C817.111 648.83 817.752 649.184 818.05 649.782C818.381 650.446 851.98 716.431 890.174 782.483C953.747 892.436 980.694 918.008 992.096 920.09C992.991 920.256 993.588 921.12 993.433 922.028C993.29 922.826 992.594 923.39 991.809 923.39H991.798Z" fill="#5F5656"/>
<path d="M1005.91 680.095C1005.91 680.095 1081.88 817.303 1154.25 859.687" stroke="#545454" stroke-width="2" stroke-miterlimit="10" stroke-linecap="round"/>
<path d="M670.396 887.962L666.01 876.975L668.297 875.834C669.379 875.292 669.821 873.974 669.28 872.888C668.739 871.803 667.424 871.36 666.341 871.903L658.187 875.967C657.104 876.51 656.663 877.828 657.204 878.913C657.745 879.999 659.06 880.442 660.143 879.899L662.43 878.758L668.518 888.892L670.407 887.95L670.396 887.962Z" fill="#2B2B2B"/>
<path d="M1150.02 861.636L1153.66 852.544L1151.77 851.602C1150.87 851.159 1150.51 850.063 1150.95 849.166C1151.39 848.269 1152.49 847.903 1153.38 848.346L1160.13 851.713C1161.03 852.156 1161.39 853.253 1160.95 854.15C1160.51 855.047 1159.41 855.412 1158.52 854.969L1156.63 854.028L1151.59 862.423L1150.02 861.647V861.636Z" fill="#2B2B2B"/>
<path d="M990.292 925.893L994.679 914.907L992.392 913.766C991.309 913.223 990.867 911.905 991.408 910.82C991.95 909.735 993.264 909.292 994.347 909.834L1002.5 913.899C1003.58 914.442 1004.03 915.76 1003.48 916.845C1002.94 917.93 1001.63 918.373 1000.55 917.831L998.258 916.69L992.171 926.823L990.281 925.882L990.292 925.893Z" fill="#2B2B2B"/>
<path d="M721.01 804.952C721.01 820.479 708.805 830.579 708.805 852.264C706.443 872.371 692.496 870.34 684.792 881.439C675.797 894.397 668.757 897.75 656.054 907.067C643.412 916.339 587.972 918.159 571.255 918.159C543.023 918.159 504.404 917.692 482.312 903.44C471.276 896.32 461.572 897.174 452.923 887.354C445.476 878.898 442.461 857.597 437.175 847.533C428.908 823.877 406.467 815.895 403.711 804.952C477.063 804.952 669.094 804.952 721.01 804.952Z" fill="#EFBDA0" fill-opacity="0.2"/>
<path d="M693.846 816.798C685.741 837.85 679.121 836.791 675.343 849.11C671.805 860.647 676.55 866.93 670.226 876.708C662.842 888.123 647.98 881.117 637.551 889.325C628.554 896.406 630.096 903.877 619.396 907.966C607.21 912.623 607.827 917.906 571.783 918.873C506.611 920.622 513.574 913.708 495.438 901.152C486.378 894.88 479.706 885.36 472.605 876.708C466.491 869.259 481.131 855.037 476.593 842.801C470.31 833.712 452.855 835.31 452.855 816.798C513.074 816.798 651.226 816.798 693.846 816.798Z" fill="#EFBDA0" fill-opacity="0.2"/>
<path d="M892.849 929.05C887.842 928.583 879.608 924.396 886.735 911.379C891.434 902.976 897.261 906.035 900.965 909.856C899.27 906.833 893.755 891.251 900.186 883.736C906.056 876.878 913.23 878.079 916.083 879.537C914.569 876.504 911.995 869.6 913.812 866.24C915.629 862.881 924.818 868.223 929.185 871.314C922.605 864.083 913.044 847.94 927.438 841.222C945.431 832.824 1022.82 817.253 1039.41 843.846C1043.61 851.824 1043.14 860.7 1042.38 864.141C1045.06 860.583 1052.2 854.378 1059.33 858.017C1066.46 861.656 1067.31 868.398 1066.84 871.314C1075.4 863.791 1095.98 852.244 1109.82 866.24C1116.24 873.798 1110.86 886.652 1107.37 892.134C1110.28 889.918 1117.05 886.15 1120.82 888.81C1124.59 891.469 1125.65 900.882 1125.71 905.255C1128.22 895.633 1140.42 878.872 1169.21 888.81C1200.1 900.287 1193.26 920.068 1185.98 928.525C1185.98 928.525 1172.48 935.788 1161.08 935.788C1116.11 935.788 1125.71 932.323 1090.67 939.224C1057.86 945.686 1003.92 936.874 996.23 938.125C988.544 939.375 983.328 948.03 965.639 947.553C952.15 947.19 944.908 938.502 931.305 943.655C925.905 945.7 923.604 946.424 917.029 948.435C906.605 951.624 892.443 948.936 891.086 938.125C890.637 934.542 892.849 929.05 892.849 929.05Z" fill="#013451"/>
<defs>
<linearGradient id="paint0_linear_834_9458" x1="813.069" y1="457.999" x2="813.069" y2="929.595" gradientUnits="userSpaceOnUse">
<stop stop-color="#7D6B43"/>
<stop offset="0.317708" stop-color="#083D62"/>
</linearGradient>
<linearGradient id="paint1_linear_834_9458" x1="85.4502" y1="569.743" x2="85.4502" y2="926.835" gradientUnits="userSpaceOnUse">
<stop stop-color="#7D6B43"/>
<stop offset="0.317708" stop-color="#083D62"/>
</linearGradient>
<linearGradient id="paint2_linear_834_9458" x1="861.896" y1="321.456" x2="861.896" y2="784.318" gradientUnits="userSpaceOnUse">
<stop stop-color="#7D6B43"/>
<stop offset="0.317708" stop-color="#083D62"/>
</linearGradient>
<linearGradient id="paint3_linear_834_9458" x1="290.449" y1="383.186" x2="290.449" y2="842.902" gradientUnits="userSpaceOnUse">
<stop stop-color="#7D6B43"/>
<stop offset="0.317708" stop-color="#083D62"/>
</linearGradient>
<linearGradient id="paint4_linear_834_9458" x1="161.901" y1="494.802" x2="161.901" y2="908.815" gradientUnits="userSpaceOnUse">
<stop stop-color="#7D6B43"/>
<stop offset="0.317708" stop-color="#083D62"/>
</linearGradient>
<linearGradient id="paint5_linear_834_9458" x1="367.005" y1="384.274" x2="367.005" y2="894.178" gradientUnits="userSpaceOnUse">
<stop stop-color="#837659"/>
<stop offset="0.286458" stop-color="#013451"/>
</linearGradient>
<linearGradient id="paint6_linear_834_9458" x1="1083.59" y1="457.999" x2="1083.59" y2="929.595" gradientUnits="userSpaceOnUse">
<stop stop-color="#7D6B43"/>
<stop offset="0.317708" stop-color="#083D62"/>
</linearGradient>
<linearGradient id="paint7_linear_834_9458" x1="964.753" y1="272.559" x2="964.753" y2="872.791" gradientUnits="userSpaceOnUse">
<stop stop-color="#837659"/>
<stop offset="0.286458" stop-color="#013451"/>
</linearGradient>
<linearGradient id="paint8_linear_834_9458" x1="758.436" y1="358.608" x2="758.436" y2="879.642" gradientUnits="userSpaceOnUse">
<stop stop-color="#837659"/>
<stop offset="0.286458" stop-color="#013451"/>
</linearGradient>
<linearGradient id="paint9_linear_834_9458" x1="190.593" y1="181.756" x2="190.593" y2="903.095" gradientUnits="userSpaceOnUse">
<stop stop-color="#837659"/>
<stop offset="0.286458" stop-color="#013451"/>
</linearGradient>
<linearGradient id="paint10_linear_834_9458" x1="817.656" y1="650.535" x2="817.656" y2="903.766" gradientUnits="userSpaceOnUse">
<stop offset="0.3125" stop-color="#6A4321"/>
<stop offset="1" stop-color="#3D1E03"/>
</linearGradient>
<linearGradient id="paint11_linear_834_9458" x1="822.553" y1="668.855" x2="1060.08" y2="860.629" gradientUnits="userSpaceOnUse">
<stop stop-color="#333131"/>
<stop offset="1" stop-color="#1B1B1B"/>
</linearGradient>
</defs>
</svg>
