<svg width="368" height="190" viewBox="0 0 368 190" fill="none" xmlns="http://www.w3.org/2000/svg">
<path d="M301.401 18.5503C302.199 18.7705 303.025 18.3016 303.245 17.503C303.466 16.7044 302.997 15.8785 302.198 15.6583L301.401 18.5503ZM35.7223 17.1043L34.5062 16.2262L34.5062 16.2262L35.7223 17.1043ZM184.759 180.012L184.985 178.529L184.985 178.529L184.759 180.012ZM336.664 20.6157L337.542 19.3997L336.664 20.6157ZM139.644 8.70677L139.461 10.1955L139.503 10.2006L139.545 10.2034L139.644 8.70677ZM18.1615 38.4788L16.7917 37.8676L18.1615 38.4788ZM25.5045 171.73L24.8106 173.059L24.8106 173.059L25.5045 171.73ZM173.417 184.549L173.344 183.051L173.284 183.054L173.225 183.062L173.417 184.549ZM319.388 8.70677L319.722 7.24427L319.388 8.70677ZM184.223 11.8233C183.457 12.1402 183.094 13.0177 183.411 13.7831C183.728 14.5485 184.605 14.912 185.37 14.5951L184.223 11.8233ZM339.271 169.628L338.321 168.467L339.271 169.628ZM346.324 174.306L345.148 173.374L345.078 173.463L345.021 173.563L346.324 174.306ZM302.198 15.6583C270.684 6.96858 208.301 1.02324 151.728 0.209831C123.423 -0.197138 96.5009 0.679152 75.5543 3.15409C65.0858 4.391 56.0602 6.03274 49.083 8.1325C45.5939 9.18251 42.5796 10.358 40.1388 11.6761C37.7104 12.9876 35.7621 14.4868 34.5062 16.2262L36.9384 17.9824C37.8287 16.7494 39.3475 15.513 41.5644 14.3158C43.7688 13.1253 46.578 12.0193 49.9475 11.0052C56.6874 8.97688 65.5197 7.3606 75.9063 6.13337C96.6702 3.68002 123.448 2.80352 151.685 3.20952C208.197 4.02206 270.268 9.96573 301.401 18.5503L302.198 15.6583ZM34.5062 16.2262C28.6882 24.2836 22.5048 37.6248 17.4641 53.2963C12.4156 68.9919 8.47719 87.137 7.2082 104.856C5.9406 122.555 7.32799 139.947 13.0359 154.06C18.767 168.23 28.8727 179.116 44.9242 183.575L45.7271 180.684C30.7275 176.518 21.2634 166.401 15.8171 152.935C10.3476 139.412 8.94993 122.532 10.2005 105.07C11.4497 87.6275 15.3328 69.72 20.32 54.2149C25.3149 38.6859 31.3814 25.6784 36.9384 17.9824L34.5062 16.2262ZM44.9242 183.575C76.2576 192.279 103.414 190.517 126.639 187.214C132.441 186.389 138.002 185.466 143.312 184.588C148.629 183.709 153.688 182.874 158.517 182.218C168.189 180.903 176.816 180.321 184.533 181.495L184.985 178.529C176.831 177.289 167.857 177.92 158.113 179.245C153.234 179.908 148.131 180.75 142.823 181.628C137.507 182.507 131.979 183.424 126.217 184.244C103.186 187.519 76.496 189.231 45.7271 180.684L44.9242 183.575ZM337.542 19.3997C334.106 16.9185 329.327 14.9901 323.589 13.4707C317.832 11.9464 311.012 10.8085 303.422 9.96212C288.243 8.26951 269.855 7.72911 250.491 7.64807C211.673 7.48562 169.013 9.16133 139.744 7.21009L139.545 10.2034C168.928 12.1624 211.893 10.4866 250.479 10.648C269.817 10.729 288.076 11.2694 303.089 12.9436C310.596 13.7807 317.258 14.8977 322.821 16.3707C328.402 17.8486 332.778 19.66 335.785 21.8317L337.542 19.3997ZM139.828 7.21806C122.05 5.02468 95.5335 3.48301 71.406 7.01427C47.4077 10.5266 25.1406 19.1545 16.7917 37.8676L19.5314 39.0899C27.1911 21.9217 47.9547 13.4785 71.8404 9.98265C95.5969 6.5057 121.817 8.0187 139.461 10.1955L139.828 7.21806ZM16.7917 37.8676C6.69735 60.4928 0.55363 89.8814 0.926195 115.735C1.11252 128.664 2.92935 140.786 6.75154 150.766C10.5741 160.747 16.4488 168.697 24.8106 173.059L26.1983 170.4C18.6895 166.482 13.2098 159.241 9.55311 149.693C5.89608 140.145 4.10899 128.398 3.92588 115.692C3.55958 90.2729 9.61498 61.3163 19.5314 39.0899L16.7917 37.8676ZM24.8106 173.059C31.3579 176.475 41.2776 179.31 53.0289 181.571C64.8126 183.838 78.5551 185.551 92.8224 186.673C121.342 188.917 152.082 188.815 173.609 186.037L173.225 183.062C151.97 185.804 121.451 185.916 93.0577 183.682C78.8687 182.566 65.2416 180.866 53.5957 178.625C41.9174 176.378 32.3475 173.608 26.1983 170.4L24.8106 173.059ZM319.722 7.24427C308.458 4.67701 284.062 1.91867 257.814 1.73798C231.601 1.55752 203.255 3.9425 184.223 11.8233L185.37 14.5951C203.812 6.95908 231.64 4.55786 257.793 4.73791C283.911 4.91771 308.074 7.66657 319.055 10.1693L319.722 7.24427ZM173.49 186.047C184.995 185.486 198.878 186.07 213.855 186.821C228.804 187.57 244.822 188.484 260.494 188.565C276.164 188.645 291.556 187.894 305.273 185.292C318.98 182.693 331.131 178.226 340.221 170.788L338.321 168.467C329.773 175.462 318.169 179.794 304.714 182.345C291.271 184.894 276.097 185.645 260.509 185.565C244.922 185.485 228.988 184.576 214.005 183.825C199.051 183.075 185.021 182.481 173.344 183.051L173.49 186.047ZM340.221 170.788C340.999 170.152 341.873 169.008 342.787 167.595C343.729 166.139 344.8 164.257 345.954 162.017C348.262 157.536 350.933 151.56 353.598 144.562C358.925 130.571 364.255 112.415 366.586 93.8538C368.914 75.3168 368.27 56.2228 361.494 40.4628C354.679 24.6115 341.707 12.2549 319.722 7.24427L319.055 10.1693C340.106 14.9671 352.301 26.6776 358.738 41.6478C365.214 56.7093 365.906 75.1911 363.61 93.48C361.316 111.745 356.06 129.665 350.794 143.495C348.162 150.408 345.535 156.279 343.287 160.644C342.162 162.827 341.14 164.618 340.268 165.966C339.368 167.357 338.707 168.151 338.321 168.467L340.221 170.788ZM184.533 181.495C204.273 184.499 241.961 187.942 276.119 188.2C293.193 188.329 309.446 187.663 322.155 185.731C328.505 184.765 334.033 183.475 338.357 181.779C342.631 180.103 345.981 177.935 347.627 175.049L345.021 173.563C343.893 175.541 341.343 177.386 337.262 178.986C333.23 180.567 327.947 181.816 321.704 182.765C309.225 184.662 293.155 185.329 276.142 185.2C242.124 184.944 204.578 181.511 184.985 178.529L184.533 181.495ZM347.5 175.237C349.687 172.477 351.567 168.287 353.162 163.163C354.765 158.009 356.115 151.791 357.181 144.879C359.313 131.055 360.324 114.354 359.92 97.6482C359.516 80.9474 357.695 64.1792 354.133 50.2351C350.593 36.3792 345.25 24.9667 337.542 19.3997L335.785 21.8317C342.582 26.7406 347.715 37.2329 351.226 50.9777C354.715 64.6342 356.52 81.1625 356.921 97.7208C357.322 114.274 356.317 130.795 354.216 144.422C353.165 151.236 351.844 157.301 350.297 162.271C348.742 167.271 346.993 171.045 345.148 173.374L347.5 175.237Z" fill="#F3E3D2"/>
</svg>
