<svg width="1127" height="395" viewBox="0 0 1127 395" fill="none" xmlns="http://www.w3.org/2000/svg">
<path d="M941.404 245.234C999.697 134.56 858.309 35.3646 783.467 80.4464C728.992 -47.1972 579.157 12.8167 590.694 97.8509C590.694 97.8509 555.675 96.195 544.333 111.76C510.722 -16.6908 296.491 35.1472 321.364 172.436C321.364 172.436 277.507 169.456 271.247 195.875C219.796 171.745 175.116 200.75 189.129 265.42C189.129 265.42 155.362 272.374 149.102 296.365C149.102 296.365 128.922 291.508 120.932 299.824C120.932 299.824 89.0924 286.474 86.5009 316.161C11.0617 288.457 -30.6749 370.321 55.3872 386.221H1099.56C1159.24 370.411 1095.62 294.624 1033.61 323.116C1033.61 323.116 1025.77 275.354 999.697 270.571C984.906 267.857 941.404 263.627 941.404 245.234Z" fill="#175E84"/>
<path fill-rule="evenodd" clip-rule="evenodd" d="M893.138 300.315C964.319 287.938 1031.41 295.96 1031.78 386.676C821.933 384.872 612.411 385.602 402.793 386.332C290.222 386.724 177.623 387.116 64.9302 387.116C-38.4791 375.653 33.7336 283.41 94.279 355.251C102.916 352.705 105.568 348.869 107.8 345.642C118.326 330.419 139.532 355.043 146.09 344.139C172.964 299.452 270.974 271.33 249.313 350.522C257.771 330.056 300.215 345.189 318.189 364.796C329.045 295.498 379.3 307.965 453.994 326.299C434.305 261.256 524.312 286.922 524.312 286.922C515.522 236.293 626.411 227.442 643.84 266.61C645.198 235.591 613.736 213.862 613.736 213.862C656.676 95.3604 823.79 198.759 752.949 304.73C775.316 302.955 799.963 318.105 809.99 328.685C818.349 315.953 835.251 311.464 835.251 311.464C796.625 262.012 838.24 225.395 838.24 225.395C838.24 225.395 844.678 308.741 893.138 300.315ZM733.582 300.315C720.679 259.299 674.295 227.409 633.36 227.409C695.675 190.638 769.618 261.72 733.582 300.315Z" fill="#012949"/>
<path d="M386.361 46.3633C386.361 46.3633 338.784 89.1937 374.798 126.542C374.798 126.542 429.077 114.841 440.05 167.532C440.05 167.532 511.562 180.484 470.319 253.009C470.319 253.009 459.898 262.981 454.154 243.148C448.409 223.315 444.101 212.534 422.264 213.785C400.428 215.036 429.518 176.363 382.163 178.497C334.807 180.632 350.235 190.306 345.476 191.629C338.182 190.235 329.346 187.121 324.71 178.497C310.105 144.391 316.195 65.7153 386.434 46.4001L386.361 46.3633Z" fill="#012949"/>
<path d="M243.601 264.512C263.006 256.364 303.183 241.753 322.919 256.196C325.534 258.11 285.69 278.458 292.65 311.648C292.65 311.648 287.384 305.797 274.717 309.551C262.049 313.304 236.788 275.661 225.667 272.166C214.547 268.67 188.77 266.095 189.322 265.727C189.875 265.359 179.895 220.247 206.188 199.384C206.188 224.428 210.872 257.566 243.601 264.512Z" fill="#012949"/>
<path d="M963.657 260.265C926.057 255.608 966.047 218.439 961.162 179.714C951.053 99.574 852.598 46.4311 785.802 74.3246C756.524 -31.3609 584.538 -21.0441 585.432 93.7058C579.384 92.9232 558.908 91.6116 546.062 102.801C492.442 -18.9663 292.127 20.81 318.636 169.219C301.546 169.219 274.99 172.362 269.777 192.353C210.017 168.008 178.589 206.22 186.809 262.913C169.912 267.207 152.943 275.255 147.917 293.498C138.85 291.82 126.289 287.784 120.047 297.146C103.318 292.642 85.3582 293.945 85.1079 313.427C57.5554 304.177 23.283 303.837 6.65466 332.567C-15.5877 367.037 30.9337 386.488 57.1954 390.171C357.17 395.036 760.325 396.784 1097.91 388.956C1161.12 377.213 1108.62 292.513 1036.08 318.033C1031.62 298.679 1024.14 275.904 1004.92 269.272C989.882 264.442 979.213 262.192 963.657 260.265ZM961.162 266.18C953.691 267.182 936.023 270.412 916.202 292.513C955.553 268.253 1036.08 266.18 1028.67 342.161C1036.08 333.802 1036.08 323.226 1036.08 323.226C1102.63 302.141 1148.85 377.088 1096.33 381.965C758.747 384.589 352.071 384.034 57.8214 382.628C-16.2429 374.905 -0.0990448 294.796 87.8698 318.235C90.7281 300.66 102.647 295.752 121.048 301.014C128.552 293.517 140.619 295.687 149.955 297.592C155.197 280.132 170.672 271.99 187.387 267.525C189.925 266.847 217.584 265.038 233.684 277.703C226.01 261.764 194.122 262.081 190.452 262.455C182.079 206.453 213.558 171.75 271.953 197.397C275.198 199.118 282.941 205.999 285.209 217.847C284.734 198.391 274.75 194.616 272.932 193.805C278.689 175.495 302.617 172.659 319.865 173.394C321.039 173.444 322.88 190.468 346.926 191.878C325.549 186.147 322.88 170.94 322.88 170.94C304.057 31.9582 509.088 -9.76398 541.835 120.824C541.835 120.824 545.172 138.664 527.729 166.373C557.618 142.752 549.255 111.51 550.272 110.659C559.472 102.956 574.324 101.263 585.87 101.595C585.87 101.595 592.868 126.672 609.585 136.756C596.139 119.858 594.493 95.4817 594.493 94.2946C602.369 -9.33727 757.972 -12.7548 779.689 83.2986C779.689 83.2986 787.367 114.255 763.286 143.887C794.037 121.649 788.647 81.846 788.647 81.846C857.774 51.6086 941.943 106.312 953.117 186.687C954.763 221.092 945.955 233.527 938.714 248.214C935.117 250.024 930.286 240.899 923.89 233.527C916.65 223.038 893.018 195.331 852.765 206.105C818.64 215.239 797.585 273.303 830.483 304.884C813.99 273.742 821.798 229.002 856.45 216.457C900.751 203.21 917.765 232.933 921.986 240.025C931.999 256.852 943.195 264.029 961.162 266.18Z" fill="#002039"/>
<path d="M450.77 304.362C409.981 254.085 300.795 274.376 308.504 349.155C295.705 343.662 253.783 326.507 249.011 350.983C259.62 331.904 300.319 354.931 315.699 362.132C312.936 291.711 400.577 264.031 450.733 304.362H450.77Z" fill="#002039"/>
<path d="M643.95 267.346C657.008 198.104 545.674 187.232 527.274 266.368C544.95 248.853 559.331 227.952 584.665 227.584C600.335 226.734 641.786 240.167 643.95 267.346Z" fill="#002039"/>
<path d="M733.504 300.609C784.233 262.378 681.576 172.387 632.386 227.827C676.975 213.158 762.069 241.07 733.504 300.609Z" fill="#002039"/>
</svg>
