<svg width="1120" height="390" viewBox="0 0 1120 390" fill="none" xmlns="http://www.w3.org/2000/svg">
<path d="M183.13 229.609C101.012 163.676 193.382 19.4787 340.696 78.1907C378.596 -46.074 539.078 10.1884 533.469 95.5951C533.469 95.5951 568.489 93.9393 579.83 109.504C625.854 -16.3036 825.787 29.0806 802.799 170.181C802.799 170.181 846.656 167.2 852.916 193.62C911.843 168.257 943.642 206.238 935.034 263.164C935.034 263.164 968.801 270.118 975.061 294.109C975.061 294.109 995.241 289.252 1003.23 297.568C1003.23 297.568 1035.38 289.142 1037.66 313.905C1127.86 285.894 1155.06 394.474 1040.04 384.508C1040.04 384.508 352.046 384.407 24.5994 383.965C-27.9063 371.519 20.0273 294.596 90.5511 320.86C90.5511 320.86 98.9248 280.376 126.142 270.132C157.379 258.374 185.759 256.134 183.13 229.609Z" fill="#175E84"/>
<path fill-rule="evenodd" clip-rule="evenodd" d="M231.259 299.371C158.124 286.654 92.8125 294.36 92.8125 386.171C415.354 383.399 736.93 386.172 1059.47 386.172C1115.74 386.172 1129.97 332.543 1062.61 333.762C1034.15 334.277 1030.12 354.307 1030.12 354.307C1002.77 333.37 979.419 343.416 980.713 356.686C976 348.848 943.875 291.57 901.196 296.722C874.22 299.978 864.793 326.204 873.423 349.231C865.844 331.619 826.731 338.477 806.024 364.471C794.493 290.86 688.136 262.128 639.862 334.189C652.289 276.706 585.373 292.479 585.373 292.479C593.738 232.016 510.998 229.164 480.441 265.879C482.037 245 503.445 219.569 546.396 226.465C532.071 217.278 518.301 211.797 518.301 211.797C475.361 93.2954 300.607 197.815 371.447 303.786C349.081 302.011 320.141 327.26 320.141 334.189C311.782 321.457 291.231 306.089 291.231 306.089C318.009 259.324 282.464 227.667 282.464 227.667C282.464 227.667 279.719 307.797 231.259 299.371ZM491.037 226.465C443.294 187.499 347.976 249.663 390.045 299.472C410.618 237.23 439.035 232.799 491.037 226.465Z" fill="#012949"/>
<path d="M738.034 45.4192C738.034 45.4192 785.61 88.2496 749.596 125.598C749.596 125.598 695.318 113.896 684.344 166.588C684.344 166.588 612.832 179.54 654.075 252.065C654.075 252.065 664.496 262.037 670.241 242.204C675.985 222.371 680.294 211.59 702.13 212.841C723.967 214.092 694.876 175.419 742.232 177.553C789.587 179.688 774.16 189.362 778.918 190.685C786.212 189.291 795.049 186.177 799.684 177.553C814.289 143.447 798.469 67.1379 737.96 45.456L738.034 45.4192Z" fill="#012949"/>
<path d="M880.794 263.568C858.118 266.761 821.211 240.809 801.475 255.252C798.861 257.166 838.704 277.514 831.744 310.704C831.744 310.704 837.01 304.853 849.678 308.606C862.345 312.36 881.497 278.009 892.617 274.513C921.009 261.951 935.625 265.15 935.072 264.783C934.52 264.415 944.499 219.303 918.207 198.439C918.207 229.44 919.647 255.322 880.794 263.568Z" fill="#012949"/>
<path d="M178.277 230.746C88.5084 157.745 200.033 15.725 339.07 73.7859C357.93 -33.9993 538.562 -18.5135 538.562 91.6837C551.069 89.9443 566.438 89.339 578.701 104.021C582.44 92.4478 587.603 83.4408 595.19 73.9223C664.787 -8.6551 810.341 37.931 807.443 148.949C807.306 155.765 806.722 162.447 805.621 169.174C825.173 168.796 846.81 171.748 854.57 191.88C875.854 182.976 902.854 178.423 920.714 196.563C938.259 214.935 944.327 234.05 941.517 258.135C959.074 262.25 971.123 273.544 977.727 291.153C985.34 288.627 996.913 287.116 1004.27 295.895C1018.71 292.008 1036.53 289.511 1039.29 312.496C1047.87 307.753 1069.36 303.683 1080.64 306.73C1142.76 323.512 1123.6 386.729 1067.2 389.227C727.978 390.105 26.4813 388.012 26.4813 388.012C-13.3254 380.616 -2.31791 333.069 28.1384 319.94C46.0009 312.239 70.8777 308.496 88.5084 317.551C86.5205 318.557 86.9479 290.339 105.489 278.124C121.677 267.459 196.433 245.51 178.277 230.746ZM209.586 291.154C160.836 258.61 77.6961 270.327 96.3967 340.173C91.1153 334.318 88.5084 323.81 88.5084 323.81C70.7597 316.383 52.5876 317.551 35.0981 323.288C9.38268 331.724 -8.39098 375.318 28.0647 381.021C112.333 381.021 267.982 377.475 387.798 378.188C611.669 377.867 1066.57 381.683 1066.57 381.683C1105.3 377.646 1129.74 352.933 1099.09 322.351C1083.46 306.756 1055.86 311.107 1036.53 317.291C1033.67 299.717 1019.64 296.617 1003.35 300.07C995.843 292.573 983.776 294.743 974.44 296.648C969.218 279.256 953.799 270.116 937.034 265.611C933.393 264.633 917.097 262.876 890.425 275.552C904.207 259.427 931.036 257.828 934.402 258.135C938.361 231.621 932.214 200.495 904.364 190.05C887.241 184.678 868.424 189.425 852.442 196.453C852.442 196.453 845.419 200.072 839.031 217.679C839.745 198.748 847.891 191.88 847.891 191.88C840.797 174.851 816.309 173.146 804.985 175.67C803.86 175.921 801.515 189.539 777.875 190.9C800.107 184.457 801.515 169.996 801.515 169.996C816.442 59.7794 682.028 -7.50964 605.869 75.9828C594.757 87.6523 587.182 102.652 583.046 118.01C582.878 118.633 576.654 139.892 596.435 165.869C567.524 141.196 574.262 110.219 574.262 110.219C565.784 100.299 551.707 99.9218 538.562 100.299C538.562 100.299 534.481 119.393 518.578 131.942C523.446 123.233 530.694 111.496 529.792 93.2159C522.323 -5.07256 367.66 -18.6355 345.561 79.1105C345.561 79.1105 334.057 111.415 361.23 143.153C330.579 119.023 335.579 81.8513 335.579 81.8513C187.652 22.6325 112.419 182.84 186.152 221.985C187.242 222.563 243.607 199.895 276.41 213.016C298.393 221.809 320.516 272.007 290.929 306.73C308.913 261.874 290.402 230.38 270.782 221.985C235.634 206.945 189.967 227.771 189.578 236.46C188.864 252.403 163.528 261.301 141.826 268.031C141.826 268.031 186.152 259.451 209.586 291.154Z" fill="#002039"/>
<path d="M671.965 303.418C713.78 251.875 824.502 274.378 816.939 347.74C827.511 337.11 869.677 322.843 873.723 350.039C863.447 326.687 818.75 358.442 805.931 364.444C811.121 292.433 734.567 262.304 672.002 303.418H671.965Z" fill="#002039"/>
<path d="M480.445 266.402C473.025 208.297 572.504 211.955 597.455 264.07C587.484 247.984 500.316 196.465 480.445 266.402Z" fill="#002039"/>
<path d="M390.89 299.665C376.307 293.079 377.412 271.921 380.763 258.711C393.276 210.618 472.415 195.214 491.057 226.368C453.324 211.43 405.542 219.557 388.901 261.434C384.777 273.135 380.284 290.061 390.89 299.665Z" fill="#002039"/>
</svg>
