<svg width="465" height="196" viewBox="0 0 465 196" fill="none" xmlns="http://www.w3.org/2000/svg">
<path d="M69.0678 99.7899C69.0678 99.7899 49.3713 59.0187 85.9971 41.2247C89.4562 39.5514 111.757 30.0831 128.768 51.7542C128.768 51.7542 146.063 -8.40261 202.874 4.04504C259.685 16.4927 257.772 49.4687 257.772 49.4687C257.772 49.4687 268.475 43.6734 282.515 43.3469C294.723 43.1021 306.321 48.5709 314.745 57.4271C322.152 65.263 332.244 76.7719 332.855 82.0367C332.855 82.0367 359.632 74.8946 373.468 101.382C373.468 101.382 377.212 110.074 378.352 118.441C378.352 118.441 403.746 112.646 420.472 132.521C420.472 132.521 457.83 125.379 461.411 145.622C461.411 145.622 465.725 174.965 429.099 165.007C429.099 165.007 411.112 193.249 366.672 188.148C359.673 187.331 331.064 172.966 327.442 166.477C327.442 166.477 313.728 202.35 253.743 190.719C249.918 189.984 215.082 177.577 205.723 163.13C205.723 163.13 191.072 188.964 143.093 191.29C129.419 191.943 115.867 188.637 103.984 181.903C93.6885 176.067 81.3985 168.436 76.2302 162.681C76.2302 162.681 74.3175 173.374 57.3069 177.128C38.7499 181.21 19.8266 172.394 9.48997 156.396C1.92065 144.683 -2.35235 129.664 10.0597 115.829C35.2094 87.7503 77.8173 116.033 74.0734 110.972C73.992 110.85 69.0272 99.7899 69.0272 99.7899" fill="#175E84"/>
<path d="M199.087 87.3991C177.283 75.4767 136.506 78.2697 132.504 112.026C130.587 128.195 99.821 131.864 123.802 160.657C123.802 160.657 126.895 135.965 143.418 136.169C159.94 136.373 161.12 124.048 168.811 120.946C176.503 117.845 191.762 120.319 199.087 132.848C206.412 145.377 254.275 118.24 260.072 74.4137C263.478 48.6653 242.352 -7.97432 173.302 7.96018C210.613 1.75841 232.082 68.5341 199.087 87.3991Z" fill="#012949"/>
<path d="M205.508 157.229C205.508 157.229 289.148 198.693 316.739 137.924C316.739 137.924 353.382 161.393 377.311 118.703C475.625 145.73 407.227 227.587 329.355 167.635C304.97 203.483 222.601 202.422 205.508 157.229Z" fill="#012949"/>
<path d="M206.21 166.86C175.323 207.748 110.818 197.004 77.4504 166.534C63.6616 193.902 20.6727 176.969 8.22776 157.718C-20.5876 113.181 35.118 86.2974 70.9799 108.458H71.0613C36.6995 69.7204 88.9461 4.72462 128.442 47.9341C134.287 -11.4484 246.465 -19.0888 261.06 45.3034C290.132 32.8488 323.728 49.7675 334.726 79.8491C359.1 75.9972 376.365 93.8666 380.427 116.213C386.979 115.274 407.041 113.968 421.651 130.456C482.722 118.364 470.883 183.129 430.36 167.472C406.409 199.734 355.463 196.401 328.255 170.207C321.011 196.162 248.974 212.068 206.21 166.86ZM206.047 159.473C228.564 193.596 309.729 207.323 327.564 161.922C352.212 189.315 406.477 197.37 428.651 162.901C462.029 176.355 481.958 123.927 420.064 135.068C410.025 123.411 396.368 118.856 381.137 121.911C381.137 121.911 366.257 123.857 350.265 141.101C355.827 124.066 376.409 117.461 376.409 117.461C373.555 96.6812 359.479 80.6227 336.637 84.5723C336.637 84.5723 338.723 105.432 327.459 113.428C333.091 99.1043 329.475 82.6254 329.475 82.6254C325.025 62.2527 291.163 36.5955 261.96 50.9886C261.96 50.9886 266.58 65.1731 256.184 89.9487C259.956 68.607 256.389 57.3166 254.805 49.964C232.932 -12.8586 147.209 -3.48102 130.029 56.5046C95.3934 12.5067 47.087 69.1541 78.3506 110.05C79.2866 111.274 86.8767 121.808 106.272 127.979C82.983 125.04 66.2327 112.331 62.3391 110.861C31.0362 99.0489 -11.8605 119.512 11.6055 155.678C23.1888 173.546 69.664 188.45 75.4157 158.698C107.045 193.259 178.938 206.675 206.047 159.596V159.473Z" fill="#002039"/>
</svg>
