<svg width="367" height="181" viewBox="0 0 367 181" fill="none" xmlns="http://www.w3.org/2000/svg">
<path d="M107.096 51.0887C107.096 51.0887 104.779 42.7177 127.439 42.9645C127.439 42.9645 133.576 22.3002 161.773 25.4881C179.857 -8.60957 214.048 -5.47456 239.917 35.1388C259.621 1.0933 296.347 26.8807 293.934 70.1226C293.934 70.1226 342.724 76.4224 344.868 118.242C379.584 134.863 366.046 173.6 327.443 161.134C299.11 176.248 250.844 185.569 222.224 165.557C222.224 165.557 200.259 187.246 167.14 168.015C167.14 168.015 126.578 187.719 94.2588 163.429C13.1242 161.134 0.257469 20.1267 107.096 51.0887Z" fill="#175E84"/>
<path d="M106.139 58.2616C23.058 22.3656 41.0025 181.229 121.354 120.894C146.421 156.961 204.104 140.596 225.469 108.783C210.706 134.944 259.016 114.24 266.813 106.055C266.813 106.055 267.862 122.217 291.493 122.787C291.493 122.787 309.332 149.045 337.748 133.025C342.086 142.12 353.579 134.247 351.326 126.858C381.038 141.135 354.994 175.323 327.597 161.151C287.447 182.849 256.339 181.986 221.064 165.591C207.052 183.538 182.991 175.665 165.972 167.527C145.771 177.797 109.18 181.881 92.7916 162.051C83.8091 172.026 59.927 177.132 31.3413 168.45C-12.5968 169.191 -5.39878 118.478 34.6218 125.042C13.6599 83.7778 49.7385 22.7877 106.16 58.282L106.139 58.2616Z" fill="#012949"/>
<path fill-rule="evenodd" clip-rule="evenodd" d="M31.0581 171.059C72.2764 186.297 91.6833 164.998 91.6833 164.998C125.22 190.203 167.311 169.757 167.311 169.757C201.677 189.712 221.744 168.54 221.744 168.54C251.441 189.306 297.719 179.87 327.12 164.187C363.455 178.823 383.113 132.203 347.42 116.828C346.143 78.1341 295.924 68.2525 295.924 68.2525C298.393 41.3213 268.172 -5.66883 239.831 30.5619C224.038 -2.0659 178.863 -12.4522 160.501 23.3055C131.242 19.9974 126.114 39.9952 126.114 39.9952C107.548 36.8389 105.004 48.4255 105.004 48.4255C55.6938 25.8916 11.6817 75.4049 30.9304 123.081C-18.8227 122.626 -0.329344 177.951 31.0581 171.059ZM290.533 72.2877C294.066 33.7542 264.191 3.3864 238.826 39.9619C223.697 0.932259 183.533 -10.6005 163.371 28.6618C148.884 27.0239 133.992 29.4034 129.982 45.0377C124.008 44.9726 111.258 44.4962 110.658 50.8661C122.342 56.2772 131.689 76.0553 131.689 81.8804C124.916 70.9076 112.799 58.1697 102.544 53.4834C52.0763 30.4207 21.4931 86.3508 38.3687 128.149C-3.87829 118.822 -4.89675 173.836 31.4172 165.861C48.6813 172.243 73.6806 176.642 88.0067 161.609L88.0075 161.608L88.011 161.604L88.0129 161.602C88.0129 161.602 79.7957 154.113 76.8371 140.984C84.1103 152.695 94.6874 161.001 94.6874 161.001C115.555 176.684 144.652 174.727 167.311 163.729C167.311 163.729 183.84 155.408 190.62 146.717C183.84 161.602 172.004 166.653 172.004 166.653C188.542 175.54 207.765 176.02 221.078 161.974C252.463 183.92 295.156 175.564 326.824 158.677C354.277 169.736 378.414 135.665 345.723 121.572C345.723 121.572 345.452 127.115 339.844 135.07C343.398 124.377 342.423 116.993 342.423 116.993C341.534 90.0579 313.446 76.8003 290.533 72.2877Z" fill="#002039"/>
<path d="M156.758 58.9899C166.398 44.3548 186.764 43.5806 196.785 57.496C182.509 50.5957 171.044 50.0601 156.758 58.9686V58.9899Z" fill="#002039"/>
<path d="M180.293 81.2928C208.878 26.7765 284.605 59.0069 266.752 118.194C269.865 64.9441 219.538 39.014 180.293 81.2928Z" fill="#002039"/>
</svg>
