<svg width="236" height="197" viewBox="0 0 236 197" fill="none" xmlns="http://www.w3.org/2000/svg">
<g clip-path="url(#clip0_883_1525)">
<mask id="mask0_883_1525" style="mask-type:luminance" maskUnits="userSpaceOnUse" x="16" y="0" width="185" height="168">
<path d="M16.8945 0.851196H200.895V167.846H16.8945V0.851196Z" fill="white"/>
</mask>
<g mask="url(#mask0_883_1525)">
<path d="M90.8745 2.75018C78.2327 1.35625 65.7684 11.4371 61.1101 16.6542L64.344 11.427C57.2831 7.24514 52.3865 8.39665 50.8202 9.49261C46.3292 11.9472 46.0454 22.033 46.4661 26.7653L43.4856 29.0381C34.9597 36.0381 36.8758 46.8057 38.8983 51.3108C36.4551 53.3916 31.4927 57.7906 31.2189 58.6946C30.9452 59.6037 30.0328 68.0128 29.6121 72.1037C27.1385 81.5583 32.0198 87.1795 34.7722 88.8108C31.1023 88.2653 28.5071 91.7653 27.6657 93.5835C21.2485 96.0381 20.7872 100.442 21.36 102.336C15.399 107.882 19.9458 115.477 22.9668 118.589L21.36 122.907C19.8038 130.816 29.7287 138.402 34.8837 141.205C39.4711 147.841 47.4951 149.351 50.9318 149.27C49.0614 147.417 46.532 144.816 51.388 149.27C57.4655 154.841 62.6916 153.528 67.9682 153.528C72.1906 153.528 75.5868 150.69 76.7577 149.27C77.6599 150.957 80.5745 154.174 85.0098 153.528C90.5551 152.725 91.2293 155.538 94.0729 155.538C96.9166 155.538 100.024 159.159 105.706 159.159H110.983L116.528 155.538C115.808 156.387 115.418 157.578 119.64 155.538C123.863 153.498 126.412 152.856 127.163 152.791C138.714 153.882 146.647 150.897 149.172 149.265C167.283 149.265 166.482 140.856 169.118 140.856C171.753 140.856 170.035 139.604 175.651 140.856C180.142 141.856 183.711 138.089 184.938 136.084C184.669 137.866 184.527 141.311 186.083 140.856C187.837 140.346 188.851 134.397 188.866 133.22C189.19 134.089 191.152 137.437 192.845 137.336C194.401 137.245 194.335 133.28 194.107 131.311C194.487 132.902 195.623 135.472 197.088 133.013C198.552 130.558 195.714 126.008 194.107 124.033C195.749 124.452 199.105 124.533 199.379 121.533C199.652 118.533 195.136 116.796 192.845 116.306C195.871 115.851 196.17 114.068 195.942 113.235C193.742 108.871 188.455 108.841 186.083 109.371C187.736 103.28 182.874 96.4522 180.239 93.8007C182.9 86.2552 176.837 81.336 173.472 79.8209C173.816 75.73 168.2 70.73 164.992 68.0886C162.756 66.2502 160.992 67.1795 160.146 68.1391C160.156 68.1239 160.171 68.1037 160.181 68.0886C166.923 58.7906 157.713 50.629 152.167 47.6744C152.649 47.8866 153.475 46.4421 152.968 38.9724C152.456 31.5027 141.371 26.7906 135.891 25.3663C136.687 15.2401 132.378 7.16938 127.913 6.3815C124.339 5.75019 116.209 8.75524 112.59 10.336C110.623 8.38655 103.526 4.13402 90.8846 2.74008L90.8745 2.75018Z" fill="#FCF4F0"/>
<path d="M178.327 143.472C180.335 143.225 182.038 142.503 183.411 141.316C183.401 141.846 183.518 142.25 183.776 142.553C183.989 142.801 184.405 143.073 185.145 143.003C185.687 142.942 186.25 142.705 186.828 142.285C188.267 141.23 189.296 139.846 189.905 138.159C190.072 138.422 190.264 138.644 190.477 138.816C191.202 139.381 191.907 139.609 192.576 139.472C193.306 139.331 193.955 138.77 194.502 137.816C194.989 136.977 195.303 136.048 195.44 135.048C195.987 135.195 196.509 135.195 197.011 135.068C197.584 134.922 198.101 134.548 198.547 133.972C199.378 132.902 199.708 131.619 199.53 130.154C199.328 128.508 198.684 127.109 197.599 125.972C197.675 125.957 197.746 125.942 197.812 125.922C200.316 125.099 200.869 123.397 200.894 122.109C200.914 120.821 200.453 119.558 199.515 118.366C198.816 117.462 197.949 116.7 196.95 116.104C197.518 115.447 197.782 114.71 197.726 113.917C197.675 113.24 197.336 112.523 196.682 111.725C194.218 108.695 190.893 107.392 186.813 107.841C186.787 102.366 185.13 97.6441 181.86 93.7905C183.437 89.038 182.545 84.9724 179.209 81.7148C178.738 81.2552 178.059 80.7552 177.141 80.1794C176.533 79.7905 175.909 79.3916 175.306 78.9774C173.639 72.3764 169.69 67.8107 163.557 65.3865C164.504 62.1289 164.413 58.9623 163.268 55.9673C162.594 54.2047 161.539 52.5683 160.12 51.0986C158.777 49.7097 157.221 48.538 155.497 47.6087C155.168 47.432 154.813 47.3158 154.433 47.2754C154.727 46.735 154.919 46.1845 154.99 45.639C155.517 42.0279 154.96 38.7249 153.317 35.8158C152.045 33.5633 150.215 31.4421 147.894 29.5128C144.736 26.8916 141.096 25.3512 137.067 24.9269C137.097 23.8512 137.087 22.2602 137.011 20.1895C136.879 16.4269 136.088 13.0481 134.659 10.139C133.721 8.22994 132.611 6.84105 131.354 6.01782C129.844 5.02287 128.034 4.57843 125.961 4.69459C124.182 4.79055 123.087 4.90166 122.61 5.01782C119.28 5.84105 116.041 7.02287 112.995 8.53802C112.924 8.56832 112.843 8.56327 112.782 8.51782C108.199 4.91176 102.979 2.57843 97.271 1.57843C90.1137 0.325901 83.3924 0.699638 77.2844 2.67944C72.6768 4.17439 68.495 6.51782 64.8606 9.63903C64.7491 9.73499 64.597 9.75519 64.4653 9.69459C61.87 8.49257 59.1835 7.54812 56.4818 6.88146L56.2131 8.04812C58.8439 8.69964 61.4594 9.62388 63.9888 10.7905C64.5362 11.0431 65.1597 10.9522 65.6159 10.5582C69.1286 7.53802 73.1736 5.2754 77.6443 3.8259C83.5749 1.90166 90.1137 1.54307 97.0784 2.76024C102.593 3.72994 107.642 5.99257 112.067 9.47742C112.478 9.80065 113.04 9.85115 113.501 9.62388C116.472 8.15418 119.625 6.99257 122.879 6.18449C123.158 6.11378 123.923 6.01277 126.017 5.89661C127.841 5.7956 129.418 6.17438 130.715 7.02792C131.795 7.73499 132.763 8.96226 133.61 10.6794C134.963 13.4269 135.708 16.639 135.835 20.235C135.911 22.4926 135.931 24.1592 135.87 25.1996C135.86 25.6491 136.18 26.038 136.605 26.0885C140.549 26.437 144.087 27.9017 147.139 30.4421C149.354 32.2804 151.082 34.2855 152.283 36.4168C153.784 39.0784 154.301 42.1239 153.819 45.4623C153.733 46.0734 153.444 46.7148 152.973 47.3512C152.694 47.7451 152.821 48.0481 152.887 48.1693C152.958 48.2855 153.165 48.5431 153.611 48.4774C154.128 48.4118 154.559 48.4774 154.94 48.6794C156.556 49.5481 158.016 50.6542 159.273 51.9522C160.576 53.3006 161.549 54.8057 162.158 56.4168C163.237 59.24 163.288 62.2501 162.325 65.3562C162.193 65.7905 162.421 66.2451 162.827 66.4067C168.757 68.6643 172.564 72.9875 174.145 79.2703C174.216 79.5532 174.384 79.8107 174.632 79.9875C175.261 80.4219 175.889 80.8309 176.518 81.2249C177.354 81.74 177.983 82.2047 178.383 82.5986C181.424 85.5734 182.18 89.139 180.705 93.5128C180.593 93.8562 180.659 94.24 180.892 94.5077C184.101 98.2501 185.687 102.876 185.626 108.255C185.621 108.488 185.723 108.725 185.895 108.887C186.078 109.053 186.316 109.124 186.549 109.094C190.452 108.558 193.463 109.679 195.774 112.513C196.251 113.094 196.514 113.614 196.54 114.018C196.575 114.583 196.327 115.104 195.779 115.609C195.587 115.791 195.49 116.053 195.521 116.311C195.551 116.568 195.708 116.801 195.942 116.922C196.991 117.482 197.878 118.225 198.582 119.129C199.348 120.114 199.723 121.083 199.703 122.099C199.677 123.432 198.968 124.291 197.452 124.78C197.376 124.806 197.275 124.806 197.168 124.796C196.758 124.725 195.992 124.594 195.739 125.169C195.501 125.725 196.023 126.164 196.225 126.326C197.462 127.366 198.162 128.669 198.365 130.311C198.501 131.457 198.258 132.412 197.624 133.235C197.341 133.604 197.031 133.836 196.717 133.917C196.332 134.018 195.931 133.988 195.48 133.821C195.222 133.725 194.948 133.765 194.72 133.912C194.492 134.058 194.345 134.301 194.325 134.578C194.228 135.548 193.955 136.437 193.493 137.23C193.123 137.876 192.738 138.235 192.353 138.316C192.028 138.381 191.628 138.24 191.192 137.881C191.04 137.76 190.898 137.573 190.781 137.326C190.645 137.043 190.503 136.75 190.371 136.462C190.163 136.018 189.823 136.013 189.687 136.023C189.55 136.043 189.22 136.134 189.119 136.614C188.698 138.629 187.73 140.169 186.154 141.321C185.743 141.619 185.363 141.791 185.028 141.826C184.8 141.851 184.684 141.811 184.653 141.775C184.592 141.705 184.527 141.422 184.658 140.806C184.719 140.518 184.871 139.831 184.354 139.543C183.837 139.255 183.356 139.75 183.148 139.962C181.875 141.27 180.203 142.058 178.185 142.306L178.322 143.498V143.482H178.353L178.327 143.472Z" fill="#4D6E75"/>
<path d="M35.3836 145.245L36.3163 144.508C35.2924 143.139 34.4509 141.639 33.8122 140.043C33.6602 139.69 33.3459 139.462 32.9809 139.437C29.9954 139.23 27.39 138.043 25.256 135.902C23.5123 134.164 22.1995 132.154 21.3428 129.907C20.6889 128.2 20.3848 126.528 20.4558 124.927C20.5318 123.185 20.9779 121.503 21.7838 119.907C22.0018 119.472 21.9511 118.952 21.6622 118.573C19.3102 115.503 18.0987 112.134 18.0582 108.553C18.0379 106.573 18.5093 104.548 19.4673 102.543C19.8171 101.796 20.1973 100.816 20.5876 99.6289C20.9627 98.4976 21.3631 97.6441 21.7838 97.0633C23.0814 95.2956 24.7947 93.9875 26.8882 93.1845C27.1822 93.0734 27.4153 92.836 27.537 92.538C28.1959 90.8209 29.2959 89.6087 30.9129 88.836C31.1815 88.7148 31.3792 88.4471 31.4299 88.139C31.4806 87.831 31.3741 87.5128 31.146 87.3007C30.5124 86.7148 29.9954 86.0633 29.6254 85.3714C26.7665 80.1087 26.8476 75.0633 29.8687 69.9623C30.0258 69.6845 30.0714 69.3512 29.9802 69.0481C29.2756 66.5784 29.1185 64.2956 29.5037 62.2602C30.4262 57.4421 33.133 53.7704 37.5531 51.3562C37.9484 51.139 38.1056 50.6289 37.8978 50.2198C35.4495 45.2552 35.2822 40.3259 37.4061 35.5784C38.1056 34.0128 39.0737 32.5077 40.2649 31.1037C41.4662 29.6996 42.7994 28.4825 44.2237 27.4976C45.1665 26.8461 45.6075 25.9219 45.5061 24.831C45.4707 24.3663 45.4453 24.1138 45.4352 24.0633C45.3591 19.9017 45.9522 16.033 47.1941 12.5885C47.9493 10.5027 49.4092 9.07843 51.6445 8.22995L51.234 7.09863C48.6944 8.06833 46.966 9.7754 46.0891 12.1693C44.7864 15.7552 44.173 19.7754 44.2592 24.1087C44.2592 24.134 44.2592 24.139 44.3302 24.932C44.391 25.5835 44.1477 26.0784 43.5546 26.4875C42.0441 27.533 40.6299 28.8108 39.3627 30.2956C38.0904 31.7855 37.0665 33.3916 36.3213 35.0633C34.091 40.0633 34.2076 45.24 36.6863 50.4471C32.1192 53.033 29.3111 56.9219 28.3379 62.0077C27.9121 64.235 28.0794 66.7097 28.8397 69.3613C25.6311 74.7501 25.5449 80.336 28.5812 85.9421C28.9664 86.6441 29.4632 87.3007 30.0613 87.9017C28.3784 88.8108 27.1619 90.1996 26.4472 92.0431C24.1459 92.9269 22.2603 94.3663 20.841 96.3158C20.3392 97.0077 19.883 97.9522 19.4673 99.2199C19.0922 100.356 18.7324 101.291 18.4029 101.993C17.3739 104.164 16.8569 106.371 16.8822 108.538C16.9126 112.381 18.2153 115.998 20.7346 119.286C19.8475 121.058 19.3558 122.917 19.2747 124.831C19.1987 126.594 19.5282 128.432 20.2378 130.301C21.1553 132.705 22.5644 134.861 24.4247 136.72C26.7361 139.028 29.5443 140.331 32.763 140.583C33.4321 142.22 34.3039 143.775 35.3735 145.195V145.24L35.3836 145.245Z" fill="#4D6E75"/>
<path d="M51.5963 8.27546C53.122 7.89667 54.6883 7.81586 56.2597 8.04314L56.4219 6.85122C54.7035 6.59869 52.9902 6.6896 51.3175 7.10374L51.5963 8.27041V8.27546Z" fill="#567E87"/>
<path d="M38.5194 148.225L39.3203 147.346L36.2537 144.437L35.4528 145.321L38.5194 148.225Z" fill="#426B72"/>
<path d="M110.136 161.245C111.408 161.245 112.747 161.028 114.13 160.599C115.575 160.149 116.791 159.316 117.739 158.124C117.861 157.967 118.054 157.887 118.246 157.897C119.681 157.998 120.973 157.573 122.088 156.614C123.006 155.821 123.923 155.063 124.816 154.376C124.922 154.286 125.074 154.275 125.206 154.331C127.786 155.452 130.488 156.033 133.25 156.053C138.618 156.104 143.591 154.467 148.016 151.24C149.354 151.922 150.626 152.27 151.802 152.286H152.081C157.201 152.286 161.757 150.563 165.625 147.169L164.865 146.255C161.144 149.518 156.749 151.144 151.817 151.078C150.793 151.063 149.663 150.745 148.452 150.109C148.137 149.932 147.742 149.962 147.438 150.18C143.236 153.27 138.522 154.836 133.417 154.836H133.265C130.67 154.821 128.115 154.275 125.677 153.21C125.155 152.983 124.557 153.063 124.126 153.402C123.219 154.104 122.286 154.871 121.353 155.679C120.466 156.442 119.488 156.77 118.353 156.685C117.78 156.644 117.222 156.887 116.852 157.341C116.046 158.346 115.022 159.058 113.811 159.432C111.413 160.179 109.208 160.22 107.257 159.568C106.628 159.356 105.985 159.336 105.346 159.498C102.68 160.179 100.576 159.584 98.9136 157.659C98.6601 157.361 98.3053 157.169 97.915 157.124C95.7253 156.851 93.9816 156.084 92.7296 154.821C92.4913 154.573 92.1365 154.467 91.7969 154.548C86.9054 155.71 82.1965 154.705 77.8119 151.568C77.4723 151.331 77.0363 151.341 76.717 151.599C74.4614 153.457 71.4657 154.296 67.8313 154.094C67.4917 154.073 67.1571 154.109 66.8327 154.185C61.3431 155.472 56.1526 154.2 51.3828 150.407C51.0432 150.134 50.6225 150.008 50.2017 150.038C46.1162 150.316 42.4261 149.387 39.2479 147.275L38.6143 148.281C42.0105 150.538 45.9338 151.533 50.2828 151.235C50.4197 151.22 50.5616 151.265 50.6732 151.356C55.7268 155.382 61.262 156.725 67.1014 155.356C67.3193 155.306 67.5474 155.286 67.7806 155.296C71.6329 155.503 74.8365 154.624 77.305 152.664C81.9075 155.902 86.8446 156.937 91.9794 155.74C93.4189 157.154 95.3755 158.018 97.7832 158.316C97.8846 158.331 97.9708 158.371 98.0367 158.452C99.9933 160.715 102.553 161.457 105.63 160.664C106.056 160.553 106.471 160.568 106.887 160.71C107.926 161.058 109.011 161.23 110.156 161.23H110.136V161.245Z" fill="#316069"/>
<path d="M165.628 147.144C167.017 145.796 168.193 144.25 169.131 142.543L173.45 142.442C173.521 142.437 173.561 142.457 173.571 142.457C175.016 143.397 176.623 143.74 178.336 143.472L178.159 142.28C176.704 142.508 175.411 142.22 174.185 141.427C173.972 141.285 173.713 141.225 173.409 141.225L168.994 141.326C168.629 141.341 168.31 141.533 168.153 141.831C167.266 143.462 166.14 144.952 164.807 146.25L165.613 147.119V147.134L165.628 147.149V147.144Z" fill="#426B72"/>
<path d="M131.784 37.9724C133.827 32.5936 134.825 26.9269 134.754 21.1542L133.583 21.1693C133.654 26.7956 132.686 32.2956 130.699 37.5431L131.794 37.9825H131.789L131.784 37.9724Z" fill="#708087"/>
<path d="M131.314 38.3563C132.571 38.3563 133.534 37.7351 134.097 36.5684C134.629 35.4573 135.116 34.3108 135.531 33.1543L134.431 32.7401C134.031 33.8563 133.565 34.9674 133.047 36.0381C132.672 36.8209 132.115 37.1745 131.248 37.1543L131.223 38.3563H131.319H131.314Z" fill="#858282"/>
<path d="M150.891 49.341L151.763 48.5329C151.616 48.3663 151.221 47.9218 152.098 46.7602C152.483 46.2451 152.731 45.6643 152.848 45.0329C153.345 42.3259 152.737 39.5481 151.033 36.7956C147.683 31.3764 142.847 28.1239 136.658 27.134C136.232 27.0582 135.812 27.341 135.7 27.7804L134.428 32.8006L135.558 33.1037L136.759 28.3713C142.467 29.3663 146.928 32.4168 150.035 37.442C151.576 39.9319 152.128 42.4168 151.687 44.8158C151.606 45.2754 151.429 45.6744 151.16 46.043C149.954 47.6643 150.344 48.735 150.891 49.3511V49.341Z" fill="#858C90"/>
<path d="M157.556 53.6643L158.402 52.8309C157.15 51.4875 155.68 50.4319 154.028 49.6744C153.202 49.3006 152.391 48.8764 151.615 48.4117L151.022 49.4521C151.838 49.942 152.69 50.3814 153.551 50.7754C155.067 51.4673 156.42 52.4319 157.556 53.6542V53.6693V53.6643Z" fill="#858282"/>
<path d="M159.467 71.6087L160.299 70.7552L158.859 69.2703C160.299 67.7097 161.231 65.9168 161.622 63.9421C162.494 59.6188 161.414 55.8764 158.403 52.8158L157.582 53.6744C160.329 56.4673 161.277 59.7501 160.481 63.7047C160.116 65.5279 159.229 67.1895 157.861 68.6188C157.693 68.7855 157.602 69.0178 157.602 69.2703C157.602 69.533 157.714 69.8006 157.906 69.9875L159.478 71.6087H159.467Z" fill="#708085"/>
<path d="M150.199 86.634C154.036 86.634 157.275 85.0835 159.83 82.0229L158.943 81.2401C156.383 84.2957 153.235 85.6593 149.312 85.4068C149.079 85.3916 148.952 85.3563 148.891 85.331C148.866 85.3159 148.845 85.3108 148.835 85.3058C148.886 85.0987 148.992 85.0229 149.246 84.9977C153.306 84.5482 156.444 82.9522 158.562 80.2704C160.164 78.23 160.995 75.9623 161.031 73.5027C161.041 72.7351 160.828 71.8765 160.407 70.9573L159.343 71.4674C159.688 72.2199 159.865 72.9068 159.85 73.4876C159.819 75.6694 159.074 77.6946 157.645 79.5179C155.719 81.9522 152.855 83.3967 149.114 83.8058C148.298 83.8967 147.761 84.432 147.649 85.2704C147.619 85.5078 147.629 86.0886 148.425 86.4421C148.653 86.5431 148.916 86.6037 149.241 86.6239C149.56 86.6441 149.89 86.6542 150.204 86.6542V86.634H150.199Z" fill="#647B80"/>
<path d="M159.861 81.9825L161.133 80.1997L160.19 79.4825L158.918 81.2704L159.861 81.9775V81.9825Z" fill="#7B8083"/>
<path d="M161.193 80.0936L162.48 77.2098L161.416 76.7047L160.129 79.5885L161.193 80.0936Z" fill="#837E80"/>
<path d="M179.943 118.19C182.316 115.972 183.77 113.306 184.293 110.28C184.703 107.866 184.632 105.351 184.075 102.796C183.517 100.215 182.346 97.8916 180.597 95.8916C180.025 95.235 179.609 94.6138 179.366 94.0582C181.094 90.3663 180.638 86.9825 177.997 83.9875C176.791 82.6138 175.103 81.4269 172.979 80.4522C173.004 79.235 172.791 78.0532 172.33 76.9572C170.809 73.3057 168.305 70.5178 164.884 68.6592C163.921 68.139 162.785 67.7906 161.488 67.6188C161.052 67.5683 160.839 67.7805 160.753 67.9067C160.667 68.038 160.54 68.3108 160.732 68.7047C161.964 71.3057 162.187 74.0178 161.381 76.7754L162.507 77.1239C163.318 74.3411 163.191 71.5936 162.121 68.9421C162.958 69.1138 163.698 69.3764 164.341 69.7249C167.509 71.4471 169.841 74.038 171.255 77.432C171.651 78.3815 171.838 79.4017 171.808 80.4623C171.798 80.9269 172.061 81.3461 172.462 81.533C174.454 82.4421 176.02 83.538 177.12 84.7905C179.447 87.4269 179.832 90.2956 178.296 93.5481C178.149 93.836 178.144 94.1845 178.266 94.4825C178.56 95.1744 179.046 95.9067 179.72 96.6845C181.337 98.5279 182.417 100.669 182.929 103.053C183.451 105.452 183.522 107.816 183.132 110.063C182.66 112.831 181.322 115.26 179.148 117.296L179.938 118.184V118.169L179.943 118.19Z" fill="#858C8E"/>
<path d="M178.871 119.462C179.135 118.978 179.479 118.558 179.91 118.215L179.185 117.265C178.633 117.71 178.177 118.245 177.842 118.871L178.866 119.452H178.871V119.462Z" fill="#707E83"/>
<path d="M178.024 119.74L179.008 119.073L178.851 118.836L177.867 119.503L178.024 119.74Z" fill="#627980"/>
<path d="M179.575 120.412C180.203 120.412 180.827 120.104 181.41 119.498C183.321 117.503 184.603 115.962 185.328 114.775L184.34 114.129C183.666 115.22 182.403 116.74 180.574 118.644C179.813 119.437 179.301 119.245 178.87 118.917L178.181 119.886C178.642 120.235 179.114 120.402 179.585 120.402V120.417L179.575 120.412Z" fill="#7E8082"/>
<path d="M190.644 116.685C191.931 115.922 193.31 115.387 194.724 115.084C195.039 115.013 195.282 114.796 195.388 114.483C195.495 114.174 195.439 113.846 195.241 113.584C192.93 110.599 189.929 109.417 186.33 110.078C185.97 110.149 185.681 110.397 185.565 110.735L184.277 114.245L185.372 114.664L186.629 111.245C189.63 110.715 192.068 111.619 194.055 113.998C192.671 114.331 191.328 114.887 190.056 115.634L190.639 116.679L190.644 116.685Z" fill="#858C8E"/>
<path d="M195.481 129.23L196.475 128.594L193.444 123.629C194.873 123.659 196.216 123.568 197.453 123.371C198.138 123.26 198.584 122.977 198.786 122.533C198.989 122.089 198.908 121.548 198.533 120.932C197.823 119.75 196.86 118.811 195.664 118.144C194.011 117.22 192.298 116.371 190.57 115.614L190.108 116.725C191.807 117.467 193.484 118.306 195.101 119.21C196.115 119.775 196.931 120.573 197.529 121.568C197.722 121.897 197.712 122.038 197.712 122.048C197.712 122.048 197.615 122.144 197.266 122.195C195.877 122.422 194.346 122.493 192.714 122.412C192.253 122.392 192.06 122.629 191.979 122.765C191.898 122.907 191.796 123.21 192.035 123.604L195.476 129.235L195.481 129.23Z" fill="#7E8082"/>
<path d="M196.065 132.669C196.166 132.669 196.268 132.664 196.369 132.649C196.76 132.589 197.069 132.286 197.145 131.887C197.358 130.715 197.135 129.599 196.471 128.568L195.497 129.235C195.959 129.937 196.126 130.669 196.025 131.462C195.766 131.447 195.538 131.346 195.31 131.129L194.509 132.013C194.97 132.447 195.497 132.669 196.06 132.669H196.065Z" fill="#646D70"/>
<path d="M194.591 132.089L195.215 131.063L193.456 129.942L192.838 130.967L194.591 132.089Z" fill="#7E8082"/>
<path d="M192.323 131.578L193.463 131.296C193.402 131.033 193.483 130.952 193.539 130.902L192.753 130.013C192.328 130.407 192.181 130.962 192.328 131.589L192.323 131.578Z" fill="#708085"/>
<path d="M180.548 140.381C182.459 139.351 183.873 137.75 184.76 135.614L185.394 138.886C185.49 139.351 185.784 139.674 186.159 139.705C186.326 139.725 186.762 139.705 187.056 139.129C187.994 137.265 188.739 135.306 189.281 133.285C190.25 134.24 191.056 135.336 191.694 136.548C191.912 136.962 192.242 136.972 192.368 136.962C192.5 136.947 192.814 136.871 192.951 136.427C193.458 134.791 193.631 133.094 193.468 131.371L192.297 131.488C192.409 132.654 192.348 133.811 192.115 134.937C191.39 133.801 190.518 132.77 189.505 131.881C189.317 131.715 189.043 131.654 188.8 131.735C188.557 131.811 188.374 132.018 188.313 132.275C187.852 134.179 187.198 136.043 186.362 137.821L185.764 134.755C185.688 134.376 185.536 133.589 184.902 133.538C184.268 133.498 183.985 134.26 183.853 134.629C183.092 136.76 181.785 138.326 179.98 139.306L180.528 140.371V140.386L180.548 140.381ZM188.754 132.791C188.754 132.791 188.759 132.791 188.764 132.796C188.764 132.796 188.759 132.796 188.754 132.791Z" fill="#60757E"/>
<path d="M175.754 141.286C177.568 141.286 179.17 140.988 180.503 140.407L180.042 139.296C179.241 139.644 178.324 139.876 177.305 139.993C179.14 138.705 180.503 136.952 181.375 134.76L180.285 134.311C179.282 136.841 177.538 138.725 175.105 139.897C174.679 140.104 174.497 140.387 174.562 140.735C174.628 141.084 174.912 141.265 175.394 141.27H175.743V141.286H175.754Z" fill="#526E70"/>
<path d="M181.391 134.755C182.019 133.053 182.435 131.265 182.617 129.452L181.446 129.331C181.269 131.038 180.889 132.725 180.291 134.331L181.385 134.755H181.391Z" fill="#60757E"/>
<path d="M182.616 129.402C182.677 127.301 182.18 125.311 181.146 123.513C180.852 123.008 180.492 122.72 180.066 122.654C179.641 122.589 179.205 122.765 178.779 123.169L179.58 124.053C179.767 123.871 179.889 123.836 179.899 123.846C179.919 123.846 180.011 123.902 180.137 124.124C181.055 125.725 181.496 127.493 181.445 129.361L182.616 129.392H182.621L182.616 129.402Z" fill="#708085"/>
<path d="M178.495 124.275L179.656 124.129C179.646 124.038 179.656 123.972 179.691 123.897L178.647 123.356C178.5 123.644 178.455 123.962 178.49 124.285L178.495 124.275Z" fill="#627980"/>
<path d="M180.392 129.427C180.504 127.573 180.255 125.745 179.637 123.998L178.537 124.402C179.094 125.993 179.328 127.659 179.221 129.351L180.392 129.427Z" fill="#5B757C"/>
<path d="M152.836 149.902C159.547 149.902 164.611 146.599 167.931 140.043C169.011 140.25 170.096 140.301 171.165 140.205C172.306 140.104 173.416 139.755 174.485 139.174C178.089 137.2 180.076 133.922 180.391 129.432L179.22 129.341C178.926 133.452 177.197 136.316 173.928 138.109C173.005 138.614 172.042 138.917 171.059 139.008C170.02 139.104 168.976 139.038 167.941 138.821C167.571 138.73 167.176 138.922 166.994 139.291C163.496 146.341 158.128 149.387 150.601 148.578C151.133 147.952 151.584 147.25 151.934 146.477L150.87 145.972C150.449 146.907 149.856 147.725 149.116 148.417C148.796 148.725 148.847 149.043 148.883 149.164C148.918 149.286 149.05 149.583 149.486 149.649C150.641 149.821 151.762 149.907 152.836 149.907V149.902Z" fill="#4B6E77"/>
<path d="M151.948 146.432C152.313 145.412 151.827 144.826 151.502 144.563C151.239 144.346 150.879 144.285 150.544 144.397C149.911 144.599 149.348 144.962 148.876 145.472L149.733 146.291C150.047 145.942 150.412 145.705 150.833 145.553C150.894 145.624 150.94 145.74 150.838 146.013L151.938 146.427H151.943L151.948 146.432Z" fill="#5B757C"/>
<path d="M143.478 151.457C145.967 150.25 148.086 148.498 149.773 146.25L148.841 145.513C147.274 147.609 145.303 149.25 142.981 150.371L143.483 151.457H143.478Z" fill="#4B6E77"/>
<path d="M133.816 153.801C137.166 153.801 140.405 153.018 143.492 151.452L142.975 150.376C138.565 152.609 133.826 153.164 128.879 152.023C129.903 150.972 130.688 149.745 131.205 148.371L130.11 147.937C129.563 149.387 128.691 150.644 127.5 151.69C127.175 151.977 127.186 152.291 127.216 152.442C127.252 152.599 127.373 152.881 127.794 152.982C129.832 153.523 131.839 153.796 133.811 153.796L133.816 153.801Z" fill="#496E75"/>
<path d="M128.086 149.341L130.332 146.139C130.408 146.629 130.332 147.24 130.099 147.957L131.219 148.331C131.533 147.346 131.614 146.477 131.457 145.765C131.331 145.179 130.93 144.811 130.378 144.791C130.038 144.775 129.724 144.952 129.506 145.255L127.128 148.634L128.086 149.336H128.092L128.086 149.341Z" fill="#627980"/>
<path d="M110.892 158.876C111.992 158.876 113.061 158.624 114.085 158.129C115.18 157.599 115.88 156.806 116.158 155.775C116.229 155.513 116.285 155.487 116.544 155.548C118.967 156.154 120.867 155.609 122.216 153.917C123.007 152.917 123.336 152.71 123.412 152.669C123.954 152.397 124.532 152.316 125.171 152.407C125.531 152.457 125.881 152.306 126.088 152.018L128.07 149.356L127.138 148.629L125.222 151.205C124.39 151.109 123.61 151.235 122.895 151.594C122.642 151.715 122.216 152.013 121.298 153.169C120.254 154.493 118.789 154.892 116.822 154.397C115.951 154.179 115.276 154.578 115.028 155.467C114.841 156.164 114.359 156.679 113.573 157.058C112.316 157.669 111.039 157.841 109.67 157.573L109.457 158.755C109.934 158.846 110.415 158.897 110.887 158.897V158.881L110.892 158.876Z" fill="#4D6E75"/>
<path d="M109.537 158.75L109.598 157.548C108.553 157.488 108.189 157.366 108.087 157.316C107.225 156.892 106.171 156.846 104.955 157.195C102.618 157.861 100.869 157.099 99.6018 154.886C99.3484 154.437 98.801 154.25 98.3245 154.447C96.8545 155.078 95.7039 154.72 94.7053 153.301C94.1072 152.447 93.3773 151.72 92.551 151.129L91.8769 152.114C92.6017 152.629 93.2303 153.27 93.7524 154.003C95.0399 155.821 96.7379 156.376 98.659 155.604C100.205 158.235 102.425 159.149 105.259 158.351C106.191 158.089 106.967 158.104 107.57 158.402C107.955 158.589 108.574 158.7 109.527 158.75H109.532H109.537Z" fill="#547279"/>
<path d="M88.946 154.18C89.752 154.18 90.563 154.129 91.3791 154.033C91.9012 153.972 92.2864 153.503 92.2509 152.957C92.2154 152.351 92.327 152.205 92.332 152.205L92.1191 151.033C91.6173 151.124 91.0395 151.523 91.075 152.866C87.7244 153.255 84.4905 152.73 81.4694 151.326C79.9741 150.629 79.0364 149.493 78.6005 147.861L77.4701 148.18C77.9922 150.154 79.1732 151.584 80.9778 152.422C83.5122 153.604 86.1835 154.195 88.9359 154.195H88.941L88.946 154.18Z" fill="#4D6E75"/>
<path d="M78.0095 148.609L78.0703 147.407C77.6597 147.381 77.3556 147.225 77.1072 146.902C76.21 145.74 75.2672 144.594 74.2889 143.477C74.1419 143.306 73.929 143.2 73.706 143.195C73.4728 143.179 73.265 143.27 73.1079 143.432C72.6618 143.902 72.4641 144.518 72.5503 145.215L73.7111 145.073C73.6908 144.912 73.7009 144.77 73.7314 144.649C74.5779 145.634 75.399 146.649 76.1847 147.654C76.651 148.24 77.2542 148.563 77.9943 148.609H78.0044H78.0095Z" fill="#627980"/>
<path d="M63.365 153.755C64.5866 153.755 65.7373 153.457 66.7967 152.871C66.9893 152.76 67.2174 152.725 67.4404 152.77C70.7707 153.452 73.7664 152.841 76.3312 150.952C76.681 150.695 76.7722 150.19 76.539 149.806L73.6548 144.841L72.6512 145.452L75.3884 150.159C73.1328 151.715 70.6085 152.185 67.6787 151.583C67.187 151.482 66.6801 151.563 66.2442 151.811C65.3064 152.331 64.2774 152.573 63.1927 152.548C61.8545 152.508 60.5163 152.316 59.2136 151.993L58.9349 153.159C60.3187 153.508 61.7379 153.7 63.1623 153.745H63.3802L63.3701 153.76L63.365 153.755Z" fill="#496E75"/>
<path d="M58.9052 153.159L59.1992 151.998C55.1999 150.927 52.118 148.528 50.0398 144.871C49.8573 144.553 49.3504 143.851 48.4786 142.73L47.5611 143.477C48.585 144.806 48.9246 145.296 49.0311 145.482C51.2766 149.422 54.6018 152.013 58.9103 153.164H58.9052V153.159Z" fill="#547279"/>
<path d="M47.2762 146.316L48.3711 145.892C48.0518 145.023 47.9352 144.225 48.0315 143.543C48.0315 143.568 48.0061 143.609 47.9757 143.639L48.072 142.498C47.2864 142.437 46.9417 142.932 46.8758 143.376C46.749 144.26 46.8859 145.255 47.2762 146.316Z" fill="#627980"/>
<path d="M48.9897 149.134C49.38 149.134 49.5625 148.917 49.6385 148.786C49.7145 148.649 49.8159 148.361 49.603 147.988L48.3257 145.801L47.322 146.422L48.1837 147.892C44.1134 147.584 40.8187 146.003 38.3806 143.185L37.4986 143.983C40.3219 147.24 44.1743 148.977 48.9542 149.139H48.9897V149.134Z" fill="#4B6E77"/>
<path d="M37.4997 143.967L38.3867 143.179C37.2259 141.791 36.2173 140.265 35.4012 138.634C34.9804 137.796 34.2759 137.306 33.3533 137.23C31.4525 137.073 29.6987 136.407 28.1324 135.245C26.3735 133.937 24.8883 132.003 23.7377 129.493L22.6732 130.008C23.91 132.705 25.5169 134.796 27.438 136.22C29.1816 137.508 31.1332 138.26 33.2469 138.432C33.7639 138.477 34.1086 138.715 34.3468 139.184C35.2085 140.907 36.2629 142.513 37.4895 143.972H37.4946L37.4997 143.967Z" fill="#627980"/>
<path d="M22.6735 129.998L23.7379 129.503C22.0804 125.78 22.3694 122.356 24.625 119.033L23.6619 118.341C21.1782 121.993 20.8538 125.907 22.6735 129.998Z" fill="#707E83"/>
<path d="M23.6039 118.912L24.6836 118.452C24.4707 117.932 24.1514 117.472 23.7256 117.099C22.5395 116.048 21.6778 114.74 21.1557 113.215L20.0507 113.609C20.6336 115.331 21.6119 116.816 22.9602 118.008C23.244 118.265 23.4519 118.563 23.6039 118.917V118.912Z" fill="#837E80"/>
<path d="M20.0684 113.649L21.1481 113.179C20.1039 110.664 19.9721 108.058 20.7578 105.432C21.0011 104.609 21.4218 103.922 22.0351 103.341C22.6029 102.806 22.7093 102.129 22.319 101.482C22.2632 101.381 22.243 101.255 22.2835 101.149C23.1655 98.2855 25.1576 96.3309 28.3763 95.1744C29.0555 94.937 29.5219 94.2754 29.532 93.5431C29.532 93.4724 29.5675 93.1744 30.0338 92.4875C31.002 91.0431 32.2996 90.2855 34.0078 90.1794L33.9368 88.9774C31.8738 89.1087 30.2315 90.0633 29.0707 91.8006C28.5942 92.5077 28.3712 93.0582 28.3611 93.5178C28.3611 93.7552 28.209 93.9623 27.9961 94.038C24.4581 95.3158 22.1568 97.5784 21.1684 100.791C21.0315 101.24 21.0923 101.725 21.3255 102.119C21.3965 102.235 21.4319 102.291 21.2444 102.467C20.4841 103.19 19.9518 104.073 19.6426 105.089C18.7759 107.993 18.9178 110.876 20.0785 113.659V113.644L20.0684 113.649Z" fill="#858C90"/>
<path d="M34.0629 90.1643C34.4735 90.0987 34.879 90.0078 35.2744 89.8916C35.8472 89.7148 36.1057 89.3865 36.2121 89.1391C36.3743 88.7704 36.3186 88.4674 36.2375 88.2805C36.1006 87.9522 35.8168 87.7148 35.3555 87.5381C33.7385 86.9421 32.4561 85.8916 31.5437 84.4169C30.0737 82.0381 29.5364 79.3966 29.9521 76.5734L28.7913 76.3916C28.3301 79.5078 28.9282 82.4219 30.5502 85.0532C31.6045 86.7603 33.0847 87.9825 34.95 88.6643C34.9804 88.6795 35.0058 88.6896 35.0311 88.6946C35.0058 88.7098 34.9753 88.7199 34.9297 88.7249C34.585 88.8259 34.2302 88.9068 33.8653 88.9623L34.0427 90.1492H34.0528L34.0629 90.1643Z" fill="#7B8083"/>
<path d="M29.9618 76.5633C30.6765 71.6794 33.2059 67.9976 37.4688 65.6239C37.9199 65.3663 38.1531 65.0481 38.1582 64.6693C38.1632 64.2905 37.9453 63.9673 37.5043 63.6895C36.8605 63.2905 36.1864 63.1845 35.4869 63.3713C34.0321 63.7602 32.7649 64.5027 31.6903 65.5885C31.5889 60.5178 33.5658 56.6996 37.707 53.9269C37.8946 53.8057 38.3558 53.533 39.4811 52.9724C40.1299 52.6491 40.7585 52.2754 41.3617 51.8713C41.9902 51.437 42.2082 50.8208 41.9801 50.1643C41.8686 49.8562 41.5796 49.6239 41.2045 49.5431L40.1147 49.336C38.4369 46.6289 37.7881 43.8461 38.1784 41.0683C38.7766 36.7097 40.9612 32.9976 44.6666 30.0633C46.3495 28.735 47.9005 27.8006 49.264 27.2804C49.8723 27.0481 50.288 26.7754 50.5363 26.442C50.8557 26.0027 51.0382 25.4825 51.0787 24.8915C51.0787 24.8764 51.0787 24.8511 51.1142 24.8259C52.4929 23.9218 53.5219 22.8057 54.1758 21.5077L53.1316 20.9521C52.5791 22.0633 51.6768 23.0229 50.4806 23.8107C50.141 24.0431 49.9331 24.3966 49.9078 24.8057C49.8825 25.1592 49.7861 25.4572 49.5986 25.7097C49.5479 25.7754 49.3806 25.9471 48.8585 26.1491C47.3835 26.7047 45.726 27.6996 43.9468 29.1037C39.9931 32.24 37.6614 36.2047 37.0177 40.8966C36.5919 43.9724 37.2964 47.0229 39.1111 49.9673C39.2986 50.2703 39.5622 50.4572 39.8613 50.5077L40.8751 50.6996C40.8548 50.74 40.8041 50.7905 40.7078 50.8612C40.1502 51.235 39.5622 51.5835 38.959 51.8865C38.001 52.3663 37.3826 52.6996 37.0531 52.9117C32.3492 56.0532 30.1595 60.639 30.5447 66.5431C30.5802 67.1188 30.8539 67.3259 31.0668 67.3966C31.2848 67.4673 31.6193 67.4623 31.9741 67.0229C32.998 65.7703 34.2805 64.9269 35.7707 64.5279C36.1154 64.4319 36.4297 64.4673 36.7541 64.6289C32.2326 67.1946 29.5461 71.1441 28.7858 76.3713L29.9466 76.5532L29.9669 76.5683L29.9618 76.5633Z" fill="#858C8E"/>
<path d="M51.7517 22.028H51.8632L53.7134 21.8663L53.612 20.6643L51.7619 20.8259C51.7011 20.8259 51.6605 20.8057 51.6554 20.8007C51.6656 19.634 52.0052 18.432 52.6692 17.2906C52.9885 16.73 53.536 16.1542 54.8691 16.6593L55.2695 15.528C53.2775 14.7805 52.2079 15.735 51.6605 16.6744C50.885 18.0078 50.4896 19.4118 50.4896 20.8461C50.4896 21.1643 50.6214 21.4674 50.8545 21.6845C51.0877 21.9118 51.4071 22.033 51.7416 22.033V22.0179L51.7517 22.028Z" fill="#707075"/>
<path d="M134.754 21.1795C134.876 17.2148 134.1 13.6441 132.448 10.5633C131.186 8.20977 129.092 6.99764 126.223 6.97744H126.087C123.638 6.97744 120.957 7.57845 118.103 8.77037C114.317 10.3461 110.941 12.3461 108.062 14.7199C107.469 15.2098 106.891 15.5583 106.343 15.7653C106.343 15.6946 106.369 15.629 106.424 15.5633C107.636 14.0077 109.162 12.6694 110.941 11.5835C111.199 11.4269 111.351 11.1492 111.367 10.8562C111.377 10.5532 111.255 10.2704 111.017 10.0886C107.575 7.46734 103.642 5.59865 99.3179 4.5431C93.3721 3.0835 87.3046 2.95219 81.293 4.13906C73.2436 5.74007 66.7352 9.95219 61.9654 16.6492C61.7626 16.937 61.4939 17.3663 61.1594 17.9471C60.8806 18.4168 60.6272 18.8057 60.394 19.0835C60.1659 19.3562 60.0037 19.4118 59.9682 19.4168C59.9125 19.4168 59.7756 19.3259 59.583 19.0279C58.5337 17.3714 57.079 16.2047 55.2694 15.5431L54.8791 16.6795C56.4453 17.2451 57.6974 18.2552 58.5996 19.6795C58.9747 20.2653 59.4106 20.5835 59.8972 20.6138C60.3889 20.6542 60.8553 20.3865 61.2912 19.8613C61.5598 19.533 61.8589 19.0936 62.1732 18.5633C62.4874 18.0128 62.7409 17.6088 62.9234 17.3562C67.5158 10.9118 73.7758 6.86128 81.5261 5.32593C87.3756 4.16431 93.2707 4.30068 99.0543 5.71987C103.079 6.70472 106.749 8.41684 109.978 10.7956C108.234 11.9118 106.739 13.2653 105.522 14.8259C105.101 15.3663 105.076 15.9976 105.426 16.6138C105.634 16.9673 106.059 17.129 106.455 17.0077C107.215 16.7754 108.006 16.3259 108.802 15.6643C111.585 13.3663 114.869 11.4219 118.549 9.89158C121.317 8.73502 123.887 8.16936 126.218 8.18956C128.667 8.20977 130.37 9.18451 131.424 11.1492C132.97 14.038 133.7 17.4067 133.588 21.1542L134.759 21.1845H134.77H134.764L134.754 21.1795Z" fill="#858C8E"/>
<path d="M54.1046 21.6643C54.9206 20.7249 55.7012 20.0583 56.4261 19.6845C56.7302 19.528 57.08 19.528 57.5007 19.6845C57.7136 19.7603 57.9518 19.7552 58.1597 19.6643C58.3523 19.5734 58.5043 19.4118 58.5804 19.2148C58.6665 18.9876 58.8642 18.2098 57.8758 17.6946C56.8772 17.1744 56.0763 16.6946 55.5137 16.2704C55.5441 16.3007 55.5695 16.4169 55.5441 16.4775L54.6013 15.7704C54.2414 16.3007 54.3327 16.8815 54.8294 17.2451C55.3008 17.5987 55.9192 17.9876 56.6542 18.3916C56.3957 18.4219 56.1473 18.5027 55.904 18.6239C55.0575 19.0684 54.1552 19.8259 53.2378 20.8764L54.1096 21.6744H54.1046V21.6643Z" fill="#E8E1DF"/>
<path d="M123.417 21.5835L123.898 20.4926L121.536 19.3916L121.055 20.4876L123.417 21.5835Z" fill="#EFE4E4"/>
<path d="M121.135 20.5229L121.449 19.3613C120.41 19.0633 119.356 18.7805 118.301 18.5027C118.301 18.5027 118.18 18.4169 117.881 18.0381L116.963 18.7856C117.364 19.3058 117.693 19.5785 118.007 19.6643C119.062 19.9371 120.106 20.2199 121.13 20.5179H121.135V20.5229Z" fill="#E2DDE9"/>
<path d="M131.395 21.2906L132.566 21.2754C132.541 18.6997 131.938 16.4977 130.782 14.7199C129.581 12.8966 127.756 12.0633 125.364 12.235C122.282 12.4673 119.448 13.6593 116.939 15.7906C116.468 16.1946 116.148 16.7502 116.047 17.3663C115.951 17.9168 116.108 18.2704 116.265 18.4775C116.498 18.7956 116.873 18.9724 117.39 19.0128L117.492 17.8108C117.279 17.7906 117.208 17.7451 117.198 17.735C117.198 17.735 117.187 17.6845 117.208 17.5734C117.263 17.2451 117.436 16.9421 117.689 16.7148C120.011 14.7451 122.626 13.6441 125.455 13.432C127.432 13.2855 128.856 13.9219 129.819 15.3865C130.848 16.9623 131.385 18.9421 131.411 21.2805H131.401L131.395 21.2906Z" fill="#878C8C"/>
<path d="M120.723 20.0734L121.863 19.7957C121.777 19.4017 121.493 19.0532 121.002 18.725C121.204 17.9825 121.346 17.1896 120.789 16.8815C120.241 16.5734 119.734 17.1189 119.537 17.326C119.506 17.3563 119.481 17.3866 119.461 17.3967C119.451 17.3815 119.44 17.3714 119.43 17.3462L118.437 17.9825C118.741 18.4724 119.086 18.6088 119.329 18.634C119.511 18.6542 119.689 18.6189 119.871 18.5431C119.795 18.9926 119.978 19.4573 120.358 19.725C120.692 19.9522 120.733 20.0734 120.733 20.0734H120.728H120.723Z" fill="#D4C3D8"/>
<path d="M124.687 22.1442C124.799 22.1442 124.92 22.129 125.047 22.1139L124.859 20.927C124.55 20.9775 124.317 20.8967 124.104 20.6442L123.222 21.4371C123.623 21.9068 124.129 22.1492 124.687 22.1492V22.1442Z" fill="#DBD8DD"/>
<path d="M126.942 22.0431L128.113 21.9673C128.058 21.1542 127.804 20.5633 127.348 20.1996C126.902 19.8461 126.299 19.735 125.553 19.8764C125.209 19.9471 124.408 20.24 124.367 21.5027L125.538 21.5481C125.559 21.1087 125.69 21.0784 125.777 21.0633C126.045 21.0128 126.42 20.9875 126.633 21.1542C126.861 21.336 126.927 21.74 126.947 22.0532L126.942 22.0431Z" fill="#8E748E"/>
<path d="M127.629 22.5936C128.734 22.3865 128.983 22.3916 129.018 22.3916C129.51 22.4219 129.88 22.3007 130.113 22.0229C130.265 21.8461 130.422 21.538 130.326 21.0431L129.206 21.2704C129.231 21.23 129.267 21.1946 129.302 21.1795C129.302 21.1795 129.246 21.1997 129.099 21.1946C128.922 21.1795 128.582 21.1946 127.427 21.4118L127.634 22.5936H127.629Z" fill="#D1CCD6"/>
<path d="M32.8121 103.381L33.9627 103.174C33.7245 101.77 33.6687 100.341 33.8106 98.9421C33.8664 98.3764 33.8309 97.7047 33.7042 96.8865C33.5217 95.7502 33.7498 94.5633 34.3733 93.3663C34.9765 92.2047 35.0272 90.8714 34.5253 89.3815L33.4203 89.7754C33.8157 90.9471 33.7853 91.9421 33.3392 92.8007C32.589 94.2401 32.3255 95.6795 32.5485 97.0784C32.6549 97.7805 32.6955 98.3663 32.6499 98.8209C32.4978 100.331 32.5485 101.866 32.807 103.387H32.8222L32.8121 103.381Z" fill="#F4F2EF"/>
<path d="M117.475 19.0128C118.205 18.9472 118.833 18.6391 119.355 18.0886L118.514 17.2552C118.2 17.5886 117.83 17.7755 117.384 17.8159L117.485 19.0179H117.48L117.475 19.0128Z" fill="#6B6B7E"/>
<path d="M130.341 21.1795C130.417 18.8007 129.874 16.8916 128.749 15.5178C127.862 14.432 126.504 14.0279 124.724 14.3108C122.403 14.6795 120.33 15.6542 118.55 17.2249L119.316 18.134C120.928 16.7148 122.803 15.8259 124.907 15.4976C126.275 15.2855 127.244 15.5431 127.857 16.2906C128.795 17.437 129.236 19.0734 129.17 21.1492L130.341 21.1896V21.1795Z" fill="#77727B"/>
<path d="M129.627 30.1896C130.281 27.2148 130.519 24.1643 130.342 21.1239L129.171 21.1946C129.338 24.1239 129.11 27.0582 128.481 29.9219L129.627 30.1845V30.1896Z" fill="#69747E"/>
<path d="M130.344 32.8916C130.491 32.8916 130.628 32.8663 130.76 32.8007C131.13 32.639 131.379 32.2855 131.5 31.735C132.266 28.3562 132.62 24.831 132.565 21.2603L131.394 21.2805C131.449 24.7502 131.105 28.1744 130.365 31.4623C130.339 31.5633 130.314 31.6289 130.304 31.6693C130.268 31.6542 130.203 31.6289 130.121 31.5784C129.604 31.2603 129.462 30.8512 129.625 30.2047L128.494 29.9017C128.2 31.0582 128.565 32.0178 129.518 32.6037C129.822 32.7906 130.096 32.8815 130.36 32.8815L130.35 32.8966L130.344 32.8916Z" fill="#728085"/>
<path d="M126.392 23.5532L126.742 22.4067C126.149 22.2148 125.739 21.8411 125.47 21.2603L124.405 21.7704C124.806 22.6542 125.475 23.2552 126.377 23.5532H126.382H126.392Z" fill="#898299"/>
<path d="M126.577 23.5835C127.495 23.5835 128.073 23.0027 128.113 22.0279L126.942 21.9774C126.922 22.3512 126.831 22.3764 126.577 22.3815V23.5835Z" fill="#807591"/>
<path d="M99.356 112.74C99.356 112.74 99.361 112.74 99.3711 112.745C99.3711 112.745 99.366 112.745 99.356 112.74Z" fill="#647B80"/>
<path d="M24.717 116.255C24.8134 116.255 24.9046 116.24 25.0009 116.215C25.4013 116.104 25.7258 115.791 25.9437 115.265C26.5875 113.745 26.5875 112.316 25.9386 111.033C25.523 110.195 25.5179 109.887 25.523 109.806C25.5585 109.412 25.7055 109.159 26.3036 109.124C27.1856 109.078 27.733 108.967 28.0625 108.77C28.9546 108.25 29.9025 107.205 29.3145 105.215C29.2081 104.851 29.2638 104.73 29.6187 104.609C30.8402 104.174 32.1227 103.927 33.4102 103.866L33.3595 102.664C31.9503 102.73 30.5615 102.998 29.2334 103.472C28.2906 103.806 27.9003 104.594 28.1943 105.568C28.5035 106.594 28.2805 107.26 27.4847 107.725C27.439 107.75 27.1907 107.871 26.2479 107.917C25.153 107.972 24.4687 108.619 24.3622 109.669C24.3115 110.129 24.4839 110.735 24.9046 111.568C25.3861 112.538 25.3811 113.584 24.8793 114.775C24.7931 114.982 24.7221 115.038 24.712 115.048C24.712 115.048 24.6258 115.028 24.4484 114.892C23.9821 114.523 23.5867 114.099 23.2724 113.639C23.2369 113.568 23.1356 113.366 22.9784 113.033C22.7858 112.634 22.5121 112.381 22.1725 112.291C21.8227 112.195 21.4426 112.291 21.0472 112.563C21.0016 112.589 20.9509 112.629 20.7076 112.892C20.738 112.861 20.814 112.831 20.8596 112.846L20.3933 113.957C20.8191 114.139 21.2398 114.058 21.5439 113.73C21.6301 113.634 21.6909 113.573 21.7264 113.538C21.7974 113.498 21.8379 113.472 21.8633 113.467C21.8734 113.488 21.8937 113.518 21.9241 113.568C22.2282 114.179 22.2637 114.265 22.3093 114.316C22.6946 114.876 23.166 115.387 23.7286 115.831C24.0682 116.104 24.4028 116.23 24.717 116.23V116.25V116.255Z" fill="#FDF0EB"/>
<path d="M49.6673 20.0684C49.936 18.2553 50.4732 16.7149 51.2437 15.5078C51.4718 15.1593 51.7962 14.8815 52.2423 14.6543C52.587 14.4825 53.0026 14.3916 53.4892 14.3916H53.5146C55.679 14.4068 57.666 15.2452 59.4249 16.8815C59.5871 17.0432 59.8202 17.129 60.0686 17.1139C60.3069 17.0937 60.535 16.9724 60.6769 16.7805L63.6878 12.8512C63.8348 12.6593 63.8804 12.4068 63.8247 12.1694C63.7638 11.932 63.5915 11.7351 63.3634 11.6492C62.674 11.3765 61.9847 11.0836 61.3206 10.7502C58.9332 9.60376 56.3075 9.05831 53.5349 9.12901C52.3133 9.15932 51.2539 9.5078 50.3719 10.1694C49.6724 10.6997 49.0641 11.5331 48.5167 12.725C47.5992 14.7048 47.0822 16.8462 46.9707 19.0836L48.1416 19.1442C48.2429 17.0583 48.7245 15.0785 49.5761 13.2351C50.0373 12.2401 50.5392 11.5381 51.0663 11.1391C51.7557 10.624 52.5768 10.3563 53.5703 10.331C56.1656 10.2603 58.5987 10.7704 60.8188 11.8411C61.3409 12.0987 61.8833 12.331 62.4155 12.5583L59.9571 15.7654C58.0309 14.0634 55.8716 13.1997 53.5196 13.1896H53.4943C52.8404 13.1896 52.2423 13.3209 51.7405 13.5785C51.1119 13.8967 50.6202 14.3209 50.2806 14.8411C49.4088 16.2048 48.8157 17.8967 48.5217 19.8815L49.6774 20.0634L49.6673 20.0785V20.0684ZM60.2055 16.0028C60.2055 16.0028 60.2106 16.0078 60.2156 16.0179C60.2156 16.0179 60.2106 16.0129 60.2055 16.0028Z" fill="#858C8E"/>
<path d="M110.281 160.205C110.945 160.205 111.62 160.134 112.299 159.993H112.304C112.679 159.907 112.831 159.695 112.897 159.533C112.978 159.316 112.948 159.083 112.811 158.881C112.654 158.649 112.37 158.518 112.061 158.533C110.469 158.599 108.893 158.402 107.362 157.957C107.002 157.856 106.596 157.775 106.282 158.018C106.105 158.154 106.003 158.351 105.998 158.583C105.978 158.947 106.231 159.291 106.647 159.467C107.818 159.957 109.029 160.21 110.276 160.21H110.281V160.205Z" fill="#112F36"/>
<path d="M56.3391 7.45218C54.6917 7.21481 53.0646 7.29057 51.4527 7.68956C49.0703 8.59865 47.4686 10.1744 46.6575 12.4118C45.3802 15.9471 44.777 19.8562 44.8581 24.134C44.8581 24.1492 44.8834 24.4118 44.929 24.9219C45.0101 25.7906 44.6655 26.4976 43.9051 27.0229C42.4301 28.0431 41.0716 29.2805 39.8247 30.73C38.5777 32.1795 37.5995 33.7249 36.8695 35.3562C34.6646 40.3057 34.8268 45.3613 37.3764 50.5279C37.4373 50.6441 37.3866 50.7906 37.2751 50.8562C32.6725 53.3663 29.8897 57.139 28.9266 62.1694C28.516 64.3108 28.6732 66.6744 29.4082 69.2401C29.4437 69.3865 29.4335 69.5481 29.3575 69.6794C26.2452 74.937 26.159 80.2704 29.099 85.6895C29.5095 86.4421 30.057 87.139 30.7413 87.7754C30.9086 87.932 30.868 88.2198 30.6551 88.3158C28.9114 89.1491 27.6949 90.4875 26.9852 92.336C26.9295 92.4774 26.818 92.5936 26.676 92.6441C24.4711 93.4875 22.6767 94.8512 21.3081 96.7199C20.8418 97.3512 20.416 98.2603 20.0206 99.4572C19.6405 100.619 19.2704 101.568 18.9257 102.301C17.9272 104.402 17.4406 106.493 17.4608 108.583C17.4912 112.306 18.7382 115.77 21.1915 118.967C21.3436 119.159 21.3689 119.427 21.2524 119.644C20.4059 121.321 19.9395 123.073 19.8635 124.917C19.7925 126.599 20.0966 128.341 20.786 130.144C21.6781 132.477 23.0315 134.543 24.8361 136.351C27.0866 138.604 29.7883 139.841 32.9361 140.053C33.0831 140.068 33.2048 140.154 33.2554 140.291C33.9093 141.937 34.771 143.472 35.8355 144.892L38.9022 147.796C42.1969 149.988 45.9682 150.942 50.2057 150.654C50.4896 150.634 50.7633 150.72 50.9864 150.902C55.9234 154.831 61.2356 156.129 66.9279 154.791C67.2067 154.725 67.4805 154.7 67.7694 154.72C71.566 154.927 74.658 154.053 77.0505 152.094C77.162 152.003 77.3191 151.998 77.4459 152.078C81.9977 155.331 86.8131 156.356 91.9023 155.149C92.0391 155.119 92.1861 155.164 92.2926 155.265C93.646 156.624 95.486 157.447 97.8176 157.735C98.0609 157.76 98.284 157.881 98.4411 158.068C100.246 160.159 102.582 160.831 105.451 160.094C105.984 159.957 106.516 159.977 107.038 160.154C109.121 160.851 111.412 160.811 113.947 160.023C115.285 159.609 116.395 158.841 117.272 157.74C117.525 157.432 117.895 157.27 118.276 157.296C119.563 157.392 120.704 157.013 121.697 156.149C122.635 155.336 123.547 154.589 124.449 153.887C124.728 153.669 125.098 153.629 125.418 153.77C127.937 154.866 130.547 155.427 133.234 155.447C138.546 155.477 143.382 153.892 147.746 150.679C147.868 150.589 148.03 150.578 148.157 150.654C149.454 151.331 150.661 151.679 151.776 151.684C156.88 151.745 161.356 150.094 165.213 146.71C166.597 145.366 167.748 143.846 168.67 142.144C168.731 142.028 168.858 141.957 169.015 141.952L173.43 141.851C173.607 141.851 173.765 141.881 173.876 141.952C175.209 142.816 176.669 143.124 178.245 142.881C180.41 142.619 182.179 141.78 183.553 140.366C184.059 139.846 184.232 139.947 184.075 140.654C183.806 141.917 184.135 142.498 185.073 142.407C185.514 142.361 185.981 142.159 186.482 141.796C188.165 140.563 189.235 138.871 189.681 136.72C189.711 136.563 189.757 136.558 189.828 136.7C189.965 136.988 190.107 137.28 190.249 137.578C190.406 137.907 190.598 138.159 190.821 138.341C192.053 139.316 193.112 139.038 193.984 137.518C194.486 136.649 194.79 135.679 194.892 134.624C194.912 134.437 195.099 134.316 195.277 134.376C195.834 134.583 196.372 134.624 196.863 134.493C197.309 134.376 197.72 134.078 198.085 133.604C198.815 132.654 199.104 131.533 198.947 130.23C198.729 128.437 197.948 126.977 196.6 125.851C196.042 125.381 196.199 125.225 197.076 125.376C197.279 125.407 197.467 125.402 197.634 125.351C199.383 124.786 200.27 123.7 200.3 122.109C200.32 120.962 199.905 119.846 199.048 118.755C198.288 117.78 197.345 116.993 196.22 116.387C196.093 116.321 196.073 116.149 196.184 116.053C196.868 115.422 197.188 114.725 197.142 113.967C197.107 113.432 196.803 112.811 196.235 112.124C193.812 109.149 190.563 107.942 186.487 108.498C186.351 108.518 186.219 108.402 186.224 108.26C186.285 102.7 184.658 97.9825 181.342 94.1138C181.246 94.0027 181.221 93.8512 181.266 93.7098C182.818 89.1289 181.996 85.2805 178.798 82.1643C178.357 81.7401 177.703 81.2552 176.831 80.7148C176.203 80.3209 175.579 79.9219 174.971 79.4976C174.849 79.4067 174.758 79.2805 174.717 79.1289C173.085 72.6138 169.192 68.1896 163.044 65.8512C162.922 65.8007 162.856 65.6693 162.892 65.5431C163.911 62.2906 163.85 59.1744 162.714 56.2047C162.066 54.5128 161.062 52.9522 159.698 51.533C158.391 50.1845 156.9 49.0633 155.223 48.1592C154.736 47.9017 154.178 47.8108 153.545 47.8966C153.388 47.9168 153.357 47.8663 153.449 47.73C153.991 47.0027 154.305 46.2855 154.412 45.5633C154.929 42.0734 154.391 38.9269 152.81 36.1239C151.563 33.9219 149.804 31.8815 147.528 29.9875C144.365 27.3562 140.756 25.8663 136.686 25.5027C136.559 25.4875 136.468 25.3714 136.473 25.2401C136.524 24.1845 136.508 22.5128 136.437 20.2199C136.306 16.5279 135.545 13.2603 134.146 10.4219C133.254 8.6037 132.22 7.30572 131.044 6.53804C129.635 5.6138 127.957 5.20471 125.996 5.31077C124.267 5.40673 123.187 5.51279 122.751 5.61885C119.436 6.43703 116.273 7.5936 113.252 9.0936C112.984 9.22996 112.669 9.19461 112.436 9.01784C107.91 5.45218 102.821 3.17946 97.184 2.18451C90.0927 0.947132 83.5234 1.30572 77.4712 3.27036C72.9143 4.74511 68.8389 7.03299 65.2501 10.1138C64.9663 10.3613 64.576 10.4118 64.2364 10.2552C61.6563 9.06329 59.0357 8.13905 56.3593 7.47743H56.3543L56.3391 7.45218ZM134.167 21.1593C134.237 26.8865 133.259 32.4168 131.237 37.7552C132.316 37.7805 133.097 37.2956 133.573 36.3057C134.101 35.2148 134.572 34.0936 134.988 32.9471L136.265 27.9219C136.295 27.7855 136.427 27.7047 136.559 27.73C142.601 28.6997 147.254 31.8259 150.529 37.1239C152.156 39.7603 152.734 42.3613 152.262 44.9269C152.161 45.4673 151.948 45.9673 151.629 46.4067C150.848 47.4522 150.747 48.2956 151.32 48.9522C152.12 49.432 152.942 49.8613 153.788 50.2502C155.385 50.9724 156.779 51.9774 157.98 53.2704C160.854 56.1946 161.873 59.7199 161.037 63.8512C160.646 65.8057 159.724 67.533 158.259 69.0683C158.127 69.2047 158.147 69.437 158.294 69.5885L159.871 71.2148C160.261 72.0683 160.444 72.8209 160.438 73.4976C160.408 75.8259 159.627 77.9623 158.102 79.8966C156.069 82.4724 153.089 83.9724 149.175 84.4067C148.623 84.4673 148.304 84.7805 148.233 85.3562C148.207 85.5734 148.344 85.7552 148.658 85.8966C148.816 85.9673 149.023 86.0128 149.277 86.0279C153.357 86.2906 156.728 84.836 159.389 81.6542L160.662 79.8663L161.949 76.9774C162.806 74.0633 162.578 71.2249 161.265 68.4673C161.179 68.2956 161.234 68.2199 161.422 68.2401C162.654 68.4017 163.718 68.73 164.62 69.2199C167.935 71.0178 170.323 73.6896 171.803 77.2249C172.239 78.2552 172.436 79.3512 172.401 80.5077C172.401 80.7249 172.513 80.9219 172.71 81.0027C174.783 81.9522 176.405 83.0885 177.571 84.4067C180.05 87.2199 180.471 90.3613 178.833 93.831C178.762 93.9724 178.757 94.134 178.813 94.2704C179.077 94.8966 179.528 95.5734 180.167 96.3108C181.86 98.2451 182.97 100.452 183.507 102.942C184.049 105.432 184.115 107.846 183.72 110.184C183.223 113.094 181.834 115.624 179.553 117.76C179.062 118.154 178.661 118.629 178.367 119.185L178.519 119.422C179.356 120.048 180.177 119.937 180.988 119.094C182.853 117.154 184.13 115.609 184.83 114.472L186.117 110.962C186.168 110.821 186.295 110.715 186.437 110.684C189.818 110.063 192.606 111.164 194.785 113.972C194.937 114.164 194.836 114.452 194.603 114.503C193.117 114.821 191.698 115.371 190.35 116.174C192.068 116.927 193.751 117.76 195.398 118.684C196.503 119.306 197.385 120.159 198.039 121.26C198.556 122.124 198.328 122.639 197.365 122.796C195.931 123.028 194.375 123.104 192.687 123.013C192.469 122.998 192.418 123.099 192.535 123.291L195.976 128.922C196.549 129.811 196.742 130.765 196.559 131.786C196.534 131.932 196.422 132.043 196.28 132.063C195.774 132.134 195.312 131.972 194.897 131.578L193.138 130.457C192.874 130.705 192.788 131.033 192.884 131.437C193.041 133.083 192.879 134.69 192.393 136.255C192.342 136.412 192.286 136.417 192.21 136.275C191.419 134.765 190.396 133.457 189.128 132.346C189.052 132.275 188.915 132.316 188.895 132.417C188.353 134.654 187.567 136.806 186.533 138.856C186.437 139.038 186.33 139.129 186.204 139.114C186.097 139.099 185.996 138.967 185.96 138.78L185.205 134.897C185.017 133.927 184.759 133.912 184.414 134.856C183.598 137.134 182.209 138.806 180.258 139.861C178.904 140.447 177.292 140.725 175.402 140.684C175.062 140.679 175.052 140.599 175.351 140.452C177.931 139.2 179.751 137.225 180.82 134.543C181.439 132.876 181.834 131.164 182.007 129.392C182.062 127.392 181.606 125.533 180.618 123.826C180.222 123.134 179.731 123.073 179.153 123.619C179.056 123.801 179.031 123.993 179.051 124.2C179.644 125.876 179.883 127.614 179.776 129.392C179.467 133.679 177.607 136.77 174.18 138.649C173.182 139.19 172.148 139.513 171.088 139.609C169.993 139.71 168.893 139.649 167.798 139.407C167.677 139.381 167.545 139.437 167.489 139.553C163.754 147.089 157.767 150.255 149.54 149.048C149.388 149.028 149.363 148.957 149.48 148.856C150.28 148.114 150.909 147.23 151.365 146.22C151.548 145.71 151.462 145.311 151.107 145.028C150.995 144.937 150.838 144.912 150.696 144.962C150.149 145.134 149.677 145.437 149.277 145.876C147.645 148.063 145.617 149.74 143.199 150.907C138.404 153.331 133.31 153.836 127.906 152.397C127.724 152.346 127.704 152.26 127.846 152.134C129.108 151.018 130.035 149.69 130.618 148.139C130.902 147.255 130.978 146.503 130.846 145.881C130.775 145.558 130.603 145.392 130.324 145.387C130.187 145.387 130.046 145.462 129.949 145.604L127.577 148.982L125.59 151.649C125.504 151.765 125.362 151.826 125.22 151.806C124.465 151.705 123.76 151.806 123.127 152.124C122.817 152.27 122.351 152.745 121.733 153.538C120.546 155.043 118.853 155.518 116.659 154.962C116.091 154.821 115.726 155.038 115.569 155.614C115.331 156.477 114.743 157.129 113.81 157.589C112.451 158.245 111.032 158.442 109.547 158.149C108.701 158.104 108.118 158.008 107.819 157.856C107.078 157.488 106.171 157.462 105.097 157.765C102.486 158.503 100.489 157.644 99.0849 155.179C98.9784 154.988 98.7402 154.907 98.5374 154.998C96.814 155.74 95.3745 155.291 94.2188 153.649C93.6612 152.851 92.987 152.174 92.2064 151.609C91.7857 151.684 91.6032 152.144 91.6539 152.982C91.664 153.2 91.5069 153.402 91.294 153.427C87.7661 153.866 84.4054 153.336 81.2171 151.851C79.5697 151.083 78.5052 149.801 78.0288 147.998C77.456 147.967 76.9897 147.72 76.6399 147.27C75.7427 146.109 74.81 144.972 73.847 143.866C73.7608 143.765 73.6087 143.755 73.5175 143.846C73.1981 144.179 73.0663 144.614 73.1221 145.129L76.0164 150.109C76.0874 150.225 76.0671 150.371 75.9657 150.442C73.5327 152.235 70.7144 152.811 67.5261 152.159C67.1662 152.089 66.8012 152.144 66.487 152.321C65.4478 152.897 64.3378 153.174 63.1364 153.134C61.7476 153.089 60.384 152.897 59.0307 152.558C54.864 151.437 51.6859 148.972 49.5113 145.154C49.344 144.866 48.8371 144.174 47.9957 143.083C47.6561 143.058 47.4685 143.174 47.428 143.447C47.3165 144.235 47.4381 145.119 47.798 146.094L49.0754 148.28C49.1717 148.447 49.1311 148.528 48.9537 148.518C44.3208 148.361 40.6408 146.71 37.9137 143.563C36.7124 142.139 35.6936 140.583 34.8521 138.892C34.5227 138.235 33.9955 137.866 33.2757 137.806C31.2583 137.639 29.4234 136.942 27.7608 135.71C25.9056 134.336 24.3849 132.341 23.1836 129.725C21.4399 125.831 21.7542 122.139 24.1213 118.664C23.9439 118.225 23.6803 117.846 23.3204 117.533C22.0482 116.402 21.1408 115.023 20.5782 113.392C19.4732 110.735 19.3312 108.013 20.1676 105.23C20.4464 104.306 20.9229 103.523 21.6072 102.876C21.9671 102.543 22.0279 102.169 21.7897 101.765C21.6376 101.513 21.6072 101.21 21.6883 100.932C22.626 97.9017 24.7752 95.7805 28.1511 94.5633C28.5971 94.4067 28.9063 93.9774 28.9165 93.4875C28.9216 93.1592 29.1243 92.6997 29.5197 92.0986C30.5841 90.5077 32.0592 89.6491 33.9397 89.533C34.33 89.4724 34.7051 89.3865 35.0802 89.2754C35.3641 89.1845 35.5567 89.0431 35.6378 88.8411C35.7899 88.5077 35.6175 88.2401 35.1208 88.0532C33.372 87.4067 32.0085 86.2906 31.015 84.6845C29.4639 82.1694 28.9013 79.4168 29.3423 76.432C30.0925 71.331 32.6928 67.538 37.1585 65.0532C37.6654 64.7704 37.6755 64.4724 37.1787 64.1694C36.6769 63.8512 36.1548 63.7704 35.6074 63.9168C33.9854 64.3512 32.6218 65.2451 31.5016 66.6138C31.2634 66.9067 31.1367 66.8663 31.1062 66.4825C30.7362 60.7855 32.8144 56.4168 37.3511 53.3916C37.6451 53.1896 38.2584 52.8613 39.186 52.3966C39.8146 52.0784 40.4177 51.7249 40.9956 51.331C41.396 51.0582 41.5228 50.7249 41.3859 50.336C41.3504 50.2199 41.2085 50.134 41.0463 50.1037L39.9261 49.8916C39.7892 49.8663 39.6625 49.7704 39.5662 49.6138C37.8174 46.7906 37.1433 43.8966 37.5538 40.9522C38.1824 36.4067 40.4127 32.6037 44.265 29.5582C46.0087 28.1845 47.5902 27.2249 49.0196 26.6946C49.5113 26.5077 49.8509 26.2956 50.0233 26.0582C50.2767 25.7148 50.4136 25.3108 50.444 24.8411C50.4541 24.6239 50.5707 24.437 50.7532 24.3108C52.0559 23.4572 53.0038 22.432 53.612 21.2199L51.7619 21.3815C51.3665 21.4118 51.032 21.1441 51.032 20.8007C51.032 19.4724 51.3919 18.1795 52.1116 16.937C52.7453 15.8512 53.7083 15.5582 55.0161 16.0481C56.7142 16.6593 58.0524 17.7401 59.0357 19.2906C59.568 20.134 60.1559 20.1744 60.7845 19.4067C61.0379 19.0986 61.3116 18.6896 61.6158 18.1896C61.9453 17.6239 62.1987 17.2098 62.3913 16.937C67.0952 10.336 73.411 6.24006 81.354 4.66935C87.3149 3.48754 93.2354 3.6239 99.1356 5.06834C103.404 6.1138 107.236 7.92693 110.622 10.5128C110.789 10.6441 110.774 10.9067 110.596 11.0077C108.741 12.1391 107.18 13.5128 105.918 15.134C105.654 15.4673 105.639 15.8411 105.867 16.235C105.938 16.3512 106.085 16.4067 106.227 16.3663C106.916 16.1542 107.636 15.7451 108.371 15.134C111.22 12.7855 114.515 10.831 118.26 9.27541C121.114 8.08855 123.745 7.50774 126.158 7.52794C128.809 7.54814 130.715 8.6441 131.875 10.8057C133.477 13.8057 134.227 17.2451 134.116 21.1188H134.151L134.167 21.1593ZM49.0906 19.9774L48.8321 23.7855C48.8219 23.9623 48.7611 24.1087 48.675 24.2047C48.3252 24.6037 47.8842 24.8512 47.3621 24.9471C47.2354 24.9724 47.1239 24.8714 47.1289 24.735L47.5497 19.1188C47.6561 16.9471 48.1529 14.9017 49.0399 12.9825C49.5417 11.8966 50.1044 11.1239 50.7126 10.6593C51.4983 10.0734 52.4411 9.76026 53.5411 9.73501C56.2377 9.6643 58.7417 10.1845 61.0531 11.2956C61.7374 11.6239 62.4319 11.9269 63.1364 12.2047C63.2429 12.2451 63.2834 12.3865 63.2125 12.4825L60.2016 16.4168C60.1052 16.538 59.9228 16.5582 59.8113 16.4421C57.9307 14.6896 55.8322 13.8057 53.5106 13.7906C52.9277 13.7906 52.4208 13.8916 51.99 14.1138C51.4476 14.3865 51.0472 14.735 50.7633 15.1694C49.932 16.4572 49.3795 18.0582 49.0906 19.9673V19.9774ZM112.193 159.402C110.353 159.791 108.584 159.619 106.891 158.912C106.714 158.836 106.597 158.705 106.602 158.589C106.602 158.432 106.815 158.407 107.22 158.528C108.812 158.993 110.439 159.195 112.107 159.129C112.208 159.129 112.299 159.154 112.345 159.22C112.401 159.311 112.355 159.366 112.193 159.402Z" fill="#0C1A23"/>
<path d="M47.5505 19.4699C47.5302 19.5852 47.5302 19.6796 47.5607 19.7635C47.586 19.8788 47.7431 19.9522 47.9205 19.926C48.397 19.8788 48.7873 20.0256 49.0965 20.3611C49.3804 18.3795 49.9379 16.7177 50.7692 15.3809C51.0531 14.9249 51.4586 14.5631 51.9959 14.2853C52.4318 14.0599 52.9387 13.9498 53.5166 13.9498C55.8432 13.9655 57.9417 14.8829 59.8172 16.702C59.9287 16.8173 60.1112 16.8016 60.2075 16.6758L63.2184 12.5921C63.2894 12.4977 63.2488 12.3509 63.1424 12.3037C62.4378 12.0154 61.7484 11.7009 61.0591 11.3601C58.7477 10.2016 56.2436 9.66689 53.547 9.74028C52.447 9.76649 51.4992 10.0863 50.7186 10.6996C50.1103 11.1767 49.5476 11.984 49.0458 13.111C48.1588 15.0979 47.662 17.221 47.5556 19.4804H47.5505V19.4699Z" fill="#FBFBF9"/>
<path d="M117.426 18.4118C118.019 18.3613 118.516 18.1138 118.926 17.6694C120.63 16.1643 122.586 15.2451 124.806 14.8967C126.383 14.6492 127.549 14.9876 128.294 15.8967C129.333 17.1694 129.814 18.9219 129.748 21.1593C129.926 24.1593 129.693 27.1239 129.044 30.0532C128.811 30.9573 129.064 31.6391 129.804 32.0936C130.402 32.4623 130.772 32.3007 130.93 31.6037C131.685 28.2502 132.035 24.8108 131.974 21.2754C131.948 18.8108 131.381 16.735 130.291 15.0482C129.211 13.4118 127.579 12.6694 125.399 12.831C122.429 13.0482 119.727 14.1946 117.299 16.2502C116.939 16.5583 116.691 16.9876 116.61 17.4623C116.509 18.0381 116.777 18.3462 117.421 18.4017H117.426V18.4118Z" fill="#0F1A21"/>
<path d="M118.935 17.6744C119.224 18.1441 119.564 18.1693 119.959 17.7451C120.593 17.0733 120.76 17.3663 120.451 18.6238C120.395 18.8562 120.486 19.0986 120.684 19.235C121.044 19.4723 121.242 19.7148 121.292 19.942L123.654 21.043C124.004 21.4471 124.435 21.6087 124.942 21.5279C124.962 20.9168 125.2 20.5683 125.652 20.4774C126.812 20.2501 127.436 20.7602 127.517 22.0127C128.348 21.8562 128.855 21.7855 129.053 21.8006C129.605 21.8309 129.833 21.6238 129.742 21.1744C129.813 18.937 129.327 17.1794 128.287 15.9117C127.537 14.9976 126.376 14.6643 124.8 14.9117C122.58 15.2602 120.618 16.1895 118.92 17.6845V17.6693L118.935 17.6744Z" fill="#DFCAD3"/>
<path d="M53.6631 21.2603C54.5349 20.2603 55.3662 19.5532 56.1519 19.1441C56.603 18.9118 57.1201 18.8966 57.6928 19.1189C57.8297 19.1694 57.9767 19.1189 58.0173 19.0027C58.1288 18.6946 57.9919 18.4269 57.5965 18.2199C56.5675 17.6845 55.7565 17.1896 55.1483 16.7451C54.9151 16.5734 54.8847 16.3512 55.0621 16.0936C53.7594 15.6037 52.7912 15.9017 52.1576 16.9825C51.4328 18.23 51.078 19.5128 51.078 20.8461C51.078 21.1946 51.4176 21.4572 51.8079 21.4269L53.658 21.2653H53.6631V21.2603Z" fill="#D3C3C8"/>
<path d="M118.934 17.6744C118.518 18.1188 118.016 18.3663 117.433 18.4168C117.742 18.8158 117.986 19.0431 118.163 19.0885C119.212 19.3613 120.257 19.6441 121.301 19.9421C121.245 19.7097 121.042 19.4724 120.693 19.235C120.5 19.0986 120.409 18.8562 120.459 18.6239C120.763 17.3663 120.596 17.0734 119.968 17.7451C119.572 18.1643 119.233 18.1441 118.944 17.6744H118.939H118.934Z" fill="#DFCAD3"/>
<path d="M124.947 21.523C125.282 22.2502 125.819 22.7401 126.569 22.9876C127.178 22.9876 127.502 22.6644 127.527 22.0078C127.446 20.7654 126.823 20.2452 125.662 20.4724C125.211 20.5634 124.973 20.9118 124.952 21.523H124.947Z" fill="#DFCAD3"/>
<path d="M129.758 21.1593C129.845 21.6088 129.611 21.826 129.069 21.7856C128.876 21.7704 128.364 21.8462 127.533 21.9977C127.508 22.6543 127.188 22.9825 126.575 22.9775C126.545 23.4118 126.382 23.7654 126.083 24.0431C125.982 24.134 125.957 24.2805 126.007 24.4118L128.05 29.4371C128.101 29.5583 128.207 29.6694 128.359 29.7351L129.059 30.0583C129.703 27.124 129.941 24.1543 129.763 21.1644H129.758V21.1593Z" fill="#DFCAD3"/>
<path d="M112.195 159.407C112.352 159.376 112.408 159.311 112.347 159.225C112.312 159.159 112.21 159.129 112.109 159.134C110.441 159.2 108.819 158.998 107.222 158.533C106.812 158.417 106.604 158.432 106.604 158.594C106.604 158.71 106.716 158.841 106.893 158.917C108.591 159.629 110.35 159.796 112.195 159.407Z" fill="#154248"/>
<path d="M113.957 71.3916C110.723 71.3916 108.097 69.6189 108.097 67.432C108.097 65.2451 110.718 63.4724 113.957 63.4724C117.196 63.4724 119.816 65.2451 119.816 67.432C119.816 69.6189 117.196 71.3916 113.957 71.3916Z" fill="#EFBDA0"/>
<path d="M112.421 62.4926C112.552 62.3259 112.75 62.2754 112.958 62.3158C113.252 62.3663 113.5 62.5279 113.749 62.6744C113.982 62.8108 114.195 62.9825 114.408 63.1441C114.651 63.3209 114.889 63.5128 115.102 63.7199C115.193 63.8108 115.29 63.8966 115.381 63.9926C115.533 64.1491 115.594 64.336 115.594 64.5532C115.594 64.73 115.467 64.8815 115.3 64.932C115.097 64.9875 114.899 64.9825 114.707 64.8916C114.59 64.836 114.479 64.7653 114.362 64.7047C114.124 64.5734 113.896 64.4269 113.683 64.2653C113.445 64.0835 113.181 63.9168 112.963 63.7148C112.745 63.5178 112.512 63.3209 112.38 63.0532C112.289 62.8663 112.289 62.6694 112.421 62.4976V62.4926Z" fill="#342838"/>
<path d="M132.562 37.4774L132.638 37.3006C134.68 32.4875 140.56 16.0027 130.494 5.81578L130.245 5.56831L129.895 5.5481C123.813 5.20972 110.963 6.76528 105.849 15.0734L107.4 16.0229C111.967 8.59861 123.6 7.09861 129.434 7.34103C138.366 16.7501 132.871 32.0885 130.955 36.5936C130.909 36.6996 130.879 36.7703 130.864 36.8158L132.557 37.4824L132.562 37.4774Z" fill="black"/>
<path d="M130.933 30.8108C130.953 30.6543 131.069 30.2098 131.196 29.7452C132.088 26.4118 134.46 17.5583 128.489 13.4674C122.858 9.61385 117.606 14.0431 115.614 16.9219L117.115 17.9522C118.752 15.5886 123.015 11.9219 127.46 14.9623C132.372 18.326 130.319 25.9977 129.442 29.2755C129.275 29.8967 129.169 30.3058 129.133 30.5886L130.943 30.8108H130.933Z" fill="black"/>
</g>
<path d="M106.43 42.2198L60.4753 42.6845C60.4753 42.6845 91.218 0.27033 106.43 42.2198Z" fill="#FCF4F0"/>
<ellipse cx="10.1416" cy="10.1074" rx="10.1416" ry="10.1074" transform="matrix(-1 0 0 1 101.484 33.7972)" fill="white"/>
<path d="M66.2514 57.7307C70.3476 64.2385 76.003 67.5849 83.2226 67.76C86.1105 67.83 88.5672 67.665 90.5877 67.2698C93.1146 66.7746 95.3908 65.6891 97.4113 64.0384C101.623 60.5769 104.009 55.9949 104.576 50.2774C104.726 48.7417 104.305 46.6258 103.317 43.9197C100.911 37.5169 96.4537 33.3551 89.956 31.4292C83.6187 29.5584 78.0937 30.3788 73.3758 33.8853C68.6279 37.4268 65.74 42.0088 64.7072 47.6463C64.0905 51.0177 64.6019 54.3792 66.2514 57.7357V57.7307ZM98.6697 44.0147C98.6346 43.9847 98.5845 43.9597 98.5343 43.9247C98.4391 43.8796 98.3789 43.7846 98.3889 43.6946C98.424 40.7833 97.301 38.5073 95.0298 36.8466C94.7841 36.6665 94.6237 36.4764 94.5334 36.2863C94.2827 35.7361 94.4682 35.486 95.0849 35.521C95.3406 35.541 95.6164 35.621 95.9122 35.7761C98.7248 37.2868 100.49 39.6228 101.197 42.7792C101.267 43.0643 101.222 43.3594 101.076 43.5895C100.424 44.6099 99.6223 44.75 98.6747 44.0247H98.6697V44.0197V44.0147ZM94.6588 47.6113C92.3525 48.9368 89.2791 47.8514 87.8001 45.1852C86.3311 42.524 86.9979 39.2826 89.3142 37.9671C91.6205 36.6415 94.6939 37.727 96.1729 40.3931C97.6419 43.0543 96.9751 46.2957 94.6588 47.6113Z" fill="#342838"/>
<path d="M103.316 43.9197C104.304 46.6258 104.725 48.7468 104.575 50.2774C104.013 55.9949 101.622 60.5769 97.4103 64.0384C95.3898 65.6991 93.1136 66.7746 90.5867 67.2748C88.5712 67.675 86.1145 67.8351 83.2216 67.765C76.002 67.585 70.3466 64.2385 66.2504 57.7307C66.09 59.5215 66.4259 61.2022 67.2582 62.7729L71.3894 66.0243C79.9578 70.4562 88.506 70.4562 97.0293 66.0243L98.7138 64.8338C98.9695 64.6487 99.2453 64.6037 99.4007 64.7187C99.5812 64.8438 99.5561 65.0489 99.3255 65.324C98.8141 65.9292 98.2075 66.3944 97.5005 66.7196C93.9308 69.2657 89.604 70.5763 84.5402 70.6663C79.306 70.7613 74.8388 69.4458 71.1438 66.7196L68.4113 64.7487C69.2185 67.675 71.0686 69.7959 73.9815 71.1065C78.8548 73.2974 83.8082 73.8877 88.852 72.8773C94.1364 71.8218 98.5534 69.2757 102.093 65.2439C102.253 65.0589 102.344 64.7787 102.344 64.4586C102.349 63.7833 102.574 63.128 103.026 62.4927C105.934 58.3509 107.172 54.0541 106.741 49.6071C106.54 47.5362 105.402 45.6354 103.326 43.9047V43.9197H103.316Z" fill="#B2CFD6"/>
<path d="M73.7188 76.7891C74.4357 77.4594 74.0898 78.5899 74.9421 79.2351C75.8395 79.9154 77.1581 79.6403 78.0706 79.1501C79.1385 78.5748 79.8705 77.6094 80.8381 76.9041C81.4298 76.4739 82.3021 76.9291 82.4726 77.5794C82.6631 78.2847 83.6358 79.0801 84.1873 79.5103C84.8641 80.0405 85.6563 80.4507 86.5236 80.5007C87.9876 80.5807 89.1006 79.3802 89.1006 77.9246C89.1006 77.2793 89.9028 77.1242 90.2337 77.6144C90.5797 78.1296 90.7652 78.4848 90.7251 79.1451C90.69 79.7403 90.5095 80.3106 90.1836 80.8058C89.5218 81.8113 88.504 82.4465 87.3258 82.6066C86.0674 82.7767 84.7638 82.4315 83.6809 81.7612C83.1444 81.4311 82.6581 81.0059 82.2219 80.5507C81.9712 80.2856 81.7356 80.0055 81.505 79.7203C81.4899 79.7003 81.4749 79.6803 81.4598 79.6603C80.1613 81.0659 78.2461 82.0664 76.4512 82.1664C74.2452 82.2865 71.6732 80.6157 71.6732 78.1497C71.6732 77.0992 72.7411 75.8987 73.7137 76.8041L73.7188 76.7891Z" fill="#342838"/>
<path d="M113.911 71.2616C110.713 71.2616 108.115 69.5059 108.115 67.3399C108.115 65.174 110.708 63.4182 113.911 63.4182C117.115 63.4182 119.707 65.174 119.707 67.3399C119.707 69.5059 117.115 71.2616 113.911 71.2616Z" fill="#EFBDA0"/>
<path d="M112.393 62.4478C112.523 62.2827 112.719 62.2327 112.924 62.2727C113.215 62.3227 113.461 62.4828 113.706 62.6279C113.937 62.7629 114.147 62.933 114.358 63.0931C114.599 63.2682 114.834 63.4582 115.045 63.6633C115.135 63.7534 115.23 63.8384 115.321 63.9334C115.471 64.0885 115.531 64.2736 115.531 64.4887C115.531 64.6638 115.406 64.8138 115.24 64.8638C115.04 64.9189 114.844 64.9139 114.654 64.8238C114.539 64.7688 114.428 64.6988 114.313 64.6388C114.077 64.5087 113.852 64.3636 113.641 64.2036C113.405 64.0235 113.145 63.8584 112.929 63.6583C112.714 63.4632 112.483 63.2682 112.353 63.003C112.262 62.818 112.262 62.6229 112.393 62.4528V62.4478Z" fill="#342838"/>
</g>
<path d="M172.687 100.746C171.842 94.2726 135.645 48.7045 97.6839 100.746C97.6839 100.746 76.5131 90.2016 66.5858 110.793C-42.4791 108.076 10.5336 225.522 80.7637 176.496C103.82 215.638 172.781 186.426 177.157 163.792C209.273 213.582 271.981 135.027 198.492 121.171C202.296 103.19 183.574 93.7443 172.632 100.719L172.687 100.746Z" fill="#175E84"/>
<path d="M184.772 145.347C176.326 191.069 121.612 185.528 96.8898 162.602C77.359 198.006 3.3337 152.103 19.7376 121.202C-17.74 134.77 10.6155 216.495 81.3133 177.326C100.736 211.612 165.842 191.652 177.557 165.32C177.557 165.32 207.091 198.075 229.578 158.725C212.586 164.585 200.246 166.53 184.772 145.347Z" fill="#013451"/>
<path d="M75.9806 101.434C75.6518 110.418 81.1961 115.424 89.0625 116.594C89.0625 116.594 81.5157 126.217 80.1658 129.895C79.1857 119.615 67.0286 110.13 67.0286 110.13C67.0286 110.13 69.6256 102.377 75.9806 101.434Z" fill="#013451"/>
<path d="M177.68 168.913C211.543 211.132 274.772 138.89 200.194 120.064C202.441 105.097 187.488 93.0234 173.072 98.975C159.515 63.8691 113.699 70.1244 97.0273 98.9473C84.9451 94.0251 71.9323 97.3372 65.7646 109.215C-45.4094 96.5133 3.25478 232.387 80.1619 179.07C93.3977 208.229 169.086 197.985 177.68 168.913ZM177.276 148.907C173.767 155.258 175.011 162.142 175.455 164.85C173.674 184.908 100.623 216.23 81.588 173.175C15.4937 223.977 -42.6234 106.641 67.0216 112.432C69.3912 113.166 73.8219 116.436 76.09 119.864C74.4021 112.744 68.1455 110.61 68.1455 110.61C74.244 99.4285 85.0378 96.8823 96.0013 101.516C96.0013 101.516 92.5828 107.343 93.3209 116.084C95.2244 108.353 96.0013 106.567 99.2638 100.899C121.065 66.0119 159.374 73.9671 172.195 102.075C179.93 100.96 189.121 98.389 194.655 106.641C201.671 117.049 196.614 126.674 191.96 134.121C197.545 129.699 199.179 122.776 199.179 122.776C260.912 131.76 213.289 205.616 179.452 164.052C177.521 161.681 177.033 153.532 177.276 148.907Z" fill="#002039"/>
<defs>
<clipPath id="clip0_883_1525">
<rect width="184" height="167" fill="white" transform="matrix(-1 0 0 1 200.895 0.851196)"/>
</clipPath>
</defs>
</svg>
